<svg width="22" height="22" viewBox="0 0 22 22" fill="none" xmlns="http://www.w3.org/2000/svg">
<circle cx="11" cy="15" r="3" stroke="#030303" stroke-width="1.5"/>
<path d="M11 18.2602L8.73713 20.4297C8.41306 20.7403 8.25102 20.8957 8.1138 20.9494C7.80111 21.0719 7.45425 20.9671 7.28977 20.7004C7.21758 20.5834 7.19509 20.3722 7.1501 19.95C7.1247 19.7116 7.112 19.5924 7.07345 19.4926C6.98715 19.2691 6.80579 19.0952 6.57266 19.0125C6.46853 18.9755 6.3442 18.9633 6.09553 18.939C5.65512 18.8959 5.43491 18.8743 5.31283 18.8051C5.03463 18.6474 4.92529 18.3149 5.05306 18.0151C5.10913 17.8835 5.27116 17.7282 5.59523 17.4175L7.07345 16.0003L8.1138 14.96" stroke="#030303" stroke-width="1.5"/>
<path d="M11 18.2597L13.2629 20.4291C13.5869 20.7398 13.749 20.8952 13.8862 20.9489C14.1989 21.0714 14.5457 20.9666 14.7102 20.6999C14.7824 20.5828 14.8049 20.3717 14.8499 19.9495C14.8753 19.7111 14.888 19.5919 14.9265 19.4921C15.0129 19.2686 15.1942 19.0947 15.4273 19.012C15.5315 18.975 15.6558 18.9628 15.9045 18.9385C16.3449 18.8953 16.5651 18.8738 16.6872 18.8046C16.9654 18.6469 17.0747 18.3143 16.9469 18.0146C16.8909 17.883 16.7288 17.7277 16.4048 17.417L14.9265 15.9998L14 15.0732" stroke="#030303" stroke-width="1.5"/>
<path d="M16.3197 16.9957C18.2921 16.9748 19.3915 16.8512 20.1213 16.1213C21 15.2426 21 13.8284 21 11V7C21 4.17157 21 2.75736 20.1213 1.87868C19.2426 1 17.8284 1 15 1L7 1C4.17157 1 2.75736 1 1.87868 1.87868C1 2.75736 1 4.17157 1 7L1 11C1 13.8284 1 15.2426 1.87868 16.1213C2.64706 16.8897 3.82497 16.9862 6 16.9983" stroke="#030303" stroke-width="1.5"/>
<path d="M8 5L14 5" stroke="#030303" stroke-width="1.5" stroke-linecap="round"/>
<path d="M6 8.5H16" stroke="#030303" stroke-width="1.5" stroke-linecap="round"/>
</svg>
