<svg width="24" height="25" viewBox="0 0 24 25" fill="none" xmlns="http://www.w3.org/2000/svg">
<path d="M23.7581 12.9021C23.4456 12.2873 23.4456 11.6926 23.7682 11.1079C23.8186 11.0071 23.869 10.8862 23.8992 10.7551C24.1411 9.79756 23.8992 8.9811 23.1936 8.34607C22.6795 7.8824 22.4578 7.34817 22.5183 6.70307C22.5384 6.45107 22.5082 6.17892 22.4175 5.89668C22.1756 5.10038 21.6816 4.58631 20.9559 4.33431C20.2906 4.10248 19.8673 3.67913 19.6758 3.0441C19.6052 2.80218 19.4742 2.58043 19.2827 2.35867C18.7887 1.77404 18.184 1.48173 17.4683 1.48173C17.4179 1.48173 17.3675 1.48173 17.307 1.48173C16.6317 1.52205 16.0874 1.30029 15.6741 0.796304C15.4624 0.544309 15.1802 0.342713 14.7871 0.171357C14.7266 0.141117 14.6661 0.131037 14.5955 0.110878C14.4948 0.0907182 14.394 0.0604788 14.2932 0H13.5573C13.2348 0.050399 12.8316 0.110878 12.4586 0.272155C12.1663 0.393112 11.8438 0.393112 11.5514 0.272155C11.1684 0.110878 10.7753 0.0403192 10.4427 0L9.66653 0.0100798C9.62621 0.0403192 9.57581 0.0403192 9.53549 0.050399C9.07182 0.0705586 8.67871 0.272155 8.28559 0.685426C8.12432 0.866863 7.9832 0.98782 7.84208 1.08862C7.47921 1.35069 7.06594 1.36077 6.67283 1.36077C6.66275 1.36077 6.65267 1.36077 6.64259 1.36077H6.60227C5.50357 1.36077 4.59639 1.98572 4.22344 2.98362C3.98152 3.63881 3.57833 4.042 2.96346 4.23352C2.72155 4.31415 2.47963 4.45527 2.2478 4.65687C1.61277 5.22134 1.31037 5.92692 1.35069 6.75347C1.38093 7.36833 1.17934 7.86224 0.725746 8.25536C0.262075 8.65855 0.0403192 9.0819 0.0302394 9.56573C0.0302394 9.58589 0.0302394 9.63629 0 9.67661V10.5031C0.0705586 10.9366 0.161277 11.2793 0.282234 11.5817C0.393112 11.8538 0.393112 12.1663 0.282234 12.4385C0.161277 12.7409 0.0705586 13.0836 0 13.5271V14.3234C0.050399 14.3637 0.0705586 14.4343 0.0806384 14.4746C0.0806384 14.4847 0.0806384 14.4948 0.0907182 14.5048C0.211676 14.9887 0.463671 15.4019 0.826544 15.7144C1.30029 16.1176 1.50189 16.6216 1.48173 17.2969C1.44141 18.4561 2.01596 19.3129 3.10458 19.7161C3.69929 19.9378 4.08232 20.3108 4.29399 20.9055C4.69719 21.974 5.49349 22.5384 6.60227 22.5384C6.64259 22.5384 6.68291 22.5384 6.72323 22.5384C6.75347 22.5384 6.7837 22.5384 6.81394 22.5384C7.40865 22.5384 7.8824 22.7501 8.29567 23.1936C9.09198 24.0504 10.0697 24.2419 11.1281 23.7581C11.4204 23.627 11.7026 23.5565 11.995 23.5565C12.2873 23.5565 12.5796 23.627 12.882 23.7782C13.8698 24.252 14.9685 24.0302 15.6942 23.2037C16.1277 22.7098 16.6417 22.4981 17.2465 22.5485C17.5892 22.5788 17.942 22.5283 18.2747 22.3973C19.0004 22.1151 19.4742 21.5909 19.7463 20.8047C19.9177 20.3108 20.2503 19.9681 20.7644 19.7766L20.7946 19.7665C20.9559 19.706 21.1273 19.6455 21.2785 19.5548C22.1151 19.071 22.5384 18.3251 22.5284 17.3473C22.5284 17.2969 22.5284 17.2566 22.5284 17.2062C22.5183 17.0449 22.5183 16.8837 22.5586 16.7123C22.6493 16.3394 22.8307 16.037 23.1029 15.795C23.4759 15.4725 23.7278 15.1096 23.869 14.7064C24.0706 14.0613 24.0403 13.4565 23.7581 12.9021ZM22.9618 13.0735C23.3751 13.9605 23.2541 14.5653 22.5384 15.2205C21.9538 15.7547 21.6917 16.3998 21.732 17.176C21.7724 18.1537 21.4297 18.6678 20.4922 19.0105C19.7766 19.2726 19.2726 19.7766 19.0105 20.5023C18.6678 21.4297 18.1537 21.7724 17.176 21.732C16.3998 21.6917 15.7648 21.9538 15.2306 22.5284C14.5451 23.2642 13.9504 23.3851 13.0433 22.9618C12.3578 22.6392 11.6623 22.6392 10.9668 22.9618C10.6241 23.1231 10.3217 23.2037 10.0395 23.2037C9.58589 23.2037 9.20286 22.9819 8.7795 22.5284C8.25535 21.9639 7.64049 21.7018 6.86434 21.732C6.81394 21.732 6.76354 21.732 6.71315 21.732C5.81604 21.732 5.33221 21.3793 4.99958 20.4922C4.72743 19.7665 4.23352 19.2726 3.50777 19.0105C2.59051 18.6779 2.23772 18.1436 2.27803 17.176C2.30827 16.3998 2.0462 15.7547 1.46157 15.2205C0.745905 14.5653 0.635027 13.9605 1.03822 13.0735C1.37085 12.3578 1.37085 11.6623 1.03822 10.9467C0.624947 10.0596 0.745905 9.45485 1.46157 8.79966C2.0462 8.26544 2.30827 7.62033 2.26795 6.84418C2.22764 5.85636 2.58043 5.34229 3.50777 4.99958C4.2436 4.73751 4.72743 4.2436 4.99958 3.51785C5.32213 2.64091 5.79588 2.27803 6.68291 2.27803C6.73331 2.27803 6.7837 2.27803 6.8341 2.27803C6.87442 2.27803 6.92482 2.27803 6.96514 2.27803C7.69089 2.27803 8.28559 2.00588 8.78959 1.46157C9.44477 0.745905 10.0496 0.635027 10.9366 1.03822C11.6522 1.37085 12.3377 1.37085 13.0533 1.03822C13.9404 0.624947 14.5351 0.745905 15.2003 1.46157C15.7043 2.00588 16.299 2.27803 17.0248 2.27803C17.0651 2.27803 17.1155 2.27803 17.1659 2.27803C17.2163 2.27803 17.2667 2.27803 17.3171 2.27803C18.194 2.27803 18.6678 2.64091 19.0004 3.51785C19.2625 4.23352 19.7665 4.73751 20.4922 4.99958C21.4196 5.34229 21.7623 5.85636 21.722 6.8341C21.6917 7.62033 21.9538 8.25536 22.5384 8.78959C23.2541 9.44477 23.3751 10.0496 22.9618 10.9366C22.6291 11.6623 22.6291 12.3578 22.9618 13.0735Z" fill="#030303" fill-opacity="0.5"/>
<path d="M13.4262 3.48752C14.3032 3.62864 15.1599 3.92095 16.047 4.36446C16.178 4.42494 16.309 4.4451 16.4199 4.40478C16.5106 4.37454 16.5913 4.30399 16.6316 4.20319C16.7324 3.99151 16.6417 3.76976 16.3998 3.6488C15.039 2.93313 13.5875 2.57026 12.0957 2.56018C12.0755 2.56018 12.0554 2.56018 12.0251 2.56018C9.77733 2.56018 7.77145 3.26577 6.07805 4.6467C3.81009 6.50138 2.62068 8.98101 2.54004 12.015C2.54004 12.8416 2.661 13.6883 2.88275 14.535C3.00371 14.9886 3.17507 15.4522 3.38674 15.9159C3.49762 16.1578 3.69922 16.2485 3.91089 16.1679C4.12257 16.0873 4.20321 15.8655 4.13265 15.6337C4.11249 15.553 4.07217 15.4825 4.04193 15.4119C4.03185 15.3817 4.01169 15.3514 4.00161 15.3111C3.32626 13.6782 3.17507 11.9646 3.53794 10.241C4.5056 5.695 8.84999 2.73154 13.4262 3.48752Z" fill="#030303" fill-opacity="0.5"/>
<path d="M20.3411 7.56983C20.2 7.29767 19.9783 7.20695 19.7565 7.31783C19.5448 7.42871 19.4944 7.65047 19.6154 7.92262C19.6456 7.9831 19.6759 8.04358 19.7061 8.11414C19.7364 8.17462 19.7666 8.22501 19.7868 8.28549C20.6536 10.12 20.8552 12.0553 20.3815 14.0209C19.9077 16.0268 18.8292 17.6698 17.1962 18.9096C15.4524 20.2301 13.4466 20.8147 11.2492 20.6332C10.3621 20.5627 9.4852 20.3409 8.56794 19.9579C8.4873 19.9277 8.40666 19.9075 8.3361 19.9075C8.27563 19.9075 8.22523 19.9176 8.17483 19.9377C8.08411 19.9781 8.01355 20.0486 7.97323 20.1494C7.88251 20.3712 7.99339 20.5829 8.26555 20.6937C9.4852 21.2179 10.7956 21.49 12.0455 21.4598C14.3941 21.3892 16.3193 20.6937 17.922 19.343C20.7544 16.9541 21.8733 13.8697 21.2483 10.1704C21.1173 9.30355 20.8149 8.45685 20.3411 7.56983Z" fill="#030303" fill-opacity="0.5"/>
<path d="M5.59418 18.0125C5.3825 18.0125 5.19098 18.1939 5.20106 18.4056C5.20106 18.6173 5.40266 18.8189 5.61434 18.8189C5.71513 18.8189 5.82601 18.7786 5.89657 18.6979C5.97721 18.6173 6.01753 18.5165 6.00745 18.4157C6.00745 18.1939 5.81593 18.0125 5.59418 18.0125Z" fill="#030303" fill-opacity="0.5"/>
<path d="M18.8088 5.62445C18.8088 5.52366 18.7685 5.42286 18.6778 5.34222C18.5971 5.26158 18.4963 5.21118 18.3956 5.21118C18.1738 5.21118 18.0024 5.39262 18.0024 5.60429C18.0024 5.71517 18.0428 5.81597 18.1234 5.88653C18.204 5.96717 18.3048 6.00749 18.4056 6.00749C18.6274 6.00749 18.8088 5.83613 18.8088 5.62445Z" fill="#030303" fill-opacity="0.5"/>
<path d="M9.81773 16.813C10.3217 17.0146 10.8257 17.1255 11.3297 17.1255H12.005C13.1037 17.1255 14.2428 17.1255 15.3616 17.1255C15.785 17.1255 16.1478 16.9541 16.3797 16.6517C16.6115 16.3493 16.6922 15.9461 16.5813 15.5329C16.541 15.3615 16.6115 15.301 16.7022 15.2406C17.1961 14.9079 17.3877 14.4039 17.2365 13.8294C17.1961 13.6782 17.2465 13.5975 17.3473 13.527C17.7102 13.2548 17.9219 12.8718 17.9118 12.4787C17.9017 12.0654 17.68 11.6824 17.2869 11.4203C17.1861 11.3598 17.1357 11.2893 17.1659 11.1381C17.2566 10.6946 17.1861 10.2914 16.9441 9.99906C16.7022 9.70674 16.3192 9.54547 15.8656 9.53539C15.4423 9.53539 15.0189 9.53539 14.5956 9.53539H13.8396L13.9202 9.28339C13.9605 9.16244 13.9908 9.05156 14.0311 8.94068C14.3637 7.75126 13.7287 6.49129 12.5796 6.06794C12.2268 5.9369 12.0454 6.02762 11.9143 6.38041C11.8639 6.53161 11.8034 6.67273 11.743 6.82392C11.6019 7.19687 11.4507 7.57991 11.3398 7.97302C11.0979 8.7794 10.5536 9.37411 9.68669 9.7773C9.57581 9.81762 9.49518 9.80754 9.40446 9.73698C9.2331 9.60595 9.02143 9.53539 8.76943 9.53539C8.50736 9.53539 8.25536 9.53539 7.99329 9.53539C7.83201 9.53539 7.68081 9.53539 7.51954 9.53539C7.2877 9.53539 7.06594 9.53539 6.83411 9.53539C6.21924 9.54547 5.80597 9.95874 5.79589 10.5635C5.78581 12.3981 5.78581 14.2628 5.79589 16.0973C5.79589 16.692 6.20916 17.1154 6.80387 17.1154C7.32802 17.1255 7.85217 17.1154 8.36624 17.1154H8.77951C9.05166 17.1154 9.27342 17.0348 9.44478 16.8735C9.58589 16.7525 9.69677 16.7626 9.81773 16.813ZM9.80765 13.275V12.5996C9.80765 12.015 9.80765 11.4304 9.80765 10.8458C9.80765 10.6744 9.86813 10.5736 10.0193 10.493L10.0899 10.4526C10.4628 10.2611 10.8559 10.0495 11.1684 9.75714C11.5515 9.39427 11.8337 8.96084 12.0151 8.43669C12.0655 8.29557 12.1159 8.16454 12.1663 8.02342C12.2671 7.76134 12.3578 7.48919 12.4486 7.21703C12.4788 7.1364 12.509 7.05576 12.5897 7.0356C12.6703 7.01544 12.7409 7.07592 12.8014 7.1364C13.2549 7.55975 13.4061 8.07382 13.265 8.65845C13.2045 8.90036 13.1239 9.14228 13.0433 9.37411C13.0029 9.48499 12.9626 9.60595 12.9223 9.71682C12.8618 9.90834 12.8719 10.0595 12.9525 10.1704C13.0332 10.2813 13.1743 10.3317 13.3759 10.3317C13.8396 10.3317 14.2932 10.3317 14.7468 10.3317H15.8354C15.8757 10.3317 15.9261 10.3317 15.9765 10.3317C16.2386 10.3519 16.42 10.5232 16.4301 10.7651C16.4402 11.0272 16.2486 11.2086 15.9664 11.2187C15.7648 11.2187 15.5531 11.2187 15.3515 11.2187C15.2507 11.2187 15.1499 11.2187 15.0491 11.2187H14.908C14.7971 11.2187 14.6863 11.2187 14.5855 11.2187C14.3335 11.2288 14.1621 11.3901 14.152 11.6118C14.152 11.8336 14.3234 11.9949 14.5754 12.015C14.6157 12.015 14.656 12.015 14.6964 12.015H14.7568H15.4221C15.8152 12.015 16.1982 12.015 16.5914 12.015C16.7425 12.015 16.8736 12.0553 16.9643 12.136C17.055 12.2166 17.1054 12.3275 17.1054 12.4585C17.1054 12.7307 16.9038 12.902 16.5813 12.902C16.289 12.902 15.9966 12.902 15.7043 12.902C15.3314 12.902 14.9584 12.902 14.5855 12.902C14.4544 12.902 14.3335 12.9524 14.2528 13.0331C14.1823 13.1036 14.142 13.2044 14.152 13.3052C14.152 13.527 14.3234 13.6883 14.5855 13.6983C14.6258 13.6983 14.656 13.6983 14.6964 13.6983H14.7468H15.9362C15.9765 13.6983 16.0269 13.6983 16.0672 13.6983C16.3091 13.7286 16.4906 13.8999 16.5006 14.1318C16.5107 14.3737 16.3192 14.5753 16.0672 14.5854C15.9059 14.5954 15.7447 14.5954 15.5834 14.5954C15.5128 14.5954 15.4423 14.5954 15.3717 14.5954H15.1399C14.9685 14.5954 14.7971 14.5954 14.6157 14.5954C14.3335 14.5954 14.142 14.7567 14.142 14.9886C14.142 15.2204 14.3234 15.3817 14.6056 15.3918C14.7266 15.3918 14.8576 15.3918 14.9786 15.3918C15.0794 15.3918 15.1802 15.3918 15.2911 15.3918C15.6237 15.3918 15.8354 15.5631 15.8354 15.8453C15.8354 16.1175 15.6237 16.2889 15.2911 16.2889C14.6359 16.2889 13.9908 16.2889 13.3356 16.2889C12.6804 16.2889 12.0353 16.2889 11.3801 16.2889C10.9567 16.2889 10.5233 16.1981 10.0496 16.0167C9.86813 15.9461 9.79757 15.8554 9.80765 15.6639C9.81773 15.0793 9.81773 14.4745 9.80765 13.8999V13.275ZM8.93071 16.2485C8.88031 16.2989 8.79967 16.3292 8.66863 16.3292C8.65855 16.3292 8.65855 16.3292 8.64847 16.3292C8.1344 16.3191 7.56993 16.3191 6.93491 16.3292C6.85427 16.3292 6.74339 16.3191 6.67283 16.2485C6.62243 16.1981 6.59219 16.1175 6.59219 15.9965C6.60227 14.414 6.60227 12.7105 6.59219 10.6442C6.59219 10.5635 6.60227 10.4627 6.67283 10.4023C6.72323 10.3519 6.79379 10.3317 6.89459 10.3317C7.54978 10.3418 8.14448 10.3418 8.70895 10.3317C8.70895 10.3317 8.70895 10.3317 8.71903 10.3317C8.81983 10.3317 8.89039 10.3519 8.93071 10.4023C8.99119 10.4627 9.00127 10.5635 9.00127 10.6442C9.00127 11.2994 9.00127 11.9445 9.00127 12.5996V13.3355V14.0511C9.00127 14.6761 9.00127 15.3313 9.00127 15.9663C9.01135 16.1074 8.99119 16.1881 8.93071 16.2485Z" fill="#030303" fill-opacity="0.5"/>
</svg>
