<svg width="20" height="20" viewBox="0 0 20 20" fill="none" xmlns="http://www.w3.org/2000/svg">
<path d="M20 9.41371C20 9.80595 20 10.1982 20 10.5821C19.9916 10.6488 19.9749 10.724 19.9666 10.7907C19.9081 11.2247 19.8664 11.6586 19.7745 12.0843C19.2485 14.4878 18.021 16.449 16.0587 17.9345C13.6287 19.7788 10.8815 20.388 7.8921 19.7621C5.50393 19.2614 3.55831 18.0096 2.07196 16.0818C0.468712 13.9954 -0.19931 11.6169 0.051198 9.00478C0.259955 6.88503 1.07828 5.01564 2.48948 3.4133C4.03428 1.66075 5.97154 0.567493 8.27622 0.158564C8.65198 0.0918004 9.03609 0.0500729 9.41185 0C9.80432 0 10.1968 0 10.5809 0C10.631 0.00834549 10.6811 0.0250365 10.7312 0.0333819C12.2927 0.141873 13.7623 0.592529 15.0984 1.41039C17.687 2.99603 19.2819 5.28269 19.8413 8.27872C19.9165 8.65427 19.9499 9.03816 20 9.41371ZM9.99637 1.56061C5.33692 1.56061 1.55425 5.34111 1.5459 9.99789C1.53755 14.6547 5.32022 18.4352 9.97967 18.4435C14.6391 18.4602 18.4468 14.6547 18.4385 9.99789C18.4385 5.34111 14.6558 1.56061 9.99637 1.56061Z" fill="#4DDA65"/>
<path d="M9.2198 10.7073C8.39312 10.7073 7.59149 10.7073 6.78987 10.7073C6.55606 10.7073 6.32225 10.7156 6.08844 10.7073C5.67928 10.6906 5.37032 10.3651 5.35362 9.96454C5.33692 9.5723 5.62083 9.23848 6.02164 9.18006C6.1135 9.16337 6.20535 9.16337 6.2972 9.16337C7.19068 9.16337 8.08416 9.16337 8.96929 9.16337C9.04444 9.16337 9.11959 9.16337 9.2198 9.16337C9.2198 9.07992 9.2198 9.00481 9.2198 8.93804C9.2198 8.01169 9.2198 7.077 9.2198 6.15065C9.2198 5.73338 9.4369 5.43294 9.77927 5.33279C10.297 5.19092 10.7646 5.55812 10.7729 6.12561C10.7813 7.05196 10.7729 7.96997 10.7729 8.89632C10.7729 8.97977 10.7729 9.06323 10.7729 9.16337C10.8732 9.16337 10.9483 9.16337 11.0235 9.16337C11.942 9.16337 12.8605 9.16337 13.779 9.16337C14.1966 9.16337 14.4805 9.34697 14.5974 9.67245C14.7811 10.1815 14.4137 10.7073 13.8542 10.7073C12.9273 10.7156 12.0088 10.7073 11.0819 10.7073C10.9901 10.7073 10.8982 10.7073 10.7729 10.7073C10.7729 10.7824 10.7729 10.8492 10.7729 10.9159C10.7729 11.859 10.7729 12.802 10.7729 13.745C10.7729 14.2124 10.464 14.5546 10.0381 14.5712C9.56216 14.5879 9.2198 14.2458 9.2198 13.7284C9.2198 12.802 9.2198 11.8673 9.2198 10.941C9.2198 10.8742 9.2198 10.7991 9.2198 10.7073Z" fill="#4DDA65"/>
</svg>
