<svg width="24" height="24" viewBox="0 0 24 24" fill="none" xmlns="http://www.w3.org/2000/svg">
<circle cx="12" cy="12" r="12" fill="#E1E1E1"/>
<path d="M10.1779 13.2092C9.02819 13.2092 7.91334 13.2092 6.79848 13.2092C6.47331 13.2092 6.14814 13.2208 5.82298 13.2092C5.25393 13.1859 4.82425 12.7322 4.80102 12.1737C4.7778 11.6269 5.17264 11.1615 5.73007 11.08C5.85782 11.0568 5.98556 11.0568 6.1133 11.0568C7.35591 11.0568 8.59851 11.0568 9.8295 11.0568C9.93402 11.0568 10.0385 11.0568 10.1779 11.0568C10.1779 10.9404 10.1779 10.8357 10.1779 10.7426C10.1779 9.45117 10.1779 8.14808 10.1779 6.85662C10.1779 6.27488 10.4798 5.85603 10.956 5.71642C11.676 5.51862 12.3263 6.03055 12.3379 6.82172C12.3495 8.11317 12.3379 9.393 12.3379 10.6845C12.3379 10.8008 12.3379 10.9172 12.3379 11.0568C12.4773 11.0568 12.5818 11.0568 12.6863 11.0568C13.9638 11.0568 15.2412 11.0568 16.5186 11.0568C17.0993 11.0568 17.4941 11.3127 17.6567 11.7665C17.9122 12.4762 17.4012 13.2092 16.6232 13.2092C15.3341 13.2208 14.0567 13.2092 12.7676 13.2092C12.6399 13.2092 12.5121 13.2092 12.3379 13.2092C12.3379 13.3139 12.3379 13.407 12.3379 13.5001C12.3379 14.8148 12.3379 16.1295 12.3379 17.4442C12.3379 18.0958 11.9082 18.5728 11.316 18.5961C10.654 18.6194 10.1779 18.1423 10.1779 17.421C10.1779 16.1295 10.1779 14.8264 10.1779 13.535C10.1779 13.4419 10.1779 13.3372 10.1779 13.2092Z" fill="#030303"/>
</svg>
