<svg width="27" height="24" viewBox="0 0 27 24" fill="none" xmlns="http://www.w3.org/2000/svg">
<path d="M15.0206 1.68994H8.02057C7.90653 1.68994 7.79716 1.73525 7.71652 1.81589C7.63588 1.89653 7.59058 2.00589 7.59058 2.11993C7.59058 2.23398 7.63588 2.34334 7.71652 2.42398C7.79716 2.50462 7.90653 2.54993 8.02057 2.54993H15.0206C15.1346 2.54993 15.244 2.50462 15.3246 2.42398C15.4053 2.34334 15.4506 2.23398 15.4506 2.11993C15.4506 2.00589 15.4053 1.89653 15.3246 1.81589C15.244 1.73525 15.1346 1.68994 15.0206 1.68994Z" fill="#030303" fill-opacity="0.5"/>
<path d="M17.1304 0C17.0164 0 16.907 0.0453054 16.8264 0.125946C16.7457 0.206587 16.7004 0.31595 16.7004 0.429993V3.78C16.7004 3.83601 16.7116 3.89146 16.7333 3.94308C16.7551 3.9947 16.7869 4.04143 16.827 4.08057C16.867 4.1197 16.9145 4.15045 16.9666 4.17096C17.0188 4.19147 17.0744 4.20135 17.1304 4.20001C17.2428 4.20004 17.3507 4.1561 17.431 4.07761C17.5114 3.99912 17.5578 3.8923 17.5605 3.78V0.429993C17.5605 0.31595 17.5151 0.206587 17.4345 0.125946C17.3539 0.0453054 17.2445 0 17.1304 0Z" fill="#030303" fill-opacity="0.5"/>
<path d="M6.02057 0C5.90653 0 5.79716 0.0453054 5.71652 0.125946C5.63588 0.206587 5.59058 0.31595 5.59058 0.429993V3.78C5.59319 3.8923 5.63964 3.99912 5.72 4.07761C5.80036 4.1561 5.90824 4.20004 6.02057 4.20001C6.07656 4.20135 6.13224 4.19147 6.18436 4.17096C6.23647 4.15045 6.28397 4.1197 6.32404 4.08057C6.3641 4.04143 6.39593 3.9947 6.41766 3.94308C6.43939 3.89146 6.45058 3.83601 6.45056 3.78V0.429993C6.45056 0.31595 6.40526 0.206587 6.32462 0.125946C6.24397 0.0453054 6.13461 0 6.02057 0Z" fill="#030303" fill-opacity="0.5"/>
<path d="M19.9405 6.94995H3.2005C3.08646 6.94995 2.97709 6.99523 2.89645 7.07587C2.81581 7.15651 2.77051 7.2659 2.77051 7.37994C2.77051 7.49399 2.81581 7.60335 2.89645 7.68399C2.97709 7.76463 3.08646 7.80994 3.2005 7.80994H19.9305C20.0455 7.80997 20.1559 7.765 20.2382 7.68463C20.3204 7.60427 20.3679 7.4949 20.3705 7.37994C20.368 7.2667 20.3219 7.1588 20.2418 7.0787C20.1617 6.99861 20.0538 6.9525 19.9405 6.94995Z" fill="#030303" fill-opacity="0.5"/>
<path d="M16.0205 10.3401H3.2005C3.08646 10.3401 2.97709 10.3854 2.89645 10.466C2.81581 10.5467 2.77051 10.656 2.77051 10.7701C2.77051 10.8841 2.81581 10.9935 2.89645 11.0742C2.97709 11.1548 3.08646 11.2001 3.2005 11.2001H16.0205C16.1346 11.2001 16.2439 11.1548 16.3246 11.0742C16.4052 10.9935 16.4505 10.8841 16.4505 10.7701C16.4505 10.656 16.4052 10.5467 16.3246 10.466C16.2439 10.3854 16.1346 10.3401 16.0205 10.3401Z" fill="#030303" fill-opacity="0.5"/>
<path d="M10.4505 13.6699H3.2005C3.08646 13.6699 2.97709 13.7152 2.89645 13.7958C2.81581 13.8765 2.77051 13.9859 2.77051 14.0999C2.77051 14.1564 2.78164 14.2123 2.80325 14.2645C2.82486 14.3166 2.85652 14.364 2.89645 14.404C2.93638 14.4439 2.98378 14.4756 3.03595 14.4972C3.08812 14.5188 3.14403 14.5299 3.2005 14.5299H10.4505C10.5637 14.5274 10.6716 14.4812 10.7517 14.4012C10.8318 14.3211 10.8779 14.2132 10.8805 14.0999C10.8805 13.9859 10.8352 13.8765 10.7546 13.7958C10.6739 13.7152 10.5645 13.6699 10.4505 13.6699Z" fill="#030303" fill-opacity="0.5"/>
<path d="M25.5705 15.6401C25.0298 14.5994 24.1812 13.7508 23.1405 13.2101V2.10008C23.1418 2.04672 23.1325 1.99361 23.113 1.94392C23.0935 1.89423 23.0642 1.84895 23.0269 1.81075C22.9897 1.77254 22.9451 1.74218 22.8959 1.72145C22.8467 1.70073 22.7939 1.69006 22.7405 1.69008H18.8205C18.7065 1.69008 18.5971 1.73538 18.5165 1.81603C18.4358 1.89667 18.3905 2.00603 18.3905 2.12007C18.3905 2.23412 18.4358 2.34348 18.5165 2.42412C18.5971 2.50476 18.7065 2.55006 18.8205 2.55006H22.2805V12.8401C21.701 12.6434 21.0925 12.5454 20.4805 12.5501C19.5753 12.5483 18.6827 12.7618 17.8762 13.1729C17.0697 13.584 16.3726 14.1809 15.8422 14.9144C15.3118 15.648 14.9634 16.4971 14.8258 17.3918C14.6881 18.2864 14.7652 19.201 15.0505 20.0601H0.860505V2.55006H3.7605C3.87454 2.55006 3.98394 2.50476 4.06458 2.42412C4.14522 2.34348 4.19052 2.23412 4.19052 2.12007C4.19052 2.00603 4.14522 1.89667 4.06458 1.81603C3.98394 1.73538 3.87454 1.69008 3.7605 1.69008H0.410524C0.306097 1.68734 0.20473 1.72554 0.128114 1.79656C0.0514977 1.86757 0.00570728 1.96575 0.000520079 2.07008V20.5101C-0.00216769 20.5621 0.00558026 20.6142 0.0233472 20.6632C0.0411142 20.7122 0.0685208 20.7571 0.103944 20.7953C0.139367 20.8335 0.182085 20.8643 0.229585 20.8857C0.277085 20.9071 0.328399 20.9188 0.380494 20.9201H15.3805C15.7272 21.5865 16.2018 22.1782 16.7771 22.6612C17.3524 23.1443 18.0173 23.5093 18.7337 23.7354C19.4501 23.9615 20.204 24.0443 20.9524 23.979C21.7008 23.9138 22.4291 23.7018 23.0955 23.3551C23.762 23.0084 24.3536 22.5338 24.8367 21.9585C25.3197 21.3831 25.6847 20.7183 25.9108 20.0019C26.1369 19.2855 26.2197 18.5316 26.1545 17.7832C26.0892 17.0348 25.8772 16.3065 25.5305 15.6401H25.5705ZM20.4905 23.1501C19.5273 23.1501 18.5858 22.8645 17.7849 22.3293C16.984 21.7942 16.3598 21.0336 15.9912 20.1438C15.6226 19.2539 15.5262 18.2747 15.7141 17.33C15.902 16.3853 16.3658 15.5176 17.0469 14.8365C17.728 14.1554 18.5957 13.6916 19.5404 13.5036C20.4851 13.3157 21.4643 13.4122 22.3542 13.7808C23.2441 14.1494 24.0046 14.7736 24.5398 15.5744C25.0749 16.3753 25.3605 17.3169 25.3605 18.2801C25.3605 19.5717 24.8474 20.8104 23.9341 21.7237C23.0208 22.637 21.7821 23.1501 20.4905 23.1501Z" fill="#030303" fill-opacity="0.5"/>
<path d="M23.0706 18.12H20.9406V15.21C20.9406 15.096 20.8953 14.9866 20.8146 14.906C20.734 14.8253 20.6246 14.78 20.5106 14.78C20.3965 14.78 20.2872 14.8253 20.2065 14.906C20.1259 14.9866 20.0806 15.096 20.0806 15.21V18.55C20.0779 18.6047 20.0862 18.6593 20.105 18.7108C20.1237 18.7622 20.1526 18.8093 20.1899 18.8494C20.2272 18.8895 20.2721 18.9217 20.322 18.9441C20.372 18.9666 20.4258 18.9788 20.4806 18.98H23.0706C23.1846 18.98 23.294 18.9347 23.3746 18.8541C23.4553 18.7735 23.5006 18.6641 23.5006 18.55C23.5006 18.436 23.4553 18.3266 23.3746 18.246C23.294 18.1653 23.1846 18.12 23.0706 18.12Z" fill="#030303" fill-opacity="0.5"/>
</svg>
