<svg width="22" height="22" viewBox="0 0 22 22" fill="none" xmlns="http://www.w3.org/2000/svg">
<path d="M10.9964 21.1938C10.8258 21.1938 10.6641 21.1938 10.4935 21.1938C9.94571 21.0966 9.53262 20.7783 9.13749 20.4157C8.83217 20.1328 8.51786 19.8587 8.1856 19.6023C8.10477 19.5404 7.97905 19.4962 7.87129 19.4962C7.09899 19.5404 6.33568 19.62 5.57237 19.6554C4.54863 19.7084 3.80327 19.1337 3.56081 18.1522C3.41713 17.5687 3.27344 16.9851 3.13874 16.4016C3.10282 16.2601 3.03098 16.1805 2.91424 16.1098C2.27664 15.7473 1.64803 15.3759 1.01942 15.0046C0.0585417 14.4387 -0.237804 13.5457 0.193244 12.52C0.444689 11.9276 0.696134 11.3352 0.929618 10.7428C0.965539 10.6544 0.965539 10.5306 0.929618 10.4334C0.678173 9.80558 0.408768 9.18666 0.157324 8.55889C-0.219843 7.63934 0.103443 6.71095 0.974519 6.20697C1.56721 5.86214 2.16888 5.51731 2.76157 5.16364C2.83341 5.11943 2.90526 5.03101 2.94118 4.95143C3.17466 4.26177 3.39916 3.56327 3.62367 2.86477C3.91103 1.9629 4.69231 1.44124 5.65319 1.52081C6.39854 1.5827 7.1439 1.63576 7.88925 1.69765C8.03293 1.70649 8.14069 1.67996 8.24846 1.5827C8.64358 1.22903 9.05667 0.87536 9.46078 0.521688C10.251 -0.167973 11.2748 -0.176815 12.065 0.512846C12.4781 0.866518 12.8732 1.22903 13.2953 1.57386C13.3761 1.6446 13.5198 1.68881 13.6276 1.67996C14.3729 1.63576 15.1183 1.57386 15.8636 1.51197C16.8874 1.43239 17.6956 1.99827 17.947 2.98855C18.0907 3.57211 18.2344 4.15567 18.3691 4.73923C18.405 4.8807 18.4679 4.97796 18.6026 5.05753C19.2581 5.43773 19.9137 5.82677 20.5692 6.20697C21.0542 6.48991 21.3685 6.90547 21.4852 7.45366C21.4942 7.48903 21.5122 7.53324 21.5211 7.56861C21.5211 7.7366 21.5211 7.89575 21.5211 8.06375C21.4493 8.26711 21.3954 8.47047 21.3146 8.66499C21.0721 9.24855 20.8207 9.83211 20.5872 10.4245C20.5513 10.5129 20.5513 10.6367 20.5872 10.734C20.8925 11.5121 21.2068 12.2901 21.5211 13.0771C21.5211 13.2539 21.5211 13.4396 21.5211 13.6164C21.3685 14.368 20.8656 14.8277 20.21 15.1814C19.6533 15.4732 19.1324 15.818 18.5846 16.1275C18.4679 16.1982 18.405 16.2778 18.3691 16.4104C18.2254 17.0028 18.0817 17.5864 17.9381 18.1788C17.8572 18.5236 17.7046 18.8419 17.4441 19.0983C16.9592 19.6023 16.3486 19.7172 15.6751 19.6465C14.9836 19.5846 14.2921 19.5316 13.6006 19.4874C13.5108 19.4785 13.3941 19.5227 13.3223 19.5758C12.999 19.841 12.6847 20.1063 12.3793 20.3892C11.9662 20.7694 11.5442 21.0966 10.9964 21.1938ZM10.7449 3.77547C6.91939 3.77547 3.80327 6.83474 3.80327 10.6013C3.80327 14.3591 6.90143 17.4184 10.718 17.4272C14.5346 17.4361 17.6597 14.3768 17.6687 10.6102C17.6776 6.85242 14.5705 3.78431 10.7449 3.77547Z" fill="#73CE39"/>
<path d="M16.4115 10.6013C16.4115 13.6871 13.8611 16.1893 10.727 16.1893C7.61091 16.1805 5.06055 13.6783 5.06055 10.6013C5.06055 7.51554 7.61091 5.01331 10.745 5.01331C13.8701 5.02215 16.4115 7.52438 16.4115 10.6013ZM10.0894 11.6005C10.0266 11.5209 9.98168 11.459 9.9278 11.4059C9.31715 10.8047 8.69752 10.1946 8.08686 9.59336C7.90726 9.41653 7.70072 9.31927 7.44029 9.38116C6.9374 9.50494 6.8027 10.0797 7.17987 10.4599C7.97012 11.2468 8.76936 12.0337 9.56859 12.8118C9.94576 13.1831 10.278 13.1831 10.6552 12.8029C11.8496 11.627 13.0439 10.451 14.2293 9.2839C14.2922 9.22201 14.346 9.16895 14.3999 9.09822C14.6693 8.71802 14.4538 8.2052 13.9868 8.12562C13.7354 8.08141 13.5468 8.19636 13.3672 8.36435C12.3435 9.38116 11.3107 10.3891 10.278 11.4059C10.2331 11.4678 10.1792 11.512 10.0894 11.6005Z" fill="#73CE39"/>
</svg>
