<svg width="18" height="24" viewBox="0 0 18 24" fill="none" xmlns="http://www.w3.org/2000/svg">
<path d="M4.90504 11.5764C4.81507 11.4864 4.69511 11.4414 4.57515 11.4414C4.45518 11.4414 4.32772 11.4939 4.24525 11.5764C4.15528 11.6663 4.11029 11.7863 4.11029 11.9063C4.11029 12.0262 4.16277 12.1537 4.24525 12.2362C4.33522 12.3261 4.45518 12.3711 4.57515 12.3711C4.69511 12.3711 4.82257 12.3186 4.90504 12.2362C4.99501 12.1462 5.04 12.0262 5.04 11.9063C5.04 11.7863 4.99501 11.6663 4.90504 11.5764Z" fill="#030303"/>
<path d="M4.90504 14.9504C4.81507 14.8604 4.69511 14.8154 4.57515 14.8154C4.45518 14.8154 4.32772 14.8679 4.24525 14.9504C4.15528 15.0404 4.11029 15.1603 4.11029 15.2803C4.11029 15.4002 4.16277 15.5277 4.24525 15.6102C4.33522 15.7002 4.45518 15.7451 4.57515 15.7451C4.69511 15.7451 4.82257 15.6927 4.90504 15.6102C4.99501 15.5202 5.04 15.4002 5.04 15.2803C5.04 15.1603 4.99501 15.0404 4.90504 14.9504Z" fill="#030303"/>
<path d="M4.90504 18.3244C4.81507 18.2344 4.69511 18.1895 4.57515 18.1895C4.45518 18.1895 4.32772 18.2419 4.24525 18.3244C4.15528 18.4144 4.11029 18.5343 4.11029 18.6543C4.11029 18.7743 4.16277 18.9017 4.24525 18.9842C4.33522 19.0742 4.45518 19.1192 4.57515 19.1192C4.69511 19.1192 4.82257 19.0667 4.90504 18.9842C4.99501 18.8942 5.04 18.7743 5.04 18.6543C5.04 18.5343 4.99501 18.4144 4.90504 18.3244Z" fill="#030303"/>
<path d="M13.8975 11.4414H6.61505C6.35255 11.4414 6.14255 11.6513 6.14255 11.9138C6.14255 12.1762 6.35255 12.3861 6.61505 12.3861H13.8975C14.16 12.3861 14.37 12.1762 14.37 11.9138C14.3625 11.6513 14.1525 11.4414 13.8975 11.4414Z" fill="#030303"/>
<path d="M13.8975 14.8154H6.61505C6.35255 14.8154 6.14255 15.0254 6.14255 15.2878C6.14255 15.5502 6.35255 15.7601 6.61505 15.7601H13.8975C14.16 15.7601 14.37 15.5502 14.37 15.2878C14.3625 15.0254 14.1525 14.8154 13.8975 14.8154Z" fill="#030303"/>
<path d="M13.8975 18.1895H6.61505C6.35255 18.1895 6.14255 18.3994 6.14255 18.6618C6.14255 18.9242 6.35255 19.1342 6.61505 19.1342H13.8975C14.16 19.1342 14.37 18.9242 14.37 18.6618C14.37 18.3994 14.1525 18.1895 13.8975 18.1895Z" fill="#030303"/>
<path d="M18 9.44705C18 9.43205 18 9.42455 18 9.42455C17.9925 9.31959 17.9475 9.22212 17.865 9.13964L12.99 4.26617C12.9 4.1762 12.7875 4.13121 12.675 4.12371C12.6675 4.12371 12.66 4.12371 12.6525 4.12371H9.4725V3.28397C9.4725 1.46954 8.0025 0 6.1875 0C4.3725 0 2.91 1.46954 2.91 3.28397V4.12371H1.875C0.84 4.12371 0 4.96345 0 5.99813V22.1256C0 23.1603 0.84 24 1.875 24H16.125C17.16 24 18 23.1603 18 22.1256V9.46954C18 9.46204 18 9.45455 18 9.44705ZM13.125 5.72821L16.4025 9.00469H14.175C13.59 9.00469 13.1175 8.53233 13.1175 7.94752L13.125 5.72821ZM6.1875 0.937207C7.4775 0.937207 8.535 1.98688 8.535 3.28397V7.57263C8.535 8.35989 7.8975 8.99719 7.11 8.99719C6.3225 8.99719 5.685 8.35989 5.685 7.57263V3.24649C5.685 2.96907 5.91 2.74414 6.1875 2.74414C6.465 2.74414 6.69 2.96907 6.69 3.24649V7.51265C6.69 7.77507 6.9 7.985 7.1625 7.985C7.425 7.985 7.635 7.77507 7.635 7.51265V3.24649C7.635 2.45173 6.99 1.80694 6.195 1.80694C5.4 1.80694 4.755 2.45173 4.755 3.24649V4.12371H3.8475V3.28397C3.8475 1.98688 4.8975 0.937207 6.1875 0.937207ZM17.0625 22.1256C17.0625 22.6429 16.6425 23.0628 16.125 23.0628H1.875C1.3575 23.0628 0.9375 22.6429 0.9375 22.1256V5.99813C0.9375 5.48079 1.3575 5.06092 1.875 5.06092H4.74V7.57263C4.74 8.87723 5.7975 9.9344 7.1025 9.9344C8.4075 9.9344 9.465 8.87723 9.465 7.57263V5.06092H12.18V7.94752C12.18 9.04967 13.0725 9.94189 14.175 9.94189H17.0625V22.1256Z" fill="#030303"/>
</svg>
