<svg width="30" height="30" viewBox="0 0 30 30" fill="none" xmlns="http://www.w3.org/2000/svg">
<path d="M15 28.4375C14.25 28.4375 13.5125 28.2625 12.9125 27.925L6.99995 24.5125C4.54995 22.8625 4.38745 22.5625 4.38745 19.975V13.775C4.38745 11.1875 4.54995 10.8875 6.94995 9.27495L12.925 5.82495C14.1125 5.13745 15.9 5.13745 17.0875 5.82495L23 9.23745C25.45 10.8875 25.6124 11.1875 25.6124 13.775V19.975C25.6124 22.5625 25.45 22.8625 23.05 24.475L17.075 27.925C16.4875 28.275 15.7375 28.4375 15 28.4375ZM15 7.18745C14.575 7.18745 14.15 7.27495 13.85 7.44995L7.93745 10.8625C6.26245 12 6.26245 12 6.26245 13.775V19.975C6.26245 21.75 6.26245 21.75 7.99995 22.925L13.8625 26.3C14.4625 26.65 15.55 26.65 16.15 26.3L22.0625 22.8875C23.7374 21.75 23.7374 21.75 23.7374 19.975V13.775C23.7374 12 23.7375 12 22 10.825L16.1375 7.44995C15.85 7.27495 15.425 7.18745 15 7.18745Z" fill="#292D32"/>
<path d="M21.875 10.475C21.3625 10.475 20.9375 10.05 20.9375 9.5375V6.25C20.9375 4.275 20.1 3.4375 18.125 3.4375H11.875C9.9 3.4375 9.0625 4.275 9.0625 6.25V9.45C9.0625 9.9625 8.6375 10.3875 8.125 10.3875C7.6125 10.3875 7.1875 9.975 7.1875 9.45V6.25C7.1875 3.225 8.85 1.5625 11.875 1.5625H18.125C21.15 1.5625 22.8125 3.225 22.8125 6.25V9.5375C22.8125 10.05 22.3875 10.475 21.875 10.475Z" fill="#292D32"/>
<path d="M17.0376 22.0374C16.7751 22.0374 16.5001 21.9874 16.2251 21.8749L15.0001 21.3999L13.7751 21.8874C13.1126 22.1499 12.4376 22.0874 11.9376 21.7249C11.4376 21.3624 11.1751 20.7374 11.2126 20.0249L11.2876 18.7124L10.4501 17.6999C10.0001 17.1374 9.85005 16.4874 10.0501 15.8874C10.2376 15.2999 10.7501 14.8499 11.4376 14.6749L12.7126 14.3499L13.4251 13.2374C14.1876 12.0374 15.8251 12.0374 16.5876 13.2374L17.3001 14.3499L18.5751 14.6749C19.2626 14.8499 19.7751 15.2999 19.9626 15.8874C20.1501 16.4749 20.0001 17.1374 19.5501 17.6874L18.7126 18.6999L18.7876 20.0124C18.8251 20.7249 18.5626 21.3374 18.0626 21.7124C17.7626 21.9249 17.4126 22.0374 17.0376 22.0374ZM11.9001 16.4999L12.7376 17.5124C13.0251 17.8499 13.1876 18.3874 13.1626 18.8249L13.0876 20.1374L14.3126 19.6499C14.7251 19.4874 15.2751 19.4874 15.6876 19.6499L16.9126 20.1374L16.8376 18.8249C16.8126 18.3874 16.9751 17.8624 17.2626 17.5124L18.1001 16.4999L16.8251 16.1749C16.4001 16.0624 15.9501 15.7374 15.7126 15.3749L15.0126 14.2749L14.3001 15.3749C14.0626 15.7499 13.6126 16.0749 13.1876 16.1874L11.9001 16.4999Z" fill="#292D32"/>
</svg>
