<svg width="19" height="21" viewBox="0 0 19 21" fill="none" xmlns="http://www.w3.org/2000/svg">
<g clip-path="url(#clip0_1497_731)">
<path d="M1.11104 9.83366C1.31732 9.83366 1.51515 9.92145 1.66102 10.0777C1.80688 10.234 1.88882 10.446 1.88882 10.667C1.8825 12.6047 2.50451 14.4846 3.64852 15.9854C4.79254 17.4863 6.38754 18.5148 8.16091 18.8952C9.93427 19.2756 11.7759 18.9843 13.371 18.071C14.9661 17.1578 16.2157 15.6794 16.9061 13.8884C17.5966 12.0974 17.685 10.1051 17.1564 8.252C16.6277 6.39889 15.5147 4.80004 14.0077 3.72872C12.5007 2.6574 10.6932 2.18012 8.89415 2.37847C7.0951 2.57681 5.41618 3.43847 4.14438 4.81616C4.16996 4.82363 4.19593 4.82948 4.22215 4.83366H6.55549C6.76177 4.83366 6.9596 4.92146 7.10546 5.07774C7.25132 5.23402 7.33326 5.44598 7.33326 5.66699C7.33326 5.888 7.25132 6.09997 7.10546 6.25625C6.9596 6.41253 6.76177 6.50032 6.55549 6.50032H4.22215C3.60332 6.50032 3.00982 6.23693 2.57224 5.76809C2.13465 5.29925 1.88882 4.66337 1.88882 4.00032V1.50033C1.88882 1.27931 1.97076 1.06735 2.11663 0.91107C2.26249 0.75479 2.46032 0.666992 2.6666 0.666992C2.87288 0.666992 3.07071 0.75479 3.21657 0.91107C3.36243 1.06735 3.44438 1.27931 3.44438 1.50033V3.22116C5.03684 1.69577 7.06966 0.802131 9.20316 0.689578C11.3367 0.577025 13.4416 1.25237 15.1662 2.60277C16.8908 3.95317 18.1307 5.89681 18.6785 8.10891C19.2264 10.321 19.0491 12.6676 18.1763 14.7564C17.3035 16.8453 15.7881 18.55 13.8832 19.5856C11.9783 20.6213 9.7994 20.9251 7.71057 20.4464C5.62174 19.9676 3.74953 18.7353 2.40678 16.9554C1.06404 15.1754 0.332092 12.9556 0.333265 10.667C0.333265 10.446 0.415209 10.234 0.561071 10.0777C0.706932 9.92145 0.904764 9.83366 1.11104 9.83366Z" fill="#EDF5FC"/>
</g>
<defs>
<clipPath id="clip0_1497_731">
<rect width="18.6667" height="20" fill="white" transform="matrix(-1 0 0 1 19 0.666992)"/>
</clipPath>
</defs>
</svg>
