<svg width="24" height="22" viewBox="0 0 24 22" fill="none" xmlns="http://www.w3.org/2000/svg">
<path d="M22.4568 3.58653C20.9436 3.61659 19.4205 3.59655 17.9073 3.59655C17.8171 3.59655 17.7269 3.59655 17.6067 3.59655C17.6067 3.48632 17.6067 3.39613 17.6067 3.31596C17.6067 2.90511 17.6167 2.50427 17.6067 2.09342C17.5866 0.900932 16.8351 0.0391373 15.6727 0.0190955C13.2175 -0.0109671 10.7624 -0.000946246 8.31733 0.0190955C7.51566 0.0291164 6.92443 0.449993 6.60376 1.1715C6.47349 1.47212 6.4334 1.83287 6.41336 2.17358C6.3833 2.63454 6.40334 3.10553 6.40334 3.59655C6.28309 3.59655 6.1929 3.59655 6.10271 3.59655C4.52944 3.59655 2.96618 3.59655 1.3929 3.59655C1.22255 3.59655 1.04217 3.60657 0.881837 3.64665C0.330689 3.79697 0 4.26795 0 4.88924C0 7.14394 0 9.38862 0 11.6433C0 12.3247 0 13.0062 0 13.6876C0 14.1485 0.200418 14.5293 0.611273 14.7498C0.771607 14.83 0.80167 14.9302 0.80167 15.0905C0.80167 16.8141 0.80167 18.5277 0.80167 20.2512C0.80167 21.1331 1.28267 21.6141 2.16451 21.6141C8.72818 21.6141 15.2919 21.6141 21.8555 21.6141C22.0058 21.6141 22.1662 21.6041 22.3165 21.564C22.8877 21.4137 23.2083 20.9527 23.2083 20.3114C23.2083 18.5577 23.2083 16.8141 23.2083 15.0604C23.2083 14.9803 23.2284 14.84 23.2785 14.8199C23.6693 14.6496 23.8597 14.3189 24 13.9481C24 10.8216 24 7.69509 24 4.56857C23.7595 3.80699 23.2083 3.57651 22.4568 3.58653ZM7.22505 1.91304C7.25511 1.31179 7.7261 0.850828 8.32735 0.820766C8.65804 0.800724 8.9787 0.800724 9.30939 0.800724C11.3737 0.800724 13.438 0.800724 15.4923 0.800724C16.1537 0.800724 16.6046 1.12139 16.7549 1.69258C16.7649 1.72264 16.7749 1.75271 16.7749 1.78277C16.7749 2.374 16.7749 2.96523 16.7749 3.57651C16.5244 3.57651 16.2839 3.57651 16.0033 3.57651C16.0033 3.49634 15.9933 3.41617 15.9933 3.32598C15.9933 2.90511 15.9933 2.48423 15.9933 2.06335C15.9933 1.74269 15.853 1.60239 15.5324 1.60239C13.1775 1.60239 10.8125 1.60239 8.45762 1.60239C8.15699 1.60239 8.0167 1.75271 8.00668 2.06335C7.99666 2.5644 8.00668 3.05542 8.00668 3.58653C7.7261 3.58653 7.48559 3.58653 7.23507 3.58653C7.22505 3.55646 7.21503 3.5264 7.21503 3.50636C7.21503 2.97525 7.19499 2.44415 7.22505 1.91304ZM15.1916 2.42411C15.1916 2.8049 15.1916 3.18569 15.1916 3.57651C13.0672 3.57651 10.9628 3.57651 8.81837 3.57651C8.81837 3.18569 8.81837 2.81492 8.81837 2.42411C10.9328 2.42411 13.0572 2.42411 15.1916 2.42411ZM22.4067 15.2308C22.4067 16.8943 22.4067 18.5577 22.4067 20.2212C22.4067 20.6821 22.2864 20.8024 21.8255 20.8024C15.2818 20.8024 8.72818 20.8024 2.18455 20.8024C1.72359 20.8024 1.59332 20.6821 1.59332 20.2212C1.59332 18.5577 1.59332 16.8943 1.59332 15.2308C1.59332 15.1506 1.59332 15.0805 1.59332 14.9702C4.54948 15.3811 7.45553 15.7819 10.4017 16.1828C10.4017 16.4834 10.4017 16.784 10.4017 17.0746C10.4017 17.9164 10.8827 18.3974 11.7244 18.3974C11.9449 18.3974 12.1653 18.3974 12.3758 18.3974C13.0772 18.3773 13.5783 17.8863 13.5883 17.1748C13.5983 16.8542 13.5883 16.5335 13.5883 16.1828C16.5244 15.7819 19.4505 15.3711 22.3967 14.9702C22.4067 15.0805 22.4067 15.1506 22.4067 15.2308ZM11.2134 17.1648C11.2033 16.3932 11.2033 15.6216 11.2134 14.85C11.2134 14.5794 11.3637 14.4291 11.6342 14.4191C11.8848 14.4091 12.1353 14.4091 12.3858 14.4191C12.6564 14.4291 12.8067 14.5794 12.8067 14.84C12.8167 15.2208 12.8067 15.6016 12.8067 15.9924C12.8067 16.3631 12.8067 16.7439 12.8067 17.1147C12.8067 17.4654 12.6564 17.6057 12.3056 17.6057C12.0852 17.6057 11.8647 17.6158 11.6543 17.6057C11.3637 17.5957 11.2134 17.4454 11.2134 17.1648ZM23.2083 13.5072C23.2083 13.9782 23.1081 14.0684 22.6472 14.1385C20.7733 14.389 18.9094 14.6496 17.0355 14.9101C15.9733 15.0604 14.9211 15.2007 13.8589 15.351C13.7787 15.3611 13.7086 15.3611 13.5983 15.3711C13.5983 15.1707 13.5983 14.9803 13.5983 14.7999C13.5783 14.1385 13.0973 13.6475 12.4459 13.6274C12.1453 13.6174 11.8547 13.6174 11.5541 13.6274C10.9127 13.6575 10.4317 14.1485 10.4117 14.7899C10.4017 14.9803 10.4117 15.1606 10.4117 15.3811C10.061 15.341 9.74029 15.3009 9.41962 15.2508C6.70397 14.8801 3.98831 14.4993 1.27265 14.1285C0.9119 14.0784 0.791649 13.9481 0.791649 13.5673C0.791649 10.7114 0.791649 7.86544 0.791649 5.00949C0.791649 4.51847 0.901879 4.39822 1.3929 4.39822C5.5215 4.39822 9.64008 4.39822 13.7687 4.39822C16.6948 4.39822 19.6309 4.39822 22.557 4.39822C23.0981 4.39822 23.1983 4.49843 23.1983 5.03956C23.2083 7.86544 23.2083 10.6913 23.2083 13.5072Z" fill="#BCBCBC"/>
</svg>
