<svg width="24" height="24" viewBox="0 0 24 24" fill="none" xmlns="http://www.w3.org/2000/svg">
<path d="M21.2829 6.56306H2.69758C2.34066 6.55615 1.98607 6.62153 1.65508 6.75525C1.32409 6.88898 1.02353 7.08828 0.771575 7.34117C0.519623 7.59407 0.321469 7.89533 0.188984 8.22682C0.0564997 8.55831 -0.00753639 8.91317 0.000705597 9.27006C0.000705597 13.6033 0.000705597 17.4314 0.000705597 20.9869C5.10447e-05 21.3028 0.0511973 21.6167 0.152179 21.9161C0.339731 22.467 0.703599 22.9406 1.18746 23.2638C1.67133 23.587 2.24824 23.7417 2.82889 23.704H21.2223C21.7076 23.729 22.1902 23.6174 22.6152 23.3816C23.0402 23.1459 23.3906 22.7956 23.6263 22.3707C23.7431 22.1529 23.8345 21.9224 23.899 21.6838C23.899 21.5727 23.9596 21.4717 24 21.3606V8.91653C23.9962 8.88634 23.9962 8.85581 24 8.82562C23.9101 8.17791 23.5818 7.58703 23.0793 7.16858C22.5767 6.75014 21.9362 6.53421 21.2829 6.56306Z" fill="#030303"/>
<path d="M3.23292 4.44187C5.51569 4.44187 7.78829 4.44187 10.061 4.44187H13.475C15.8992 4.44187 18.3233 4.44187 20.7475 4.44187C20.8516 4.45233 20.9565 4.45233 21.0606 4.44187C21.1533 4.41924 21.2372 4.3698 21.3019 4.29973C21.3666 4.22967 21.4091 4.14208 21.4242 4.04794C21.4459 3.95793 21.4368 3.86326 21.3984 3.77904C21.3599 3.69482 21.2944 3.62591 21.2122 3.58332C21.0691 3.52019 20.914 3.48916 20.7576 3.49241H3.2632C3.16919 3.48239 3.07441 3.48239 2.98041 3.49241C2.90423 3.50699 2.83251 3.53926 2.77111 3.58663C2.7097 3.634 2.66028 3.69514 2.62685 3.76512C2.5897 3.83512 2.57031 3.91315 2.57031 3.99239C2.57031 4.07163 2.5897 4.14967 2.62685 4.21967C2.69585 4.311 2.78971 4.38051 2.89718 4.41992C3.00465 4.45933 3.12124 4.46695 3.23292 4.44187Z" fill="#030303"/>
<path d="M5.85909 0.977493H17.9799C18.0806 0.989008 18.1823 0.989008 18.2829 0.977493C18.3628 0.970055 18.4391 0.940632 18.5033 0.892493C18.5675 0.844354 18.6171 0.779377 18.6466 0.704769C18.6864 0.633814 18.7073 0.553821 18.7073 0.472457C18.7073 0.391094 18.6864 0.311101 18.6466 0.240145C18.5805 0.153106 18.4921 0.085551 18.3907 0.0446538C18.2894 0.00375666 18.1789 -0.00897169 18.0709 0.00781807H5.85909C5.7651 -0.00260602 5.67023 -0.00260602 5.57624 0.00781807C5.48114 0.0273822 5.39437 0.0756454 5.32754 0.146083C5.26072 0.216521 5.21705 0.305746 5.20252 0.401745C5.17956 0.490352 5.18822 0.584202 5.22693 0.667148C5.26564 0.750093 5.332 0.816969 5.41466 0.856289C5.55011 0.933762 5.70306 0.97547 5.85909 0.977493Z" fill="#030303"/>
<path d="M9.39452 11.4216C9.33093 11.3861 9.26302 11.359 9.1925 11.3408C8.88948 11.3408 8.73795 11.5125 8.73795 11.8458V13.7953C8.73795 15.4215 8.73795 17.0881 8.73795 18.7345C8.73577 18.8236 8.75589 18.9119 8.79646 18.9913C8.83703 19.0706 8.89681 19.1386 8.97031 19.1891C9.04637 19.2355 9.13374 19.26 9.22283 19.26C9.31192 19.26 9.39929 19.2355 9.47535 19.1891C10.7884 18.4012 12.1217 17.6234 13.4146 16.8659L15.263 15.7851C15.3502 15.7446 15.4257 15.6826 15.4823 15.6048C15.5388 15.527 15.5746 15.4361 15.5863 15.3407C15.5785 15.2454 15.5454 15.1539 15.4903 15.0758C15.4353 14.9976 15.3603 14.9356 15.2731 14.8963L9.39452 11.4216Z" fill="white"/>
</svg>
