<svg width="15" height="15" viewBox="0 0 15 15" fill="none" xmlns="http://www.w3.org/2000/svg">
<path d="M0 4.36133C5.0125 4.36133 9.99375 4.36133 15 4.36133C15 4.44157 15 4.52182 15 4.59538C15 7.50424 15 10.4198 15 13.3287C15 14.1846 14.4687 14.8466 13.675 14.9737C13.5562 14.9937 13.4375 15.0004 13.3187 15.0004C9.33125 15.0004 5.34375 15.0004 1.35625 15.0004C0.55 15.0004 0.04375 14.4722 0.00625 13.6095C0.00625 13.5427 0.00625 13.4758 0.00625 13.4089C0.00625 10.4532 0.00625 7.49756 0.00625 4.54188C0 4.48838 0 4.4282 0 4.36133ZM12.0125 7.24345C12.0125 7.03615 12.0125 6.83554 12.0125 6.62824C12.0062 6.36076 11.8625 6.20696 11.6125 6.20696C11.2437 6.20696 10.8687 6.20696 10.5 6.20696C10.2562 6.20696 10.1062 6.35407 10.1 6.60818C10.0938 7.02278 10.0938 7.43737 10.1 7.85197C10.1062 8.09271 10.2437 8.24651 10.4688 8.2532C10.8625 8.26657 11.2562 8.26657 11.6437 8.2532C11.8937 8.24651 12.0062 8.10608 12.0062 7.8386C12.0125 7.63799 12.0125 7.43737 12.0125 7.24345ZM7.325 12.7536C7.5125 12.7536 7.69375 12.7536 7.88125 12.7536C8.1375 12.7469 8.26875 12.6265 8.275 12.3524C8.28125 11.9444 8.28125 11.5365 8.275 11.1286C8.26875 10.8611 8.125 10.7073 7.88125 10.7007C7.5 10.694 7.11875 10.694 6.7375 10.7007C6.49375 10.7073 6.3625 10.8611 6.35625 11.1286C6.35625 11.5232 6.35625 11.9244 6.35625 12.3189C6.35625 12.5931 6.5 12.7402 6.7625 12.7469C6.95 12.7536 7.1375 12.7536 7.325 12.7536ZM12.0125 11.7372C12.0125 11.5299 12.0125 11.3292 12.0125 11.1219C12.0062 10.8611 11.875 10.7073 11.6313 10.7007C11.25 10.694 10.8688 10.694 10.4875 10.7007C10.25 10.7073 10.1062 10.8545 10.1062 11.1019C10.1 11.5165 10.1 11.9311 10.1062 12.3457C10.1125 12.5998 10.2625 12.7402 10.4938 12.7469C10.875 12.7536 11.2563 12.7536 11.6375 12.7469C11.8875 12.7469 12.0125 12.6065 12.0187 12.3323C12.0125 12.1384 12.0062 11.9378 12.0125 11.7372ZM6.35625 7.22339C6.35625 7.43069 6.35625 7.6313 6.35625 7.8386C6.3625 8.07933 6.48125 8.23982 6.7 8.24651C7.1125 8.25988 7.525 8.25988 7.9375 8.24651C8.14375 8.23982 8.25625 8.11945 8.2625 7.89878C8.275 7.45744 8.275 7.01609 8.2625 6.57474C8.25625 6.34738 8.10625 6.21364 7.89375 6.20696C7.50625 6.20027 7.11875 6.20027 6.73125 6.20696C6.5 6.20696 6.35625 6.36076 6.35625 6.61487C6.35625 6.81548 6.35625 7.02278 6.35625 7.22339ZM2.66875 11.7238C2.66875 11.9177 2.66875 12.1116 2.66875 12.3056C2.66875 12.3189 2.66875 12.3256 2.66875 12.339C2.675 12.5931 2.81875 12.7536 3.05625 12.7536C3.425 12.7603 3.7875 12.7603 4.15625 12.7536C4.4 12.7536 4.56875 12.5998 4.58125 12.339C4.59375 11.9177 4.59375 11.4964 4.58125 11.0818C4.575 10.8611 4.4375 10.714 4.23125 10.714C3.83125 10.7007 3.425 10.7007 3.025 10.714C2.80625 10.7207 2.675 10.8812 2.675 11.1153C2.6625 11.3092 2.66875 11.5165 2.66875 11.7238ZM3.63125 6.20696C3.4375 6.20696 3.25 6.20696 3.05625 6.20696C2.8125 6.20696 2.66875 6.36076 2.66875 6.62155C2.6625 7.02278 2.6625 7.43069 2.66875 7.83191C2.66875 8.08602 2.8 8.24651 3.0375 8.2532C3.41875 8.26657 3.8 8.26657 4.18125 8.2532C4.4125 8.24651 4.575 8.07933 4.58125 7.83191C4.59375 7.41731 4.59375 7.00272 4.58125 6.58812C4.56875 6.3407 4.41875 6.20696 4.1875 6.20696C4 6.20027 3.8125 6.20696 3.63125 6.20696Z" fill="#030303"/>
<path d="M2.61402 0.00093144C2.61402 0.0878632 2.61402 0.154734 2.61402 0.228291C2.61402 0.636202 2.61402 1.04411 2.61402 1.45871C2.61402 1.77969 2.80777 2.00036 3.08277 2.00036C3.35777 2.00036 3.54527 1.77969 3.54527 1.45871C3.55152 0.983929 3.54527 0.509148 3.54527 0.0209926C6.03902 0.0209926 8.51402 0.0209926 11.014 0.0209926C11.014 0.0811761 11.0203 0.134673 11.0203 0.194856C11.0203 0.629515 11.0203 1.05749 11.0203 1.49215C11.0203 1.73957 11.1578 1.9268 11.3578 1.99367C11.5453 2.05386 11.764 1.9803 11.864 1.79975C11.9203 1.69276 11.9515 1.55902 11.9515 1.43865C11.964 1.03074 11.9578 0.622828 11.9578 0.20823C11.9578 0.148047 11.9578 0.0878632 11.9578 0.0276797C12.0078 0.0076185 12.0328 0.00093144 12.0578 0.00093144C12.5765 0.0076185 13.1015 -0.0191297 13.6203 0.0343667C14.2765 0.101237 14.839 0.683011 14.939 1.32497C14.9515 1.38515 14.9515 1.44534 14.9515 1.50552C14.9515 2.08061 14.9515 2.65569 14.9515 3.23078C14.9515 3.24415 14.9453 3.26422 14.939 3.29096C9.96402 3.29096 4.98277 3.29096 0.0202687 3.29096C0.0202687 2.58882 -0.0234813 1.89337 0.0327687 1.21129C0.0952687 0.442277 0.620269 0.00093144 1.34527 0.00093144C1.76402 0.00093144 2.18277 0.00093144 2.61402 0.00093144Z" fill="#030303"/>
</svg>
