<svg width="24" height="24" viewBox="0 0 24 24" fill="none" xmlns="http://www.w3.org/2000/svg">
<path d="M11.2322 0H12.7343C12.794 0.00937765 12.8549 0.00937765 12.9146 0C14.7001 0.12076 16.4323 0.659152 17.9716 1.57178C19.5039 2.43892 20.8237 3.63635 21.8353 5.07711C22.8468 6.51787 23.5248 8.1658 23.8198 9.90118C23.8999 10.3417 23.9399 10.7822 24 11.2226V12.6843C24 12.7544 24 12.8345 24 12.9046C23.8999 13.5253 23.8498 14.1459 23.7096 14.7566C23.2119 16.8562 22.1578 18.7831 20.6579 20.3348C19.1581 21.8864 17.2679 23.0056 15.186 23.5747C13.1041 24.1437 10.9073 24.1417 8.82643 23.5689C6.74555 22.996 4.85741 21.8734 3.36039 20.3191C1.86336 18.7647 0.812718 16.836 0.318835 14.7355C-0.175048 12.635 -0.0939281 10.4402 0.553659 8.38189C1.20125 6.32354 2.39139 4.47755 3.99906 3.03788C5.60674 1.59821 7.5726 0.618014 9.69009 0.200238C10.1207 0.190227 10.7315 0.0800903 11.2322 0ZM10.9418 13.0147L10.8517 13.0747C10.8108 13.0009 10.764 12.9306 10.7115 12.8645C10.0406 12.1938 9.37967 11.513 8.70874 10.8623C8.52017 10.6751 8.26493 10.5704 7.9992 10.5714C7.73346 10.5723 7.479 10.6788 7.29176 10.8673C7.10452 11.0558 6.99986 11.3109 7.0008 11.5766C7.00174 11.8423 7.10821 12.0967 7.29677 12.2838L11.2322 16.2083C11.3255 16.3036 11.4369 16.3794 11.5598 16.4311C11.6828 16.4829 11.8148 16.5095 11.9482 16.5095C12.0816 16.5095 12.2137 16.4829 12.3366 16.4311C12.4596 16.3794 12.571 16.3036 12.6642 16.2083C13.966 14.9068 15.2779 13.6053 16.5697 12.2939C16.7284 12.113 16.8326 11.8908 16.8701 11.6532C16.8914 11.45 16.85 11.2453 16.7516 11.0663C16.6531 10.8874 16.5023 10.7428 16.3193 10.652C16.1306 10.5606 15.9179 10.5308 15.7112 10.5667C15.5046 10.6027 15.3145 10.7025 15.1677 10.8522C14.4968 11.513 13.8258 12.1837 13.1649 12.8545L12.9446 13.0447V4.12465C12.9377 3.97941 12.8993 3.83743 12.8319 3.70856C12.7646 3.57969 12.6699 3.46702 12.5546 3.37841C12.4393 3.2898 12.306 3.22735 12.1641 3.19544C12.0222 3.16352 11.8751 3.16291 11.7329 3.1936C11.5001 3.25242 11.2961 3.39298 11.1582 3.58962C11.0203 3.78626 10.9578 4.0259 10.9819 4.26482V12.9446L10.9418 13.0147ZM11.9432 19.7923H15.8887C16.1543 19.7923 16.409 19.6868 16.5968 19.4991C16.7846 19.3114 16.8901 19.0567 16.8901 18.7912C16.8901 18.5257 16.7846 18.271 16.5968 18.0833C16.409 17.8955 16.1543 17.7901 15.8887 17.7901H8.11792C7.90798 17.7737 7.6982 17.8239 7.51842 17.9335C7.33865 18.0431 7.19802 18.2066 7.11653 18.4008C7.0487 18.5593 7.02298 18.7327 7.04187 18.9041C7.06076 19.0755 7.12361 19.2391 7.22435 19.3791C7.32508 19.5191 7.46028 19.6307 7.61683 19.7031C7.77338 19.7755 7.94599 19.8062 8.11792 19.7923H11.9432Z" fill="#030303"/>
</svg>
