<svg width="12" height="20" viewBox="0 0 12 20" fill="none" xmlns="http://www.w3.org/2000/svg">
<path d="M10.2583 0C10.5917 0.0833333 10.9 0.208333 11.1333 0.475C11.4333 0.8 11.525 1.19167 11.525 1.625C11.525 3.54167 11.525 5.46667 11.525 7.38333C11.525 11.0417 11.525 14.7 11.525 18.3583C11.525 18.7333 11.4667 19.0833 11.2417 19.3917C10.9167 19.8167 10.4833 20 9.95833 20C7.56667 20 5.175 20 2.79167 20C2.39167 20 1.98333 20 1.58333 20C0.633333 20 0.025 19.4 0 18.4583C0 18.425 0 18.3917 0 18.3583C0 12.7917 0 7.21667 0 1.64167C0 1.2 0.0916667 0.808333 0.391667 0.475C0.633333 0.208333 0.941667 0.0833333 1.275 0C4.26667 0 7.25833 0 10.2583 0ZM10.925 16.4833C10.8333 16.4833 10.7667 16.4833 10.7 16.4833C8.075 16.4833 5.45 16.4833 2.825 16.4833C2.75 16.4833 2.68333 16.4917 2.60833 16.475C2.45 16.45 2.35 16.35 2.35 16.1833C2.35 16.0167 2.45 15.925 2.61667 15.9C2.68333 15.8917 2.75 15.8917 2.80833 15.8917C5.44167 15.8917 8.06667 15.8917 10.7 15.8917C10.775 15.8917 10.85 15.8917 10.9167 15.8917C10.9167 11.55 10.9167 7.25 10.9167 2.93333C7.46667 2.93333 4.03333 2.93333 0.591667 2.93333C0.591667 7.25833 0.591667 11.5667 0.591667 15.8917C0.875 15.8917 1.15 15.8833 1.425 15.8917C1.64167 15.9 1.76667 16.0333 1.73333 16.225C1.70833 16.4083 1.58333 16.475 1.41667 16.475C1.14167 16.475 0.875 16.475 0.591667 16.475C0.583333 16.525 0.575 16.5583 0.575 16.5833C0.575 17.225 0.575 17.8583 0.575 18.5C0.575 18.5917 0.591667 18.6833 0.616667 18.7667C0.725 19.1583 1.05833 19.4 1.5 19.4C4.34167 19.4 7.175 19.4 10.0167 19.4C10.05 19.4 10.0833 19.4 10.1167 19.4C10.55 19.3667 10.9 19.0417 10.9167 18.6083C10.9417 17.9167 10.925 17.2167 10.925 16.4833ZM0.6 2.325C4.05 2.325 7.49167 2.325 10.9417 2.325C10.9417 2.05833 10.9417 1.8 10.9417 1.55C10.9333 0.933333 10.5833 0.583333 9.96667 0.583333C7.16667 0.583333 4.36667 0.583333 1.56667 0.583333C1.525 0.583333 1.49167 0.583333 1.45 0.583333C0.983333 0.608333 0.633333 0.933333 0.6 1.4C0.583333 1.7 0.6 2.00833 0.6 2.325Z" fill="#030303" fill-opacity="0.5"/>
<path d="M6.63327 17.9334C6.63327 18.4084 6.24993 18.8084 5.77493 18.8167C5.2916 18.825 4.8916 18.4334 4.8916 17.9417C4.8916 17.4584 5.28327 17.0583 5.7666 17.0583C6.24994 17.0583 6.63327 17.45 6.63327 17.9334ZM5.7666 18.225C5.9166 18.225 6.04993 18.0917 6.0416 17.9334C6.0416 17.775 5.90827 17.65 5.75827 17.6417C5.59993 17.6417 5.4666 17.775 5.47494 17.9417C5.48327 18.1 5.6166 18.225 5.7666 18.225Z" fill="#030303" fill-opacity="0.5"/>
<path d="M6.34998 1.75853C6.16664 1.75853 5.98331 1.76686 5.80831 1.75853C5.59998 1.7502 5.48331 1.63353 5.47498 1.46686C5.47498 1.29186 5.59164 1.1752 5.79164 1.1752C6.15831 1.16686 6.53331 1.16686 6.89998 1.1752C7.09998 1.1752 7.21664 1.3002 7.21664 1.4752C7.21664 1.64186 7.09998 1.7502 6.90831 1.75853C6.72498 1.75853 6.53331 1.75853 6.34998 1.75853Z" fill="#030303" fill-opacity="0.5"/>
<path d="M4.87502 1.45814C4.88335 1.60814 4.75835 1.7498 4.60835 1.75814C4.45002 1.76647 4.30835 1.6248 4.30835 1.46647C4.30835 1.30814 4.43335 1.18314 4.59168 1.1748C4.74168 1.1748 4.87502 1.2998 4.87502 1.45814Z" fill="#030303" fill-opacity="0.5"/>
</svg>
