<svg width="24" height="24" viewBox="0 0 24 24" fill="none" xmlns="http://www.w3.org/2000/svg">
<path d="M15.9997 22.7505H7.99974C3.37974 22.7505 2.51974 20.6005 2.29974 18.5105L1.54974 10.5005C1.43974 9.4505 1.40974 7.9005 2.44974 6.7405C3.34974 5.7405 4.83974 5.2605 6.99974 5.2605H16.9997C19.1697 5.2605 20.6597 5.7505 21.5497 6.7405C22.5897 7.9005 22.5597 9.4505 22.4497 10.5105L21.6997 18.5005C21.4797 20.6005 20.6197 22.7505 15.9997 22.7505ZM6.99974 6.7505C5.30974 6.7505 4.14974 7.0805 3.55974 7.7405C3.06974 8.2805 2.90974 9.1105 3.03974 10.3505L3.78974 18.3605C3.95974 19.9405 4.38974 21.2505 7.99974 21.2505H15.9997C19.5997 21.2505 20.0397 19.9405 20.2097 18.3505L20.9597 10.3605C21.0897 9.1105 20.9297 8.2805 20.4397 7.7405C19.8497 7.0805 18.6897 6.7505 16.9997 6.7505H6.99974Z" fill="#BCBCBC"/>
<path d="M16.0005 6.75049C15.5905 6.75049 15.2505 6.41049 15.2505 6.00049V5.20049C15.2505 3.42049 15.2505 2.75049 12.8005 2.75049H11.2005C8.75049 2.75049 8.75049 3.42049 8.75049 5.20049V6.00049C8.75049 6.41049 8.41049 6.75049 8.00049 6.75049C7.59049 6.75049 7.25049 6.41049 7.25049 6.00049V5.20049C7.25049 3.44049 7.25049 1.25049 11.2005 1.25049H12.8005C16.7505 1.25049 16.7505 3.44049 16.7505 5.20049V6.00049C16.7505 6.41049 16.4105 6.75049 16.0005 6.75049Z" fill="#BCBCBC"/>
<path d="M11.9995 16.75C9.24951 16.75 9.24951 15.05 9.24951 14.03V13C9.24951 11.59 9.58951 11.25 10.9995 11.25H12.9995C14.4095 11.25 14.7495 11.59 14.7495 13V14C14.7495 15.04 14.7495 16.75 11.9995 16.75ZM10.7495 12.75C10.7495 12.83 10.7495 12.92 10.7495 13V14.03C10.7495 15.06 10.7495 15.25 11.9995 15.25C13.2495 15.25 13.2495 15.09 13.2495 14.02V13C13.2495 12.92 13.2495 12.83 13.2495 12.75C13.1695 12.75 13.0795 12.75 12.9995 12.75H10.9995C10.9195 12.75 10.8295 12.75 10.7495 12.75Z" fill="#BCBCBC"/>
<path d="M14.0007 14.7695C13.6307 14.7695 13.3007 14.4895 13.2607 14.1095C13.2107 13.6995 13.5007 13.3195 13.9107 13.2695C16.5507 12.9395 19.0807 11.9395 21.2107 10.3895C21.5407 10.1395 22.0107 10.2195 22.2607 10.5595C22.5007 10.8895 22.4307 11.3595 22.0907 11.6095C19.7507 13.3095 16.9907 14.3995 14.0907 14.7695C14.0607 14.7695 14.0307 14.7695 14.0007 14.7695Z" fill="#BCBCBC"/>
<path d="M9.9995 14.7797C9.9695 14.7797 9.9395 14.7797 9.9095 14.7797C7.1695 14.4697 4.4995 13.4697 2.1895 11.8897C1.8495 11.6597 1.7595 11.1897 1.9895 10.8497C2.2195 10.5097 2.6895 10.4197 3.0295 10.6497C5.1395 12.0897 7.5695 12.9997 10.0695 13.2897C10.4795 13.3397 10.7795 13.7097 10.7295 14.1197C10.6995 14.4997 10.3795 14.7797 9.9995 14.7797Z" fill="#BCBCBC"/>
</svg>
