<svg width="25" height="26" viewBox="0 0 25 26" fill="none" xmlns="http://www.w3.org/2000/svg">
<ellipse cx="12.5" cy="13.4704" rx="12.5" ry="12.4828" fill="white"/>
<path d="M15.7823 7.17906H15V6.5532C14.9866 6.39703 14.915 6.25157 14.7994 6.14558C14.6838 6.03958 14.5325 5.98077 14.3756 5.98077C14.2186 5.98077 14.0674 6.03958 13.9518 6.14558C13.8361 6.25157 13.7645 6.39703 13.7511 6.5532V7.17906H8.75115V6.5532C8.73775 6.39703 8.66616 6.25157 8.55054 6.14558C8.43491 6.03958 8.28365 5.98077 8.1267 5.98077C7.96974 5.98077 7.81851 6.03958 7.70289 6.14558C7.58726 6.25157 7.51567 6.39703 7.50227 6.5532V7.17906H6.72004C6.26386 7.17906 5.82635 7.36002 5.50378 7.68215C5.18121 8.00427 5 8.44116 5 8.89672V15.9181C5.00121 16.4145 5.19919 16.8902 5.55067 17.2412C5.90215 17.5922 6.3785 17.7899 6.87556 17.7911H10C10.1662 17.7911 10.3256 17.7252 10.4432 17.6078C10.5607 17.4904 10.6267 17.3312 10.6267 17.1653C10.6267 16.9993 10.5607 16.8401 10.4432 16.7227C10.3256 16.6053 10.1662 16.5394 10 16.5394H6.87556C6.79348 16.54 6.71209 16.5244 6.63608 16.4934C6.56007 16.4625 6.49094 16.4168 6.43268 16.3591C6.37442 16.3013 6.3282 16.2326 6.29665 16.1569C6.2651 16.0813 6.24885 16.0001 6.24885 15.9181V10.925H16.2488C16.2488 11.091 16.3149 11.2502 16.4324 11.3676C16.55 11.4849 16.7093 11.5509 16.8756 11.5509C17.0418 11.5509 17.2012 11.4849 17.3187 11.3676C17.4362 11.2502 17.5023 11.091 17.5023 10.925V8.89672C17.5023 8.44116 17.3211 8.00427 16.9985 7.68215C16.6759 7.36002 16.2384 7.17906 15.7823 7.17906Z" fill="#030303"/>
<path d="M15.9377 12.798C15.1343 12.798 14.3489 13.0359 13.6808 13.4816C13.0128 13.9274 12.4922 14.5609 12.1847 15.3022C11.8772 16.0434 11.7968 16.8591 11.9535 17.646C12.1103 18.4329 12.4972 19.1557 13.0653 19.723C13.6334 20.2904 14.3572 20.6767 15.1452 20.8332C15.9332 20.9898 16.75 20.9094 17.4923 20.6024C18.2345 20.2954 18.869 19.7754 19.3153 19.1083C19.7617 18.4412 19.9999 17.6569 19.9999 16.8546C19.9987 15.7791 19.5703 14.748 18.8088 13.9875C18.0472 13.227 17.0147 12.7992 15.9377 12.798ZM17.8178 16.1693L15.7868 18.5083C15.7295 18.574 15.6594 18.6274 15.5807 18.6651C15.502 18.7028 15.4165 18.7241 15.3293 18.7276C15.2447 18.729 15.1607 18.7136 15.0821 18.6822C15.0036 18.6509 14.9321 18.6042 14.8718 18.5448L13.7785 17.4485C13.7197 17.391 13.673 17.3224 13.6411 17.2467C13.6092 17.171 13.5928 17.0898 13.5928 17.0076C13.5928 16.9255 13.6092 16.8442 13.6411 16.7685C13.673 16.6928 13.7197 16.6242 13.7785 16.5668C13.8959 16.4505 14.0546 16.3852 14.2199 16.3852C14.3853 16.3852 14.544 16.4505 14.6614 16.5668L15.279 17.1881L16.8709 15.3608C16.982 15.2447 17.1336 15.1757 17.2942 15.168C17.4548 15.1604 17.6123 15.2147 17.7339 15.3198C17.8555 15.4248 17.9321 15.5725 17.9477 15.7324C17.9633 15.8922 17.9168 16.0519 17.8178 16.1785V16.1693Z" fill="#030303"/>
</svg>
