<svg width="15" height="15" viewBox="0 0 15 15" fill="none" xmlns="http://www.w3.org/2000/svg">
<path d="M14.9584 13.3784C14.8462 12.5907 14.7215 11.8029 14.6092 11.0215L14.2164 8.40841L13.8049 5.64161L13.5056 3.56649C13.5056 3.47042 13.5056 3.37436 13.4619 3.27829C13.4121 2.94525 13.3622 2.59299 13.2998 2.25354C13.2494 1.98325 13.1094 1.7392 12.9037 1.5629C12.698 1.3866 12.4392 1.28892 12.1712 1.28643C11.8719 1.28643 11.5477 1.28643 11.2796 1.28643H10.7434V1.1071C10.7434 0.96193 10.7434 0.821025 10.7434 0.684393C10.7506 0.573663 10.7297 0.462913 10.6827 0.362987C10.6357 0.263061 10.5642 0.177397 10.4752 0.114388C10.3684 0.0467408 10.2468 0.00775886 10.1215 0.00104376C9.99619 -0.00567134 9.87126 0.0200977 9.75818 0.0759616C9.65364 0.131517 9.56654 0.216321 9.50696 0.320593C9.44737 0.424865 9.41773 0.544334 9.42148 0.665179V1.30565H7.12067V1.14553C7.12067 1.01103 7.12067 0.870133 7.12067 0.72923C7.12994 0.624013 7.11372 0.518081 7.07347 0.420861C7.03322 0.323641 6.97018 0.238155 6.88996 0.172028C6.79138 0.0983728 6.67652 0.05104 6.55571 0.0342711C6.43491 0.0175022 6.31193 0.0318266 6.19785 0.0759616C6.08281 0.123014 5.98403 0.204182 5.91407 0.30912C5.84411 0.414057 5.80615 0.538001 5.80503 0.665179C5.80503 0.812487 5.80503 0.966193 5.80503 1.1199V1.31206H3.50422V0.748443C3.50955 0.64083 3.49164 0.533342 3.45175 0.433683C3.41186 0.334024 3.35099 0.244668 3.27351 0.172028C3.19089 0.108026 3.09534 0.063872 2.99391 0.0428124C2.89247 0.0217529 2.78773 0.0243222 2.6874 0.0503374C2.54859 0.071812 2.4219 0.143735 2.33036 0.253044C2.23881 0.362352 2.1885 0.50178 2.18857 0.645966V1.31847H1.24705C0.920387 1.31306 0.604699 1.43954 0.367878 1.67072C0.178534 1.87202 0.0506585 2.12581 0 2.40084V13.9292C0.0562005 14.2017 0.185835 14.4525 0.374115 14.653C0.62985 14.8894 0.965606 15.0136 1.3094 14.9988H13.73C13.9829 15.0071 14.2323 14.9362 14.445 14.7955C14.6577 14.6548 14.8237 14.4509 14.921 14.211C15.0116 13.9431 15.0246 13.6538 14.9584 13.3784ZM9.63348 3.13098H9.73324C9.84721 3.16852 9.964 3.19637 10.0824 3.21424C10.1627 3.22633 10.2447 3.21996 10.3223 3.1956C10.3999 3.17123 10.4713 3.12947 10.5314 3.07334C10.5179 3.18492 10.4657 3.28778 10.3844 3.36306C10.3031 3.43834 10.1981 3.481 10.0887 3.48323C9.97927 3.4832 9.87346 3.44326 9.79009 3.37053C9.70672 3.2978 9.65122 3.19701 9.63348 3.08614V3.13098ZM13.1003 14.48C13.2771 14.1916 13.3601 13.8529 13.3372 13.5129C13.3372 12.9173 13.3372 12.3153 13.3372 11.7324V10.8934C13.3338 10.8787 13.3338 10.8633 13.3372 10.8486C13.3506 10.8048 13.3506 10.7579 13.3372 10.7141C13.2892 10.6317 13.2172 10.5667 13.1315 10.5284C13.1092 10.5171 13.0846 10.5112 13.0598 10.5112C13.0349 10.5112 13.0104 10.5171 12.9881 10.5284C12.9592 10.5444 12.9339 10.5664 12.9135 10.5928C12.8932 10.6192 12.8782 10.6496 12.8696 10.6821C12.86 10.7436 12.86 10.8063 12.8696 10.8678V13.641C12.8828 13.7534 12.8709 13.8673 12.8348 13.9742C12.7986 14.0811 12.7392 14.1781 12.661 14.2577C12.5828 14.3374 12.4879 14.3978 12.3836 14.4341C12.2793 14.4704 12.1682 14.4817 12.059 14.4672H1.30317C1.19381 14.4808 1.08288 14.4686 0.978822 14.4315C0.874767 14.3944 0.780342 14.3333 0.702752 14.253C0.625162 14.1727 0.566452 14.0752 0.53111 13.968C0.495767 13.8609 0.484724 13.7468 0.498818 13.6346V6.14118H5.87362C5.92615 6.15972 5.9832 6.15972 6.03573 6.14118C6.11148 6.08178 6.16623 5.99854 6.19161 5.90419C6.19161 5.7889 6.12926 5.69284 5.99208 5.66722C5.94866 5.66082 5.90457 5.66082 5.86114 5.66722H0.52376V5.34699H12.8384V5.66722H7.09573C7.05838 5.66401 7.02084 5.66401 6.98349 5.66722C6.9249 5.67683 6.87156 5.70757 6.83305 5.75394C6.79455 5.80031 6.7734 5.85927 6.7734 5.92022C6.7734 5.98116 6.79455 6.0401 6.83305 6.08647C6.87156 6.13284 6.9249 6.16359 6.98349 6.17319H12.8571V9.70217C12.8571 9.8815 12.9631 9.99037 13.1065 9.99037C13.141 9.98887 13.1748 9.98006 13.2058 9.96445C13.2368 9.94884 13.2643 9.92678 13.2866 9.89969C13.3089 9.8726 13.3254 9.84107 13.3352 9.80707C13.345 9.77307 13.3478 9.73734 13.3435 9.70217V7.45412C13.3435 6.97377 13.3435 6.48702 13.3435 5.99386C13.3809 6.21162 13.4121 6.42938 13.4432 6.63433L14.0668 10.6565L14.1603 11.2969C14.2788 12.0527 14.391 12.8404 14.5032 13.6154C14.5269 13.7264 14.5263 13.8414 14.5015 13.9522C14.4767 14.0629 14.4283 14.1666 14.3598 14.2559C14.2802 14.3421 14.183 14.4092 14.0752 14.4524C13.9674 14.4956 13.8517 14.5138 13.7363 14.5057H13.1128L13.1003 14.48ZM2.17611 2.25354C2.1717 2.29452 2.15415 2.33281 2.12622 2.36241C1.99114 2.51439 1.90538 2.70574 1.8808 2.90998C1.85623 3.11422 1.89405 3.32125 1.98905 3.50244C2.07141 3.65553 2.19122 3.78392 2.33666 3.8749C2.48209 3.96588 2.64812 4.01632 2.81834 4.02124H2.90563C3.10939 4.00885 3.30381 3.92921 3.45997 3.7942C3.61613 3.65918 3.72569 3.476 3.77233 3.27188C3.81168 3.13194 3.81749 2.98428 3.78926 2.84153C3.76103 2.69878 3.6996 2.56517 3.61021 2.45209C3.56991 2.4051 3.53921 2.35027 3.51993 2.29085C3.50065 2.23144 3.49318 2.16866 3.49798 2.10623C3.50422 2.03378 3.50422 1.96092 3.49798 1.88847V1.81803H5.79879C5.79879 1.85646 5.79879 1.88846 5.79879 1.92049C5.79879 1.95251 5.79879 2.16387 5.79879 2.28556C5.79098 2.32309 5.77124 2.35688 5.74268 2.38162C5.60603 2.54796 5.52599 2.75558 5.51473 2.97291C5.50348 3.19025 5.56162 3.40542 5.68032 3.5857C5.80493 3.76523 5.98322 3.89805 6.18806 3.96395C6.3929 4.02984 6.61309 4.02522 6.81514 3.95077C7.01641 3.87931 7.18792 3.73942 7.30129 3.55426C7.41467 3.36909 7.46313 3.14973 7.43867 2.93244C7.40668 2.75053 7.34106 2.57662 7.24537 2.42007C7.1892 2.34502 7.16051 2.25206 7.16432 2.15748C7.16432 2.08062 7.16432 1.99736 7.16432 1.9141V1.83083H9.46513V1.85005C9.46513 1.97814 9.46513 2.09983 9.46513 2.22792C9.46513 2.22792 9.46513 2.27276 9.42148 2.29838C9.30404 2.44222 9.22902 2.61749 9.2052 2.80361C9.18139 2.98974 9.20978 3.17898 9.28704 3.34911C9.3643 3.51923 9.48723 3.66318 9.64137 3.76404C9.79552 3.86489 9.97448 3.91847 10.1572 3.91847C10.34 3.91847 10.519 3.86489 10.6731 3.76404C10.8273 3.66318 10.9502 3.51923 11.0274 3.34911C11.1047 3.17898 11.1331 2.98974 11.1093 2.80361C11.0855 2.61749 11.0104 2.44222 10.893 2.29838C10.8466 2.23503 10.8186 2.15956 10.8119 2.0806C10.8119 1.99094 10.8119 1.90768 10.8119 1.82442C10.8148 1.79461 10.8148 1.76458 10.8119 1.73477H11.2359C11.5851 1.73477 11.9405 1.73477 12.2959 1.73477C12.4613 1.73477 12.6199 1.80223 12.7368 1.92234C12.8538 2.04246 12.9195 2.20537 12.9195 2.37523C12.9195 2.93884 12.9195 3.51526 12.9195 4.07246V4.71293H0.52376V2.54174C0.510653 2.4317 0.522117 2.32005 0.557279 2.21523C0.59244 2.11042 0.650375 2.0152 0.726694 1.93681C0.803013 1.85842 0.895707 1.79889 0.997751 1.76278C1.09979 1.72666 1.2085 1.71489 1.31564 1.72836H2.20728V1.85005C2.18234 1.99095 2.18234 2.09983 2.17611 2.20871V2.25354ZM10.2383 1.61308V2.55456C10.2383 2.69546 10.2383 2.72107 10.0824 2.72107C10.0445 2.72405 10.0068 2.71267 9.97642 2.68905C9.95958 2.67158 9.94689 2.65036 9.93932 2.62704C9.93175 2.60371 9.9295 2.57892 9.93277 2.55456C9.93277 2.21512 9.93277 1.87566 9.93277 1.52981C9.93277 1.18396 9.93277 0.966198 9.93277 0.684393C9.93277 0.54349 9.93277 0.511474 10.1011 0.511474C10.1409 0.509606 10.1802 0.520817 10.2134 0.543489C10.2438 0.585837 10.2572 0.638589 10.2508 0.690804C10.2508 0.908562 10.2508 1.12632 10.2508 1.33127L10.2383 1.61308ZM6.01703 3.09255C6.14637 3.18986 6.30253 3.24233 6.46285 3.24233C6.62317 3.24233 6.77933 3.18986 6.90867 3.09255C6.89493 3.20461 6.84163 3.30759 6.75888 3.38196C6.67613 3.45634 6.56968 3.49693 6.45973 3.49605C6.33777 3.49494 6.2212 3.44428 6.1355 3.35515C6.06118 3.27585 6.01885 3.17059 6.01703 3.06054V3.09255ZM6.30385 0.684393C6.30016 0.634402 6.31337 0.584633 6.34126 0.543489C6.37352 0.518901 6.41352 0.507497 6.4535 0.511474C6.59067 0.511474 6.61561 0.543496 6.62185 0.690804V1.85005C6.62185 2.0678 6.62185 2.29197 6.62185 2.49051C6.62185 2.56096 6.62185 2.60579 6.62185 2.625C6.58767 2.65058 6.54538 2.66203 6.50338 2.65704C6.37867 2.65704 6.34749 2.62501 6.34749 2.49051V0.620342L6.30385 0.684393ZM2.39434 3.06054C2.52406 3.15691 2.68007 3.20879 2.84016 3.20879C3.00025 3.20879 3.15626 3.15691 3.28598 3.06054C3.27555 3.14431 3.24291 3.22352 3.19164 3.28955C3.14037 3.35558 3.07242 3.40587 2.99522 3.43495C2.91802 3.46402 2.83454 3.47077 2.75386 3.45444C2.67319 3.4381 2.59844 3.39931 2.53775 3.34232C2.46134 3.26694 2.41098 3.16801 2.39434 3.06054ZM2.68116 1.58104V0.639555C2.67709 0.5935 2.69049 0.54762 2.71857 0.511474C2.75083 0.486886 2.79082 0.475462 2.83081 0.479439C2.87866 0.475184 2.92662 0.486391 2.96798 0.511474C2.98131 0.553075 2.98131 0.597954 2.96798 0.639555V2.56095C2.96798 2.68264 2.93057 2.71468 2.7934 2.71468C2.75544 2.71766 2.71774 2.70625 2.6874 2.68264C2.65834 2.64453 2.64492 2.59628 2.64999 2.54815V1.60667L2.68116 1.58104Z" fill="#030303" fill-opacity="0.5"/>
<path d="M3.01785 12.6355H2.78091C2.74356 12.6387 2.70602 12.6387 2.66868 12.6355H2.31327C2.24596 12.6371 2.18185 12.6653 2.13425 12.7142C2.08665 12.7631 2.0592 12.829 2.05762 12.8981C2.05841 12.9323 2.06586 12.966 2.07954 12.9972C2.09321 13.0284 2.11284 13.0565 2.13725 13.0797C2.16166 13.103 2.19036 13.1211 2.22166 13.1328C2.25296 13.1445 2.28623 13.1496 2.3195 13.1479H3.01785C3.05112 13.1487 3.08422 13.1427 3.11521 13.1302C3.14619 13.1177 3.17443 13.099 3.19825 13.0751C3.22208 13.0513 3.24101 13.0227 3.25393 12.9912C3.26685 12.9597 3.27351 12.9259 3.2735 12.8917C3.27187 12.8232 3.24422 12.758 3.19645 12.7101C3.14868 12.6623 3.08458 12.6355 3.01785 12.6355Z" fill="#030303" fill-opacity="0.5"/>
<path d="M3.01796 9.0105H2.31961C2.25181 9.0105 2.18678 9.03816 2.13884 9.08741C2.0909 9.13665 2.06396 9.20345 2.06396 9.27309C2.0671 9.3394 2.09457 9.40203 2.14084 9.44838C2.18712 9.49472 2.24876 9.52134 2.31338 9.52288H3.01796C3.08411 9.52288 3.14755 9.49589 3.19432 9.44785C3.24109 9.3998 3.26737 9.33463 3.26737 9.26668C3.26737 9.19874 3.24109 9.13358 3.19432 9.08553C3.14755 9.03749 3.08411 9.0105 3.01796 9.0105Z" fill="#030303" fill-opacity="0.5"/>
<path d="M11.0238 9.01049H10.3379C10.3037 9.00784 10.2692 9.01251 10.2367 9.02419C10.2043 9.03587 10.1745 9.05433 10.1494 9.07839C10.1242 9.10245 10.1041 9.13159 10.0904 9.164C10.0767 9.1964 10.0697 9.23135 10.0698 9.26667C10.0698 9.30086 10.0765 9.33471 10.0894 9.36621C10.1023 9.39772 10.1212 9.42625 10.1451 9.45012C10.1689 9.474 10.1971 9.49275 10.2281 9.50524C10.2591 9.51773 10.2922 9.52373 10.3255 9.52287H11.0301C11.0962 9.52287 11.1596 9.49588 11.2064 9.44784C11.2532 9.39979 11.2795 9.33461 11.2795 9.26667C11.2795 9.19872 11.2532 9.13357 11.2064 9.08552C11.1596 9.03748 11.0962 9.01049 11.0301 9.01049H11.0238Z" fill="#030303" fill-opacity="0.5"/>
<path d="M5.00682 9.0105H4.30223C4.23819 9.01042 4.17657 9.03565 4.13014 9.08096C4.08371 9.12627 4.05603 9.18818 4.05283 9.25388C4.05008 9.28759 4.05421 9.32152 4.06494 9.3535C4.07568 9.38548 4.09279 9.41481 4.11518 9.43962C4.1655 9.48997 4.23206 9.5196 4.30223 9.52288H5.01305C5.0792 9.52288 5.14264 9.49589 5.18941 9.44785C5.23619 9.3998 5.26246 9.33463 5.26246 9.26668C5.26246 9.19874 5.23619 9.13358 5.18941 9.08553C5.14264 9.03749 5.0792 9.0105 5.01305 9.0105H5.00682Z" fill="#030303" fill-opacity="0.5"/>
<path d="M5.00058 12.6419C4.77611 12.6419 4.5454 12.6419 4.32093 12.6419C4.28748 12.6384 4.25369 12.642 4.22167 12.6526C4.18965 12.6631 4.16011 12.6804 4.13491 12.7032C4.10972 12.7261 4.08941 12.7541 4.07528 12.7854C4.06115 12.8168 4.0535 12.8508 4.05282 12.8853C4.05192 12.9206 4.05812 12.9557 4.07105 12.9884C4.08397 13.0211 4.10333 13.0507 4.12792 13.0754C4.15251 13.1 4.18179 13.1192 4.21393 13.1317C4.24608 13.1442 4.28038 13.1497 4.3147 13.1479H5.00682C5.04113 13.1497 5.07544 13.1442 5.10758 13.1317C5.13972 13.1192 5.16901 13.1 5.19359 13.0754C5.21818 13.0507 5.23755 13.0211 5.25047 12.9884C5.26339 12.9557 5.2696 12.9206 5.26869 12.8853C5.26801 12.8508 5.26036 12.8168 5.24623 12.7854C5.2321 12.7541 5.2118 12.7261 5.1866 12.7032C5.1614 12.6804 5.13186 12.6631 5.09985 12.6526C5.06783 12.642 5.03403 12.6384 5.00058 12.6419Z" fill="#030303" fill-opacity="0.5"/>
<path d="M9.01002 12.6356H8.32414C8.29087 12.6339 8.2576 12.639 8.2263 12.6507C8.195 12.6624 8.1663 12.6804 8.14189 12.7037C8.11748 12.727 8.09785 12.7551 8.08418 12.7863C8.0705 12.8175 8.06305 12.8512 8.06226 12.8854C8.06225 12.9196 8.0689 12.9534 8.08182 12.9849C8.09474 13.0164 8.11368 13.0449 8.1375 13.0688C8.16132 13.0927 8.18956 13.1114 8.22054 13.1239C8.25153 13.1364 8.28463 13.1424 8.3179 13.1416H9.01626C9.04973 13.1442 9.08337 13.1397 9.11507 13.1283C9.14676 13.117 9.17583 13.099 9.20043 13.0755C9.22503 13.0521 9.24463 13.0236 9.25801 12.992C9.27138 12.9604 9.27823 12.9262 9.27814 12.8918C9.27734 12.8567 9.26973 12.8222 9.25574 12.7902C9.24175 12.7582 9.22167 12.7295 9.19668 12.7056C9.17169 12.6817 9.1423 12.6632 9.11024 12.6512C9.07818 12.6392 9.04411 12.6339 9.01002 12.6356Z" fill="#030303" fill-opacity="0.5"/>
<path d="M4.3085 7.70393H5.02556C5.05773 7.70481 5.08973 7.69895 5.11962 7.68671C5.14951 7.67447 5.17666 7.6561 5.19942 7.63272C5.22217 7.60935 5.24005 7.58145 5.25197 7.55075C5.26389 7.52005 5.26959 7.48718 5.26873 7.45414C5.27041 7.42249 5.26589 7.39082 5.25544 7.361C5.24499 7.33118 5.22882 7.3038 5.20789 7.28051C5.18696 7.25722 5.1617 7.23848 5.13359 7.2254C5.10549 7.21231 5.07511 7.20516 5.04426 7.20435C4.76368 7.20435 4.51427 7.20435 4.28356 7.20435C4.25034 7.20449 4.21754 7.21202 4.18741 7.22639C4.15728 7.24076 4.13052 7.26164 4.10897 7.28761C4.08818 7.31197 4.07248 7.34046 4.06282 7.3713C4.05317 7.40215 4.04978 7.4347 4.05286 7.46694C4.05361 7.50004 4.06092 7.53265 4.07435 7.56275C4.08779 7.59285 4.10706 7.61981 4.13099 7.64199C4.15492 7.66417 4.18301 7.6811 4.21353 7.69175C4.24405 7.7024 4.27637 7.70655 4.3085 7.70393Z" fill="#030303" fill-opacity="0.5"/>
<path d="M7.01479 9.01049H6.32891C6.29462 9.00784 6.26016 9.01251 6.22771 9.02419C6.19526 9.03587 6.16551 9.05433 6.14033 9.07839C6.11515 9.10245 6.09509 9.13159 6.0814 9.164C6.06771 9.1964 6.0607 9.23135 6.06079 9.26667C6.06078 9.30086 6.06744 9.33471 6.08036 9.36621C6.09328 9.39772 6.11221 9.42625 6.13604 9.45012C6.15986 9.474 6.18809 9.49275 6.21908 9.50524C6.25006 9.51773 6.28317 9.52373 6.31644 9.52287H7.01479C7.08094 9.52287 7.14437 9.49588 7.19115 9.44784C7.23792 9.39979 7.2642 9.33461 7.2642 9.26667C7.2642 9.19872 7.23792 9.13357 7.19115 9.08552C7.14437 9.03748 7.08094 9.01049 7.01479 9.01049Z" fill="#030303" fill-opacity="0.5"/>
<path d="M9.01002 9.01049H8.33661C8.30221 9.00876 8.26782 9.01404 8.2354 9.02599C8.20298 9.03794 8.17318 9.05633 8.1477 9.08013C8.12221 9.10392 8.10155 9.13265 8.08689 9.16466C8.07223 9.19667 8.06386 9.23133 8.06226 9.26667C8.06221 9.30142 8.06906 9.33581 8.08236 9.36776C8.09567 9.39971 8.11516 9.42854 8.13966 9.45251C8.16416 9.47647 8.19315 9.49506 8.22486 9.50716C8.25657 9.51925 8.29035 9.52461 8.32414 9.52287H9.02249C9.05576 9.52373 9.08887 9.51773 9.11985 9.50524C9.15083 9.49275 9.17907 9.474 9.20289 9.45012C9.22672 9.42625 9.24565 9.39772 9.25857 9.36621C9.27149 9.33471 9.27815 9.30086 9.27814 9.26667C9.27823 9.23135 9.27121 9.1964 9.25753 9.164C9.24384 9.13159 9.22378 9.10245 9.1986 9.07839C9.17342 9.05433 9.14367 9.03587 9.11122 9.02419C9.07876 9.01251 9.04431 9.00784 9.01002 9.01049Z" fill="#030303" fill-opacity="0.5"/>
<path d="M8.45513 11.3354H9.02877C9.06071 11.3363 9.0925 11.3307 9.12232 11.3189C9.15214 11.3071 9.17941 11.2894 9.20258 11.2668C9.22574 11.2442 9.24434 11.2171 9.25731 11.1871C9.27029 11.1572 9.27738 11.1248 9.27819 11.092C9.2809 11.0598 9.27734 11.0274 9.2677 10.9966C9.25807 10.9658 9.24255 10.9373 9.22207 10.9127C9.19717 10.8859 9.16714 10.8647 9.13388 10.8504C9.10062 10.836 9.06484 10.8289 9.02877 10.8294C8.78576 10.8166 8.54226 10.8166 8.29925 10.8294C8.26703 10.8283 8.23495 10.8343 8.2052 10.8471C8.17545 10.8598 8.14872 10.879 8.12683 10.9033C8.10494 10.9276 8.0884 10.9565 8.07834 10.988C8.06829 11.0194 8.06494 11.0527 8.06854 11.0856C8.06664 11.1187 8.07167 11.1517 8.08331 11.1826C8.09494 11.2134 8.1129 11.2413 8.13597 11.2644C8.15904 11.2875 8.18667 11.3052 8.217 11.3164C8.24732 11.3275 8.27963 11.3318 8.31172 11.329L8.45513 11.3354Z" fill="#030303" fill-opacity="0.5"/>
<path d="M8.31172 7.70402H9.02877C9.0604 7.70574 9.09205 7.70093 9.12184 7.68987C9.15163 7.67881 9.17896 7.66173 9.20221 7.63964C9.22546 7.61754 9.24417 7.59089 9.25722 7.56124C9.27027 7.53159 9.2774 7.49956 9.27819 7.46703C9.28269 7.4001 9.26267 7.33387 9.22207 7.28131C9.17602 7.23304 9.11327 7.2054 9.04748 7.20444C8.79822 7.19162 8.5485 7.19162 8.29925 7.20444C8.26703 7.20331 8.23495 7.20934 8.2052 7.22209C8.17545 7.23483 8.14872 7.25401 8.12683 7.27832C8.10494 7.30263 8.0884 7.33149 8.07834 7.36295C8.06829 7.39441 8.06494 7.42773 8.06854 7.46064C8.06763 7.4934 8.07335 7.526 8.08533 7.55637C8.09731 7.58675 8.1153 7.61424 8.13815 7.63712C8.16101 7.65999 8.18823 7.67775 8.21811 7.68926C8.24798 7.70078 8.27986 7.7058 8.31172 7.70402Z" fill="#030303" fill-opacity="0.5"/>
<path d="M10.3068 7.70393H11.0363C11.1004 7.70401 11.162 7.67877 11.2084 7.63347C11.2549 7.58816 11.2825 7.52625 11.2857 7.46055C11.2874 7.42858 11.283 7.39657 11.2726 7.36638C11.2622 7.33619 11.2461 7.3084 11.2253 7.2846C11.2044 7.2608 11.1792 7.24147 11.1511 7.2277C11.1229 7.21393 11.0924 7.20598 11.0613 7.20435H10.2881C10.2298 7.20884 10.1748 7.23371 10.1322 7.27481C10.089 7.3287 10.0668 7.39717 10.0699 7.46694C10.0699 7.49861 10.076 7.52996 10.088 7.55914C10.1 7.58831 10.1175 7.61472 10.1396 7.63681C10.1617 7.6589 10.1879 7.67622 10.2166 7.68774C10.2453 7.69927 10.276 7.70478 10.3068 7.70393Z" fill="#030303" fill-opacity="0.5"/>
<path d="M2.4256 11.3353H3.04913C3.07994 11.3362 3.11061 11.3307 3.13933 11.3192C3.16804 11.3076 3.19421 11.2903 3.2163 11.2682C3.23839 11.2461 3.25594 11.2197 3.26793 11.1906C3.27991 11.1614 3.28608 11.13 3.28606 11.0984C3.28928 11.0651 3.28597 11.0316 3.27633 10.9997C3.26669 10.9677 3.25091 10.9381 3.22994 10.9126C3.20646 10.8783 3.1743 10.8512 3.13695 10.8343C3.09959 10.8174 3.05845 10.8112 3.01795 10.8165C2.77477 10.8165 2.51913 10.8165 2.24478 10.8165C2.2136 10.8172 2.18291 10.8246 2.15466 10.8381C2.12641 10.8517 2.10122 10.8711 2.08068 10.8952C2.06015 10.9193 2.04473 10.9476 2.03541 10.9781C2.02609 11.0087 2.02307 11.0409 2.02654 11.0727C2.0248 11.1046 2.02953 11.1365 2.04042 11.1664C2.05132 11.1963 2.06814 11.2236 2.08983 11.2465C2.11152 11.2694 2.1376 11.2874 2.16642 11.2994C2.19524 11.3113 2.22617 11.317 2.25724 11.3161L2.4256 11.3353Z" fill="#030303" fill-opacity="0.5"/>
<path d="M4.43957 11.3353H5.02568C5.05785 11.3361 5.08985 11.3303 5.11975 11.318C5.14964 11.3058 5.17679 11.2874 5.19954 11.2641C5.2223 11.2407 5.24018 11.2128 5.25209 11.1821C5.26401 11.1514 5.26972 11.1185 5.26886 11.0855C5.27054 11.0538 5.26602 11.0222 5.25557 10.9923C5.24512 10.9625 5.22895 10.9352 5.20802 10.9119C5.18709 10.8886 5.16182 10.8698 5.13372 10.8567C5.10561 10.8437 5.07523 10.8365 5.04439 10.8357H4.26498C4.2336 10.8356 4.20255 10.8422 4.17371 10.8549C4.14488 10.8676 4.11887 10.8862 4.09728 10.9096C4.07568 10.933 4.05895 10.9606 4.04812 10.9908C4.03729 11.0211 4.03258 11.0533 4.03427 11.0855C4.03341 11.1185 4.03912 11.1514 4.05104 11.1821C4.06295 11.2128 4.08083 11.2407 4.10359 11.2641C4.12634 11.2874 4.15349 11.3058 4.18339 11.318C4.21328 11.3303 4.24528 11.3361 4.27745 11.3353H4.43957Z" fill="#030303" fill-opacity="0.5"/>
<path d="M11.0551 10.8167C10.812 10.8167 10.5625 10.8167 10.3069 10.8167C10.2424 10.8167 10.1805 10.843 10.1349 10.8898C10.0893 10.9367 10.0637 11.0002 10.0637 11.0664C10.0637 11.1327 10.0893 11.1962 10.1349 11.2431C10.1805 11.2899 10.2424 11.3162 10.3069 11.3162H11.0364C11.0988 11.3163 11.1588 11.2918 11.2041 11.2476C11.2494 11.2035 11.2764 11.1432 11.2796 11.0792C11.2822 11.048 11.2785 11.0166 11.2689 10.9868C11.2592 10.9571 11.2438 10.9297 11.2235 10.9063C11.2029 10.8803 11.1774 10.8589 11.1484 10.8434C11.1194 10.828 11.0877 10.8189 11.0551 10.8167Z" fill="#030303" fill-opacity="0.5"/>
<path d="M7.02086 12.642C6.80263 12.642 6.57193 12.642 6.32252 12.642C6.28937 12.6384 6.25586 12.642 6.22417 12.6526C6.19248 12.6632 6.16332 12.6806 6.13861 12.7035C6.11389 12.7265 6.09417 12.7546 6.08073 12.7859C6.0673 12.8172 6.06045 12.8511 6.06063 12.8854C6.05973 12.9206 6.06594 12.9557 6.07886 12.9884C6.09179 13.0211 6.11115 13.0507 6.13574 13.0754C6.16033 13.1001 6.18961 13.1192 6.22175 13.1317C6.25389 13.1442 6.2882 13.1497 6.32252 13.148H7.0271C7.05927 13.1488 7.09127 13.143 7.12116 13.1307C7.15105 13.1185 7.17821 13.1001 7.20096 13.0767C7.22372 13.0534 7.2416 13.0255 7.25352 12.9948C7.26543 12.9641 7.27113 12.9312 7.27028 12.8982C7.27208 12.864 7.26685 12.8299 7.25496 12.798C7.24306 12.7661 7.22475 12.7371 7.20123 12.7129C7.1777 12.6887 7.14947 12.6699 7.1184 12.6577C7.08732 12.6455 7.05409 12.6401 7.02086 12.642Z" fill="#030303" fill-opacity="0.5"/>
<path d="M6.31628 7.70379H7.03333C7.09511 7.70381 7.15444 7.67904 7.1987 7.63478C7.24296 7.59051 7.26865 7.53023 7.27027 7.4668C7.27606 7.39972 7.2559 7.33301 7.21416 7.28108C7.19179 7.25659 7.16473 7.23712 7.13469 7.22389C7.10464 7.21067 7.07225 7.20396 7.03956 7.20421C6.79239 7.19137 6.54475 7.19137 6.29757 7.20421C6.26542 7.20225 6.23323 7.20743 6.2032 7.21938C6.17317 7.23133 6.14599 7.24978 6.12351 7.27348C6.10104 7.29717 6.08379 7.32556 6.07294 7.3567C6.06209 7.38785 6.05789 7.42104 6.06063 7.454C6.05965 7.48818 6.06569 7.52218 6.07836 7.5538C6.09103 7.58542 6.11004 7.61395 6.13416 7.63751C6.15828 7.66108 6.18697 7.67916 6.21835 7.69058C6.24972 7.702 6.28309 7.70651 6.31628 7.70379Z" fill="#030303" fill-opacity="0.5"/>
<path d="M6.43472 11.3352H7.05825C7.08878 11.3361 7.11916 11.3306 7.14754 11.319C7.17592 11.3074 7.2017 11.29 7.22329 11.2678C7.24489 11.2456 7.26185 11.2191 7.27314 11.19C7.28443 11.1608 7.28981 11.1296 7.28895 11.0982C7.29345 11.0662 7.29115 11.0336 7.28222 11.0026C7.27328 10.9716 7.25792 10.9429 7.23719 10.9186C7.21646 10.8943 7.19085 10.8748 7.16212 10.8616C7.13338 10.8484 7.1022 10.8417 7.07072 10.8421C6.81507 10.8421 6.55319 10.8421 6.29755 10.8421C6.26666 10.8418 6.23609 10.8484 6.20784 10.8612C6.1796 10.874 6.15432 10.8929 6.1337 10.9165C6.11307 10.9401 6.09755 10.9679 6.08817 10.9982C6.0788 11.0284 6.07578 11.0603 6.07931 11.0918C6.07848 11.1235 6.08383 11.155 6.09505 11.1845C6.10627 11.214 6.12313 11.2409 6.14464 11.2636C6.16614 11.2862 6.19186 11.3043 6.22026 11.3166C6.24867 11.3289 6.27919 11.3352 6.31001 11.3352H6.43472Z" fill="#030303" fill-opacity="0.5"/>
</svg>
