<svg width="20" height="20" viewBox="0 0 20 20" fill="none" xmlns="http://www.w3.org/2000/svg">
<path opacity="0.5" d="M14.75 2V2.25H15H17C17.7293 2.25 18.4288 2.53973 18.9445 3.05546C19.4603 3.57118 19.75 4.27065 19.75 5V17C19.75 17.7293 19.4603 18.4288 18.9445 18.9445C18.4288 19.4603 17.7293 19.75 17 19.75H3C2.27065 19.75 1.57118 19.4603 1.05546 18.9445C0.539732 18.4288 0.25 17.7293 0.25 17V5C0.25 4.27065 0.539731 3.57118 1.05546 3.05546C1.57118 2.53973 2.27065 2.25 3 2.25H5H5.25V2V1C5.25 0.801088 5.32902 0.610322 5.46967 0.46967C5.61032 0.329018 5.80109 0.25 6 0.25C6.19891 0.25 6.38968 0.329018 6.53033 0.46967C6.67098 0.610322 6.75 0.801088 6.75 1V2V2.25H7H13H13.25V2V1C13.25 0.801088 13.329 0.610322 13.4697 0.46967C13.6103 0.329018 13.8011 0.25 14 0.25C14.1989 0.25 14.3897 0.329018 14.5303 0.46967C14.671 0.610322 14.75 0.801087 14.75 1V2ZM2 9.75H1.75V10V17C1.75 17.3315 1.8817 17.6495 2.11612 17.8839C2.35054 18.1183 2.66848 18.25 3 18.25H17C17.3315 18.25 17.6495 18.1183 17.8839 17.8839C18.1183 17.6495 18.25 17.3315 18.25 17V10V9.75H18H2ZM18 8.25H18.25V8V5C18.25 4.66848 18.1183 4.35054 17.8839 4.11612C17.6495 3.8817 17.3315 3.75 17 3.75H15H14.75V4V5C14.75 5.19891 14.671 5.38968 14.5303 5.53033C14.3897 5.67098 14.1989 5.75 14 5.75C13.8011 5.75 13.6103 5.67098 13.4697 5.53033C13.329 5.38968 13.25 5.19891 13.25 5V4V3.75H13H7H6.75V4V5C6.75 5.19891 6.67098 5.38968 6.53033 5.53033C6.38968 5.67098 6.19891 5.75 6 5.75C5.80109 5.75 5.61032 5.67098 5.46967 5.53033C5.32902 5.38968 5.25 5.19891 5.25 5V4V3.75H5H3C2.66848 3.75 2.35054 3.8817 2.11612 4.11612C1.8817 4.35054 1.75 4.66848 1.75 5V8V8.25H2H18Z" fill="#030303" stroke="white" stroke-width="0.5"/>
</svg>
