<svg width="25" height="25" viewBox="0 0 25 25" fill="none" xmlns="http://www.w3.org/2000/svg">
<path d="M21.3333 3.65568C19.287 1.61195 16.5954 0.340998 13.7171 0.0594102C10.8388 -0.222178 7.9518 0.503026 5.54823 2.11143C3.14466 3.71984 1.37319 6.11192 0.535657 8.88007C-0.301878 11.6482 -0.153675 14.6211 0.955083 17.2922C2.06384 19.9633 4.0645 22.1673 6.61616 23.5287C9.16781 24.89 12.1126 25.3244 14.9486 24.7578C17.7846 24.1913 20.3366 22.6589 22.1694 20.4217C24.0022 18.1846 25.0026 15.3811 25 12.489C24.9971 9.17492 23.6782 5.99764 21.3333 3.65568V3.65568ZM18.9271 17.4057L18.2917 18.0307C17.8922 18.437 17.3949 18.7338 16.8477 18.8925C16.3004 19.0512 15.7216 19.0665 15.1667 18.9369C14.0265 18.6295 12.9432 18.1406 11.9583 17.489C11.0353 16.8926 10.1827 16.1937 9.41665 15.4057C8.70666 14.7061 8.0713 13.9346 7.52081 13.1036C6.91384 12.2125 6.43357 11.2414 6.09373 10.2182C5.90453 9.63051 5.88225 9.00183 6.02939 8.40223C6.17653 7.80264 6.4873 7.25568 6.92706 6.82234L7.66666 6.07234C7.76752 5.97558 7.90187 5.92155 8.04165 5.92155C8.18142 5.92155 8.31577 5.97558 8.41663 6.07234V6.07234L10.7396 8.48902C10.8388 8.58859 10.8945 8.72344 10.8945 8.86402C10.8945 9.00459 10.8388 9.13944 10.7396 9.23902V9.23902L9.36458 10.5723C9.17477 10.7619 9.05893 11.013 9.03792 11.2804C9.01691 11.5478 9.09213 11.8138 9.25001 12.0307C9.75019 12.7129 10.3003 13.357 10.8958 13.9578C11.5645 14.6232 12.2894 15.2296 13.0625 15.7703C13.2787 15.9212 13.5412 15.9914 13.8039 15.9686C14.0667 15.9457 14.313 15.8313 14.5 15.6453L15.8334 14.3015C15.9329 14.2023 16.0678 14.1466 16.2083 14.1466C16.3489 14.1466 16.4837 14.2023 16.5833 14.3015V14.3015L18.9271 16.6453C18.9778 16.6948 19.0181 16.7539 19.0456 16.8192C19.0731 16.8845 19.0873 16.9546 19.0873 17.0255C19.0873 17.0963 19.0731 17.1665 19.0456 17.2318C19.0181 17.2971 18.9778 17.3562 18.9271 17.4057V17.4057Z" fill="#00B2FF"/>
</svg>
