<svg width="20" height="20" viewBox="0 0 20 20" fill="none" xmlns="http://www.w3.org/2000/svg">
<g clip-path="url(#clip0_796_7007)">
<path d="M16.7217 13.2656V3.76953C16.7217 2.82187 15.9508 2.05078 15.0029 2.05078H9.59375V8.19531C9.59375 9.61697 8.43729 10.7734 7.01562 10.7734C5.59396 10.7734 4.4375 9.61697 4.4375 8.19531V4.5C4.4375 4.02533 4.8222 3.64062 5.29688 3.64062C5.77155 3.64062 6.15625 4.02533 6.15625 4.5V8.19531C6.15625 8.66914 6.54179 9.05469 7.01562 9.05469C7.48946 9.05469 7.875 8.66914 7.875 8.19531V1.57812C7.875 1.10429 7.48946 0.71875 7.01562 0.71875C6.619 0.71875 6.26669 0.99855 6.17807 1.38393C6.08173 1.80338 5.69316 2.07898 5.27673 2.04742C5.25508 2.0491 5.23326 2.05078 5.21094 2.05078H4.4375C3.48984 2.05078 2.71875 2.82187 2.71875 3.76953V17.5625C2.71875 18.5102 3.48984 19.2812 4.4375 19.2812H15.0031C15.9508 19.2812 16.7219 18.5102 16.7219 17.5625C16.7219 17.0878 17.1066 16.7031 17.5812 16.7031C18.0557 16.7031 18.4406 17.0878 18.4406 17.5625C18.4406 19.458 16.8984 21 15.0031 21H4.4375C2.54201 21 1 19.458 1 17.5625V3.76953C1 1.87404 2.54201 0.332031 4.4375 0.332031H4.75674C5.19952 -0.476822 6.05151 -1 7.01562 -1C7.98544 -1 8.83156 -0.461548 9.27165 0.332031H15.0029C16.8984 0.332031 18.4404 1.87404 18.4404 3.76953V13.2656C18.4404 13.7403 18.0557 14.125 17.5811 14.125C17.1066 14.125 16.7217 13.7403 16.7217 13.2656ZM5.29688 15.8438C4.8222 15.8438 4.4375 16.2285 4.4375 16.7031C4.4375 17.1778 4.8222 17.5625 5.29688 17.5625H11.5273C12.002 17.5625 12.3867 17.1778 12.3867 16.7031C12.3867 16.2285 12.002 15.8438 11.5273 15.8438H5.29688ZM14.9648 13.3086C14.9648 12.8339 14.5801 12.4492 14.1055 12.4492H5.29688C4.8222 12.4492 4.4375 12.8339 4.4375 13.3086C4.4375 13.7833 4.8222 14.168 5.29688 14.168H14.1055C14.5801 14.168 14.9648 13.7833 14.9648 13.3086ZM14.1055 9.09766H12.1289C11.6542 9.09766 11.2695 9.48236 11.2695 9.95703C11.2695 10.4317 11.6542 10.8164 12.1289 10.8164H14.1055C14.5801 10.8164 14.9648 10.4317 14.9648 9.95703C14.9648 9.48236 14.5801 9.09766 14.1055 9.09766ZM14.1055 5.70312H12.1289C11.6542 5.70312 11.2695 6.08783 11.2695 6.5625C11.2695 7.03717 11.6542 7.42188 12.1289 7.42188H14.1055C14.5801 7.42188 14.9648 7.03717 14.9648 6.5625C14.9648 6.08783 14.5801 5.70312 14.1055 5.70312Z" fill="#BCBCBC"/>
</g>
<defs>
<clipPath id="clip0_796_7007">
<rect width="20" height="20" fill="white"/>
</clipPath>
</defs>
</svg>
