<svg width="24" height="24" viewBox="0 0 24 24" fill="none" xmlns="http://www.w3.org/2000/svg">
<path d="M11.4222 23.9766C10.9322 23.9166 10.4322 23.8766 9.94218 23.7966C7.93218 23.4466 6.12218 22.6266 4.52218 21.3666C4.27218 21.1666 4.21218 20.8966 4.37218 20.6666C4.53218 20.4366 4.81218 20.4166 5.09218 20.5966C5.77218 21.0266 6.43218 21.5066 7.15218 21.8766C8.52218 22.5866 9.99218 22.9366 11.5322 22.9966C14.2822 23.1066 16.7422 22.2966 18.8822 20.5666C21.0222 18.8366 22.3622 16.6066 22.8222 13.8966C23.6522 8.99664 21.2822 4.33664 16.8322 2.10664C14.8322 1.10664 12.7122 0.76664 10.4922 1.07664C5.84218 1.72664 2.12218 5.17664 1.19218 9.76664C0.622181 12.5766 1.09218 15.2366 2.57218 17.7066C2.81218 18.0966 3.10218 18.4566 3.34218 18.8466C3.43218 18.9866 3.49218 19.1566 3.48218 19.3166C3.48218 19.5066 3.33218 19.6366 3.13218 19.6766C2.92218 19.7266 2.76218 19.6466 2.63218 19.4966C2.43218 19.2366 2.23218 18.9766 2.05218 18.7066C1.10218 17.2766 0.462181 15.7266 0.172181 14.0366C-0.857819 7.93664 2.82218 2.06664 8.83218 0.46664C13.3122 -0.73336 17.2722 0.39664 20.5722 3.67664C22.5322 5.62664 23.6022 8.04664 23.9122 10.7966C23.9322 10.9666 23.9522 11.1366 23.9722 11.3066C23.9722 11.7766 23.9722 12.2466 23.9722 12.7066C23.9522 12.8766 23.9322 13.0466 23.9122 13.2166C23.6222 15.7966 22.6422 18.0666 20.9022 19.9966C19.0622 22.0466 16.7722 23.3166 14.0522 23.8066C13.6022 23.8866 13.1422 23.9366 12.6922 23.9966C12.2622 23.9766 11.8422 23.9766 11.4222 23.9766Z" fill="#030303" fill-opacity="0.5"/>
<path d="M11.9722 20.7866C8.21221 20.6066 5.43221 18.8866 3.91221 15.4266C2.73221 12.7566 2.95221 10.0666 4.44221 7.53665C5.56221 5.60665 7.21221 4.29665 9.32221 3.63665C11.8922 2.83665 14.3522 3.15665 16.6622 4.55665C16.9322 4.71665 17.0022 4.99665 16.8622 5.23665C16.7122 5.47665 16.4322 5.53665 16.1422 5.35665C15.3922 4.89665 14.5922 4.54665 13.7322 4.36665C11.1322 3.82665 8.78221 4.38665 6.79221 6.16665C4.80221 7.93665 3.91221 10.2066 4.22221 12.8566C4.60221 15.9866 6.31221 18.2166 9.27221 19.3066C12.3322 20.4366 15.1522 19.7966 17.4922 17.5266C19.3522 15.7167 20.0622 13.4466 19.7222 10.8666C19.5322 9.51665 19.0122 8.30665 18.1822 7.22665C18.1222 7.14665 18.0522 7.06665 18.0022 6.98665C17.8422 6.74665 17.8822 6.47665 18.0822 6.31665C18.2922 6.15665 18.5922 6.18665 18.7622 6.42665C19.0722 6.85665 19.3922 7.28665 19.6522 7.73665C20.3822 9.02665 20.7522 10.4266 20.7622 11.9166C20.7722 13.4666 20.4122 14.9266 19.6422 16.2766C18.6722 17.9866 17.2822 19.2466 15.4922 20.0466C14.5622 20.4566 13.5822 20.7066 12.5622 20.7566C12.3622 20.7566 12.1722 20.7666 11.9722 20.7866Z" fill="#030303" fill-opacity="0.5"/>
<path d="M11.5021 15.2366C11.5021 14.2966 11.5021 13.3766 11.5021 12.4866C11.1621 12.3066 10.8221 12.1766 10.5321 11.9566C9.78207 11.3866 9.47206 10.5966 9.63206 9.66665C9.79206 8.73665 10.3421 8.10665 11.2421 7.80665C11.4521 7.73665 11.5321 7.65665 11.5121 7.43665C11.4921 7.24665 11.5021 7.04665 11.5121 6.85665C11.5321 6.58665 11.7221 6.40665 11.9821 6.40665C12.2421 6.40665 12.4321 6.58665 12.4521 6.86665C12.4621 7.00665 12.4521 7.14665 12.4621 7.28665C12.4621 7.42665 12.4621 7.56665 12.4621 7.66665C12.8021 7.84665 13.1321 7.96665 13.4121 8.16665C14.0221 8.59665 14.3321 9.20665 14.3721 9.95665C14.3921 10.3066 14.2321 10.5166 13.9421 10.5466C13.6521 10.5666 13.4521 10.3866 13.4221 10.0466C13.3721 9.48665 13.1221 9.05665 12.6121 8.79665C12.5821 8.78665 12.5521 8.77665 12.5221 8.76665C12.5121 8.76665 12.4921 8.76665 12.4621 8.77665C12.4621 9.32665 12.4621 9.87665 12.4621 10.4266C12.4621 10.7366 12.4721 11.0466 12.4621 11.3666C12.4521 11.5166 12.5021 11.5866 12.6421 11.6266C13.9621 12.0366 14.6521 13.2866 14.2721 14.6066C14.0521 15.3866 13.5221 15.9066 12.7621 16.1766C12.6921 16.2066 12.6121 16.2266 12.5421 16.2466C12.5221 16.2566 12.5021 16.2666 12.4621 16.2866C12.4621 16.5366 12.4621 16.7966 12.4621 17.0466C12.4521 17.3766 12.2821 17.5766 11.9921 17.5766C11.7021 17.5766 11.5121 17.3766 11.5121 17.0366C11.5021 16.7966 11.5921 16.5066 11.4821 16.3266C11.3821 16.1566 11.0721 16.1266 10.8621 16.0166C10.0521 15.5666 9.63206 14.8766 9.59206 13.9466C9.58206 13.6566 9.77207 13.4566 10.0321 13.4366C10.3021 13.4166 10.5021 13.5866 10.5321 13.8866C10.5721 14.4166 10.7721 14.8466 11.2421 15.1366C11.2921 15.1666 11.3321 15.1866 11.3821 15.2166C11.4121 15.2266 11.4421 15.2266 11.5021 15.2366ZM11.5021 8.75665C10.9421 8.90665 10.5121 9.52665 10.5521 10.1266C10.5821 10.7366 11.0221 11.3166 11.5021 11.3866C11.5021 10.5166 11.5021 9.64665 11.5021 8.75665ZM12.4621 15.2366C13.0221 15.0966 13.4421 14.4766 13.4121 13.8766C13.3821 13.2666 12.9521 12.6866 12.4621 12.6066C12.4621 13.4766 12.4621 14.3466 12.4621 15.2366Z" fill="#030303" fill-opacity="0.5"/>
</svg>
