<svg width="15" height="15" viewBox="0 0 15 15" fill="none" xmlns="http://www.w3.org/2000/svg">
<path d="M8.77741 0.120153C8.58137 0.0822106 8.38533 0.0569124 8.19562 0.0379411L7.91737 0H7.02572L6.76012 0.0379411C6.57041 0.0379411 6.37437 0.0822106 6.17833 0.120153C5.10779 0.302576 4.0903 0.717631 3.19761 1.33606C2.30493 1.9545 1.55879 2.76125 1.01181 3.69941C0.420232 4.68212 0.0732359 5.79249 0 6.93718V7.03204V7.06998V7.96796V8.06915C0.0616077 9.09792 0.351043 10.1001 0.847384 11.0034C1.4524 12.1694 2.35722 13.1532 3.4687 13.8534C4.58018 14.5537 5.85818 14.9451 7.17116 14.9874C8.49306 15.0712 9.81094 14.7703 10.9654 14.121C12.134 13.5191 13.12 12.6151 13.8206 11.5029C14.5213 10.3907 14.9111 9.11114 14.9494 7.79723C15.0354 6.45827 14.7323 5.123 14.0767 3.95236C13.545 2.95111 12.7908 2.08507 11.8722 1.42075C10.9535 0.756422 9.89483 0.311491 8.77741 0.120153V0.120153ZM7.51265 14.4941C5.6577 14.4941 3.87872 13.7572 2.56708 12.4456C1.25543 11.1339 0.518554 9.35496 0.518554 7.50001C0.518554 5.64506 1.25543 3.86607 2.56708 2.55443C3.87872 1.24278 5.6577 0.505914 7.51265 0.505914C9.3676 0.505914 11.1466 1.24278 12.4582 2.55443C13.7699 3.86607 14.5067 5.64506 14.5067 7.50001C14.5067 9.35496 13.7699 11.1339 12.4582 12.4456C11.1466 13.7572 9.3676 14.4941 7.51265 14.4941V14.4941Z" fill="#030303"/>
<path d="M10.5167 10.1814L7.8544 7.51908C7.81554 7.48272 7.78476 7.43859 7.76406 7.38956C7.74336 7.34054 7.7332 7.28771 7.73425 7.2345V4.40777C7.74172 4.35132 7.72942 4.29403 7.69946 4.24562C7.66949 4.19721 7.62369 4.16067 7.56984 4.14218C7.5385 4.1362 7.50632 4.1362 7.47498 4.14218C7.43 4.14206 7.38598 4.15526 7.3485 4.18012C7.31129 4.20923 7.28157 4.24677 7.26177 4.28966C7.24198 4.33255 7.23269 4.37954 7.23468 4.42674C7.23468 4.7872 7.23468 5.14766 7.23468 5.50179V6.34917C7.23468 6.7033 7.23468 7.05112 7.23468 7.39892C7.2322 7.46982 7.24504 7.5404 7.27232 7.60588C7.2996 7.67136 7.34069 7.7302 7.39277 7.77835L10.0993 10.4786L10.8329 11.2185C11.0606 11.4398 11.1807 11.3892 11.2692 11.3007C11.292 11.2809 11.3105 11.2567 11.3235 11.2295C11.3366 11.2023 11.3439 11.1727 11.3451 11.1426C11.3296 11.0332 11.2731 10.9337 11.187 10.8643L10.5167 10.1814Z" fill="#030303"/>
<path d="M7.44957 2.30821H7.50648C7.65825 2.30821 7.73413 2.20072 7.73413 1.98571C7.73927 1.93427 7.73348 1.88233 7.71713 1.83329C7.70079 1.78425 7.67425 1.7392 7.63928 1.70113C7.59648 1.66646 7.54255 1.6485 7.48751 1.65055V1.65055C7.29779 1.65055 7.26618 1.84657 7.26618 1.95408C7.22824 2.25762 7.35471 2.29556 7.44957 2.30821Z" fill="#030303"/>
<path d="M2.01099 7.24713C1.90818 7.23804 1.80592 7.26984 1.72641 7.33566C1.7042 7.35919 1.68711 7.38708 1.67622 7.41756C1.66534 7.44804 1.6609 7.48044 1.66318 7.51272C1.66318 7.7214 1.87186 7.75303 1.98569 7.75303C2.28923 7.75303 2.3082 7.5886 2.31453 7.53169C2.31907 7.49784 2.31634 7.46341 2.30653 7.4307C2.29671 7.39799 2.28004 7.36775 2.25762 7.34198C2.22631 7.30861 2.18787 7.28274 2.14516 7.26632C2.10245 7.24989 2.05659 7.24333 2.01099 7.24713V7.24713Z" fill="#030303"/>
<path d="M13.2104 7.70869C13.2495 7.68879 13.2818 7.65774 13.3032 7.61946C13.3245 7.58118 13.3341 7.5374 13.3306 7.49369C13.3306 7.27868 13.1282 7.25339 13.0017 7.24707C12.7045 7.24707 12.6855 7.40516 12.6729 7.45575C12.6621 7.50135 12.6662 7.5492 12.6843 7.59238C12.7025 7.63556 12.7339 7.67187 12.7741 7.69605C12.8395 7.73569 12.9141 7.75768 12.9906 7.75989C13.067 7.76211 13.1428 7.74447 13.2104 7.70869V7.70869Z" fill="#030303"/>
<path d="M7.53806 12.6919H7.46849C7.43317 12.6902 7.39806 12.6982 7.36689 12.7149C7.33571 12.7316 7.30964 12.7564 7.29143 12.7867C7.25074 12.8545 7.22925 12.9321 7.22925 13.0112C7.22925 13.0903 7.25074 13.1679 7.29143 13.2357C7.31177 13.2784 7.346 13.3129 7.38851 13.3336C7.43102 13.3542 7.47928 13.3599 7.5254 13.3495C7.67718 13.3495 7.75306 13.242 7.75306 13.027C7.73409 12.7298 7.58865 12.7045 7.53806 12.6919Z" fill="#030303"/>
<path d="M3.52251 3.87027C3.55633 3.89542 3.59735 3.90902 3.6395 3.90902C3.68164 3.90902 3.72266 3.89542 3.75648 3.87027C3.80271 3.84733 3.84081 3.81081 3.86568 3.76559C3.89054 3.72038 3.90099 3.66864 3.89561 3.61732C3.87894 3.55861 3.85079 3.5038 3.8128 3.45604C3.77481 3.40828 3.72772 3.36852 3.67427 3.33907C3.63112 3.29952 3.57471 3.27759 3.51618 3.27759C3.45764 3.27759 3.40123 3.29952 3.35808 3.33907C3.3194 3.38014 3.29785 3.43444 3.29785 3.49086C3.29785 3.54727 3.3194 3.60156 3.35808 3.64262C3.40061 3.72666 3.4561 3.80348 3.52251 3.87027V3.87027Z" fill="#030303"/>
<path d="M11.3134 3.33908C11.2367 3.39667 11.1686 3.4648 11.111 3.54144C11.0859 3.57526 11.0723 3.61628 11.0723 3.65843C11.0723 3.70058 11.0859 3.7416 11.111 3.77542C11.1327 3.81945 11.1674 3.85577 11.2103 3.87952C11.2533 3.90326 11.3025 3.91327 11.3513 3.90821C11.4651 3.90821 11.5473 3.81336 11.6485 3.67424C11.681 3.62796 11.6951 3.57127 11.6881 3.51516C11.6811 3.45905 11.6535 3.40755 11.6106 3.37071C11.574 3.32925 11.5231 3.30299 11.4681 3.29714C11.4131 3.29129 11.3579 3.30625 11.3134 3.33908V3.33908Z" fill="#030303"/>
<path d="M3.64901 11.1108C3.55343 11.1238 3.4658 11.171 3.40238 11.2436C3.33478 11.3041 3.29197 11.3874 3.28223 11.4776C3.28907 11.5407 3.31725 11.5995 3.3621 11.6444C3.40696 11.6892 3.46579 11.7174 3.52885 11.7242C3.61833 11.7031 3.69986 11.6566 3.76375 11.5905C3.82764 11.5244 3.87121 11.4413 3.8893 11.3511C3.88624 11.2884 3.85994 11.229 3.81553 11.1846C3.77111 11.1402 3.71175 11.1139 3.64901 11.1108V11.1108Z" fill="#030303"/>
</svg>
