<svg width="20" height="20" viewBox="0 0 20 20" fill="none" xmlns="http://www.w3.org/2000/svg">
<path d="M19.9843 9.41093C19.9843 9.8025 19.9843 10.1941 19.9843 10.5856C19.9676 10.7273 19.951 10.8689 19.9343 11.0105C19.6927 13.16 18.8762 15.0595 17.4266 16.6675C15.8853 18.3754 13.9774 19.4418 11.7113 19.8417C11.3364 19.9084 10.9532 19.95 10.5783 20C10.1867 20 9.79513 20 9.40356 20C9.07031 19.9583 8.72872 19.925 8.4038 19.875C6.31265 19.5251 4.49643 18.6253 2.9968 17.134C0.747349 14.8929 -0.235743 12.1603 0.0475212 9.0027C0.239141 6.86989 1.07227 4.99535 2.48859 3.40407C4.37146 1.28793 6.73755 0.146538 9.57018 0.0132378C11.5447 -0.0867377 13.3942 0.379814 15.0855 1.40456C17.6765 2.98751 19.2761 5.27861 19.8343 8.27788C19.901 8.64445 19.9343 9.02769 19.9843 9.41093ZM9.98675 1.54619C5.32956 1.54619 1.55548 5.32027 1.53882 9.98579C1.53049 14.6346 5.30456 18.4254 9.97009 18.442C14.6273 18.4587 18.4263 14.6596 18.4263 9.99412C18.4263 5.3286 14.6523 1.55453 9.98675 1.54619Z" fill="#BCBCBC"/>
<path d="M10.762 7.47861C10.762 8.15344 10.762 8.82828 10.762 9.51144C10.762 9.62808 10.7953 9.70306 10.8953 9.76971C11.7701 10.4196 12.6365 11.0694 13.503 11.7276C13.8279 11.9692 13.9362 12.2941 13.8196 12.6357C13.6613 13.0939 13.1281 13.2938 12.7032 13.0522C12.6032 12.9939 12.5116 12.9189 12.4199 12.8523C11.4868 12.1525 10.5454 11.4443 9.61227 10.7445C9.354 10.5529 9.2207 10.3029 9.2207 9.978C9.2207 8.47836 9.2207 6.98706 9.2207 5.48743C9.2207 4.87925 9.73724 4.49601 10.2704 4.69596C10.587 4.8126 10.7703 5.09586 10.7703 5.4791C10.7703 6.13727 10.762 6.81211 10.762 7.47861Z" fill="#BCBCBC"/>
</svg>
