<svg width="30" height="30" viewBox="0 0 30 30" fill="none" xmlns="http://www.w3.org/2000/svg">
<path d="M15 0C6.7125 0 0 6.7125 0 15C0 23.2875 6.7125 30 15 30C23.2875 30 30 23.2875 30 15C30 6.7125 23.2875 0 15 0Z" fill="#030303" fill-opacity="0.08"/>
<path d="M20.3501 9.64902C20.1501 9.44902 19.8376 9.44902 19.6501 9.64902L15.0001 14.299L10.3501 9.64902C10.1501 9.44902 9.83756 9.44902 9.65006 9.64902C9.45006 9.84902 9.45006 10.1615 9.65006 10.349L14.3001 14.999L9.65006 19.649C9.45006 19.849 9.45006 20.1615 9.65006 20.349C9.75006 20.449 9.87506 20.499 10.0001 20.499C10.1251 20.499 10.2501 20.449 10.3501 20.349L15.0001 15.699L19.6501 20.349C19.7501 20.449 19.8751 20.499 20.0001 20.499C20.1251 20.499 20.2501 20.449 20.3501 20.349C20.5501 20.149 20.5501 19.8365 20.3501 19.649L15.7126 14.999L20.3626 10.349C20.5501 10.1615 20.5501 9.83652 20.3501 9.64902Z" fill="#030303" fill-opacity="0.5"/>
</svg>
