<svg width="26" height="26" viewBox="0 0 26 26" fill="none" xmlns="http://www.w3.org/2000/svg">
<path d="M17.6368 8.36242C17.4635 8.18909 17.1926 8.18909 17.0301 8.36242L13.0001 12.3924L8.97013 8.36242C8.79679 8.18909 8.52596 8.18909 8.36346 8.36242C8.19013 8.53576 8.19013 8.80659 8.36346 8.96909L12.3935 12.9991L8.36346 17.0291C8.19013 17.2024 8.19013 17.4733 8.36346 17.6358C8.45013 17.7224 8.55846 17.7658 8.66679 17.7658C8.77513 17.7658 8.88346 17.7224 8.97013 17.6358L13.0001 13.6058L17.0301 17.6358C17.1168 17.7224 17.2251 17.7658 17.3335 17.7658C17.4418 17.7658 17.5501 17.7224 17.6368 17.6358C17.8101 17.4624 17.8101 17.1916 17.6368 17.0291L13.6176 12.9991L17.6476 8.96909C17.8101 8.80659 17.8101 8.52492 17.6368 8.36242Z" fill="white"/>
<path d="M13 0C5.8175 0 0 5.8175 0 13C0 20.1825 5.8175 26 13 26C20.1825 26 26 20.1825 26 13C26 5.8175 20.1825 0 13 0ZM13 25.1333C6.305 25.1333 0.866667 19.695 0.866667 13C0.866667 6.305 6.305 0.866667 13 0.866667C19.695 0.866667 25.1333 6.305 25.1333 13C25.1333 19.695 19.695 25.1333 13 25.1333Z" fill="white"/>
</svg>
