<svg width="22" height="25" viewBox="0 0 22 25" fill="none" xmlns="http://www.w3.org/2000/svg">
<path d="M21.5844 12.5179V10.8879C21.5844 10.1179 21.3344 9.49785 20.8044 8.97785C20.4344 8.61785 19.9444 8.12785 19.4644 7.63785C19.3944 7.55785 19.3344 7.43785 19.3344 7.33785C19.3244 6.71785 19.3244 6.07785 19.3244 5.46785C19.3244 5.16785 19.3244 4.85785 19.3244 4.55785C19.3244 3.39785 18.5044 2.57785 17.3444 2.57785C16.3244 2.57785 15.4744 2.57785 14.6044 2.57785C14.4544 2.57785 14.3444 2.53785 14.2344 2.42785C13.8644 2.04785 13.4844 1.66785 13.1144 1.30785C12.7844 0.977852 12.4344 0.627852 12.1044 0.287852C11.9544 0.127852 11.7844 0.0478516 11.5644 0.0478516C11.5544 0.0478516 11.5544 0.0478516 11.5444 0.0478516C11.0344 0.0578516 10.5444 0.0578516 10.0744 0.0478516C10.0644 0.0478516 10.0544 0.0478516 10.0444 0.0478516C9.82444 0.0478516 9.64444 0.127852 9.47444 0.297852C9.10444 0.677852 8.72444 1.05785 8.35444 1.41785C8.02444 1.75785 7.68444 2.09785 7.34444 2.43785C7.24444 2.53785 7.14444 2.57785 6.99444 2.57785C6.14444 2.56785 5.24444 2.56785 4.23444 2.57785C3.07444 2.57785 2.25444 3.39785 2.25444 4.55785C2.25444 4.85785 2.25444 5.16785 2.25444 5.46785C2.25444 6.07785 2.25444 6.71785 2.24444 7.33785C2.24444 7.43785 2.19444 7.56785 2.11444 7.63785C1.87444 7.89785 1.62444 8.14785 1.37444 8.39785C1.14444 8.62785 0.904444 8.86785 0.674444 9.10785C0.234444 9.55785 0.00444444 10.1179 0.00444444 10.7479C0.00444444 13.9179 -0.00555556 17.8679 0.00444444 21.6479C0.00444444 22.4679 0.354444 23.1379 1.01444 23.5779C1.24444 23.7279 1.51444 23.8279 1.76444 23.9179C1.88444 23.9579 2.00444 24.0079 2.11444 24.0479H8.82444L8.85444 24.0279C8.87444 24.0079 8.89444 23.9979 8.92444 23.9779C9.07444 23.8779 9.13444 23.7479 9.14444 23.5979V23.5879C9.14444 23.5379 9.16444 23.4879 9.15444 23.4279C9.08444 23.1979 8.91444 23.0679 8.66444 23.0579C8.26444 23.0579 7.86444 23.0579 7.46444 23.0579H7.12444C6.74444 23.0579 6.36444 23.0579 5.97444 23.0579C4.84444 23.0579 3.68444 23.0579 2.53444 23.0579C2.37444 23.0579 2.21444 23.0279 2.04444 22.9979C1.98444 22.9879 1.91444 22.9779 1.85444 22.9679C3.69444 21.1279 5.50444 19.3179 7.33444 17.4879L7.59444 17.7579C7.77444 17.9379 7.96444 18.1279 8.15444 18.3179C8.23444 18.3979 8.31444 18.4779 8.39444 18.5679C8.62444 18.7979 8.85444 19.0379 9.09444 19.2679C10.0644 20.1879 11.5244 20.1779 12.4844 19.2579C12.9044 18.8579 13.3144 18.4379 13.7144 18.0279C13.8844 17.8579 14.0544 17.6779 14.2244 17.5079C16.0344 19.3279 17.8444 21.1379 19.6844 22.9779C19.6344 22.9879 19.5744 22.9979 19.5244 23.0079C19.3644 23.0379 19.1944 23.0679 19.0344 23.0679C17.9844 23.0679 16.9344 23.0779 15.8844 23.0779C14.9544 23.0779 14.0344 23.0779 13.1144 23.0779H13.0644C13.0144 23.0779 12.9744 23.0779 12.9344 23.0779C12.6644 23.0879 12.4844 23.2179 12.4144 23.4479C12.3544 23.6579 12.4444 23.8679 12.6644 24.0079C12.6844 24.0179 12.7044 24.0279 12.7144 24.0479L12.7444 24.0679H19.4544H19.4644C19.4744 24.0679 19.4744 24.0579 19.4844 24.0579C19.4944 24.0479 19.5044 24.0479 19.5144 24.0379C20.5244 23.9179 21.5944 22.9779 21.5844 21.4979C21.5744 18.4979 21.5744 15.4579 21.5844 12.5179ZM19.3544 10.9579V9.07785C19.6144 9.30785 19.8944 9.56785 20.1844 9.81785L20.3544 9.96785C20.0044 10.3079 19.6844 10.6279 19.3544 10.9579ZM20.5944 11.2279V13.3079C20.5944 15.9879 20.5944 18.7579 20.5944 21.4879C20.5944 21.6579 20.5644 21.8379 20.5344 22.0179C20.5244 22.0879 20.5144 22.1579 20.5044 22.2279L15.0444 16.7779L20.5944 11.2279ZM3.23444 4.89785V4.54785C3.23444 3.93785 3.61444 3.56785 4.21444 3.56785C5.31444 3.56785 6.41444 3.56785 7.51444 3.56785C8.05445 3.56785 8.60444 3.56785 9.14444 3.56785H10.7844C12.9544 3.56785 15.1244 3.56785 17.2844 3.56785C17.9844 3.56785 18.3344 3.91785 18.3344 4.61785V5.96785C18.3344 7.87785 18.3344 9.85785 18.3344 11.8079C18.3344 11.9679 18.2944 12.0679 18.1844 12.1779C16.5644 13.7879 14.9244 15.4379 13.3344 17.0179L11.9144 18.4479C11.1944 19.1679 10.3744 19.1679 9.64444 18.4479L9.40444 18.2079C7.42444 16.2279 5.37444 14.1779 3.36444 12.1579C3.28444 12.0779 3.22444 11.9379 3.22444 11.8379C3.23444 9.51785 3.23444 7.16785 3.23444 4.89785ZM8.59444 2.53785C8.65444 2.47785 8.72444 2.41785 8.78444 2.35785C8.94444 2.20785 9.11444 2.04785 9.27444 1.88785C9.37444 1.78785 9.47444 1.68785 9.56444 1.59785C9.71444 1.44785 9.86444 1.29785 10.0144 1.15785C10.0944 1.08785 10.1944 1.04785 10.2844 1.04785C10.6444 1.03785 11.0044 1.03785 11.3144 1.04785C11.3844 1.04785 11.4844 1.06785 11.5244 1.10785C11.9044 1.47785 12.2744 1.84785 12.6644 2.23785C12.7744 2.34785 12.8844 2.45785 12.9944 2.56785H8.60444L8.59444 2.53785ZM1.22444 9.94785C1.56444 9.64785 1.91444 9.33785 2.23444 9.06785V10.9679L1.22444 9.94785ZM1.09444 22.1979C1.08444 22.1479 1.07444 22.1079 1.06444 22.0579C1.03444 21.9279 1.00444 21.7979 1.00444 21.6579C0.994444 18.5479 0.994444 15.3879 1.00444 12.3279V11.2479L1.25444 11.4979C3.01444 13.2579 4.77444 15.0279 6.52444 16.7779C5.34444 17.9579 4.15444 19.1479 2.93444 20.3679L1.09444 22.1979Z" fill="#030303" fill-opacity="0.5"/>
<path d="M10.8045 23.0781H10.7945C10.5645 23.0781 10.4045 23.1981 10.3345 23.4181C10.2645 23.6381 10.3345 23.8281 10.5345 23.9681C10.5645 23.9881 10.5845 24.0081 10.6145 24.0281L10.6545 24.0581H10.9545L11.0045 24.0281C11.0245 24.0081 11.0545 23.9981 11.0745 23.9781C11.2745 23.8281 11.3445 23.6381 11.2745 23.4281C11.1945 23.2081 11.0345 23.0781 10.8045 23.0781Z" fill="#030303" fill-opacity="0.5"/>
<path d="M9.95443 14.3182C10.4344 14.4082 10.9344 14.4182 11.4244 14.4382C11.6444 14.4482 11.8744 14.4582 12.0944 14.4682H12.1244V14.4382C12.1244 14.4282 12.1244 14.4282 12.1244 14.4182C12.2744 14.4182 12.4244 14.4182 12.5744 14.4182C12.9344 14.4182 13.3044 14.4182 13.6644 14.4182C13.8344 14.4182 13.9844 14.3482 14.0844 14.2382C14.1744 14.1282 14.2044 13.9982 14.1844 13.8482C14.1444 13.5882 13.9344 13.4382 13.6244 13.4382C13.2844 13.4382 12.9444 13.4382 12.6044 13.4382C12.0144 13.4382 11.4144 13.4382 10.8144 13.4382C8.91443 13.4182 7.38443 11.9082 7.33443 10.0082C7.29443 8.29818 8.51443 6.79818 10.1744 6.51818C11.9244 6.22818 13.5744 7.22818 14.0944 8.89818C14.2644 9.43818 14.2544 9.99818 14.2444 10.5482C14.2444 10.6582 14.2444 10.7582 14.2444 10.8682C14.2444 11.0582 14.1744 11.2282 14.0544 11.3482C13.9344 11.4582 13.7844 11.5182 13.6044 11.5182C13.5944 11.5182 13.5944 11.5182 13.5844 11.5182C13.2244 11.5082 12.9644 11.2282 12.9644 10.8282C12.9644 10.6782 12.9644 10.5282 12.9644 10.3782C12.9644 10.1782 12.9644 9.97818 12.9644 9.77818C12.9544 9.18818 12.7544 8.66818 12.3744 8.24818C11.7144 7.50818 10.6844 7.24818 9.74443 7.60818C8.78443 7.96818 8.14443 8.90818 8.14443 9.92818C8.14443 10.9382 8.79443 11.8682 9.74443 12.2282C10.1344 12.3782 10.5444 12.3882 10.9344 12.3882C10.9644 12.3882 11.0044 12.3882 11.0344 12.3882H11.1544C11.4244 12.3882 11.6144 12.3282 11.7244 12.2182C11.8044 12.1382 11.8444 12.0282 11.8444 11.8882C11.8444 11.5682 11.6144 11.4082 11.1644 11.3982C11.0944 11.3982 11.0244 11.3982 10.9544 11.3982C10.6944 11.3982 10.4144 11.3882 10.1744 11.3282C10.0944 11.3082 10.0144 11.2782 9.94443 11.2382C9.92443 11.2282 9.91443 11.2182 9.89443 11.2082C9.43443 10.9682 9.13443 10.4682 9.12443 9.92818C9.12443 9.91818 9.12443 9.90818 9.12443 9.89818C9.12443 9.80818 9.13443 9.72818 9.15443 9.63818C9.31443 8.87818 9.99443 8.35818 10.7444 8.43818C11.4744 8.50818 11.9744 9.09818 11.9744 9.90818C11.9744 10.0182 11.9744 10.1382 11.9744 10.2482C11.9744 10.4782 11.9744 10.7082 11.9744 10.9382C11.9944 11.7882 12.6944 12.4882 13.5444 12.5082C13.5544 12.5082 13.5744 12.5082 13.5844 12.5082C14.4544 12.5082 15.1744 11.8582 15.2144 10.9982C15.2344 10.6182 15.2344 10.1982 15.2144 9.73818C15.1644 8.46818 14.5644 7.27818 13.5744 6.46818C12.5844 5.65818 11.2944 5.31818 10.0344 5.53818C7.93443 5.89818 6.38443 7.72818 6.35443 9.87818C6.32443 12.0382 7.87443 13.9482 9.95443 14.3182Z" fill="#030303" fill-opacity="0.5"/>
</svg>
