<svg width="20" height="20" viewBox="0 0 20 20" fill="none" xmlns="http://www.w3.org/2000/svg">
<g clip-path="url(#clip0_1597_2917)">
<path d="M10.1583 20H9.84167C9.6835 19.9454 9.54942 19.8372 9.46267 19.6941C9.37591 19.551 9.34195 19.3821 9.36667 19.2166C9.36667 18.7 9.36667 18.1916 9.36667 17.675V17.4666C7.60062 17.3193 5.94377 16.5515 4.68989 15.2991C3.436 14.0467 2.6661 12.3908 2.51667 10.625C1.925 10.625 1.35 10.625 0.775001 10.625C0.609709 10.648 0.441515 10.6134 0.298806 10.5269C0.156097 10.4403 0.0476148 10.3072 -0.0083313 10.15V9.83329C0.0476148 9.67605 0.156097 9.54293 0.298806 9.45639C0.441515 9.36986 0.609709 9.33521 0.775001 9.35829C1.28333 9.35829 1.8 9.35829 2.31667 9.35829H2.51667C2.67793 7.60855 3.45452 5.9727 4.70833 4.74163C5.95161 3.48013 7.60902 2.71062 9.375 2.57496C9.375 1.98329 9.375 1.39996 9.375 0.824958C9.35192 0.659666 9.38657 0.491472 9.4731 0.348763C9.55964 0.206054 9.69276 0.0975721 9.85 0.041626H10.1667C10.3224 0.0990683 10.4536 0.208181 10.5386 0.350747C10.6235 0.493312 10.6569 0.660699 10.6333 0.824958C10.6333 1.34162 10.6333 1.84996 10.6333 2.36663V2.57496C12.3979 2.72411 14.0528 3.49282 15.3049 4.74501C16.5571 5.99719 17.3259 7.65206 17.475 9.41663C18.0667 9.41663 18.65 9.41663 19.225 9.41663C19.3899 9.39665 19.5567 9.4326 19.6988 9.51873C19.8408 9.60485 19.9498 9.73617 20.0083 9.89163V10.2083C19.9509 10.364 19.8418 10.4952 19.6992 10.5802C19.5566 10.6651 19.3893 10.6986 19.225 10.675C18.7083 10.675 18.1917 10.675 17.6833 10.675H17.475C17.3259 12.4395 16.5571 14.0944 15.3049 15.3466C14.0528 16.5988 12.3979 17.3675 10.6333 17.5166C10.6333 18.1083 10.6333 18.6916 10.6333 19.2666C10.6447 19.4239 10.6044 19.5806 10.5187 19.7129C10.433 19.8452 10.3065 19.946 10.1583 20ZM16.2333 9.78329C16.1909 8.52987 15.7718 7.3183 15.0308 6.3065C14.2898 5.2947 13.2611 4.5296 12.0789 4.11092C10.8967 3.69224 9.61583 3.63941 8.40317 3.9593C7.19052 4.2792 6.10235 4.95699 5.2805 5.90432C4.45866 6.85166 3.94126 8.0246 3.79574 9.27027C3.65021 10.5159 3.88332 11.7766 4.46468 12.8878C5.04604 13.9991 5.94867 14.9094 7.05494 15.5002C8.16121 16.091 9.4198 16.3349 10.6667 16.2C12.2339 16.0324 13.6794 15.2773 14.7123 14.0867C15.7451 12.8961 16.2886 11.3585 16.2333 9.78329Z" fill="#030303" fill-opacity="0.5"/>
<path d="M13.3333 10.0074C13.3319 10.6666 13.1349 11.3107 12.7674 11.858C12.4 12.4054 11.8784 12.8314 11.2688 13.0824C10.6591 13.3333 9.98875 13.3978 9.34244 13.2678C8.69612 13.1377 8.10289 12.8189 7.63775 12.3517C7.17261 11.8845 6.85647 11.2899 6.72929 10.643C6.60211 9.99611 6.6696 9.32604 6.92325 8.71751C7.17689 8.10899 7.60529 7.58934 8.15426 7.22429C8.70324 6.85924 9.34814 6.66517 10.0074 6.66663C10.8909 6.67055 11.7368 7.02425 12.3601 7.65034C12.9834 8.27642 13.3333 9.12391 13.3333 10.0074Z" fill="#4DDA65"/>
</g>
<defs>
<clipPath id="clip0_1597_2917">
<rect width="20" height="20" fill="white"/>
</clipPath>
</defs>
</svg>
