<svg width="34" height="34" viewBox="0 0 34 34" fill="none" xmlns="http://www.w3.org/2000/svg">
<path d="M10.1999 19.4495C12.5499 19.4495 14.4333 21.3511 14.4333 23.7178V29.3995C14.4333 31.7495 12.5499 33.6661 10.1999 33.6661H4.56659C2.23325 33.6661 0.333252 31.7495 0.333252 29.3995V23.7178C0.333252 21.3511 2.23325 19.4495 4.56659 19.4495H10.1999ZM29.4334 19.4495C31.7668 19.4495 33.6668 21.3511 33.6668 23.7178V29.3995C33.6668 31.7495 31.7668 33.6661 29.4334 33.6661H23.8001C21.4501 33.6661 19.5668 31.7495 19.5668 29.3995V23.7178C19.5668 21.3511 21.4501 19.4495 23.8001 19.4495H29.4334ZM10.1999 0.333313C12.5499 0.333313 14.4333 2.24998 14.4333 4.60165V10.2833C14.4333 12.65 12.5499 14.55 10.1999 14.55H4.56659C2.23325 14.55 0.333252 12.65 0.333252 10.2833V4.60165C0.333252 2.24998 2.23325 0.333313 4.56659 0.333313H10.1999ZM29.4334 0.333313C31.7668 0.333313 33.6668 2.24998 33.6668 4.60165V10.2833C33.6668 12.65 31.7668 14.55 29.4334 14.55H23.8001C21.4501 14.55 19.5668 12.65 19.5668 10.2833V4.60165C19.5668 2.24998 21.4501 0.333313 23.8001 0.333313H29.4334Z" fill="white"/>
</svg>
