<svg width="25" height="26" viewBox="0 0 25 26" fill="none" xmlns="http://www.w3.org/2000/svg">
<ellipse cx="12.5" cy="13.4234" rx="12.5" ry="12.4828" fill="white"/>
<path d="M8.32325 20.9132C8.14771 20.8757 7.97842 20.8506 7.80914 20.8069C7.30316 20.6836 6.85255 20.3962 6.52801 19.9898C6.20347 19.5834 6.02339 19.0811 6.01604 18.5615C5.94291 17.4094 6.12042 16.2551 6.53641 15.1779C6.78068 14.469 7.27549 13.8731 7.92827 13.5017C8.34767 13.2763 8.81882 13.1642 9.29504 13.1765C9.45334 13.1902 9.60601 13.2417 9.74018 13.3266C9.96588 13.4517 10.1728 13.6018 10.3671 13.7331C10.9214 14.1107 11.5769 14.3126 12.248 14.3126C12.9192 14.3126 13.5747 14.1107 14.1289 13.7331C14.3045 13.6205 14.48 13.5205 14.643 13.3954C14.7852 13.2953 14.9467 13.2258 15.1172 13.1913C15.2878 13.1569 15.4636 13.1582 15.6336 13.1952C16.0862 13.2562 16.5168 13.4273 16.8874 13.6934C17.2581 13.9595 17.5574 14.3125 17.759 14.7213C18.1496 15.4756 18.3821 16.3012 18.4424 17.148C18.4862 17.5844 18.5051 18.0229 18.4988 18.4615C18.5086 19.0719 18.2843 19.6631 17.8718 20.1141C17.4593 20.5651 16.8897 20.842 16.2794 20.8882C16.2483 20.8825 16.2164 20.8825 16.1853 20.8882L8.32325 20.9132Z" fill="#030303"/>
<path d="M15.7903 9.53632C15.7916 10.2498 15.5808 10.9476 15.1846 11.5417C14.7884 12.1357 14.2245 12.5992 13.5644 12.8737C12.9042 13.1481 12.1772 13.2212 11.4754 13.0837C10.7736 12.9461 10.1284 12.6042 9.62139 12.101C9.11435 11.5978 8.7682 10.9559 8.62669 10.2566C8.48518 9.55717 8.55467 8.83164 8.82636 8.17165C9.09806 7.51165 9.55978 6.9468 10.1532 6.54848C10.7466 6.15017 11.445 5.93626 12.1602 5.93378C13.1202 5.93212 14.0417 6.31054 14.7223 6.98597C15.4029 7.6614 15.787 8.57864 15.7903 9.53632Z" fill="#030303"/>
</svg>
