<svg width="12" height="16" viewBox="0 0 12 16" fill="none" xmlns="http://www.w3.org/2000/svg">
<path d="M2.51027 15.0033C2.41178 14.9783 2.31945 14.9533 2.22097 14.922C1.5131 14.697 1.02067 14.0221 0.983742 13.2409C0.977586 13.1596 0.977586 13.0721 0.977586 12.9909C0.977586 10.2098 0.977586 7.42876 0.983742 4.64769C0.983742 4.5102 0.940654 4.45395 0.823702 4.4102C0.288187 4.20397 -0.0688241 3.59776 0.0111955 3.01654C0.0912151 2.39158 0.583643 1.88537 1.18071 1.85412C1.77163 1.82912 2.36254 1.84162 2.95346 1.83537C2.99039 1.83537 3.02732 1.83537 3.08272 1.83537C3.08887 1.64163 3.09503 1.45415 3.10734 1.26666C3.15658 0.579202 3.72903 0.0229875 4.44921 0.0167379C5.48331 0.0104883 6.51741 0.0042387 7.55151 0.0167379C8.34555 0.0292371 8.89337 0.622949 8.90568 1.46039C8.90568 1.57914 8.90568 1.69163 8.90568 1.82912C8.96108 1.82912 9.01032 1.83537 9.06572 1.83537C9.58277 1.83537 10.0937 1.82912 10.6107 1.83537C11.2201 1.84162 11.6694 2.1166 11.9095 2.69782C12.1742 3.34777 11.8356 4.15397 11.1893 4.40395C11.0601 4.45395 11.0231 4.5102 11.0231 4.65394C11.0293 7.44751 11.0231 10.2348 11.0293 13.0284C11.0293 13.6096 10.8692 14.1221 10.4445 14.5346C10.1983 14.7658 9.91516 14.9158 9.58277 14.9783C9.55815 14.9845 9.53353 14.997 9.50275 15.0095C7.16372 15.0033 4.83699 15.0033 2.51027 15.0033ZM1.67314 4.5102C1.67314 4.56644 1.67314 4.61644 1.67314 4.66644C1.67314 7.46001 1.67314 10.2473 1.67314 13.0409C1.67314 13.1471 1.6793 13.2534 1.69776 13.3596C1.78394 13.9033 2.2025 14.2971 2.73186 14.2971C4.9047 14.3033 7.07754 14.3033 9.25038 14.2971C9.60739 14.2971 9.89054 14.1408 10.0937 13.8471C10.266 13.6034 10.3153 13.3221 10.3153 13.0284C10.3153 10.2411 10.3153 7.45376 10.3153 4.66644C10.3153 4.61644 10.3091 4.56644 10.3091 4.5102C7.4284 4.5102 4.55385 4.5102 1.67314 4.5102ZM6.00036 3.80399C7.50842 3.80399 9.01648 3.80399 10.5307 3.80399C10.6046 3.80399 10.6723 3.80399 10.7461 3.79149C11.0785 3.754 11.3186 3.46027 11.2878 3.12279C11.257 2.75406 10.9923 2.53533 10.5615 2.53533C7.52073 2.53533 4.47998 2.53533 1.43308 2.53533C1.35922 2.53533 1.29151 2.54158 1.21765 2.54782C0.928343 2.59782 0.719061 2.84156 0.700595 3.14154C0.682129 3.42277 0.885256 3.704 1.16225 3.77275C1.26073 3.79774 1.36537 3.79774 1.46386 3.79774C2.97192 3.80399 4.48614 3.80399 6.00036 3.80399ZM8.20397 1.82287C8.20397 1.63538 8.22244 1.46664 8.19782 1.29791C8.16704 1.01042 7.99469 0.822936 7.7177 0.741691C7.64999 0.722942 7.57613 0.716693 7.50226 0.716693C6.49894 0.716693 5.49562 0.716693 4.48614 0.716693C4.12913 0.710443 3.85829 0.91668 3.80289 1.25416C3.77827 1.4354 3.80289 1.62913 3.80289 1.82287C5.26171 1.82287 6.72669 1.82287 8.20397 1.82287Z" fill="#B50000"/>
<path d="M4.30146 9.0976C4.30146 10.1725 4.30146 11.2475 4.30146 12.3286C4.30146 12.4286 4.27684 12.5349 4.23375 12.6224C4.1722 12.7411 4.04909 12.7911 3.91367 12.7661C3.7721 12.7474 3.67361 12.6661 3.63668 12.5224C3.62437 12.4661 3.61206 12.4099 3.61206 12.3474C3.61206 10.1913 3.61206 8.03517 3.61206 5.87281C3.61206 5.79157 3.62437 5.70407 3.6613 5.63533C3.72286 5.49783 3.83981 5.44159 3.99369 5.45409C4.14142 5.46659 4.24606 5.55408 4.28299 5.69782C4.30146 5.76657 4.30146 5.84156 4.30146 5.91656C4.30146 6.97274 4.30146 8.03517 4.30146 9.0976Z" fill="#B50000"/>
<path d="M5.65564 9.10356C5.65564 8.02863 5.65564 6.95369 5.65564 5.87251C5.65564 5.61628 5.76644 5.47254 5.96341 5.45379C6.14807 5.43504 6.28964 5.54128 6.33273 5.72252C6.34504 5.77877 6.35119 5.83502 6.35119 5.89751C6.35119 8.03487 6.35119 10.1722 6.35119 12.3096C6.35119 12.3721 6.34504 12.4346 6.33273 12.4971C6.2958 12.6596 6.16038 12.7658 6.00034 12.7658C5.84646 12.7658 5.70488 12.6533 5.67411 12.4908C5.6618 12.4283 5.6618 12.3658 5.6618 12.3033C5.65564 11.2347 5.65564 10.1722 5.65564 9.10356Z" fill="#B50000"/>
<path d="M7.69312 9.11607C7.69312 8.04739 7.69312 6.98496 7.69312 5.91628C7.69312 5.61629 7.81007 5.4538 8.03166 5.44756C8.25941 5.44131 8.38867 5.61004 8.38867 5.91628C8.38867 8.04739 8.38867 10.1723 8.38867 12.3034C8.38867 12.6096 8.25941 12.7783 8.03166 12.7721C7.81007 12.7658 7.69312 12.6096 7.69312 12.3034C7.69312 11.2409 7.69312 10.1785 7.69312 9.11607Z" fill="#B50000"/>
</svg>
