<svg width="21" height="30" viewBox="0 0 21 30" fill="none" xmlns="http://www.w3.org/2000/svg">
<path d="M3.10363 30C2.57962 29.8125 2.38 29.4375 2.39247 28.8875C2.41742 27.8 2.39247 26.725 2.39247 25.6C2.23028 25.6 2.06809 25.6 1.91837 25.6C1.35693 25.5875 1.00759 25.2375 0.995117 24.6625C0.995117 24.625 0.995117 24.5875 0.995117 24.55C0.995117 16.7125 0.995117 8.8875 0.995117 1.0625C0.995117 0.4875 1.21969 0.15 1.66884 0.0375C1.78113 0 1.90589 0 2.01818 0C7.15845 0 12.3112 0 17.4515 0C19.3603 0 20.7577 1.4 20.7577 3.3125C20.7577 9.6375 20.7577 15.9625 20.7577 22.2875C20.7577 24.2125 19.3603 25.6 17.4265 25.6C14.6443 25.6 11.8745 25.6 9.09229 25.6C8.98 25.6 8.85523 25.6 8.70552 25.6C8.70552 25.725 8.70552 25.825 8.70552 25.925C8.70552 26.9 8.69304 27.875 8.71799 28.85C8.73047 29.4125 8.5558 29.8125 8.01932 30C7.88208 30 7.74484 30 7.6076 30C6.95883 29.7125 6.32253 29.4125 5.67376 29.125C5.5989 29.0875 5.46166 29.1125 5.37433 29.15C4.72555 29.425 4.08926 29.7125 3.45296 30C3.34068 30 3.21591 30 3.10363 30ZM2.76676 23.825C6.63444 23.825 10.4772 23.825 14.3074 23.825C14.3074 16.4625 14.3074 9.1125 14.3074 1.775C10.4522 1.775 6.60949 1.775 2.76676 1.775C2.76676 9.125 2.76676 16.4625 2.76676 23.825ZM16.0915 23.8375C16.628 23.8375 17.1395 23.8625 17.6386 23.8375C18.462 23.7875 18.9985 23.1375 18.9985 22.2375C18.9985 15.95 18.9985 9.6625 18.9985 3.375C18.9985 3.3125 18.9985 3.2375 18.9985 3.175C18.9611 2.4875 18.487 1.8875 17.8133 1.8125C17.2518 1.75 16.6779 1.8 16.0915 1.8C16.0915 9.1375 16.0915 16.475 16.0915 23.8375ZM4.16412 27.7125C4.6507 27.55 5.09985 27.2625 5.56147 27.2625C6.0231 27.2625 6.48472 27.55 6.94635 27.7C6.94635 27.0125 6.94635 26.3125 6.94635 25.6125C6.01062 25.6125 5.08737 25.6125 4.16412 25.6125C4.16412 26.3375 4.16412 27.025 4.16412 27.7125Z" fill="#BCBCBC"/>
</svg>
