<svg width="16" height="10" viewBox="0 0 16 10" fill="none" xmlns="http://www.w3.org/2000/svg">
<path d="M0 0.760962C0.19375 0.26106 0.54375 0.0277724 1.15 0.00555447C1.25 0.00555447 1.34375 0 1.44375 0C5.48125 0 9.51875 0 13.5563 0.00555447C13.8125 0.00555447 14.0875 0.0333268 14.3313 0.105535C14.875 0.26106 15.125 0.688754 14.9438 1.17755C14.85 1.43861 14.7188 1.69967 14.5438 1.92185C12.6813 4.3547 10.8063 6.78201 8.9375 9.20931C8.7125 9.5037 8.44375 9.7592 8.0625 9.89807C7.48125 10.1147 6.83125 9.98138 6.36875 9.54258C6.25625 9.43705 6.15 9.3204 6.05625 9.1982C4.1875 6.77645 2.325 4.34915 0.45625 1.9274C0.2375 1.64968 0.075 1.34974 0 1.02202C0 0.933151 0 0.84428 0 0.760962Z" fill="#030303"/>
</svg>
