<svg width="24" height="25" viewBox="0 0 24 25" fill="none" xmlns="http://www.w3.org/2000/svg">
<path d="M10.1827 18.7866C10.6704 19.2738 11.3315 19.5475 12.0209 19.5475C12.7102 19.5475 13.3714 19.2738 13.859 18.7866L17.2114 15.4341C17.2581 15.3854 17.2946 15.328 17.3191 15.2652C17.3435 15.2023 17.3554 15.1353 17.354 15.0679C17.3525 15.0005 17.3378 14.9341 17.3106 14.8723C17.2835 14.8106 17.2444 14.7549 17.1957 14.7082C17.1471 14.6616 17.0897 14.625 17.0269 14.6006C16.9641 14.5761 16.897 14.5643 16.8296 14.5657C16.7622 14.5672 16.6957 14.5819 16.634 14.609C16.5723 14.6362 16.5166 14.6752 16.47 14.7239L12.5221 18.6717V1.27219C12.5221 1.1337 12.4671 1.00087 12.3692 0.902939C12.2713 0.805008 12.1384 0.75 11.9999 0.75C11.8615 0.75 11.7286 0.805008 11.6307 0.902939C11.5327 1.00087 11.4778 1.1337 11.4778 1.27219V18.6508L7.55085 14.7135C7.50422 14.6633 7.44762 14.6234 7.38467 14.5965C7.32171 14.5695 7.25382 14.556 7.18534 14.5568C7.11851 14.5568 7.05238 14.5707 6.99124 14.5977C6.93009 14.6247 6.87525 14.6641 6.83022 14.7135C6.73519 14.8093 6.68188 14.9388 6.68188 15.0738C6.68188 15.2087 6.73519 15.3382 6.83022 15.4341L10.1827 18.7866Z" fill="#030303" fill-opacity="0.5"/>
<path d="M23.5092 17.4706C23.3734 17.4706 23.2433 17.5246 23.1473 17.6205C23.0513 17.7165 22.9974 17.8467 22.9974 17.9824V22.1599C22.9974 22.5782 22.8312 22.9793 22.5355 23.2751C22.2397 23.5708 21.8386 23.737 21.4204 23.737H2.62142C2.20317 23.737 1.80203 23.5708 1.50628 23.2751C1.21053 22.9793 1.04439 22.5782 1.04439 22.1599V17.9824C1.04439 17.8439 0.989331 17.7111 0.891401 17.6131C0.793471 17.5152 0.660688 17.4602 0.522194 17.4602C0.383699 17.4602 0.250853 17.5152 0.152923 17.6131C0.0549924 17.7111 0 17.8439 0 17.9824V22.1599C0 22.5015 0.0672376 22.8396 0.197926 23.1551C0.328615 23.4706 0.5202 23.7573 0.761681 23.9988C1.00316 24.2403 1.28983 24.4318 1.60534 24.5625C1.92085 24.6932 2.25901 24.7605 2.60051 24.7605H21.3995C21.741 24.7605 22.0792 24.6932 22.3947 24.5625C22.7102 24.4318 22.9968 24.2403 23.2383 23.9988C23.4798 23.7573 23.6714 23.4706 23.8021 23.1551C23.9328 22.8396 24 22.5015 24 22.1599V17.9824C24.0001 17.8502 23.9491 17.7231 23.8576 17.6277C23.7661 17.5323 23.6412 17.476 23.5092 17.4706Z" fill="#030303" fill-opacity="0.5"/>
</svg>
