<svg width="20" height="20" viewBox="0 0 20 20" fill="none" xmlns="http://www.w3.org/2000/svg">
<path d="M14.6963 3.64655C14.8502 3.58281 15.0151 3.55 15.1817 3.55C15.3482 3.55 15.5131 3.58281 15.667 3.64655C15.8209 3.71029 15.9607 3.80371 16.0785 3.92149C16.1963 4.03927 16.2897 4.17909 16.3535 4.33297C16.4172 4.48685 16.45 4.65179 16.45 4.81835C16.45 4.98492 16.4172 5.14985 16.3535 5.30373C16.2897 5.45761 16.1963 5.59743 16.0785 5.71521L14.9408 6.85295L13.1471 5.05922L14.2848 3.92149C14.4026 3.80371 14.5424 3.71029 14.6963 3.64655ZM4.56284 13.6434L12.0157 6.19059L13.8094 7.98432L6.35656 15.4372L3.89019 16.1098L4.56284 13.6434ZM15.1817 1.95C14.805 1.95 14.432 2.02419 14.084 2.16834C13.736 2.31249 13.4198 2.52377 13.1534 2.79012L3.28124 12.6623C3.1828 12.7607 3.11175 12.8832 3.07512 13.0175L1.97821 17.0395C1.90267 17.3165 1.98133 17.6127 2.18433 17.8157C2.38733 18.0187 2.68354 18.0973 2.96051 18.0218L6.98251 16.9249C7.11683 16.8883 7.23926 16.8172 7.3377 16.7188L17.2099 6.84658C17.4762 6.58023 17.6875 6.26403 17.8317 5.91602C17.9758 5.56801 18.05 5.19503 18.05 4.81835C18.05 4.44167 17.9758 4.06869 17.8317 3.72068C17.6875 3.37267 17.4762 3.05647 17.2099 2.79012C16.9435 2.52377 16.6273 2.31249 16.2793 2.16834C15.9313 2.02419 15.5583 1.95 15.1817 1.95Z" fill="white" stroke="white" stroke-width="0.1" stroke-linecap="round" stroke-linejoin="round"/>
</svg>
