<svg width="24" height="16" viewBox="0 0 24 16" fill="none" xmlns="http://www.w3.org/2000/svg">
<path d="M0 1.02C0.15 0.57 0.39 0.2 0.88 0.07C1.04 0.02 1.22 0 1.39 0C8.47 0 15.55 0 22.62 0C23.5 0 24 0.51 24 1.38C24 5.79 24 10.21 24 14.62C24 15.5 23.5 16 22.62 16C15.54 16 8.46 16 1.39 16C0.67 16 0.22 15.66 0 14.98C0 10.33 0 5.68 0 1.02ZM0.94 1.53C0.94 5.82 0.94 10.08 0.94 14.38C1.02 14.28 1.08 14.22 1.13 14.16C2.75 12.16 4.37 10.15 6 8.15C6.06 8.08 6.12 8 6.19 7.95C6.37 7.82 6.55 7.82 6.73 7.95C6.91 8.08 6.96 8.3 6.87 8.5C6.83 8.58 6.77 8.66 6.71 8.73C5.27 10.52 3.82 12.3 2.38 14.09C2.12 14.41 1.86 14.73 1.58 15.08C8.54 15.08 15.45 15.08 22.39 15.08C22.33 15 22.29 14.94 22.24 14.88C21.63 14.12 21.01 13.36 20.4 12.6C19.34 11.29 18.29 9.99 17.23 8.68C17.01 8.41 17.03 8.13 17.25 7.96C17.47 7.79 17.73 7.84 17.94 8.1C17.96 8.12 17.98 8.15 18 8.17C19.62 10.17 21.24 12.18 22.87 14.18C22.92 14.24 22.97 14.3 23.04 14.38C23.04 10.07 23.04 5.82 23.04 1.53C22.95 1.59 22.89 1.63 22.83 1.68C19.7 4.03 16.57 6.37 13.44 8.72C12.47 9.44 11.5 9.44 10.54 8.72C7.42 6.38 4.29 4.03 1.16 1.68C1.1 1.64 1.03 1.59 0.94 1.53ZM1.72 0.94C1.79 1 1.83 1.03 1.86 1.06C4.98 3.4 8.09 5.74 11.21 8.07C11.71 8.45 12.3 8.43 12.81 8.05C15.9 5.74 18.98 3.42 22.07 1.1C22.13 1.06 22.18 1.01 22.27 0.93C15.41 0.94 8.59 0.94 1.72 0.94Z" fill="#030303" fill-opacity="0.5"/>
</svg>
