<svg width="49" height="52" viewBox="0 0 49 52" fill="none" xmlns="http://www.w3.org/2000/svg">
<path d="M33.3271 31.9082C33.4699 31.9981 33.6233 31.8976 33.7978 31.9664C34.5224 32.2414 35.2892 32.3101 36.0614 32.3471C36.9076 32.3842 37.7485 32.4318 38.5946 32.2519C40.287 31.8923 41.2972 30.4009 41.4347 28.8408C41.6304 26.6671 41.0116 24.6468 40.1231 22.7165C39.5255 21.4155 39.1658 20.1039 39.3298 18.6865C39.425 17.8932 39.388 17.1052 39.4197 16.3119C39.5043 14.17 38.6846 12.3771 37.2989 10.7958C36.7436 10.1612 36.1936 9.52651 35.6489 8.88658C34.7815 7.87115 34.3902 6.59658 33.7925 5.43308C33.142 4.16379 32.3805 2.98971 31.2064 2.13823C29.9106 1.20214 28.4245 0.937702 26.8697 1.01174C25.8965 1.05934 24.9446 1.26031 24.0243 1.61465C23.469 1.83149 23.0407 2.22814 22.5329 2.50844C22.4483 2.55604 22.4113 2.69354 22.4536 2.80989" stroke="#030303" stroke-width="2" stroke-linecap="round" stroke-linejoin="round"/>
<path d="M22.4271 2.55127C22.0992 2.41376 21.7819 2.24981 21.4434 2.14404C19.4548 1.49882 17.6567 1.87961 16.0754 3.22822C15.1763 3.99508 14.547 4.99464 14.1291 6.06824C13.4363 7.85052 12.2622 9.26789 11.0088 10.6482C9.8559 11.9175 9.03087 13.356 8.85105 15.0801C8.7347 16.1749 8.74528 17.2802 8.84576 18.3803C8.95683 19.639 8.93567 20.8607 8.38565 22.0453C7.76158 23.3939 7.25916 24.7954 6.98415 26.2657C6.78318 27.3446 6.66683 28.434 6.93655 29.5129C7.3808 31.2846 8.81403 32.2102 10.2896 32.3054C11.818 32.4058 13.3094 32.2578 14.7849 31.8611" stroke="#030303" stroke-width="2" stroke-linecap="round" stroke-linejoin="round"/>
<path d="M22.8926 9.04466C23.5219 8.70618 24.1566 8.46819 24.9076 8.45762C25.7537 8.44175 26.3937 8.74849 26.9754 9.30381C27.9591 10.2399 28.7101 11.3664 29.4981 12.4506C30.3708 13.6511 31.2487 14.841 32.4492 15.7454C33.0045 16.1632 33.5968 16.47 34.3055 16.5863C34.9613 16.6921 35.432 17.0729 35.5537 17.808C35.7705 19.0826 35.7917 20.3254 35.1887 21.5259C34.8556 22.1976 34.3901 22.6947 33.6868 22.9697C33.3694 23.0967 33.1949 23.3241 33.105 23.6837C32.518 26.0953 31.3597 28.195 29.5563 29.9243C29.239 30.2311 28.8688 30.5061 28.7366 30.9556C28.689 31.1037 28.5991 31.0455 28.525 31.0561C27.975 31.1196 27.5043 31.3946 27.0336 31.6326C24.971 32.6639 22.9455 32.5105 20.9358 31.5162C20.4862 31.2941 20.0843 30.9609 19.5396 31.0032" stroke="#030303" stroke-width="2" stroke-linecap="round" stroke-linejoin="round"/>
<path d="M22.9189 9.56385C22.9295 9.18307 22.792 9.00325 22.3848 8.87103C21.7872 8.67006 21.216 8.45323 20.5708 8.41621C19.7986 8.36861 19.3491 8.73882 19.0212 9.35759C18.5822 10.1879 18.376 11.1029 18.0851 11.9861C17.7255 13.0861 17.3923 14.202 16.6466 15.1328C16.0014 15.9367 15.1975 16.418 14.1662 16.5819C13.0238 16.767 12.8387 17.0632 12.643 18.1738C12.4368 19.3532 12.5003 20.5696 13.1296 21.6749C13.4575 22.2567 13.8965 22.7168 14.5258 22.9548C14.8802 23.0923 15.06 23.2985 15.1552 23.6793C15.7369 26.0962 16.9004 28.1959 18.7144 29.9147C19.0318 30.2161 19.2856 30.5599 19.4813 30.9618C19.275 31.3373 19.1534 31.7393 19.1693 32.1888C19.1904 32.723 19.2063 33.2571 19.1693 33.786C19.0952 34.8807 18.5241 35.6952 17.6832 36.3721C16.7735 37.102 15.7263 37.5833 14.6845 38.0645C14.3196 38.2338 13.9229 38.3554 13.6532 38.6833C13.5791 38.7732 13.4998 38.8049 13.394 38.7838C12.9604 38.6992 12.5849 38.9001 12.2094 39.0429C10.4218 39.7305 8.61308 40.3651 6.99474 41.4123C4.8634 42.7873 3.01766 44.4427 1.8753 46.7697C1.21951 48.1077 0.97094 49.5251 1.00267 50.9953" stroke="#030303" stroke-width="2" stroke-linecap="round" stroke-linejoin="round"/>
<path d="M13.5421 38.8418C15.2081 42.3799 18.0111 44.4848 21.8083 45.2781C25.32 46.008 28.5038 45.1988 31.3597 43.0674C32.8458 41.9568 33.9723 40.55 34.718 38.8418" stroke="#030303" stroke-width="2" stroke-linecap="round" stroke-linejoin="round"/>
<path d="M28.6784 31.1094C28.9269 31.469 28.9957 31.8657 28.9957 32.294C28.9957 32.8758 28.9957 33.4628 29.0486 34.0446C29.112 34.6739 29.3976 35.2293 29.8207 35.6894C30.6828 36.6202 31.7511 37.2548 32.9093 37.7678C33.4964 38.027 34.1363 38.2174 34.6176 38.6828C34.6757 38.7409 34.7339 38.7727 34.8238 38.7885C37.9653 39.5078 40.8053 40.8776 43.2804 42.9243C45.0997 44.4263 46.5012 46.272 47.0618 48.6308C47.2469 49.4082 47.2839 50.2015 47.2734 51.0001" stroke="#030303" stroke-width="2" stroke-linecap="round" stroke-linejoin="round"/>
</svg>
