<svg width="28" height="30" viewBox="0 0 28 30" fill="none" xmlns="http://www.w3.org/2000/svg">
<path d="M14.8165 4.16631C14.4619 4.00169 14.196 3.57113 14.1833 3.16589C14.1706 2.62136 14.1706 2.07683 14.1706 1.53229V0.620515C14.1706 0.417898 14.1073 0.240608 13.9933 0.126636C13.9047 0.0379907 13.8034 0 13.6641 0C13.3602 0 13.1575 0.240608 13.1575 0.607851V1.11439C13.1575 1.76024 13.1449 2.39341 13.1702 3.03926C13.1829 3.62178 12.9549 3.97636 12.4104 4.22963C11.0301 4.83748 10.2829 6.28113 10.5995 7.72478C10.8401 8.85184 11.5239 9.62431 12.7017 10.1055L13.1575 10.2828V29.1515C13.1575 29.3415 13.1575 29.4301 13.1575 29.5061C13.1829 29.7594 13.3728 29.9493 13.6261 29.9873C13.816 30.0127 14.0567 29.8607 14.12 29.6328C14.158 29.5061 14.158 29.3288 14.158 29.1895V10.3335L14.7152 10.0422C16.0828 9.44702 16.754 8.49726 16.7667 7.12959C16.792 5.72393 16.1841 4.81216 14.8165 4.16631ZM15.1584 8.61123C14.7531 9.01646 14.2339 9.23174 13.6767 9.23174C13.6767 9.23174 13.6767 9.23174 13.6641 9.23174C13.1069 9.23174 12.575 9.01646 12.1698 8.61123C11.7645 8.20599 11.5493 7.66146 11.5493 7.10426C11.5493 5.92655 12.499 4.97678 13.6767 4.97678C14.8545 4.97678 15.7916 5.92655 15.7916 7.10426C15.7789 7.66146 15.5636 8.20599 15.1584 8.61123Z" fill="#030303"/>
<path d="M4.41959 20.0577C3.88772 19.8044 3.63444 19.3992 3.63444 18.7913C3.64711 16.3726 3.64711 13.9665 3.63444 11.5477V0.771045C3.63444 0.631746 3.63444 0.50511 3.60912 0.403801C3.58379 0.277165 3.50781 0.163193 3.39384 0.0872119C3.31786 0.0365576 3.22921 0.0112305 3.14057 0.0112305C3.10257 0.0112305 3.05192 0.0112305 3.01393 0.023894C2.83664 0.0745483 2.62136 0.137866 2.62136 0.783708V18.804C2.62136 19.0952 2.6087 19.6904 1.9122 20.007C0.645842 20.6022 0 21.5646 0 22.8943C0 24.224 0.645842 25.1991 1.9122 25.7816C2.34276 25.9842 2.6087 26.3895 2.62136 26.896C2.6087 27.7191 2.6087 28.5296 2.62136 29.3527C2.62136 29.6693 2.76066 29.9986 3.1279 29.9986C3.43183 29.9986 3.62178 29.758 3.63444 29.3654C3.64711 28.5929 3.64711 27.7951 3.63444 27.01V26.9593C3.63444 26.3895 3.88772 25.9969 4.40692 25.7563C5.63529 25.1737 6.26847 24.224 6.26847 22.907C6.2558 21.59 5.63529 20.6402 4.41959 20.0577ZM4.6222 24.4139C4.21697 24.8065 3.69776 25.0218 3.14057 25.0218C3.1279 25.0218 3.1279 25.0218 3.11524 25.0218C2.54538 25.0218 2.01351 24.7938 1.60827 24.3886C1.19038 23.958 0.975095 23.4515 1.00042 22.8816C1.00042 22.3244 1.22837 21.7926 1.64626 21.3873C2.0515 20.9821 2.58337 20.7668 3.1279 20.7668H3.14057C3.69776 20.7668 4.22963 20.9948 4.63487 21.4C5.0401 21.8052 5.25538 22.3371 5.25538 22.8943C5.25538 23.4768 5.02744 24.0087 4.6222 24.4139Z" fill="#030303"/>
<path d="M25.5045 14.7911C24.7953 14.4491 24.7067 13.8919 24.7067 13.4994V13.4867C24.7067 11.8658 24.7067 10.2448 24.7067 8.63656V0.835796C24.7067 0 24.3268 0 24.2001 0C24.0228 0 23.9342 0.0633179 23.8962 0.101309C23.7696 0.227944 23.6936 0.493879 23.6936 0.835796V6.42043C23.6936 8.78852 23.6936 11.1566 23.6936 13.5247C23.7063 13.9299 23.6303 14.4365 22.9211 14.7657C21.6928 15.3482 21.0596 16.3107 21.0596 17.615C21.0596 18.9447 21.6928 19.9071 22.9338 20.4897C23.415 20.7176 23.6936 21.1608 23.6936 21.6927C23.6936 23.6049 23.6809 25.5298 23.6936 27.4546V29.1515C23.6936 29.9873 24.0608 30 24.2001 30C24.2001 30 24.2001 30 24.2128 30C24.3901 30 24.4661 29.9367 24.5167 29.8987C24.6434 29.7721 24.7193 29.5061 24.7193 29.1642V26.0616C24.7193 24.618 24.7193 23.1617 24.7067 21.718C24.7067 21.1355 24.9599 20.7429 25.4918 20.4897C26.7202 19.8945 27.3407 18.9447 27.3407 17.6404C27.328 16.3233 26.7075 15.3736 25.5045 14.7911ZM26.3276 17.615C26.3276 18.1976 26.1123 18.7168 25.7198 19.1093C25.3145 19.5146 24.7827 19.7425 24.2128 19.7425H24.2001C23.0351 19.7425 22.0853 18.8054 22.0727 17.653C22.0727 17.0705 22.2879 16.5513 22.6805 16.1461C23.0857 15.7408 23.6176 15.5129 24.1748 15.5129C24.1875 15.5129 24.1875 15.5129 24.2001 15.5129C25.3652 15.5129 26.315 16.45 26.3276 17.615Z" fill="#030303"/>
</svg>
