<svg width="20" height="21" viewBox="0 0 20 21" fill="none" xmlns="http://www.w3.org/2000/svg">
<g clip-path="url(#clip0_1497_734)">
<path d="M18.5556 9.83366C18.3493 9.83366 18.1515 9.92145 18.0056 10.0777C17.8597 10.234 17.7778 10.446 17.7778 10.667C17.7841 12.6047 17.1621 14.4846 16.0181 15.9854C14.8741 17.4863 13.2791 18.5148 11.5057 18.8952C9.73236 19.2756 7.89073 18.9843 6.29562 18.071C4.7005 17.1578 3.45094 15.6794 2.7605 13.8884C2.07006 12.0974 1.98161 10.1051 2.51028 8.252C3.03894 6.39889 4.15189 4.80004 5.6589 3.72872C7.16591 2.6574 8.97342 2.18012 10.7725 2.37847C12.5715 2.57681 14.2504 3.43847 15.5222 4.81616C15.4967 4.82363 15.4707 4.82948 15.4445 4.83366H13.1111C12.9049 4.83366 12.707 4.92146 12.5612 5.07774C12.4153 5.23402 12.3334 5.44598 12.3334 5.66699C12.3334 5.888 12.4153 6.09997 12.5612 6.25625C12.707 6.41253 12.9049 6.50032 13.1111 6.50032H15.4445C16.0633 6.50032 16.6568 6.23693 17.0944 5.76809C17.532 5.29925 17.7778 4.66337 17.7778 4.00032V1.50033C17.7778 1.27931 17.6959 1.06735 17.55 0.91107C17.4041 0.75479 17.2063 0.666992 17 0.666992C16.7937 0.666992 16.5959 0.75479 16.4501 0.91107C16.3042 1.06735 16.2222 1.27931 16.2222 1.50033V3.22116C14.6298 1.69577 12.597 0.802131 10.4635 0.689578C8.32997 0.577025 6.22504 1.25237 4.50042 2.60277C2.7758 3.95317 1.53597 5.89681 0.988093 8.10891C0.440219 10.321 0.617496 12.6676 1.4903 14.7564C2.36311 16.8453 3.87857 18.55 5.78345 19.5856C7.68833 20.6213 9.86723 20.9251 11.9561 20.4464C14.0449 19.9676 15.9171 18.7353 17.2598 16.9554C18.6026 15.1754 19.3345 12.9556 19.3334 10.667C19.3334 10.446 19.2514 10.234 19.1056 10.0777C18.9597 9.92145 18.7619 9.83366 18.5556 9.83366Z" fill="#EDF5FC"/>
</g>
<defs>
<clipPath id="clip0_1497_734">
<rect width="18.6667" height="20" fill="white" transform="translate(0.666626 0.666992)"/>
</clipPath>
</defs>
</svg>
