<svg width="24" height="25" viewBox="0 0 24 25" fill="none" xmlns="http://www.w3.org/2000/svg">
<path d="M21.6482 3.11944C21.4665 3.09925 21.3757 3.01851 21.3252 2.85703C20.9518 1.71659 19.9728 1.01013 18.7819 1.01013C14.3211 1.00004 9.13361 0.989943 4.00668 1.01013C1.9882 1.02022 0.363326 2.44325 0.0403695 4.47182C0.0403695 4.50209 0.0201848 4.53237 0.0100924 4.56265C0.0100924 4.56265 0 4.57274 0 4.58283V20.1352C0.0100924 20.1857 0.0201848 20.2361 0.0302771 20.2765C0.0504619 20.3875 0.0807391 20.4884 0.111016 20.5893C0.484434 21.6591 1.24136 22.2849 2.35153 22.4363C2.47263 22.4564 2.61393 22.4766 2.68457 22.6785C3.08827 23.8593 4.04705 24.5456 5.30859 24.5456C6.7518 24.5456 8.20511 24.5456 9.64832 24.5456H11.8182H14.9771C17.0763 24.5456 19.1856 24.5456 21.2848 24.5456C22.5968 24.5456 23.6364 23.7382 23.929 22.5069C23.9795 22.3051 23.9997 22.083 23.9997 21.8206C23.9997 16.4817 23.9997 11.1328 23.9997 5.79392C24.0199 4.3608 23.0611 3.28091 21.6482 3.11944ZM8.42714 3.24054C8.3464 3.14971 8.23538 3.09925 8.084 3.09925C7.85187 3.09925 7.61975 3.09925 7.37753 3.08916C6.60042 3.07907 5.79303 3.05888 5.00582 3.11944C3.5727 3.21027 2.56347 4.33052 2.56347 5.83429C2.56347 7.1463 2.56347 8.45831 2.56347 9.77032V21.6692L2.48273 21.6591C1.82672 21.5986 1.34229 21.2857 1.0597 20.7508C0.898222 20.4481 0.807391 20.0847 0.807391 19.7719C0.787206 14.9275 0.787206 9.96207 0.797298 5.00671C0.797298 3.21027 2.20014 1.80743 3.98649 1.79733C8.44732 1.78724 12.9889 1.78724 17.3791 1.79733H18.792C19.5994 1.79733 20.2756 2.26158 20.5178 2.98823L20.5481 3.08916H20.1646C20.1343 3.08916 20.1141 3.08916 20.0838 3.08916C17.4295 3.08916 14.7752 3.08916 12.1109 3.08916C11.9797 3.08916 11.8686 3.09925 11.7778 3.11944C11.5961 3.15981 11.4952 3.32128 11.5053 3.52313C11.5154 3.70479 11.6466 3.84609 11.8283 3.86627C11.909 3.87636 11.9898 3.87636 12.0806 3.87636H15.3909C17.3488 3.87636 19.3067 3.87636 21.2647 3.88646C22.4556 3.88646 23.2327 4.66357 23.2327 5.85447C23.2327 8.65006 23.2327 11.4356 23.2327 14.2311V17.4405L23.1015 17.3295C22.9804 17.2185 22.8492 17.0974 22.7381 16.9965C22.4858 16.7643 22.2436 16.5423 22.0014 16.3304C21.6583 16.0276 21.2848 15.7147 20.9013 15.412C20.205 14.867 19.4278 14.8771 18.7315 15.4321C18.3278 15.7551 17.9241 16.0982 17.5305 16.4212C17.3084 16.6029 17.0965 16.7845 16.8745 16.9662L16.8341 16.9965C16.7332 17.0772 16.6222 17.168 16.5111 17.2387C16.0166 17.5515 15.3909 17.4304 15.0578 16.946C14.9872 16.8451 14.9266 16.7442 14.8762 16.6331L13.4935 14.0999C12.7366 12.7072 11.9797 11.3145 11.2227 9.9217C10.708 8.98311 9.68869 8.63997 8.80056 9.10422C8.49779 9.2657 8.25557 9.50791 8.02345 9.91161C6.73162 12.1117 5.4297 14.3119 4.12779 16.512L3.68372 17.269C3.65344 17.3194 3.62317 17.3699 3.5828 17.4405L3.41123 17.7231L3.39104 17.5011C3.39104 17.4607 3.38095 17.4304 3.38095 17.4002C3.37086 17.3497 3.37086 17.3093 3.37086 17.269V15.3615C3.37086 12.1925 3.37086 9.01339 3.37086 5.84438C3.37086 4.87551 3.87548 4.17914 4.7636 3.94701C4.93518 3.89655 5.14712 3.87636 5.38933 3.87636C5.93432 3.87636 6.46922 3.87636 7.01421 3.87636C7.35735 3.87636 7.71058 3.87636 8.05372 3.87636C8.32622 3.87636 8.4776 3.77544 8.51797 3.55341C8.51797 3.4323 8.49779 3.32128 8.42714 3.24054ZM23.2327 21.8206C23.2327 22.9611 22.4354 23.7584 21.305 23.7584C18.6305 23.7584 15.9662 23.7584 13.2917 23.7584C10.6172 23.7584 7.9528 23.7584 5.27832 23.7584C4.16815 23.7584 3.38095 22.9812 3.36076 21.861C3.35067 21.1646 3.35067 20.4682 3.36076 19.782V19.5397C3.36076 19.4388 3.40113 19.3278 3.46169 19.2168C4.5113 17.4304 5.571 15.6441 6.6206 13.8577L8.71982 10.285C8.94185 9.90152 9.23453 9.71985 9.60795 9.71985C9.61804 9.71985 9.62813 9.71985 9.63823 9.71985C10.0217 9.72995 10.3043 9.9217 10.5264 10.3355C12.3733 13.7366 14.2303 17.1378 16.0873 20.5389L16.0974 20.5692C16.1377 20.6499 16.1781 20.7306 16.2386 20.7912C16.3497 20.9224 16.5515 20.9628 16.7029 20.8921C16.8745 20.8013 16.9552 20.6297 16.9047 20.4481C16.8846 20.3774 16.8543 20.2967 16.8038 20.2058C16.602 19.8324 16.4001 19.4489 16.1882 19.0755L15.9157 18.5709C15.8854 18.5204 15.8652 18.48 15.845 18.4296L15.7542 18.2479L15.8652 18.2378C15.9157 18.2277 15.9762 18.2277 16.0267 18.2176C16.1276 18.2075 16.2185 18.1975 16.3093 18.1874C16.6322 18.1268 16.935 17.9754 17.2681 17.6928C17.9039 17.168 18.5397 16.6331 19.1755 16.1083C19.6801 15.6845 20.1545 15.7046 20.6389 16.1487C21.4362 16.8754 22.2638 17.6323 23.0712 18.3892C23.162 18.4699 23.2327 18.6314 23.2327 18.7626C23.2327 19.8425 23.2327 20.9224 23.2327 21.8206Z" fill="#030303" fill-opacity="0.5"/>
<path d="M17.8232 11.6675C17.8333 11.6675 17.8434 11.6675 17.8535 11.6675C18.4792 11.6675 19.0645 11.4253 19.5187 10.9913C19.9628 10.5472 20.2151 9.96188 20.2252 9.32606C20.2353 8.70033 19.993 8.11497 19.5389 7.66081C19.0948 7.20666 18.5095 6.95435 17.8837 6.95435H17.8736C16.6121 6.95435 15.5322 8.02414 15.512 9.29578C15.5019 9.90132 15.7441 10.4968 16.1882 10.9509C16.6121 11.395 17.2176 11.6574 17.8232 11.6675ZM16.7635 8.21589C17.0662 7.91312 17.4498 7.75164 17.8635 7.75164C18.7214 7.75164 19.4178 8.45811 19.4178 9.31596C19.4178 10.1738 18.7214 10.8702 17.8635 10.8702C17.4498 10.8702 17.0562 10.7087 16.7635 10.4059C16.4708 10.1133 16.2992 9.71966 16.2992 9.30587C16.2992 8.90217 16.4607 8.50857 16.7635 8.21589Z" fill="#030303" fill-opacity="0.5"/>
<path d="M10.0118 3.87684C10.2338 3.87684 10.4054 3.70527 10.4054 3.49333C10.4054 3.38232 10.365 3.29149 10.2944 3.21075C10.2237 3.1401 10.1228 3.09973 10.0118 3.09973H10.0017C9.77964 3.10982 9.61816 3.2713 9.61816 3.50343C9.62826 3.71537 9.78973 3.87684 10.0118 3.87684Z" fill="#030303" fill-opacity="0.5"/>
<path d="M17.4397 21.7805C17.2278 21.7805 17.0461 21.9521 17.0461 22.164C17.0461 22.265 17.0865 22.376 17.1673 22.4466C17.2379 22.5173 17.3388 22.5576 17.4397 22.5576H17.4498C17.6618 22.5475 17.8333 22.3659 17.8333 22.164C17.8333 21.9622 17.6517 21.7805 17.4397 21.7805Z" fill="#030303" fill-opacity="0.5"/>
</svg>
