<svg width="22" height="22" viewBox="0 0 22 22" fill="none" xmlns="http://www.w3.org/2000/svg">
<path d="M1.38351 12.793C0.937483 9.62943 0.714469 8.04765 1.66232 7.02383C2.61017 6 4.29758 6 7.67239 6H14.3276C17.7024 6 19.3898 6 20.3377 7.02383C21.2855 8.04765 21.0625 9.62943 20.6165 12.793L20.1935 15.793C19.8437 18.2739 19.6689 19.5143 18.7717 20.2572C17.8745 21 16.5512 21 13.9046 21H8.09536C5.44881 21 4.12553 21 3.22834 20.2572C2.33115 19.5143 2.15626 18.2739 1.80648 15.793L1.38351 12.793Z" stroke="#1C274C" stroke-width="1.5"/>
<path d="M18.5617 6C18.7904 4.69523 17.7863 3.5 16.4617 3.5H5.53788C4.21323 3.5 3.20922 4.69523 3.43784 6" stroke="#1C274C" stroke-width="1.5"/>
<path d="M16.4999 3.5C16.5283 3.24092 16.5425 3.11135 16.5427 3.00435C16.545 1.98072 15.7739 1.12064 14.7561 1.01142C14.6497 1 14.5194 1 14.2588 1H7.74099C7.48035 1 7.35002 1 7.24362 1.01142C6.22584 1.12064 5.45481 1.98072 5.45704 3.00434C5.45727 3.11135 5.47146 3.2409 5.49983 3.5" stroke="#1C274C" stroke-width="1.5"/>
<circle cx="15.5" cy="10.5" r="1.5" stroke="#1C274C" stroke-width="1.5"/>
<path d="M18.9999 19L16.1157 16.8514C15.1856 16.1586 13.8004 16.0896 12.7766 16.6851L12.5098 16.8403C11.7984 17.2542 10.8304 17.1848 10.2156 16.6758L6.37738 13.4989C5.6113 12.8648 4.38245 12.8309 3.5671 13.4214L2.24316 14.3803" stroke="#1C274C" stroke-width="1.5" stroke-linecap="round"/>
</svg>
