<svg width="20" height="20" viewBox="0 0 20 20" fill="none" xmlns="http://www.w3.org/2000/svg">
<g clip-path="url(#clip0_796_11645)">
<path d="M10.1584 20.0001H9.8417C9.68353 19.9455 9.54945 19.8373 9.4627 19.6942C9.37594 19.5511 9.34198 19.3822 9.3667 19.2168C9.3667 18.7001 9.3667 18.1917 9.3667 17.6751V17.4667C7.60065 17.3195 5.9438 16.5516 4.68992 15.2992C3.43603 14.0469 2.66613 12.391 2.5167 10.6251C1.92503 10.6251 1.35003 10.6251 0.775031 10.6251C0.609739 10.6482 0.441545 10.6135 0.298836 10.527C0.156128 10.4404 0.0476454 10.3073 -0.00830078 10.1501V9.83342C0.0476454 9.67618 0.156128 9.54305 0.298836 9.45652C0.441545 9.36998 0.609739 9.33533 0.775031 9.35842C1.28336 9.35842 1.80003 9.35842 2.3167 9.35842H2.5167C2.67796 7.60867 3.45455 5.97282 4.70837 4.74175C5.95164 3.48025 7.60905 2.71074 9.37503 2.57508C9.37503 1.98342 9.37503 1.40008 9.37503 0.82508C9.35195 0.659788 9.3866 0.491594 9.47313 0.348885C9.55967 0.206176 9.69279 0.0976942 9.85003 0.041748H10.1667C10.3224 0.0991904 10.4537 0.208303 10.5386 0.350869C10.6235 0.493434 10.657 0.660821 10.6334 0.82508C10.6334 1.34175 10.6334 1.85008 10.6334 2.36675V2.57508C12.3979 2.72423 14.0528 3.49295 15.305 4.74513C16.5572 5.99731 17.3259 7.65219 17.475 9.41675C18.0667 9.41675 18.65 9.41675 19.225 9.41675C19.3899 9.39677 19.5568 9.43272 19.6988 9.51885C19.8408 9.60498 19.9498 9.73629 20.0084 9.89175V10.2084C19.9509 10.3641 19.8418 10.4954 19.6992 10.5803C19.5567 10.6652 19.3893 10.6987 19.225 10.6751C18.7084 10.6751 18.1917 10.6751 17.6834 10.6751H17.475C17.3259 12.4396 16.5572 14.0945 15.305 15.3467C14.0528 16.5989 12.3979 17.3676 10.6334 17.5168C10.6334 18.1084 10.6334 18.6917 10.6334 19.2667C10.6447 19.424 10.6045 19.5807 10.5187 19.713C10.433 19.8453 10.3065 19.9461 10.1584 20.0001ZM16.2334 9.78341C16.1909 8.52999 15.7719 7.31842 15.0308 6.30662C14.2898 5.29482 13.2612 4.52972 12.079 4.11104C10.8968 3.69236 9.61586 3.63953 8.4032 3.95943C7.19055 4.27932 6.10238 4.95711 5.28053 5.90445C4.45869 6.85178 3.94129 8.02472 3.79577 9.27039C3.65024 10.5161 3.88336 11.7767 4.46471 12.8879C5.04607 13.9992 5.9487 14.9096 7.05497 15.5004C8.16124 16.0912 9.41983 16.335 10.6667 16.2001C12.2339 16.0325 13.6795 15.2774 14.7123 14.0868C15.7452 12.8962 16.2887 11.3586 16.2334 9.78341Z" fill="#030303" fill-opacity="0.5"/>
<path d="M13.3334 10.0075C13.3319 10.6668 13.135 11.3108 12.7675 11.8581C12.4 12.4055 11.8785 12.8316 11.2688 13.0825C10.6592 13.3334 9.98883 13.398 9.34251 13.2679C8.6962 13.1379 8.10297 12.8191 7.63783 12.3519C7.17269 11.8846 6.85654 11.29 6.72936 10.6431C6.60218 9.99623 6.66968 9.32616 6.92332 8.71763C7.17697 8.10911 7.60537 7.58946 8.15434 7.22441C8.70332 6.85936 9.34821 6.66529 10.0075 6.66676C10.8909 6.67067 11.7369 7.02437 12.3602 7.65046C12.9835 8.27655 13.3334 9.12404 13.3334 10.0075Z" fill="#4DDA65"/>
</g>
<defs>
<clipPath id="clip0_796_11645">
<rect width="20" height="20" fill="white"/>
</clipPath>
</defs>
</svg>
