<svg width="34" height="34" viewBox="0 0 34 34" fill="none" xmlns="http://www.w3.org/2000/svg">
<path d="M10.1999 19.4494C12.5499 19.4494 14.4332 21.3511 14.4332 23.7178V29.3994C14.4332 31.7494 12.5499 33.6661 10.1999 33.6661H4.56652C2.23319 33.6661 0.333191 31.7494 0.333191 29.3994V23.7178C0.333191 21.3511 2.23319 19.4494 4.56652 19.4494H10.1999ZM29.4334 19.4494C31.7667 19.4494 33.6667 21.3511 33.6667 23.7178V29.3994C33.6667 31.7494 31.7667 33.6661 29.4334 33.6661H23.8C21.45 33.6661 19.5667 31.7494 19.5667 29.3994V23.7178C19.5667 21.3511 21.45 19.4494 23.8 19.4494H29.4334ZM10.1999 0.333252C12.5499 0.333252 14.4332 2.24992 14.4332 4.60159V10.2833C14.4332 12.6499 12.5499 14.5499 10.1999 14.5499H4.56652C2.23319 14.5499 0.333191 12.6499 0.333191 10.2833V4.60159C0.333191 2.24992 2.23319 0.333252 4.56652 0.333252H10.1999ZM29.4334 0.333252C31.7667 0.333252 33.6667 2.24992 33.6667 4.60159V10.2833C33.6667 12.6499 31.7667 14.5499 29.4334 14.5499H23.8C21.45 14.5499 19.5667 12.6499 19.5667 10.2833V4.60159C19.5667 2.24992 21.45 0.333252 23.8 0.333252H29.4334Z" fill="white"/>
</svg>
