<svg width="26" height="25" viewBox="0 0 26 25" fill="none" xmlns="http://www.w3.org/2000/svg">
<path d="M22.6879 4.72906C21.5808 3.2527 20.1408 2.05859 18.485 1.24395C16.8293 0.429309 15.0046 0.0171468 13.1594 0.0410201C12.9852 0.0498422 12.8159 0.102233 12.6672 0.193387C12.5562 0.271033 12.4749 0.384046 12.4366 0.513931C12.3982 0.643815 12.4052 0.782873 12.4562 0.908315C12.5071 1.04255 12.5965 1.15869 12.7133 1.24213C12.8301 1.32556 12.9691 1.37253 13.1126 1.37711H13.722C14.3048 1.4011 14.8849 1.47164 15.4566 1.58807C16.8455 1.88884 18.1611 2.4621 19.327 3.27467C20.4929 4.08725 21.4862 5.123 22.2492 6.32198C23.0121 7.52096 23.5297 8.85935 23.772 10.2597C24.0143 11.6601 23.9765 13.0946 23.6607 14.4802C23.3063 16.0545 22.6041 17.5296 21.6057 18.7974C20.6073 20.0651 19.338 21.0935 17.8906 21.8071C16.4432 22.5206 14.8545 22.9014 13.2409 22.9213C11.6273 22.9413 10.0297 22.6 8.56515 21.9225C7.09141 21.2412 5.79098 20.2353 4.76126 18.98C3.73155 17.7248 2.99921 16.2528 2.61925 14.6743C2.23929 13.0958 2.22154 11.4518 2.56725 9.86543C2.91295 8.27909 3.61318 6.79156 4.61548 5.51431C4.81472 5.26819 5.02564 5.02206 5.2366 4.79938L5.52961 4.45951L5.78749 4.17822L5.89293 4.54154C5.909 4.68172 5.909 4.82328 5.89293 4.96346C5.87965 5.05199 5.88403 5.14226 5.90573 5.2291C5.92743 5.31595 5.96604 5.39766 6.0194 5.46953C6.07276 5.5414 6.13977 5.60204 6.21662 5.64793C6.29347 5.69383 6.37862 5.7241 6.4672 5.73699C6.55926 5.75009 6.65307 5.74417 6.74275 5.71958C6.83243 5.69499 6.91611 5.65226 6.98861 5.59403C7.06112 5.53581 7.12085 5.46333 7.16423 5.38108C7.2076 5.29883 7.23368 5.20855 7.24077 5.11583C7.35797 4.27198 7.46341 3.42812 7.56889 2.596C7.58206 2.50353 7.57671 2.40938 7.55309 2.31902C7.52946 2.22865 7.48807 2.14389 7.43134 2.0697C7.3746 1.99551 7.30369 1.93337 7.22267 1.8869C7.14166 1.84043 7.05218 1.81056 6.9595 1.79904C6.09221 1.67012 5.22488 1.56462 4.3576 1.45914H4.26382C4.10107 1.45497 3.94261 1.51143 3.81916 1.61756C3.69571 1.72368 3.61613 1.87191 3.59583 2.03344C3.57256 2.21216 3.62121 2.39282 3.7311 2.53567C3.84099 2.67853 4.00312 2.7719 4.18184 2.79525H4.50996H4.7795L4.9436 3.12342L4.72092 3.2875L4.59201 3.39297C2.97661 4.93618 1.83596 6.90895 1.30439 9.07884C0.772815 11.2487 0.872475 13.5254 1.59167 15.6405C2.42653 18.3555 4.20531 20.6822 6.60641 22.1998C9.0075 23.7174 11.8724 24.3258 14.683 23.9149C17.26 23.5991 19.6593 22.4366 21.5041 20.6098C23.6249 18.5745 24.9188 15.8274 25.1373 12.8961C25.3558 9.96488 24.4834 7.05628 22.6879 4.72906Z" fill="#030303" fill-opacity="0.5"/>
<path d="M7.63912 17.5152C8.35305 18.2376 9.20369 18.8108 10.1414 19.2011C11.079 19.5915 12.085 19.7913 13.1007 19.7889C15.0894 19.7113 16.9708 18.8667 18.3503 17.4322C19.7299 15.9977 20.5005 14.0849 20.5005 12.0947C20.5005 10.1045 19.7299 8.19157 18.3503 6.7571C16.9708 5.32264 15.0894 4.47803 13.1007 4.4004C11.0646 4.39726 9.11011 5.20071 7.66487 6.63498C6.21962 8.06924 5.40127 10.0175 5.38887 12.0536C5.37948 13.0682 5.57383 14.0744 5.96036 15.0125C6.34689 15.9507 6.91771 16.8017 7.63912 17.5152ZM13.1125 5.7951C13.942 5.79486 14.7633 5.95829 15.5296 6.27605C16.2958 6.59382 16.9919 7.05966 17.5778 7.64688C18.1687 8.22394 18.6388 8.91284 18.9608 9.67345C19.2827 10.4341 19.4501 11.2511 19.453 12.0771C19.4624 12.9216 19.303 13.7594 18.9842 14.5415C18.6653 15.3236 18.1935 16.0341 17.5963 16.6312C16.9991 17.2284 16.2886 17.7003 15.5066 18.0192C14.7245 18.338 13.8866 18.4974 13.0421 18.488C11.3685 18.4695 9.76958 17.7924 8.59159 16.6035C7.4136 15.4145 6.75143 13.8094 6.74845 12.1357C6.74532 10.4488 7.41082 8.82937 8.59924 7.63216C9.78767 6.43495 11.4021 5.75751 13.089 5.74821L13.1125 5.7951Z" fill="#030303" fill-opacity="0.5"/>
<path d="M13.3702 13.3199C13.7218 13.6832 14.0851 14.0348 14.4485 14.3864C14.5112 14.4588 14.5886 14.5171 14.6754 14.5575C14.7623 14.5979 14.8567 14.6194 14.9525 14.6208C15.0409 14.6197 15.1281 14.6004 15.2088 14.5641C15.2894 14.5278 15.3618 14.4753 15.4212 14.4098C15.4858 14.3475 15.5371 14.2729 15.5721 14.1903C15.6072 14.1078 15.6252 14.019 15.6252 13.9293C15.6252 13.8396 15.6072 13.7509 15.5721 13.6683C15.5371 13.5858 15.4858 13.5111 15.4212 13.4488L14.9876 13.0151L14.7063 12.7339L14.4485 12.4877C14.198 12.307 13.9934 12.0702 13.8508 11.7963C13.7574 11.501 13.7334 11.1882 13.7805 10.8821C13.7858 10.8314 13.7858 10.7804 13.7805 10.7297V9.55771C13.7852 9.46552 13.7711 9.37335 13.7391 9.28677C13.7071 9.2002 13.6578 9.12104 13.5942 9.05414C13.5306 8.98725 13.4541 8.93402 13.3692 8.89768C13.2844 8.86134 13.193 8.84265 13.1007 8.84278C13.0078 8.84242 12.9158 8.86143 12.8307 8.89861C12.7456 8.93579 12.6692 8.99031 12.6063 9.05869C12.5435 9.12707 12.4955 9.20781 12.4656 9.29575C12.4357 9.38369 12.4245 9.47691 12.4326 9.56944V12.0893C12.4286 12.1944 12.4475 12.2992 12.488 12.3963C12.5285 12.4934 12.5896 12.5806 12.667 12.6518L13.3702 13.3199Z" fill="#030303" fill-opacity="0.5"/>
</svg>
