<svg width="25" height="25" viewBox="0 0 25 25" fill="none" xmlns="http://www.w3.org/2000/svg">
<path d="M24.0097 9.8425C23.9347 9.1338 23.7184 8.44731 23.3738 7.82352C23.0291 7.19972 22.5631 6.65125 22.0031 6.21046C21.9527 6.1534 21.8905 6.10807 21.8207 6.07761C21.751 6.04715 21.6754 6.03232 21.5994 6.03416C21.5233 6.036 21.4485 6.05448 21.3803 6.08828C21.3121 6.12208 21.2521 6.17038 21.2046 6.22982C21.157 6.28925 21.123 6.35836 21.105 6.43231C21.087 6.50626 21.0854 6.58326 21.1003 6.6579C21.1152 6.73254 21.1463 6.80301 21.1913 6.86438C21.2364 6.92574 21.2942 6.97651 21.361 7.01312C21.888 7.43207 22.3115 7.96676 22.5986 8.57573C22.8857 9.18471 23.0287 9.85161 23.0165 10.5248V18.6316C23.0205 19.2133 22.9087 19.79 22.6876 20.3281C22.4666 20.8661 22.1407 21.3549 21.7289 21.7657C21.3171 22.1766 20.8276 22.5014 20.289 22.7212C19.7505 22.9411 19.1735 23.0516 18.5918 23.0462H5.42819C4.8448 23.0516 4.26624 22.9405 3.72633 22.7194C3.18642 22.4983 2.69607 22.1717 2.28399 21.7587C1.87192 21.3457 1.5464 20.8546 1.32654 20.3142C1.10668 19.7738 0.996871 19.1949 1.00357 18.6115V10.5849C0.984566 9.88403 1.13627 9.189 1.44565 8.55976C1.75502 7.93053 2.2128 7.38596 2.77947 6.973L3.7226 6.25061C5.57874 4.83592 7.43489 3.41121 9.30106 2.00656C9.94818 1.47696 10.7379 1.15134 11.5702 1.07096C12.4026 0.990589 13.24 1.15906 13.9765 1.55505C14.4028 1.77789 14.8032 2.04708 15.1705 2.35771L15.4715 2.57844L17.4781 4.0734L18.331 4.72555C18.4045 4.79918 18.4994 4.8476 18.6022 4.86383C18.705 4.88005 18.8102 4.86325 18.9029 4.81585C18.9918 4.78134 19.0682 4.72069 19.1219 4.64187C19.1757 4.56305 19.2042 4.46979 19.2038 4.3744C19.2038 3.29081 19.2038 2.19719 19.2038 1.1136C19.2057 1.00986 19.1732 0.908396 19.1116 0.824956C19.0499 0.741516 18.9624 0.680749 18.8627 0.652066C18.7837 0.621453 18.6984 0.610925 18.6143 0.621432C18.5303 0.631939 18.4501 0.66315 18.3811 0.712263C18.3154 0.761054 18.2621 0.824626 18.2255 0.897829C18.1889 0.971033 18.17 1.05181 18.1704 1.13366C18.1704 1.40455 18.1704 1.66542 18.1704 1.95639V3.27074L17.1671 2.57844L15.3009 1.16375C14.7124 0.688296 14.0278 0.346003 13.2943 0.160433L12.7224 0.0400391H12.5017H11.4983H11.2675C11.0568 0.0400391 10.8362 0.120304 10.6255 0.180504C9.97781 0.344068 9.37016 0.637636 8.83951 1.04336L7.0235 2.40788C5.33792 3.6821 3.64231 4.96635 2.00689 6.2807C1.37702 6.75305 0.867168 7.36701 0.518567 8.07292C0.169965 8.77884 -0.00759469 9.5569 0.000249013 10.3442C0.000249013 13.3541 0.000249013 16.3641 0.000249013 18.8022C0.0291659 20.1097 0.532713 21.3621 1.41699 22.3258C2.30126 23.2895 3.50587 23.8986 4.80614 24.0395C5.02687 24.0395 5.24764 24.0395 5.46837 24.0395H18.6219C19.8766 24.0572 21.098 23.6357 22.0746 22.8478C23.0512 22.0599 23.7216 20.9553 23.9696 19.7252C23.9696 19.5847 23.9696 19.4343 24.0499 19.2938V19.0931V9.97292C24.08 9.94282 24.0198 9.89267 24.0097 9.8425Z" fill="#030303" fill-opacity="0.5"/>
<path d="M10.0335 11.2969C9.83553 11.302 9.64708 11.3829 9.50704 11.5229C9.36701 11.6629 9.28609 11.8514 9.28101 12.0494C9.27966 12.1499 9.29847 12.2496 9.33631 12.3428C9.37415 12.4359 9.43027 12.5205 9.50135 12.5916C9.57242 12.6626 9.65703 12.7188 9.75016 12.7566C9.84328 12.7944 9.94304 12.8132 10.0435 12.8119C10.2439 12.8109 10.4369 12.7358 10.5853 12.6012C10.7274 12.4486 10.8064 12.2478 10.8061 12.0393C10.7983 11.8397 10.7134 11.6508 10.5694 11.5124C10.4253 11.374 10.2333 11.2967 10.0335 11.2969Z" fill="#030303" fill-opacity="0.5"/>
<path d="M13.9565 11.2971C13.8567 11.2946 13.7575 11.3119 13.6645 11.348C13.5714 11.3842 13.4866 11.4385 13.4147 11.5078C13.2757 11.6535 13.1999 11.8483 13.204 12.0496C13.2033 12.15 13.2225 12.2495 13.2604 12.3425C13.2982 12.4355 13.3541 12.5201 13.4248 12.5914C13.578 12.7182 13.768 12.7921 13.9665 12.8021C14.1661 12.8021 14.3575 12.7228 14.4986 12.5817C14.6398 12.4406 14.719 12.2492 14.719 12.0496C14.719 11.85 14.6398 11.6586 14.4986 11.5175C14.3575 11.3764 14.1661 11.2971 13.9665 11.2971H13.9565Z" fill="#030303" fill-opacity="0.5"/>
<path d="M10.0335 15.1905C9.82767 15.1886 9.62942 15.2679 9.48166 15.4112C9.34535 15.5586 9.27002 15.7522 9.27094 15.953C9.27358 16.1535 9.35511 16.3449 9.49783 16.4857C9.64055 16.6265 9.83297 16.7055 10.0335 16.7055C10.2356 16.7037 10.4294 16.6247 10.5752 16.4847C10.6795 16.3776 10.75 16.2421 10.7779 16.0952C10.8058 15.9483 10.7899 15.7965 10.7321 15.6585C10.6744 15.5206 10.5774 15.4027 10.4532 15.3195C10.329 15.2362 10.183 15.1914 10.0335 15.1905Z" fill="#030303" fill-opacity="0.5"/>
<path d="M13.9564 15.1904C13.856 15.1898 13.7565 15.2089 13.6635 15.2468C13.5705 15.2847 13.486 15.3405 13.4147 15.4112C13.3452 15.4808 13.2907 15.5639 13.2545 15.6553C13.2182 15.7467 13.201 15.8446 13.2039 15.9429C13.2014 16.0427 13.2187 16.142 13.2549 16.235C13.2911 16.328 13.3454 16.4129 13.4147 16.4847C13.57 16.6159 13.7635 16.6933 13.9665 16.7055C14.116 16.7045 14.262 16.6597 14.3862 16.5764C14.5104 16.4932 14.6075 16.3753 14.6652 16.2374C14.7229 16.0995 14.7388 15.9476 14.7109 15.8007C14.683 15.6538 14.6126 15.5183 14.5083 15.4112C14.437 15.3405 14.3523 15.2847 14.2594 15.2468C14.1664 15.2089 14.0669 15.1898 13.9665 15.1904H13.9564Z" fill="#030303" fill-opacity="0.5"/>
</svg>
