<svg width="40" height="40" viewBox="0 0 40 40" fill="none" xmlns="http://www.w3.org/2000/svg">
<path d="M20.15 16.3997C19.4544 16.3997 18.7746 16.6059 18.1962 16.9923C17.6179 17.3787 17.1671 17.928 16.901 18.5706C16.6348 19.2131 16.5652 19.9202 16.7009 20.6024C16.8366 21.2846 17.1715 21.9112 17.6633 22.403C18.1551 22.8948 18.7817 23.2297 19.4639 23.3654C20.1461 23.5011 20.8532 23.4315 21.4958 23.1653C22.1383 22.8991 22.6876 22.4484 23.074 21.8701C23.4604 21.2918 23.6666 20.6119 23.6666 19.9163C23.6622 18.985 23.2903 18.0931 22.6318 17.4345C21.9732 16.776 21.0813 16.404 20.15 16.3997Z" fill="#FE8205"/>
<path d="M20 0C14.6957 0 9.60858 2.10712 5.85785 5.85785C2.10712 9.60858 0 14.6957 0 20C0 25.3043 2.10712 30.3914 5.85785 34.1421C9.60858 37.8929 14.6957 40 20 40C25.3043 40 30.3914 37.8929 34.1422 34.1421C37.8929 30.3914 40 25.3043 40 20C40 14.6957 37.8929 9.60858 34.1422 5.85785C30.3914 2.10712 25.3043 0 20 0ZM28.3333 25.7833C27.583 25.7826 26.844 25.6004 26.1794 25.2521C25.5147 24.9038 24.9443 24.3999 24.5167 23.7833C23.7641 24.6438 22.7765 25.2657 21.6754 25.5725C20.5742 25.8794 19.4074 25.8578 18.3183 25.5105C17.2292 25.1632 16.2653 24.5053 15.545 23.6177C14.8247 22.73 14.3795 21.6512 14.264 20.5139C14.1485 19.3767 14.3677 18.2304 14.8948 17.2161C15.4219 16.2017 16.2339 15.3634 17.2309 14.8043C18.228 14.2451 19.3666 13.9894 20.507 14.0686C21.6474 14.1478 22.7398 14.5584 23.65 15.25C23.6302 15.0839 23.6458 14.9156 23.6958 14.756C23.7458 14.5964 23.8291 14.4492 23.9401 14.3242C24.0511 14.1991 24.1874 14.099 24.3399 14.0305C24.4924 13.9619 24.6578 13.9265 24.825 13.9265C24.9922 13.9265 25.1575 13.9619 25.3101 14.0305C25.4626 14.099 25.5989 14.1991 25.7099 14.3242C25.8209 14.4492 25.9042 14.5964 25.9542 14.756C26.0042 14.9156 26.0198 15.0839 26 15.25V21.1C25.9726 21.4241 26.0129 21.7504 26.1181 22.0582C26.2234 22.3659 26.3914 22.6485 26.6115 22.888C26.8316 23.1275 27.099 23.3186 27.3969 23.4494C27.6947 23.5802 28.0164 23.6477 28.3417 23.6477C28.667 23.6477 28.9887 23.5802 29.2865 23.4494C29.5843 23.3186 29.8518 23.1275 30.0719 22.888C30.292 22.6485 30.46 22.3659 30.5652 22.0582C30.6705 21.7504 30.7107 21.4241 30.6833 21.1C30.6833 13.2666 25.5 9.43331 20.1333 9.43331C17.3353 9.43331 14.6519 10.5448 12.6733 12.5233C10.6948 14.5019 9.58333 17.1853 9.58333 19.9833C9.58333 22.7814 10.6948 25.4648 12.6733 27.4433C14.6519 29.4218 17.3353 30.5333 20.1333 30.5333C22.4564 30.5451 24.7162 29.7762 26.55 28.35C26.6726 28.257 26.8122 28.189 26.9611 28.15C27.1099 28.1109 27.265 28.1016 27.4174 28.1225C27.5698 28.1434 27.7167 28.1941 27.8495 28.2717C27.9824 28.3494 28.0987 28.4524 28.1917 28.575C28.2847 28.6975 28.3526 28.8372 28.3917 28.9861C28.4307 29.1349 28.44 29.29 28.4191 29.4424C28.3982 29.5949 28.3476 29.7417 28.2699 29.8745C28.1923 30.0074 28.0892 30.1236 27.9667 30.2166C25.7231 31.9469 22.9665 32.8794 20.1333 32.8667C16.7164 32.8667 13.4395 31.5093 11.0234 29.0932C8.60731 26.6771 7.25001 23.4002 7.25001 19.9833C7.25001 16.5664 8.60731 13.2895 11.0234 10.8734C13.4395 8.45735 16.7164 7.09999 20.1333 7.09999C26.6166 7.09999 33.0333 11.8666 33.0333 21.15C33.0116 22.3807 32.5097 23.5541 31.6346 24.4198C30.7596 25.2855 29.5808 25.7748 28.35 25.7833H28.3333Z" fill="#FE8205"/>
</svg>
