<svg width="24" height="24" viewBox="0 0 24 24" fill="none" xmlns="http://www.w3.org/2000/svg">
<path fill-rule="evenodd" clip-rule="evenodd" d="M17.2008 0C21.2676 0 24 2.8536 24 7.0992V16.9008C24 21.1464 21.2676 24 17.1996 24H6.798C2.7312 24 0 21.1464 0 16.9008V7.0992C0 2.8536 2.7312 0 6.798 0H17.2008ZM17.2008 1.8H6.798C3.762 1.8 1.8 3.8796 1.8 7.0992V16.9008C1.8 20.1204 3.762 22.2 6.798 22.2H17.1996C20.2368 22.2 22.2 20.1204 22.2 16.9008V7.0992C22.2 3.8796 20.2368 1.8 17.2008 1.8Z" fill="#030303"/>
<path d="M17.0797 9.5357C17.4313 9.1841 17.4313 8.6153 17.0797 8.2637C16.7281 7.9121 16.1593 7.9121 15.8077 8.2637L10.7485 13.3217L8.5357 11.1113C8.1841 10.7597 7.6153 10.7597 7.2637 11.1113C6.9121 11.4629 6.9121 12.0317 7.2637 12.3833L10.1125 15.2309C10.2877 15.4073 10.5193 15.4949 10.7485 15.4949C10.9789 15.4949 11.2093 15.4073 11.3845 15.2309L17.0797 9.5357Z" fill="#4DDA65"/>
</svg>
