<svg width="50" height="50" viewBox="0 0 50 50" fill="none" xmlns="http://www.w3.org/2000/svg">
<g filter="url(#filter0_d_796_11452)">
<circle cx="25" cy="21" r="15" fill="white"/>
</g>
<path d="M29.4797 28.1477C29.3547 28.1977 29.238 28.2727 29.113 28.3393C27.438 29.2727 25.6547 29.6143 23.763 29.331C21.2964 28.9643 19.3464 27.7143 17.963 25.6477C16.5797 23.581 16.213 21.2977 16.8214 18.881C17.3214 16.8977 18.4297 15.306 20.0964 14.1393C22.3964 12.5143 24.913 12.1643 27.5964 12.981C28.388 13.2227 29.1047 13.6143 29.7964 14.0643C30.1797 14.306 30.6464 14.1893 30.8714 13.831C31.1047 13.4643 31.0047 13.006 30.6214 12.756C28.1464 11.1143 25.4547 10.606 22.5797 11.306C17.7297 12.4893 14.163 17.231 15.1714 22.8893C15.5297 24.881 16.4547 26.5893 17.8714 28.0227C19.363 29.531 21.163 30.481 23.2547 30.8393C23.6297 30.906 24.013 30.9393 24.388 30.9893C24.7797 30.9893 25.1714 30.9893 25.563 30.9893C25.613 30.981 25.663 30.9643 25.713 30.956C26.7964 30.881 27.8464 30.631 28.8464 30.1977C29.2964 30.006 29.738 29.7727 30.163 29.5227C30.5214 29.3143 30.6214 28.8727 30.438 28.5143C30.2714 28.1643 29.8464 27.9977 29.4797 28.1477Z" fill="#030303"/>
<path d="M24.613 23.006C23.313 21.7726 22.0047 20.531 20.7047 19.2976C20.338 18.9476 19.8714 18.9393 19.5547 19.2643C19.238 19.5893 19.2547 20.0726 19.613 20.406C20.9547 21.681 22.2964 22.9476 23.638 24.2226C24.0464 24.606 24.5297 24.7976 25.1797 24.806C25.713 24.781 26.238 24.531 26.638 24.031C29.338 20.6726 32.038 17.306 34.7464 13.9476C34.7964 13.881 34.8547 13.8143 34.8964 13.7393C35.0547 13.4643 35.0214 13.131 34.8297 12.881C34.638 12.6393 34.313 12.5393 34.0047 12.6143C33.738 12.681 33.588 12.8893 33.4297 13.0893C30.788 16.3726 28.1464 19.656 25.5047 22.9393C25.1964 23.331 24.963 23.3393 24.613 23.006Z" fill="#4DDA65"/>
<path d="M34.6713 18.5061C34.5963 18.1977 34.3963 17.9977 34.0797 17.9227C33.788 17.8561 33.538 17.9477 33.338 18.1644C33.1297 18.3894 33.1047 18.6644 33.1797 18.9477C33.5047 20.2894 33.513 21.6227 33.188 22.9644C32.9547 23.9311 32.538 24.8227 32.0047 25.6644C31.7547 26.0561 31.863 26.5227 32.213 26.7477C32.6047 26.9977 33.063 26.8894 33.3297 26.4727C34.388 24.8394 34.9463 23.0561 34.988 20.8977C34.988 20.2311 34.888 19.3561 34.6713 18.5061Z" fill="#030303"/>
<defs>
<filter id="filter0_d_796_11452" x="0" y="0" width="50" height="50" filterUnits="userSpaceOnUse" color-interpolation-filters="sRGB">
<feFlood flood-opacity="0" result="BackgroundImageFix"/>
<feColorMatrix in="SourceAlpha" type="matrix" values="0 0 0 0 0 0 0 0 0 0 0 0 0 0 0 0 0 0 127 0" result="hardAlpha"/>
<feOffset dy="4"/>
<feGaussianBlur stdDeviation="5"/>
<feComposite in2="hardAlpha" operator="out"/>
<feColorMatrix type="matrix" values="0 0 0 0 0.854902 0 0 0 0 0.854902 0 0 0 0 0.854902 0 0 0 1 0"/>
<feBlend mode="multiply" in2="BackgroundImageFix" result="effect1_dropShadow_796_11452"/>
<feBlend mode="normal" in="SourceGraphic" in2="effect1_dropShadow_796_11452" result="shape"/>
</filter>
</defs>
</svg>
