<svg width="16" height="15" viewBox="0 0 16 15" fill="none" xmlns="http://www.w3.org/2000/svg">
<path d="M14.993 5.05638C14.8807 5.45796 14.6381 5.81082 14.3034 6.0595C14.2699 6.08244 14.2466 6.11748 14.2384 6.15724C14.2302 6.197 14.2378 6.23837 14.2595 6.27267C14.3722 6.52101 14.3949 6.80091 14.3236 7.06416C14.2522 7.32741 14.0913 7.55754 13.8686 7.71494C13.6458 7.87235 13.3752 7.94717 13.1032 7.92652C12.8312 7.90588 12.575 7.79107 12.3786 7.60185C11.8519 7.08774 11.3378 6.56735 10.8237 6.04697L10.6732 5.90276C10.6408 5.96049 10.603 6.01507 10.5604 6.06578L9.25629 7.36985C9.23057 7.40462 9.19795 7.4337 9.16045 7.45525C9.12296 7.47679 9.08141 7.49033 9.03842 7.49504C8.99543 7.49976 8.95194 7.49552 8.91067 7.48261C8.8694 7.4697 8.83126 7.44839 8.79862 7.42002C8.66696 7.28836 8.67948 7.11909 8.84249 6.95608L10.1717 5.6269C10.2105 5.59538 10.2525 5.56808 10.2971 5.54541L9.46946 4.71781L4.71081 9.47646L5.5196 10.2852L5.89578 9.90279L6.92399 8.87458C6.96811 8.82329 7.02887 8.78914 7.09562 8.77811C7.16237 8.76708 7.23086 8.77987 7.28913 8.81423C7.34741 8.8486 7.39175 8.90236 7.4144 8.96611C7.43704 9.02987 7.43656 9.09955 7.41302 9.16298C7.38211 9.23019 7.33723 9.29003 7.28136 9.33853L5.91459 10.7116L6.02116 10.8244C6.54154 11.3448 7.06193 11.8589 7.57604 12.3856C7.69563 12.505 7.78767 12.6492 7.84572 12.8079C7.90377 12.9667 7.92641 13.1362 7.91208 13.3046C7.89774 13.473 7.84678 13.6363 7.76274 13.7829C7.6787 13.9296 7.56363 14.0561 7.42557 14.1536C7.26045 14.278 7.06416 14.3544 6.85838 14.3743C6.6526 14.3942 6.44532 14.3569 6.25941 14.2664C6.16537 14.2288 6.10894 14.2288 6.04625 14.3103C6.00299 14.363 5.95468 14.4113 5.90204 14.4545C5.68775 14.7306 5.38407 14.9234 5.0431 15H4.692C4.34274 14.9009 4.03211 14.6975 3.80173 14.4169C3.54467 14.1473 3.28134 13.8903 3.01175 13.6144L2.05877 14.5674C1.82053 14.8056 1.70766 14.8056 1.46315 14.5674L0.403581 13.4765C0.202952 13.2696 0.202952 13.1379 0.403581 12.9373L1.37537 11.9655L1.28132 11.8589C0.986652 11.5705 0.698259 11.2758 0.409856 10.9874C0.281272 10.8768 0.178073 10.7397 0.107338 10.5855C0.0366039 10.4313 0 10.2636 0 10.094C0 9.92437 0.0366039 9.75674 0.107338 9.60255C0.178073 9.44836 0.281272 9.31125 0.409856 9.20059C0.49917 9.10392 0.593324 9.01185 0.691978 8.92473C0.726633 8.89959 0.750012 8.86182 0.757051 8.81959C0.764089 8.77736 0.754222 8.73406 0.729594 8.69903C0.627158 8.44659 0.615832 8.16634 0.697565 7.90645C0.779297 7.64656 0.948999 7.42327 1.17749 7.2749C1.40598 7.12653 1.679 7.06236 1.94965 7.09342C2.22031 7.12448 2.47171 7.24883 2.66065 7.44511L4.17163 8.95609C4.20139 8.98733 4.22865 9.02086 4.25314 9.05639L9.0494 4.26012L8.96162 4.16608C8.44751 3.65197 7.92714 3.14413 7.4193 2.61749C7.27329 2.47217 7.16838 2.29076 7.11525 2.09174C7.06211 1.89271 7.06265 1.68318 7.1168 1.48443C7.17094 1.28567 7.27676 1.1048 7.4235 0.960228C7.57025 0.815657 7.75268 0.712544 7.95222 0.661365C8.21759 0.584738 8.50213 0.611622 8.74845 0.736597C8.76201 0.746157 8.77732 0.752934 8.79351 0.756534C8.8097 0.760134 8.82645 0.760483 8.84278 0.757567C8.85911 0.754652 8.87468 0.748525 8.88863 0.739544C8.90257 0.730563 8.9146 0.718916 8.924 0.705257L9.2751 0.354159C9.38381 0.242108 9.5139 0.153019 9.65767 0.0921847C9.80145 0.0313504 9.95597 0 10.1121 0C10.2682 0 10.4227 0.0313504 10.5665 0.0921847C10.7103 0.153019 10.8404 0.242108 10.9491 0.354159C11.2563 0.648831 11.5761 0.98111 11.8582 1.26324C11.8981 1.30788 11.9338 1.35616 11.9648 1.40745L12.9428 0.429391C13.1685 0.197415 13.2877 0.203685 13.5197 0.429391L14.6294 1.53911C14.672 1.56778 14.707 1.60653 14.7312 1.6519C14.7554 1.69727 14.768 1.74789 14.768 1.7993C14.768 1.85072 14.7554 1.90133 14.7312 1.94671C14.707 1.99208 14.672 2.03082 14.6294 2.0595L13.645 3.03756L13.7328 3.13786C13.9836 3.38864 14.2281 3.6457 14.4914 3.89022C14.7495 4.1103 14.9352 4.40309 15.0244 4.73035L14.993 5.05638ZM13.2187 7.34479C13.3286 7.34009 13.435 7.30471 13.5259 7.24266C13.6168 7.18061 13.6884 7.09437 13.7328 6.99369C13.7798 6.8749 13.7893 6.74458 13.7602 6.62021C13.7311 6.49584 13.6646 6.38334 13.5698 6.29775L8.66695 1.3949L8.57918 1.31341C8.45755 1.22652 8.30743 1.18908 8.15924 1.20869C8.01105 1.22831 7.87586 1.30351 7.78103 1.41907C7.6862 1.53462 7.63881 1.6819 7.64848 1.83107C7.65814 1.98024 7.72414 2.12015 7.83309 2.2225L9.71398 4.10338L12.7297 7.11907C12.7912 7.18844 12.8664 7.24431 12.9505 7.28316C13.0347 7.32201 13.126 7.343 13.2187 7.34479ZM1.80797 7.63946C1.67047 7.63273 1.53458 7.67145 1.42127 7.74963C1.30795 7.82782 1.22352 7.94113 1.18101 8.07207C1.15304 8.1849 1.157 8.30329 1.19243 8.414C1.22786 8.52472 1.29336 8.6234 1.38164 8.69903L6.25313 13.5705C6.28647 13.6126 6.32676 13.6486 6.37226 13.6771C6.50747 13.7361 6.65157 13.7721 6.79861 13.7837C6.91069 13.7834 7.01976 13.7474 7.10997 13.6809C7.20017 13.6144 7.26681 13.5208 7.30017 13.4138C7.344 13.3067 7.35306 13.1886 7.32606 13.076C7.29906 12.9635 7.23736 12.8624 7.14971 12.7868L5.33777 10.9686L2.20296 7.83382C2.09912 7.72342 1.9588 7.65438 1.80797 7.63946ZM9.28138 1.13159L13.8519 5.70215C13.946 5.60184 14.0463 5.48898 14.1529 5.38239C14.2296 5.32388 14.2917 5.24847 14.3345 5.16202C14.3773 5.07556 14.3995 4.9804 14.3995 4.88395C14.3995 4.78749 14.3773 4.69235 14.3345 4.6059C14.2917 4.51945 14.2296 4.44404 14.1529 4.38553L11.2688 1.50149C11.0118 1.24444 10.761 0.987382 10.4977 0.736597C10.3983 0.62899 10.261 0.564245 10.1147 0.556054C9.96846 0.547864 9.82476 0.596867 9.71398 0.692705C9.55724 0.836907 9.41931 0.993655 9.28138 1.13159ZM1.13086 9.2821L0.804846 9.61439C0.73494 9.67324 0.678735 9.74666 0.640184 9.82951C0.601632 9.91236 0.581655 10.0026 0.581655 10.094C0.581655 10.1854 0.601632 10.2757 0.640184 10.3585C0.678735 10.4414 0.73494 10.5148 0.804846 10.5736L4.39733 14.1724L4.50392 14.2727C4.60454 14.3609 4.73376 14.4095 4.86755 14.4095C5.00134 14.4095 5.13058 14.3609 5.2312 14.2727C5.38758 14.1259 5.53616 13.9711 5.67634 13.8088L1.13086 9.2821ZM13.2124 0.981122L12.4162 1.77108L13.1999 2.55479L13.9961 1.76483L13.2124 0.981122ZM0.986651 13.1943L1.78291 13.9969L2.57287 13.2069L1.77663 12.4106L0.986651 13.1943Z" fill="#030303"/>
</svg>
