<svg width="15" height="15" viewBox="0 0 15 15" fill="none" xmlns="http://www.w3.org/2000/svg">
<path d="M7.14715 14.9875C6.84054 14.95 6.52768 14.925 6.22107 14.875C4.96337 14.6562 3.8308 14.1436 2.82964 13.356C2.67321 13.231 2.63567 13.0622 2.73578 12.9185C2.8359 12.7747 3.0111 12.7622 3.18631 12.8747C3.6118 13.1435 4.02478 13.4435 4.4753 13.6748C5.33254 14.1186 6.25236 14.3374 7.21598 14.3749C8.93672 14.4437 10.476 13.9374 11.8151 12.856C13.1541 11.7745 13.9926 10.3806 14.2804 8.68662C14.7998 5.62369 13.3168 2.71078 10.5323 1.31683C9.28087 0.691747 7.95433 0.479217 6.56522 0.672994C3.6556 1.0793 1.3279 3.23585 0.745978 6.10501C0.389314 7.8615 0.683405 9.52423 1.60948 11.0682C1.75965 11.312 1.94111 11.537 2.09129 11.7808C2.1476 11.8683 2.18515 11.9746 2.17889 12.0746C2.17889 12.1934 2.08503 12.2746 1.95988 12.2996C1.82848 12.3309 1.72837 12.2809 1.64702 12.1871C1.52188 12.0246 1.39673 11.8621 1.2841 11.6933C0.689663 10.7994 0.289198 9.83053 0.107738 8.77413C-0.536759 4.9611 1.76591 1.29183 5.52652 0.291691C8.32977 -0.458414 10.8076 0.247935 12.8725 2.29822C14.099 3.51714 14.7685 5.02985 14.9625 6.74885C14.975 6.85511 14.9875 6.96138 15 7.06764C15 7.36143 15 7.65522 15 7.94276C14.9875 8.04903 14.975 8.15529 14.9625 8.26156C14.781 9.87428 14.1678 11.2932 13.079 12.4997C11.9277 13.7811 10.4948 14.5749 8.79281 14.8812C8.51123 14.9312 8.2234 14.9625 7.94182 15C7.67276 14.9875 7.40995 14.9875 7.14715 14.9875Z" fill="#030303" fill-opacity="0.5"/>
<path d="M7.49122 12.9934C5.13849 12.8809 3.39898 11.8058 2.44787 9.64298C1.70952 7.97399 1.84718 6.29251 2.77951 4.71104C3.48032 3.50462 4.51277 2.68575 5.83305 2.2732C7.44116 1.77313 8.98045 1.97315 10.4259 2.84828C10.5948 2.94829 10.6386 3.12331 10.551 3.27333C10.4572 3.42336 10.282 3.46086 10.1005 3.34835C9.6312 3.06081 9.13062 2.84202 8.5925 2.72951C6.96561 2.39196 5.49516 2.74201 4.24996 3.85467C3.00477 4.96107 2.44787 6.38002 2.64185 8.0365C2.87962 9.99303 3.94962 11.387 5.80176 12.0683C7.71648 12.7747 9.48103 12.3746 10.9452 10.9557C12.1091 9.82425 12.5533 8.4053 12.3406 6.79258C12.2217 5.94871 11.8963 5.19235 11.377 4.51726C11.3394 4.46725 11.2956 4.41725 11.2643 4.36724C11.1642 4.21722 11.1893 4.04844 11.3144 3.94843C11.4458 3.84842 11.6335 3.86717 11.7399 4.01719C11.9339 4.28598 12.1341 4.55476 12.2968 4.83605C12.7536 5.64242 12.9851 6.51754 12.9913 7.44892C12.9976 8.41781 12.7723 9.33043 12.2905 10.1743C11.6836 11.2432 10.8138 12.0308 9.69377 12.5309C9.11185 12.7872 8.49864 12.9434 7.8604 12.9747C7.73525 12.9747 7.61637 12.9809 7.49122 12.9934Z" fill="#030303" fill-opacity="0.5"/>
<path d="M7.19723 9.52441C7.19723 8.93682 7.19723 8.36174 7.19723 7.80542C6.98448 7.6929 6.77173 7.61164 6.59027 7.47412C6.12098 7.11782 5.927 6.624 6.02712 6.04267C6.12724 5.46134 6.47138 5.06753 7.03454 4.88001C7.16594 4.83625 7.216 4.78624 7.20348 4.64872C7.19097 4.52996 7.19723 4.40494 7.20348 4.28617C7.216 4.1174 7.33489 4.00488 7.49757 4.00488C7.66026 4.00488 7.77915 4.1174 7.79166 4.29242C7.79792 4.37994 7.79167 4.46745 7.79792 4.55496C7.79792 4.64247 7.79792 4.72998 7.79792 4.79249C8.01067 4.90501 8.21716 4.98002 8.39236 5.10504C8.77405 5.37382 8.96803 5.75513 8.99306 6.22394C9.00557 6.44272 8.90546 6.57399 8.724 6.59275C8.54254 6.60525 8.41739 6.49273 8.39862 6.2802C8.36733 5.93015 8.2109 5.66137 7.89178 5.49884C7.87301 5.49259 7.85424 5.48634 7.83547 5.48009C7.82921 5.48009 7.81669 5.48009 7.79792 5.48634C7.79792 5.83014 7.79792 6.17394 7.79792 6.51774C7.79792 6.71151 7.80418 6.90529 7.79792 7.10532C7.79167 7.19908 7.82295 7.24284 7.91055 7.26784C8.73651 7.52413 9.16826 8.30549 8.93049 9.1306C8.79283 9.61817 8.46119 9.94321 7.98564 10.112C7.94184 10.1307 7.89178 10.1432 7.84798 10.1557C7.83547 10.162 7.82295 10.1682 7.79792 10.1807C7.79792 10.337 7.79792 10.4995 7.79792 10.6558C7.79167 10.8621 7.68529 10.9871 7.50383 10.9871C7.32237 10.9871 7.20348 10.8621 7.20348 10.6496C7.19723 10.4995 7.25354 10.3183 7.18471 10.2058C7.12214 10.0995 6.92816 10.0807 6.79676 10.012C6.28992 9.73069 6.02712 9.29937 6.00209 8.71804C5.99583 8.53677 6.11472 8.41175 6.27741 8.39925C6.44636 8.38675 6.5715 8.49301 6.59027 8.68054C6.6153 9.01183 6.74045 9.28062 7.03454 9.4619C7.06582 9.48065 7.09085 9.49315 7.12214 9.5119C7.14091 9.51816 7.15968 9.51816 7.19723 9.52441ZM7.19723 5.47384C6.84682 5.5676 6.57776 5.95516 6.60279 6.33021C6.62156 6.71151 6.89688 7.07406 7.19723 7.11782C7.19723 6.57399 7.19723 6.03017 7.19723 5.47384ZM7.79792 9.52441C8.14833 9.43689 8.41113 9.04934 8.39236 8.67429C8.37359 8.29298 8.10453 7.93043 7.79792 7.88043C7.79792 8.42425 7.79792 8.96808 7.79792 9.52441Z" fill="#030303" fill-opacity="0.5"/>
</svg>
