<svg width="31" height="30" viewBox="0 0 31 30" fill="none" xmlns="http://www.w3.org/2000/svg">
<path fill-rule="evenodd" clip-rule="evenodd" d="M21.5966 2.09302V4.65783L24.5933 7.09152V2.09302H21.5966ZM26.66 8.76993V1.78091C26.66 1.30943 26.4755 0.85673 26.1464 0.522542C25.8171 0.18827 25.37 0 24.9033 0H21.2866C20.8199 0 20.3728 0.188269 20.0436 0.522542C19.7144 0.85673 19.53 1.30943 19.53 1.78091V2.97942L18.8575 2.43328C17.9048 1.65952 16.7207 1.23771 15.5 1.23771C14.2794 1.23771 13.0955 1.65942 12.1428 2.433C12.1427 2.43309 12.1429 2.4329 12.1428 2.433L11.0115 3.35099C10.5662 3.71239 10.4944 4.371 10.8513 4.82205C11.2081 5.2731 11.8584 5.34578 12.3038 4.98438L13.4351 4.06639C14.0214 3.59018 14.7499 3.33073 15.5 3.33073C16.2501 3.33073 16.9782 3.5899 17.5646 4.06611L26.04 10.9493V16.4688C26.04 17.0468 26.5026 17.5153 27.0733 17.5153C27.644 17.5153 28.1066 17.0468 28.1066 16.4688V12.6277L29.3202 13.6132C29.7654 13.9748 30.4158 13.9024 30.7728 13.4515C31.1298 13.0006 31.0583 12.342 30.6131 11.9804L26.66 8.76993ZM15.5 8.70257C15.0075 8.70257 14.5347 8.90117 14.1857 9.25552C13.8366 9.60997 13.64 10.0912 13.64 10.5936C13.64 11.096 13.8366 11.5773 14.1857 11.9317C14.5347 12.2861 15.0075 12.4847 15.5 12.4847C15.9925 12.4847 16.4653 12.2861 16.8143 11.9317C17.1634 11.5773 17.36 11.096 17.36 10.5936C17.36 10.0913 17.1634 9.60997 16.8143 9.25552C16.4653 8.90117 15.9925 8.70257 15.5 8.70257ZM12.7225 7.77739C13.4587 7.02994 14.4577 6.60955 15.5 6.60955C16.5422 6.60955 17.5413 7.02994 18.2775 7.77739C19.0136 8.52475 19.4267 9.53783 19.4267 10.5936C19.4267 11.6494 19.0136 12.6625 18.2775 13.4099C17.5413 14.1573 16.5422 14.5777 15.5 14.5777C14.4577 14.5777 13.4587 14.1573 12.7225 13.4099C11.9864 12.6625 11.5733 11.6494 11.5733 10.5936C11.5733 9.53783 11.9864 8.52475 12.7225 7.77739ZM7.71731 7.36856C8.07433 7.81946 8.00284 8.4781 7.55761 8.83968L4.96002 10.9493V27.907H10.1267V21.6095C10.1267 21.0316 10.5893 20.563 11.16 20.563C11.7307 20.563 12.1933 21.0316 12.1933 21.6095V27.907H18.8067V21.6095C18.8067 20.5415 18.8045 19.8458 18.7363 19.3318C18.6721 18.8479 18.5669 18.6848 18.4727 18.5894L18.4702 18.5868C18.3776 18.4923 18.219 18.3861 17.7435 18.3211C17.2379 18.2519 16.5529 18.2497 15.5 18.2497C14.4479 18.2497 13.7632 18.2519 13.2576 18.3211C12.7822 18.3861 12.6226 18.4924 12.529 18.5877C12.1264 18.9973 11.4721 18.9989 11.0676 18.5912C10.6631 18.1835 10.6615 17.5209 11.0641 17.1112C11.6056 16.5603 12.2749 16.3434 12.9811 16.2469C13.6414 16.1566 14.4672 16.1566 15.431 16.1567H15.569C16.5335 16.1566 17.3597 16.1566 18.02 16.2469C18.7255 16.3433 19.3947 16.56 19.9355 17.1108C20.4769 17.6599 20.6897 18.338 20.7845 19.0531C20.8734 19.723 20.8734 20.561 20.8733 21.54L20.8733 27.907H26.04V22.3439C26.04 21.766 26.5026 21.2974 27.0733 21.2974C27.644 21.2974 28.1066 21.766 28.1066 22.3439V27.907H29.9666C30.5373 27.907 31 28.3755 31 28.9535C31 29.5315 30.5373 30 29.9666 30H1.03337C0.462675 30 3.72918e-05 29.5315 3.72918e-05 28.9535C3.72918e-05 28.3755 0.462675 27.907 1.03337 27.907H2.89336V12.6277L1.67982 13.6132C1.2346 13.9748 0.584249 13.9024 0.227222 13.4515C-0.129804 13.0006 -0.0583071 12.342 0.386915 11.9804L6.26471 7.20683C6.70993 6.84525 7.36028 6.91766 7.71731 7.36856Z" fill="#BCBCBC"/>
</svg>
