<svg width="30" height="30" viewBox="0 0 30 30" fill="none" xmlns="http://www.w3.org/2000/svg">
<path d="M13.5 21C13.3011 21 13.1103 21.079 12.9697 21.2197C12.829 21.3603 12.75 21.5511 12.75 21.75C12.75 21.9489 12.829 22.1397 12.9697 22.2803C13.1103 22.421 13.3011 22.5 13.5 22.5H16.5C16.6989 22.5 16.8897 22.421 17.0303 22.2803C17.171 22.1397 17.25 21.9489 17.25 21.75C17.25 21.5511 17.171 21.3603 17.0303 21.2197C16.8897 21.079 16.6989 21 16.5 21H13.5ZM10.5 3C9.70435 3 8.94129 3.31607 8.37868 3.87868C7.81607 4.44129 7.5 5.20435 7.5 6V24C7.5 24.7956 7.81607 25.5587 8.37868 26.1213C8.94129 26.6839 9.70435 27 10.5 27H19.5C20.2956 27 21.0587 26.6839 21.6213 26.1213C22.1839 25.5587 22.5 24.7956 22.5 24V6C22.5 5.20435 22.1839 4.44129 21.6213 3.87868C21.0587 3.31607 20.2956 3 19.5 3H10.5ZM9 6C9 5.60218 9.15804 5.22064 9.43934 4.93934C9.72064 4.65804 10.1022 4.5 10.5 4.5H19.5C19.8978 4.5 20.2794 4.65804 20.5607 4.93934C20.842 5.22064 21 5.60218 21 6V24C21 24.3978 20.842 24.7794 20.5607 25.0607C20.2794 25.342 19.8978 25.5 19.5 25.5H10.5C10.1022 25.5 9.72064 25.342 9.43934 25.0607C9.15804 24.7794 9 24.3978 9 24V6Z" fill="#BCBCBC"/>
</svg>
