<svg width="16" height="15" viewBox="0 0 16 15" fill="none" xmlns="http://www.w3.org/2000/svg">
<path d="M6.25378 8.74641C4.91682 8.74641 3.62037 8.74641 2.32393 8.74641C1.9458 8.74641 1.56767 8.75992 1.18954 8.74641C0.527812 8.7194 0.0281411 8.19272 0.00113184 7.5445C-0.0258774 6.90978 0.43328 6.3696 1.0815 6.27506C1.23005 6.24805 1.3786 6.24806 1.52716 6.24806C2.97215 6.24806 4.41715 6.24806 5.84864 6.24806C5.97018 6.24806 6.09172 6.24806 6.25378 6.24806C6.25378 6.11301 6.25378 5.99147 6.25378 5.88343C6.25378 4.38442 6.25378 2.8719 6.25378 1.37288C6.25378 0.697654 6.6049 0.211487 7.15859 0.0494314C7.99587 -0.180147 8.75213 0.414056 8.76564 1.33237C8.77914 2.83138 8.76564 4.31689 8.76564 5.81591C8.76564 5.95095 8.76564 6.086 8.76564 6.24806C8.92769 6.24806 9.04923 6.24806 9.17077 6.24806C10.6563 6.24806 12.1418 6.24806 13.6273 6.24806C14.3025 6.24806 14.7617 6.54516 14.9508 7.07184C15.2479 7.89562 14.6537 8.74641 13.7488 8.74641C12.2498 8.75992 10.7643 8.74641 9.26531 8.74641C9.11676 8.74641 8.9682 8.74641 8.76564 8.74641C8.76564 8.86795 8.76564 8.97599 8.76564 9.08403C8.76564 10.61 8.76564 12.1361 8.76564 13.6621C8.76564 14.4184 8.26597 14.972 7.57723 14.9991C6.80747 15.0261 6.25378 14.4724 6.25378 13.6351C6.25378 12.1361 6.25378 10.6236 6.25378 9.12454C6.25378 9.0165 6.25378 8.89496 6.25378 8.74641Z" fill="#030303"/>
</svg>
