<svg width="45" height="45" viewBox="0 0 45 45" fill="none" xmlns="http://www.w3.org/2000/svg">
<path d="M0 23.8135C0 22.9309 0 22.0482 0 21.1843C0.0187804 21.0528 0.0563412 20.9401 0.0751216 20.8087C0.300486 17.6536 1.12682 14.6863 2.64804 11.9443C6.14119 5.59656 11.456 1.7278 18.5738 0.356828C19.4377 0.187804 20.3016 0.112682 21.1655 0C22.0482 0 22.9309 0 23.7948 0C23.9074 0.0187804 24.0201 0.0563412 24.1328 0.0751216C27.2691 0.281706 30.2552 1.08926 32.9972 2.62926C40.3966 6.76094 44.4156 13.0899 44.9415 21.5599C45.1856 25.6165 44.3217 29.504 42.331 33.0535C38.1993 40.4342 31.8703 44.4344 23.4379 44.9603C19.3814 45.2044 15.5126 44.3217 11.9443 42.3498C5.59656 38.8566 1.7278 33.5418 0.356828 26.4052C0.187804 25.5601 0.112682 24.6774 0 23.8135Z" fill="white"/>
<path d="M16.2 12.6001C21.8341 15.8491 27.4307 19.0793 33.1212 22.3659C27.4307 25.6337 21.8341 28.8639 16.2 32.1317V12.6001Z" fill="#030303"/>
</svg>
