<svg width="41" height="40" viewBox="0 0 41 40" fill="none" xmlns="http://www.w3.org/2000/svg">
<path d="M40.0988 15.073C39.8822 15.9893 39.2158 16.6057 38.6328 17.2721C37.0334 19.0713 35.4341 20.8706 33.8348 22.6532C32.402 24.2692 30.4195 24.3858 28.8035 22.9531C27.3041 21.6203 25.8048 20.2875 24.3221 18.9547C24.2221 18.8714 24.1221 18.7881 24.0055 18.6882C23.9056 18.8048 23.8056 18.8881 23.7056 19.0047C17.8581 25.5686 12.0105 32.1326 6.17961 38.6965C5.62983 39.3129 5.04674 39.7627 4.26374 39.9793C3.98052 39.9793 3.6973 39.9793 3.39743 39.9793C3.34745 39.946 3.28081 39.9127 3.23083 39.9127C1.24832 39.3962 0.515296 37.0805 1.88139 35.5145C3.46407 33.6819 5.09672 31.8993 6.69606 30.0834C11.8939 24.2525 17.0917 18.4383 22.2562 12.574C23.1725 11.5411 23.9222 11.4245 24.9718 12.3908C26.8876 14.1734 28.8702 15.8727 30.8193 17.6219C30.8693 17.6719 30.936 17.7219 31.0193 17.7885C32.0022 16.689 32.9685 15.6061 33.9347 14.5232C34.4012 14.0068 34.851 13.4903 35.3175 12.9739C36.0672 12.1242 36.9834 11.7744 38.083 12.0243C39.1325 12.2742 39.7989 12.9572 40.0488 14.0234C40.0488 14.0568 40.0822 14.0901 40.1155 14.1234C40.0988 14.4399 40.0988 14.7565 40.0988 15.073ZM23.6723 13.0405C23.5557 13.1571 23.4557 13.2737 23.3724 13.3737C23.3705 13.3759 23.3686 13.3781 23.3666 13.3803C18.354 19.0091 13.3413 24.6379 8.31205 30.2833C6.54612 32.2825 4.76353 34.265 2.9976 36.2642C2.61442 36.6807 2.44783 37.1471 2.59776 37.6969C2.73104 38.1967 3.06424 38.4966 3.56403 38.6132C4.13046 38.7465 4.56361 38.5132 4.94678 38.0968C10.9276 31.3829 16.9085 24.669 22.8727 17.9551C23.539 17.2054 24.2721 17.1555 25.0051 17.8052C26.5878 19.2046 28.1538 20.604 29.7365 22.0034C30.736 22.9031 31.9022 22.8364 32.7852 21.8369C33.7681 20.7373 34.751 19.6378 35.7173 18.5382C36.6169 17.522 37.5166 16.5224 38.4162 15.5062C38.766 15.1063 38.8827 14.6398 38.6827 14.1234C38.4995 13.6236 38.1163 13.357 37.5832 13.3071C37.0667 13.2571 36.6502 13.4737 36.3171 13.8568C34.9176 15.4395 33.5016 17.0222 32.0855 18.6049C31.4691 19.2879 30.7194 19.3212 30.0363 18.7048C29.0867 17.8552 28.1371 17.0055 27.1875 16.1559C26.0047 15.123 24.8385 14.0901 23.6723 13.0405Z" fill="#030303"/>
<path d="M23.6723 13.0405C23.5557 13.1571 23.4557 13.2737 23.3724 13.3737L23.3666 13.3803C18.354 19.0091 13.3413 24.6379 8.31205 30.2833C6.54612 32.2825 4.76353 34.265 2.9976 36.2642C2.61442 36.6807 2.44783 37.1471 2.59776 37.6969C2.73104 38.1967 3.06424 38.4966 3.56403 38.6132C4.13046 38.7465 4.56361 38.5132 4.94678 38.0968C10.9276 31.3829 16.9085 24.669 22.8727 17.9551C23.539 17.2054 24.2721 17.1555 25.0051 17.8052C26.5878 19.2046 28.1538 20.604 29.7365 22.0034C30.736 22.9031 31.9022 22.8364 32.7852 21.8369C33.7681 20.7373 34.751 19.6378 35.7173 18.5382C36.6169 17.522 37.5166 16.5224 38.4162 15.5062C38.766 15.1063 38.8827 14.6398 38.6827 14.1234C38.4995 13.6236 38.1163 13.357 37.5832 13.3071C37.0667 13.2571 36.6502 13.4737 36.3171 13.8568C34.9176 15.4395 33.5016 17.0222 32.0855 18.6049C31.4691 19.2879 30.7194 19.3212 30.0363 18.7048L27.1875 16.1559C26.0047 15.123 24.8385 14.0901 23.6723 13.0405Z" fill="#030303"/>
<path d="M22.1396 39.9809C22.0896 39.9476 22.023 39.9143 21.973 39.8976C19.9905 39.3478 19.3074 37.0321 20.6735 35.4828C22.023 33.9501 23.3891 32.434 24.7385 30.9013C24.8385 30.8014 24.9218 30.6848 25.0384 30.5515C24.1554 29.7518 23.2725 28.9688 22.3895 28.1858C21.8064 27.6693 21.2233 27.1529 20.6402 26.6364C19.9738 26.0367 19.9405 25.287 20.5403 24.604C21.09 23.9875 21.6231 23.3711 22.1729 22.7714C22.756 22.1217 23.5224 22.0717 24.1721 22.6381C26.1546 24.404 28.1538 26.1533 30.1196 27.9359C31.4691 29.1521 31.619 31.1512 30.4361 32.5007C28.5036 34.7331 26.5378 36.9322 24.5386 39.1146C24.1721 39.5144 23.589 39.681 23.0892 39.9642C22.7727 39.9809 22.4561 39.9809 22.1396 39.9809ZM21.4399 25.6035C21.5398 25.6868 21.6065 25.7368 21.6731 25.8035C23.0559 27.0363 24.4553 28.2858 25.8381 29.5019C26.2379 29.8518 26.4545 30.3016 26.3212 30.818C26.2379 31.1179 26.0546 31.4178 25.8547 31.651C24.472 33.217 23.0725 34.7831 21.6898 36.3491C21.14 36.9821 21.1567 37.8318 21.7398 38.3482C22.3062 38.848 23.1059 38.7647 23.6723 38.1317C25.5382 36.0325 27.4207 33.9501 29.27 31.8343C30.1363 30.868 30.053 29.7018 29.0867 28.8355C27.4374 27.3695 25.7881 25.8868 24.1388 24.4207C23.8389 24.1541 23.539 23.8876 23.2225 23.6044C22.6227 24.2708 22.0563 24.9038 21.4399 25.6035Z" fill="#030303"/>
<path d="M21.4399 25.6035C21.5398 25.6868 21.6065 25.7368 21.6731 25.8035C23.0559 27.0363 24.4553 28.2858 25.8381 29.5019C26.2379 29.8518 26.4545 30.3016 26.3212 30.818C26.2379 31.1179 26.0546 31.4178 25.8547 31.651C24.472 33.217 23.0725 34.7831 21.6898 36.3491C21.14 36.9821 21.1567 37.8318 21.7398 38.3482C22.3062 38.848 23.1059 38.7647 23.6723 38.1317C25.5382 36.0325 27.4207 33.9501 29.27 31.8343C30.1363 30.868 30.053 29.7018 29.0867 28.8355C27.4374 27.3695 25.7881 25.8868 24.1388 24.4207C23.8389 24.1541 23.539 23.8876 23.2225 23.6044C22.6227 24.2708 22.0563 24.9038 21.4399 25.6035Z" fill="#030303"/>
<path d="M13.5433 9.38062C12.0939 11.0133 10.6778 12.5959 9.27843 14.1786C8.86193 14.6451 8.36214 14.995 7.74573 15.1449C6.59621 15.4281 5.46335 14.9616 4.84694 13.9787C4.24719 12.9958 4.33048 11.7463 5.11349 10.8467C6.01312 9.79711 6.94606 8.78087 7.86235 7.74797C8.82861 6.66508 9.79488 5.5822 10.7611 4.48266C12.1772 2.89998 14.1431 2.78336 15.7424 4.18278C17.6416 5.86542 19.5408 7.54805 21.4234 9.24734C22.1731 9.91373 22.2064 10.6634 21.54 11.4131C21.0235 11.9962 20.5071 12.5793 19.974 13.1624C19.3742 13.8288 18.6245 13.8787 17.9415 13.279C16.642 12.1461 15.3592 10.9966 14.0598 9.84709C13.9098 9.69715 13.7432 9.56388 13.5433 9.38062ZM20.707 10.3469C20.6237 10.2969 20.5571 10.2636 20.5071 10.2303C18.6245 8.54763 16.7253 6.84834 14.8261 5.16571C13.8099 4.26608 12.6604 4.34938 11.7441 5.38228C10.6778 6.58178 9.61162 7.76463 8.56206 8.96413C7.74573 9.86375 6.94606 10.7634 6.1464 11.6797C5.43003 12.5126 5.84652 13.6955 6.89608 13.8621C7.44585 13.962 7.87901 13.7288 8.24552 13.329C9.64494 11.7463 11.0444 10.1803 12.4438 8.61427C13.0768 7.8979 13.8099 7.84792 14.5262 8.48099C15.1593 9.03077 15.7924 9.5972 16.4255 10.1636C17.2418 10.8967 18.0748 11.6297 18.9078 12.3794C19.5075 11.6963 20.0739 11.0633 20.707 10.3469Z" fill="#030303"/>
<path d="M20.707 10.3469C20.6237 10.2969 20.5571 10.2636 20.5071 10.2303C18.6245 8.54763 16.7253 6.84834 14.8261 5.16571C13.8099 4.26608 12.6604 4.34938 11.7441 5.38228C10.6778 6.58178 9.61162 7.76463 8.56206 8.96413C7.74573 9.86375 6.94606 10.7634 6.1464 11.6797C5.43003 12.5126 5.84652 13.6955 6.89608 13.8621C7.44585 13.962 7.87901 13.7288 8.24552 13.329C9.64494 11.7463 11.0444 10.1803 12.4438 8.61427C13.0768 7.8979 13.8099 7.84792 14.5262 8.48099C15.1593 9.03077 15.7924 9.5972 16.4255 10.1636C17.2418 10.8967 18.0748 11.6297 18.9078 12.3794C19.5075 11.6963 20.0739 11.0633 20.707 10.3469Z" fill="#030303"/>
<path d="M29.4199 11.995C26.1212 11.995 23.4557 9.27947 23.4557 5.94752C23.4723 2.66556 26.1545 0 29.4365 0C32.7685 0 35.434 2.68222 35.434 5.9975C35.4174 9.32945 32.7351 11.995 29.4199 11.995ZM29.4532 10.6622C32.0354 10.6622 34.1012 8.57976 34.1012 5.9975C34.1012 3.4319 32.0188 1.34944 29.4532 1.34944C26.8709 1.34944 24.7885 3.4319 24.7885 6.01416C24.7885 8.57976 26.8543 10.6622 29.4532 10.6622Z" fill="#030303"/>
<path d="M29.4532 10.6622C32.0354 10.6622 34.1012 8.57976 34.1012 5.9975C34.1012 3.4319 32.0188 1.34944 29.4532 1.34944C26.8709 1.34944 24.7885 3.4319 24.7885 6.01416C24.7885 8.57976 26.8543 10.6622 29.4532 10.6622Z" fill="#030303"/>
<path d="M3.48061 17.3262C4.33025 17.3262 5.16324 17.3262 6.01289 17.3262C6.49602 17.3262 6.76258 17.5594 6.77924 17.9592C6.7959 18.3924 6.51268 18.659 6.01289 18.659C4.31359 18.659 2.6143 18.659 0.898349 18.659C0.415216 18.659 0.115341 18.3757 0.115341 17.9759C0.132001 17.5927 0.415216 17.3428 0.881689 17.3262C1.76465 17.3262 2.6143 17.3262 3.48061 17.3262Z" fill="#030303"/>
<path d="M6.14622 21.323C5.29657 21.323 4.46358 21.323 3.61394 21.323C3.11414 21.323 2.81427 21.0731 2.79761 20.6733C2.78095 20.2568 3.09748 19.9902 3.61394 19.9902C5.29657 19.9902 6.96254 19.9902 8.64518 19.9902C9.14497 19.9902 9.44484 20.2401 9.44484 20.64C9.44484 21.0565 9.14497 21.323 8.62852 21.323C7.79553 21.323 6.96254 21.323 6.14622 21.323Z" fill="#030303"/>
</svg>
