<svg width="30" height="33" viewBox="0 0 30 33" fill="none" xmlns="http://www.w3.org/2000/svg">
<path d="M21.4837 25.4699C20.6534 25.1886 19.8231 24.9208 19.033 24.6797C18.725 24.586 15.2163 23.5707 15.1225 23.8654C15.0711 24.027 16.0595 24.5264 17.0154 24.962C17.802 25.3205 18.5665 25.6358 18.7116 25.6841C18.8857 25.7511 19.0732 25.8047 19.2473 25.8582C19.3276 25.885 19.408 25.9118 19.4883 25.9386C19.8365 26.0591 20.1981 26.1662 20.5597 26.2868L20.9481 26.4207C20.8275 26.7421 20.707 27.0501 20.5865 27.3715C20.2919 28.1483 20.0106 28.8982 19.7026 29.6348C19.3008 30.5722 18.2295 31.1749 17.2117 31.0142C16.0734 30.8401 15.2297 30.0098 15.1225 28.9384C15.0824 28.5099 15.1627 28.0411 15.2431 27.5992C15.377 26.9162 15.5377 26.2332 15.685 25.5636C15.7386 25.3092 15.8055 25.0547 15.8591 24.7869C15.926 24.8003 15.9796 24.827 16.0332 24.8404C16.2207 24.9074 16.4082 24.961 16.5957 25.0011C16.7488 25.0411 16.8953 25.0248 17.0154 24.962C17.137 24.8986 17.2315 24.7877 17.2786 24.6396C17.359 24.3583 17.2117 24.0905 16.9305 23.9833C16.7296 23.903 16.5153 23.836 16.301 23.7825L16.1135 23.7289C15.7787 23.6218 15.4841 23.6352 15.2698 23.7557C15.0556 23.8762 14.9083 24.1039 14.8279 24.4387C14.7609 24.7199 14.694 25.0145 14.627 25.2958C14.4261 26.1395 14.2253 27.0233 14.0512 27.8938C13.7967 29.2464 14.2119 30.3981 15.2966 31.3088C15.8055 31.7373 16.4216 31.9248 17.0108 32.0855H17.975H17.9884C18.0152 32.0721 18.0286 32.0721 18.0554 32.0588C18.0956 32.0454 18.1357 32.032 18.1759 32.0186C19.3678 31.7507 20.1847 31.0945 20.6401 30.0633C21.0418 29.1259 21.4034 28.1617 21.7516 27.2242C21.8319 27.0099 21.9123 26.7957 21.9793 26.5948C22.0596 26.3671 22.0596 26.1127 21.9659 25.9118C21.8989 25.7109 21.7114 25.5502 21.4837 25.4699Z" fill="#030303"/>
<path d="M18.7116 25.6841C18.5665 25.6358 17.802 25.3205 17.0154 24.962C16.8953 25.0248 16.7488 25.0411 16.5957 25.0011C16.4082 24.961 16.2207 24.9074 16.0332 24.8404C15.9796 24.827 15.926 24.8003 15.8591 24.7869C15.8055 25.0547 15.7386 25.3092 15.685 25.5636C15.5377 26.2332 15.377 26.9162 15.2431 27.5992C15.1627 28.0411 15.0824 28.5099 15.1225 28.9384C15.2297 30.0098 16.0734 30.8401 17.2117 31.0142C18.2295 31.1749 19.3008 30.5722 19.7026 29.6348C20.0106 28.8982 20.2919 28.1483 20.5865 27.3715C20.707 27.0501 20.8275 26.7421 20.9481 26.4207L20.5597 26.2868C20.1981 26.1662 19.8365 26.0591 19.4883 25.9386L19.2473 25.8582C19.0732 25.8047 18.8857 25.7511 18.7116 25.6841Z" fill="#030303"/>
<path d="M22.6871 11.7171C22.6067 11.1948 22.4728 10.6725 22.3121 10.1904C21.6157 8.15478 20.464 6.73522 18.7766 5.87813C17.1026 5.02104 15.2947 5.27549 13.9421 6.54773C13.3528 7.0968 12.8707 7.7798 12.5359 8.55654C12.0002 9.74843 11.7726 11.0742 11.8395 12.5072C11.8931 13.6187 12.0002 14.7437 12.094 15.7882C12.2413 17.2882 12.3752 18.8818 12.1609 20.4621C12.094 20.9978 12.2815 21.3192 12.8037 21.5067C14.6117 22.1495 16.433 22.7789 18.2409 23.4083C18.3882 23.4619 18.5222 23.4887 18.6427 23.4887C18.9775 23.4887 19.2453 23.3012 19.4328 22.9262L19.8212 22.1763C20.3569 21.1183 20.9193 20.0201 21.455 18.9354C22.4192 16.9935 22.8746 15.2793 22.888 13.5518C22.8746 13.3643 22.8612 13.1902 22.8344 13.0027C22.7942 12.5608 22.754 12.1322 22.6871 11.7171ZM13.1787 16.5382C13.1519 16.19 13.1385 15.8418 13.1118 15.507C13.085 15.1053 13.0582 14.6901 13.0314 14.2883C12.9645 13.3911 12.8975 12.4536 12.9109 11.543C12.9377 9.94931 13.46 8.61011 14.451 7.55213C15.5491 6.37363 16.9419 6.14597 18.3614 6.89592C19.7676 7.64588 20.7318 8.85116 21.2943 10.5921C21.9773 12.6947 21.9639 14.6901 21.2541 16.5114C20.7051 17.9042 20.0488 19.297 19.406 20.6362C19.1382 21.212 18.8436 21.8013 18.5757 22.3905L17.2231 21.9218C15.8571 21.4397 14.5447 20.9844 13.2189 20.5156C13.2323 20.3951 13.2457 20.2612 13.2591 20.1407C13.2993 19.8326 13.3394 19.5246 13.326 19.2032C13.2859 18.306 13.2323 17.4087 13.1787 16.5382Z" fill="#030303"/>
<path d="M13.1787 16.5382C13.1519 16.19 13.1385 15.8418 13.1118 15.507C13.085 15.1053 13.0582 14.6901 13.0314 14.2883C12.9645 13.3911 12.8975 12.4536 12.9109 11.543C12.9377 9.94931 13.46 8.61011 14.451 7.55213C15.5491 6.37363 16.9419 6.14597 18.3614 6.89592C19.7676 7.64588 20.7318 8.85116 21.2943 10.5921C21.9773 12.6947 21.9639 14.6901 21.2541 16.5114C20.7051 17.9042 20.0488 19.297 19.406 20.6362C19.1382 21.212 18.8436 21.8013 18.5757 22.3905L17.2231 21.9218C15.8571 21.4397 14.5447 20.9844 13.2189 20.5156C13.2323 20.3951 13.2457 20.2612 13.2591 20.1407C13.2993 19.8326 13.3394 19.5246 13.326 19.2032C13.2859 18.306 13.2323 17.4087 13.1787 16.5382Z" fill="#030303"/>
<path d="M9.38955 16.4022C10.019 16.2281 10.2332 15.9335 10.1931 15.3175C10.1127 13.9783 10.2734 12.6792 10.4475 11.5811C10.5011 11.2061 10.5681 10.8445 10.6216 10.4695C10.8091 9.31783 11.01 8.13933 11.1171 6.96083C11.2912 5.00559 10.8493 3.29141 9.8047 1.85846C8.49228 0.0505293 6.48348 -0.471761 4.44788 0.438899C3.12207 1.04154 2.0641 2.01916 1.28736 3.34497C0.470445 4.76453 0.0418998 6.38497 0.00172368 8.1795C-0.0116684 8.78215 0.0552919 9.38479 0.122252 9.97404L0.149036 10.2285C0.17582 10.416 0.242781 10.5633 0.363309 10.657C0.470445 10.7374 2.00325 15.0807 2.15056 15.0539C2.33864 15.0212 1.95521 13.3092 1.61894 11.8985C1.40451 10.999 1.20926 10.222 1.19362 10.0812V10.0276C1.19362 9.96065 1.18022 9.89369 1.16683 9.82673C0.939167 8.20629 1.08648 6.63942 1.63555 5.1529C2.34533 3.21105 3.51044 1.9522 5.21123 1.29599C6.47008 0.813876 7.59502 1.06832 8.55924 2.04594C9.40294 2.90304 9.87166 4.00118 10.0324 5.51449C10.1931 7.04118 9.91184 8.56787 9.63061 10.0544L9.61722 10.0946C9.32259 11.648 9.00118 13.4158 9.10832 15.1835C9.12171 15.3442 9.05475 15.371 8.89404 15.4112C7.68876 15.7326 6.49687 16.054 5.29158 16.3754C4.87643 16.4826 4.46128 16.6031 4.03273 16.7236L3.71132 16.8174V16.804C3.69793 16.7772 3.68454 16.7504 3.67115 16.7102C3.29617 15.813 2.92119 14.9023 2.54621 14.005L1.82304 12.2641C1.80965 12.2373 1.79626 12.2105 1.79626 12.1971C1.78287 12.1435 1.75608 12.09 1.7293 12.0498C1.69687 11.9908 1.65989 11.9403 1.61894 11.8985C1.4739 11.7504 1.27901 11.7118 1.0597 11.7954C0.805247 11.9025 0.69811 12.1168 0.738286 12.398C0.751678 12.4917 0.791855 12.5855 0.832031 12.6792L1.03291 13.1747C1.59538 14.5407 2.15784 15.9067 2.7337 17.2861C2.9078 17.7146 3.17564 17.9289 3.56401 17.9289C3.68454 17.9289 3.80507 17.9155 3.93899 17.8753C5.7603 17.3798 7.58162 16.8843 9.38955 16.4022Z" fill="#030303"/>
<path d="M1.19362 10.0812C1.20926 10.222 1.40451 10.999 1.61894 11.8985C1.65989 11.9403 1.69687 11.9908 1.7293 12.0498C1.75608 12.09 1.78287 12.1435 1.79626 12.1971C1.79626 12.2105 1.80965 12.2373 1.82304 12.2641L2.54621 14.005C2.92119 14.9023 3.29617 15.813 3.67115 16.7102C3.68454 16.7504 3.69793 16.7772 3.71132 16.804V16.8174L4.03273 16.7236C4.46128 16.6031 4.87643 16.4826 5.29158 16.3754C6.49687 16.054 7.68876 15.7326 8.89404 15.4112C9.05475 15.371 9.12171 15.3442 9.10832 15.1835C9.00118 13.4158 9.32259 11.648 9.61722 10.0946L9.63061 10.0544C9.91184 8.56787 10.1931 7.04118 10.0324 5.51449C9.87166 4.00118 9.40294 2.90304 8.55924 2.04594C7.59502 1.06832 6.47008 0.813876 5.21123 1.29599C3.51044 1.9522 2.34533 3.21105 1.63555 5.1529C1.08648 6.63942 0.939167 8.20629 1.16683 9.82673C1.18022 9.89369 1.19362 9.96065 1.19362 10.0276V10.0812Z" fill="#030303"/>
<path d="M10.0308 22.6864C9.9371 22.0838 9.85675 21.4811 9.763 20.8919C9.68265 20.3294 9.6023 19.7803 9.50855 19.2179C9.45499 18.8295 9.32107 18.5616 9.10679 18.4143C8.89252 18.267 8.5979 18.2402 8.22292 18.334L6.17393 18.8295C5.11596 19.0839 4.0446 19.3518 2.98663 19.6062C2.62504 19.7 2.38399 19.8473 2.25006 20.0749C2.12954 20.2892 2.11614 20.5705 2.22328 20.9186C2.57147 22.0971 2.87949 23.0882 3.18751 24.0926C3.65623 25.6059 4.98204 26.5567 6.53552 26.5567C6.72301 26.5567 6.92389 26.5433 7.12477 26.5165C8.79878 26.2621 10.0576 24.7488 10.0576 22.9944V22.9275C10.0576 22.8605 10.0442 22.7801 10.0308 22.6864ZM7.08459 25.4452C5.82574 25.7264 4.59367 25.0032 4.2187 23.7712C3.99103 23.048 3.77676 22.3114 3.54909 21.5882L3.33482 20.8651C3.32143 20.8115 3.30804 20.7713 3.29464 20.7044L3.28125 20.6642L8.45058 19.4053L8.50415 19.7937C8.55772 20.1285 8.61129 20.4499 8.65146 20.7847C8.74521 21.4409 8.83895 22.0838 8.9327 22.74C9.13358 23.9854 8.33005 25.1639 7.08459 25.4452Z" fill="#030303"/>
<path d="M7.08459 25.4452C5.82574 25.7264 4.59367 25.0032 4.2187 23.7712C3.99103 23.048 3.77676 22.3114 3.54909 21.5882L3.33482 20.8651C3.32143 20.8115 3.30804 20.7713 3.29464 20.7044L3.28125 20.6642L8.45058 19.4053L8.50415 19.7937C8.55772 20.1285 8.61129 20.4499 8.65146 20.7847C8.74521 21.4409 8.83895 22.0838 8.9327 22.74C9.13358 23.9854 8.33005 25.1639 7.08459 25.4452Z" fill="#030303"/>
<path d="M29.9196 3.41497C29.5313 2.54449 29.1161 1.66061 28.7144 0.803523L28.5804 0.52229C28.4197 0.174097 28.1251 0.013392 27.6564 0H27.643L27.6162 0.013392C27.5894 0.0267841 27.5626 0.0401762 27.5225 0.0669603C27.4287 0.120529 27.2814 0.187489 27.1609 0.267841C27.0671 0.334801 26.9868 0.428546 26.9064 0.52229C26.8797 0.562466 26.8395 0.602642 26.8127 0.629426L25.9422 1.56687C25.1789 2.39718 24.4155 3.22748 23.6522 4.07118C23.3575 4.39259 23.304 4.78096 23.4915 5.12915C23.6522 5.42378 23.9468 5.59788 24.2682 5.59788C24.3218 5.59788 24.3753 5.59788 24.4423 5.58448L24.9512 5.49074C26.3708 5.2229 27.8305 4.94167 29.2768 4.66043C29.5581 4.60686 29.7991 4.43277 29.9196 4.2051C30.0268 3.96405 30.0268 3.68281 29.9196 3.41497ZM28.8349 3.64264L24.7905 4.40598L27.71 1.21868L28.8349 3.64264Z" fill="#030303"/>
<path d="M28.8349 3.64264L24.7905 4.40598L27.71 1.21868L28.8349 3.64264Z" fill="#030303"/>
<path d="M16.1352 1.15283L16.1887 1.95636C16.2423 2.70631 16.2825 3.44287 16.336 4.19283C16.3628 4.59459 16.6039 4.90261 16.9922 5.00974C17.086 5.03653 17.1663 5.04992 17.2601 5.04992C17.5279 5.04992 17.7556 4.92939 17.9297 4.68833C18.5591 3.80446 19.2287 2.86701 19.8715 1.91618C20.0322 1.67512 20.0724 1.39389 19.9787 1.13944C19.8849 0.884991 19.6707 0.684111 19.4028 0.603758C18.6529 0.376093 17.9163 0.188605 17.2199 0.0279001C16.9387 -0.0390601 16.6574 0.0145081 16.4566 0.188605C16.2423 0.362701 16.1218 0.630542 16.1352 0.951952C16.1218 1.00552 16.1352 1.07248 16.1352 1.15283ZM17.2065 1.12605C17.7556 1.27336 18.2645 1.40728 18.8136 1.5412L17.3672 3.60358L17.2065 1.12605Z" fill="#030303"/>
<path d="M17.2065 1.12605C17.7556 1.27336 18.2645 1.40728 18.8136 1.5412L17.3672 3.60358L17.2065 1.12605Z" fill="#030303"/>
</svg>
