<svg width="18" height="29" viewBox="0 0 18 29" fill="none" xmlns="http://www.w3.org/2000/svg">
<path d="M17.6999 8.09997C17.5094 6.17741 16.9167 4.3164 15.9603 2.63778C15.5259 1.85149 14.9193 1.17356 14.1859 0.65468C13.7059 0.356112 13.1753 0.147809 12.6204 0.0400391H5.22147H5.10546C4.15808 0.221732 3.30682 0.735822 2.70494 1.48967C1.84772 2.50712 1.21178 3.69199 0.837766 4.96877C-0.0477167 7.87225 -0.234445 10.9439 0.29274 13.9333C0.556357 16.2954 1.57756 18.5086 3.2036 20.2421L3.4471 20.4856L3.02962 20.8567C2.92084 20.9403 2.81632 21.0293 2.71648 21.1234C1.02334 22.7668 0.0515696 25.015 0.0144232 27.3742C-0.00342257 27.5556 0.0461076 27.7373 0.153582 27.8845C0.223912 27.943 0.305444 27.9866 0.393181 28.0125C0.480918 28.0384 0.573018 28.0461 0.663854 28.0353H8.78177C9.25725 28.0353 9.41961 27.8729 9.44281 27.3974C9.4831 25.2887 10.359 23.2823 11.8782 21.8192L11.9593 21.7265C12.1122 21.5332 12.3035 21.3737 12.521 21.2579C12.7385 21.1422 12.9777 21.0727 13.2234 21.0539C14.1802 20.6846 14.9932 20.0179 15.5428 19.1519C16.6471 17.473 17.3422 15.5585 17.5723 13.5622C17.8635 11.7558 17.9065 9.918 17.6999 8.09997ZM3.40073 19.0128C2.66078 18.0968 2.11614 17.0391 1.80034 15.9048C1.28492 14.2254 1.02689 12.4776 1.03497 10.7209C1.03857 9.89497 1.09274 9.07003 1.19727 8.25073C1.36517 6.51098 1.88185 4.82289 2.71648 3.28721C3.12019 2.48373 3.74873 1.81489 4.52561 1.3621C4.83479 1.20023 5.17469 1.1054 5.52301 1.08378H9.67469L8.90932 2.24348C8.74696 2.48702 8.58456 2.74215 8.4338 2.99728C8.36808 3.12382 8.26789 3.22913 8.14472 3.30098C8.02156 3.37282 7.88051 3.40827 7.73801 3.40319H5.66217C5.29106 3.40319 5.0591 3.60034 5.0591 3.91346C5.06323 4.03659 5.10808 4.15487 5.18665 4.24976C5.25198 4.31001 5.32883 4.35647 5.41252 4.38636C5.49621 4.41625 5.58506 4.42895 5.67378 4.42371H7.7264L7.08858 6.74312H3.96898C3.79905 6.73438 3.63246 6.79268 3.50507 6.90547C3.4187 7.00492 3.37315 7.13336 3.37752 7.265C3.37848 7.33731 3.39483 7.40858 3.42544 7.47411C3.45604 7.53963 3.50021 7.59789 3.55504 7.64505C3.60987 7.6922 3.6741 7.72716 3.74346 7.74761C3.81283 7.76806 3.88573 7.77353 3.95737 7.76366H6.90306L6.71746 10.0831H5.55776C5.48351 10.0719 5.40773 10.0769 5.33558 10.0977C5.26343 10.1185 5.19663 10.1547 5.13972 10.2036C5.08281 10.2526 5.03717 10.3133 5.00587 10.3816C4.97457 10.4498 4.9583 10.5241 4.9583 10.5991C4.9583 10.6742 4.97457 10.7484 5.00587 10.8167C5.03717 10.8849 5.08281 10.9456 5.13972 10.9946C5.19663 11.0436 5.26343 11.0798 5.33558 11.1006C5.40773 11.1214 5.48351 11.1264 5.55776 11.1152H6.71746L6.91459 13.4346H3.99219C3.60949 13.4346 3.37752 13.6318 3.37752 13.9449C3.37441 14.0085 3.38413 14.072 3.40604 14.1318C3.42796 14.1915 3.4616 14.2463 3.50507 14.2928C3.63841 14.4123 3.81333 14.4747 3.99219 14.4667H7.08858L7.7264 16.7861H5.61573C5.51788 16.7816 5.42071 16.8041 5.3348 16.8511C5.24888 16.8982 5.17755 16.968 5.12868 17.0529C5.08602 17.129 5.06363 17.2149 5.06363 17.3022C5.06363 17.3895 5.08602 17.4754 5.12868 17.5516C5.17737 17.6314 5.24537 17.6977 5.32645 17.7443C5.40752 17.7909 5.49908 17.8164 5.59259 17.8183H7.77283C7.90518 17.8119 8.03662 17.8434 8.15166 17.9091C8.26671 17.9749 8.36058 18.0721 8.42226 18.1894L9.06009 19.2331L9.62833 20.1145H9.06009H7.90038C7.25095 20.1145 6.64787 20.1145 6.05643 20.1145C5.55748 20.1613 5.05468 20.0854 4.59179 19.8934C4.12891 19.7013 3.72002 19.399 3.40073 19.0128ZM8.38744 27.0611H0.976925L1.53363 24.7417H8.82813L8.38744 27.0611ZM10.185 22.2599L9.44281 23.4196C9.39239 23.4862 9.3276 23.5406 9.25332 23.5787C9.17905 23.6168 9.09712 23.6378 9.01365 23.64H2.05544L2.60054 22.9094C2.69091 22.7741 2.79174 22.6462 2.90207 22.5267C3.31956 22.0782 3.72544 21.6608 4.11974 21.2742C4.19385 21.2094 4.28045 21.1606 4.37421 21.1307C4.46796 21.1008 4.56685 21.0904 4.66477 21.1002L5.19826 21.1582H5.25623L5.99846 21.2278H10.8692L10.185 22.2599ZM15.798 16.6818C15.4385 17.7086 14.8563 18.6433 14.0932 19.4187C13.6268 19.9123 12.9858 20.2037 12.3072 20.2305C11.6651 20.2097 11.0552 19.9442 10.6025 19.4883C10.2862 19.2025 10.0057 18.8792 9.76749 18.5257C8.97503 17.3247 8.43453 15.9754 8.1787 14.5595C7.90427 13.2474 7.7644 11.9107 7.76123 10.5701C7.76124 8.82629 8.01513 7.09173 8.51499 5.42106C8.85804 4.08658 9.54134 2.86389 10.4981 1.87237C10.7281 1.62183 11.0053 1.41913 11.3137 1.27585C11.6222 1.13257 11.9558 1.05153 12.2956 1.03738C12.9324 1.07236 13.5327 1.3456 13.9772 1.80279C14.2912 2.09084 14.5714 2.41378 14.8122 2.76535C15.7186 4.14527 16.305 5.71038 16.5286 7.34617C16.6445 8.09997 16.7141 8.87697 16.7837 9.54959C16.7837 9.86271 16.7837 10.7093 16.7837 10.8717C16.8036 12.8516 16.4698 14.8192 15.798 16.6818Z" fill="#030303" fill-opacity="0.5"/>
<path d="M12.9451 6.94046C12.5983 6.77218 12.2004 6.74206 11.8322 6.85619C11.464 6.97032 11.1529 7.22018 10.9621 7.55512C10.3536 8.52125 10.0541 9.64998 10.1038 10.7907V11.0458C10.1191 11.3339 10.154 11.6206 10.2082 11.904C10.3021 12.6747 10.6207 13.4006 11.1244 13.9915C11.2697 14.1573 11.4477 14.2913 11.6473 14.3851C11.8469 14.4789 12.0637 14.5305 12.2841 14.5365C12.6975 14.5245 13.0894 14.3494 13.3742 14.0494C13.5461 13.8953 13.6877 13.7105 13.7917 13.5044C14.2529 12.6262 14.4938 11.6492 14.4938 10.6573C14.4938 9.66542 14.2529 8.68838 13.7917 7.81024C13.608 7.4385 13.3118 7.13414 12.9451 6.94046ZM13.1539 12.739C13.0905 12.8762 13.0042 13.0017 12.8988 13.1101C12.8244 13.2021 12.7309 13.2767 12.6248 13.3288C12.5186 13.3809 12.4023 13.4091 12.2841 13.4116C12.1606 13.4029 12.0406 13.3673 11.9324 13.3072C11.8242 13.2471 11.7305 13.1639 11.6579 13.0637C11.3332 12.6177 11.133 12.0934 11.078 11.5445C11.044 11.3371 11.0208 11.1281 11.0084 10.9182V10.7095C10.9857 9.87486 11.1773 9.04835 11.5651 8.30892C11.6405 8.16823 11.7502 8.04881 11.884 7.96166C12.0178 7.87451 12.1713 7.82243 12.3305 7.81024C12.4529 7.80775 12.5735 7.83992 12.6784 7.90302C12.9054 8.03435 13.0812 8.23876 13.1771 8.48287C13.4827 9.15069 13.6408 9.87651 13.6408 10.6109C13.6408 11.3454 13.4827 12.0711 13.1771 12.739H13.1539Z" fill="#030303" fill-opacity="0.5"/>
</svg>
