<svg width="24" height="24" viewBox="0 0 24 24" fill="none" xmlns="http://www.w3.org/2000/svg">
<path opacity="0.5" fill-rule="evenodd" clip-rule="evenodd" d="M17.2008 0C21.2676 0 24 2.8536 24 7.0992V16.9008C24 21.1464 21.2676 24 17.1996 24H6.798C2.7312 24 0 21.1464 0 16.9008V7.0992C0 2.8536 2.7312 0 6.798 0H17.2008ZM17.2008 1.8H6.798C3.762 1.8 1.8 3.8796 1.8 7.0992V16.9008C1.8 20.1204 3.762 22.2 6.798 22.2H17.1996C20.2368 22.2 22.2 20.1204 22.2 16.9008V7.0992C22.2 3.8796 20.2368 1.8 17.2008 1.8Z" fill="#030303"/>
</svg>
