<svg width="30" height="30" viewBox="0 0 30 30" fill="none" xmlns="http://www.w3.org/2000/svg">
<path d="M16.5855 12.5751C16.2538 12.3615 15.8128 12.4623 15.6063 12.7965C15.472 13.014 15.2396 13.1438 14.9846 13.1438C14.7479 13.1438 14.5269 13.0293 14.3896 12.8367C14.1673 12.5246 13.7429 12.4159 13.4196 12.6214C13.0839 12.8348 12.9926 13.2813 13.2137 13.6087C13.6119 14.1982 14.2739 14.5501 14.9846 14.5501C15.715 14.5501 16.3818 14.1866 16.7777 13.5753C16.9918 13.2448 16.9166 12.7883 16.5855 12.5751Z" fill="#030303"/>
<path d="M8.86601 10.5422L8.86619 11.6732C8.86652 15.0523 11.6255 17.7995 15.0091 17.78C18.3788 17.7605 21.0802 14.9757 21.0802 11.6059V10.581C21.746 10.1412 22.1558 9.39644 22.1558 8.57311C22.1558 7.50625 21.4587 6.5992 20.4961 6.28338C20.5219 6.1043 20.5278 5.92124 20.5128 5.73691C20.4114 4.49046 19.3479 3.52002 18.0973 3.52738C17.6523 3.53001 17.2281 3.65278 16.8624 3.8748C16.418 3.33303 15.7456 3 15.0006 3C14.2555 3 13.5832 3.33303 13.1388 3.8748C12.7731 3.65283 12.3491 3.53006 11.9043 3.52738C10.6536 3.51979 9.5899 4.49022 9.48837 5.73672C9.47336 5.9211 9.47922 6.10425 9.50515 6.28338C8.5425 6.5991 7.84546 7.50625 7.84546 8.57311C7.84541 9.36559 8.23427 10.0964 8.86601 10.5422ZM15.0007 16.3737C12.3962 16.3886 10.2726 14.2742 10.2726 11.6731C10.2726 11.6731 10.2726 11.673 10.2726 11.673L10.2724 10.8659H10.6092C11.3227 10.8659 12.0204 10.6189 12.5737 10.1704C12.8062 9.98186 13.0095 9.7612 13.178 9.5172C13.7039 9.9031 14.345 10.1179 15.0225 10.1179C15.7001 10.1179 16.3411 9.9031 16.8671 9.5172C17.0355 9.7612 17.2388 9.98186 17.4713 10.1704C18.0247 10.6189 18.7223 10.8659 19.4358 10.8659H19.6739V11.6213C19.6738 14.2152 17.5945 16.3587 15.0007 16.3737ZM10.205 7.57183C10.2555 7.56897 10.3065 7.57047 10.363 7.57671C10.6053 7.60348 10.8516 7.52022 11.0078 7.33303C11.2107 7.08992 11.2251 6.74785 11.0541 6.49119C10.9192 6.28886 10.8626 6.04495 10.8959 5.79814C10.9573 5.34355 11.3316 4.98334 11.7881 4.93866C12.1747 4.90079 12.5375 5.08197 12.7403 5.40651C12.8915 5.6484 13.1738 5.77507 13.4548 5.72707C13.7359 5.67911 13.9603 5.46614 14.0227 5.18792C14.1244 4.73507 14.5356 4.40636 15.0006 4.40636C15.4635 4.40636 15.8732 4.73221 15.9771 5.18196C16.0181 5.3593 16.1169 5.51986 16.2699 5.6184C16.6246 5.84675 17.0593 5.72904 17.2608 5.40651C17.4545 5.0966 17.7941 4.91743 18.1609 4.93487C18.6474 4.95798 19.0545 5.3384 19.1083 5.82251C19.1346 6.05934 19.0783 6.29238 18.9497 6.4872C18.8542 6.63196 18.8068 6.80499 18.8336 6.97633C18.8965 7.37851 19.2535 7.62504 19.6199 7.57882C19.6798 7.57127 19.7332 7.56893 19.7858 7.57127C20.2869 7.59377 20.7051 7.98858 20.7459 8.4885C20.7951 9.01222 20.36 9.46132 19.8347 9.45954H19.4356C18.6453 9.45954 17.9457 8.90464 17.7653 8.13766C17.7072 7.89019 17.531 7.68139 17.2885 7.60498C16.9777 7.507 16.6473 7.63348 16.4791 7.90256C16.1626 8.40913 15.6181 8.71154 15.0224 8.71154C14.4268 8.71154 13.8822 8.40913 13.5657 7.90256C13.4146 7.66071 13.1323 7.53424 12.8512 7.58201C12.5701 7.62992 12.3458 7.84288 12.2833 8.12116C12.1092 8.89667 11.4051 9.45954 10.6091 9.45954H10.1837C9.62234 9.45954 9.17447 8.9623 9.26513 8.40833C9.33789 7.94728 9.7394 7.59715 10.205 7.57183Z" fill="#030303"/>
<path d="M24.7239 11.2568C23.4689 11.2568 22.4479 12.3199 22.4479 13.6265V18.2387C22.28 18.1985 22.1065 18.1778 21.9298 18.1778C21.3131 18.1778 20.7355 18.4298 20.3035 18.8876L15.6325 23.8364C15.3986 24.0842 15.1871 24.3553 15 24.644C14.8129 24.3553 14.6013 24.0842 14.3675 23.8364L9.69651 18.8876C9.26448 18.4298 8.68689 18.1778 8.0702 18.1778C7.89347 18.1778 7.71992 18.1984 7.55214 18.2387V13.6265C7.55214 12.3199 6.53108 11.2568 5.27605 11.2568C4.02102 11.2568 3 12.3199 3 13.6265V21.9768C3 23.1525 3.43081 24.2631 4.21312 25.104L5.77104 26.7786C5.90957 26.9275 6.09755 27.0028 6.28605 27.0028C6.45748 27.0028 6.62943 26.9404 6.76486 26.8145C7.04923 26.5499 7.06526 26.105 6.80073 25.8207L5.24281 24.1461C4.70343 23.5663 4.40636 22.7959 4.40636 21.9768V13.6265C4.40636 13.0953 4.79653 12.6632 5.2761 12.6632C5.75562 12.6632 6.14579 13.0953 6.14579 13.6265V19.28C5.59356 20.1907 5.69256 21.4195 6.44384 22.2155L9.91754 25.8958C10.0559 26.0424 10.2422 26.1163 10.429 26.1163C10.6022 26.1163 10.7757 26.0527 10.9116 25.9245C11.194 25.6579 11.2068 25.2129 10.9402 24.9305L7.48801 21.2728C7.16221 20.9276 7.09658 20.4014 7.35155 20.001C7.52116 19.7346 7.78682 19.5841 8.0702 19.5841C8.29583 19.5841 8.5102 19.6795 8.67376 19.8528L13.3447 24.8016C13.7658 25.2477 14.0933 25.7948 14.2966 26.3902C14.3312 26.654 14.514 26.8868 14.7847 26.971C14.9277 27.015 15.0729 27.0122 15.2152 26.9704C15.4852 26.8864 15.6678 26.6545 15.7029 26.3915C15.9063 25.7956 16.2339 25.248 16.6552 24.8016L21.3262 19.8528C21.4898 19.6795 21.7042 19.584 21.9298 19.584C22.1554 19.584 22.3698 19.6795 22.5335 19.853C22.8908 20.2317 22.8908 20.8714 22.5334 21.25L19.0597 24.9304C18.7931 25.2128 18.806 25.6578 19.0884 25.9244C19.2243 26.0526 19.3977 26.1162 19.5709 26.1162C19.7577 26.1162 19.9441 26.0422 20.0825 25.8957L23.5562 22.2154C24.3074 21.4194 24.4064 20.1906 23.8542 19.2799V13.6265C23.8542 13.0953 24.2444 12.6632 24.724 12.6632C25.2035 12.6632 25.5936 13.0953 25.5936 13.6265V21.9768C25.5936 22.7959 25.2966 23.5663 24.7572 24.1461L23.1997 25.8201C22.9352 26.1044 22.9513 26.5494 23.2356 26.8139C23.52 27.0784 23.9649 27.0624 24.2294 26.778L25.7869 25.1039C26.5692 24.2631 27 23.1525 27 21.9767V13.6265C27 12.3199 25.9789 11.2568 24.7239 11.2568Z" fill="#030303"/>
</svg>
