<svg width="31" height="31" viewBox="0 0 31 31" fill="none" xmlns="http://www.w3.org/2000/svg">
<path d="M14.4756 7.79258C18.088 7.80548 21.9069 7.80548 26.1774 7.79258C27.932 7.79258 29.4931 6.54112 29.9059 4.8252C30.3188 3.05768 29.5189 1.26436 27.932 0.464458C27.6481 0.32254 27.2998 0.219327 26.9644 0.129016C26.8095 0.0903113 26.6676 0.0516065 26.5257 0H14.1143C14.0369 0.0258032 13.9724 0.0387048 13.9208 0.0516065C11.9469 0.361245 10.5148 2.16747 10.6438 4.18012C10.7857 6.20568 12.4629 7.79258 14.4756 7.79258ZM14.4369 1.04503C15.0562 1.03213 15.6883 1.03213 16.3076 1.03213H17.172H21.2231H26.0741C27.6868 1.03213 28.9641 2.27068 28.9899 3.84468C29.0028 4.61878 28.7061 5.35417 28.1771 5.89604C27.6223 6.46371 26.8998 6.76045 26.1257 6.77335C25.3646 6.77335 24.5905 6.77335 23.8164 6.77335H20.3071H16.8624C16.0883 6.77335 15.3142 6.77335 14.553 6.77335C13.766 6.77335 13.0435 6.46371 12.5016 5.92184C11.9469 5.36707 11.6501 4.64458 11.663 3.87048C11.6759 2.34809 12.9274 1.08374 14.4369 1.04503Z" fill="#030303"/>
<path d="M5.71545 0.476909C5.43162 0.334992 5.08327 0.231779 4.76073 0.141467C4.58011 0.0898609 4.45109 0.051156 4.32208 0.0124512H3.48347C3.36736 0.051156 3.25124 0.0769592 3.13513 0.102762C2.8642 0.167271 2.58036 0.24468 2.34813 0.347893C1.09668 0.915564 0.322578 1.90899 0.0645459 3.27656C0.0516443 3.32817 0.0387427 3.39267 0.0258411 3.45718L0.0129395 4.33449L0.0258411 4.36029C0.0387427 4.4248 0.0645459 4.50221 0.0774475 4.56672C0.361283 6.30844 1.85787 7.66311 3.61249 7.79212C5.48322 7.93404 7.13463 6.73419 7.63779 4.97957C8.15386 3.18625 7.34106 1.30261 5.71545 0.476909ZM5.92188 5.94719C5.38001 6.47616 4.65752 6.7729 3.89633 6.7729C3.12223 6.75999 2.39974 6.46326 1.87077 5.92139C1.3289 5.36662 1.03217 4.64413 1.04507 3.87003C1.05797 2.30894 2.33523 1.04458 3.90923 1.04458C4.68332 1.04458 5.39291 1.34132 5.93478 1.89609C6.47665 2.43795 6.77338 3.16044 6.77338 3.93454C6.76048 4.68284 6.46375 5.40533 5.92188 5.94719Z" fill="#030303"/>
<path d="M4.19302 11.1212C2.361 10.9922 0.670884 12.1663 0.167721 13.9467C0.129016 14.0886 0.0903113 14.2434 0.0516065 14.3982L0 14.6305L0.0129016 15.4433V15.4691C0.0387048 15.5465 0.0516065 15.6239 0.0645081 15.6884C0.412852 17.7527 2.3868 19.1847 4.56717 18.8493C6.59272 18.5397 8.05061 16.5399 7.75387 14.4757C7.49584 12.6565 5.99925 11.2503 4.19302 11.1212ZM5.92184 17.0431C5.37997 17.572 4.65748 17.8688 3.90919 17.8688C3.12219 17.8559 2.4126 17.5591 1.87073 17.0044C1.32887 16.4496 1.04503 15.7271 1.04503 14.953C1.05793 13.3919 2.34809 12.1276 3.90919 12.1276C4.68329 12.1276 5.40578 12.4372 5.93474 12.9791C6.47661 13.5209 6.77335 14.2434 6.77335 15.0175C6.76045 15.7916 6.46371 16.5141 5.92184 17.0431Z" fill="#030303"/>
<path d="M4.18012 22.2296C2.33519 22.1006 0.670884 23.2747 0.154819 25.0551C0.116115 25.2099 0.0774097 25.3647 0.0387048 25.5066L0 25.7389L0.0129016 26.5517C0.0387048 26.6678 0.0645081 26.7323 0.0645081 26.7968C0.425753 28.8998 2.3997 30.2931 4.56717 29.9577C6.59272 29.6481 8.05061 27.6483 7.75387 25.5841C7.49584 23.7649 5.99925 22.3587 4.18012 22.2296ZM5.90894 28.1515C5.36707 28.6804 4.65748 28.9772 3.89629 28.9772C3.10929 28.9772 2.3868 28.6675 1.85783 28.1128C1.32887 27.5709 1.03213 26.8484 1.04503 26.0743C1.05793 24.5132 2.34809 23.2489 3.90919 23.2489C4.68329 23.2489 5.40578 23.5585 5.93474 24.1004C6.47661 24.6422 6.77335 25.3647 6.76044 26.1388C6.76044 26.9 6.46371 27.6225 5.90894 28.1515Z" fill="#030303"/>
<path d="M14.5787 18.9019C15.8818 18.9019 17.1849 18.9019 18.4879 18.9019H21.8295C23.2228 18.9019 24.6033 18.9019 25.9838 18.9019C26.2289 18.9019 26.474 18.889 26.7063 18.8503C28.6673 18.5794 30.1252 16.7861 30.0091 14.7605C29.893 12.7737 28.2287 11.1352 26.2805 11.1223C24.255 11.1223 22.2552 11.1094 20.2813 11.1094C18.2815 11.1094 16.2947 11.1094 14.3594 11.1352C12.3984 11.1481 10.6954 12.8511 10.6309 14.8508C10.605 15.9475 10.9921 16.9667 11.7275 17.7279C12.4629 18.4891 13.4821 18.9019 14.5787 18.9019ZM12.4758 13.0188C13.0176 12.464 13.7401 12.1544 14.5271 12.1544C15.598 12.1544 16.6688 12.1415 17.7396 12.1544H21.7907C23.2099 12.1544 24.6807 12.1544 26.1257 12.1544C27.6997 12.1673 28.964 13.393 28.9898 14.967C29.0027 15.7411 28.7189 16.4764 28.177 17.0312C27.6352 17.586 26.9127 17.8827 26.1386 17.8956C25.3516 17.8956 24.5646 17.8956 23.7776 17.8956H20.32H16.901C16.114 17.8956 15.3399 17.8956 14.5529 17.8956C12.9789 17.8827 11.7146 16.6571 11.6759 15.1089C11.6501 14.2961 11.9339 13.5607 12.4758 13.0188Z" fill="#030303"/>
<path d="M26.2935 22.2301C24.3324 22.2172 22.3456 22.2043 20.3588 22.2043C18.359 22.2043 16.3593 22.2172 14.3595 22.2301C12.4243 22.243 10.7212 23.9203 10.6438 25.9071C10.6051 27.0037 10.9793 28.0359 11.7276 28.81C12.463 29.5841 13.4693 30.0098 14.5659 30.0098H18.5267H25.9581C26.2161 30.0098 26.4612 29.9969 26.7063 29.9582C28.6545 29.6873 30.0995 27.9069 29.9963 25.8813C29.9059 23.9203 28.2158 22.256 26.2935 22.2301ZM28.3319 27.9198C27.7643 28.6293 26.9902 28.9906 26.0226 28.9906H17.3011H15.6626C15.2626 28.9906 14.8627 28.9906 14.4627 28.9777C13.0306 28.9519 11.8566 27.8811 11.676 26.4361C11.5082 25.0685 12.4243 23.7138 13.766 23.3655C14.0241 23.301 14.3208 23.2623 14.6562 23.2623C16.1012 23.2494 17.5591 23.2623 18.9783 23.2623H20.3846H22.0489C23.4035 23.2623 24.784 23.2623 26.1645 23.2752C27.3127 23.2881 28.2287 23.8816 28.7061 24.9395C29.1835 25.9587 29.0544 27.0166 28.3319 27.9198Z" fill="#030303"/>
</svg>
