<svg width="11" height="16" viewBox="0 0 11 16" fill="none" xmlns="http://www.w3.org/2000/svg">
<g clip-path="url(#clip0_796_7919)">
<path d="M5.33465 0.0012207C5.69578 0.0638512 6.05691 0.107691 6.40537 0.195374C7.25542 0.419482 8.02685 0.870106 8.63549 1.49808C9.30248 2.16064 9.76032 3.00056 9.9533 3.91563C10.2115 5.05965 10.0616 6.25675 9.52881 7.30394C9.08405 8.13668 8.55325 8.92166 7.94491 9.64631C7.6218 10.0659 7.31136 10.4793 6.9629 10.8989C6.93123 10.9365 6.90587 10.9803 6.86785 11.0367L7.267 11.1119C8.00564 11.2221 8.71441 11.4777 9.35141 11.8634C9.68062 12.0498 9.92707 12.3515 10.042 12.7089C10.091 12.9151 10.0781 13.131 10.005 13.3301C9.93187 13.5292 9.80162 13.7029 9.63018 13.83C9.17558 14.2089 8.63742 14.477 8.05895 14.6129C6.8662 14.9409 5.62609 15.0679 4.39065 14.9887C3.46771 14.9606 2.55399 14.7981 1.67902 14.5064C1.15904 14.3596 0.685731 14.0836 0.304189 13.7048C0.196143 13.6026 0.111082 13.4791 0.0545395 13.3423C-0.00200334 13.2055 -0.0287604 13.0584 -0.0239787 12.9107C-0.0191969 12.763 0.017009 12.6179 0.0822848 12.485C0.147561 12.352 0.240433 12.2341 0.354865 12.139C0.710525 11.7963 1.14552 11.5448 1.62198 11.4062C2.10349 11.2622 2.59768 11.162 3.08552 11.043H3.16155C3.12872 10.9928 3.09274 10.9447 3.05383 10.8989C2.42027 10.0409 1.72337 9.19537 1.08347 8.31855C0.539696 7.60055 0.175003 6.7658 0.0190797 5.88221C-0.181588 4.71425 0.0428813 3.51378 0.652639 2.4939C1.27078 1.42781 2.27312 0.631558 3.45932 0.264258C3.82191 0.168974 4.19006 0.0957832 4.56171 0.0450666H4.70743L5.33465 0.0012207ZM5.03688 12.4459L6.1266 11.0054C6.91855 9.96573 7.7295 8.94486 8.49611 7.87388C9.00183 7.20635 9.32481 6.42112 9.43378 5.59412C9.55447 4.84948 9.47389 4.08652 9.20018 3.38259C8.92647 2.67867 8.46938 2.05879 7.87523 1.58577C7.10805 0.954293 6.14778 0.597159 5.14979 0.572154C4.15181 0.547149 3.17447 0.855735 2.37592 1.44798C1.61021 2.01991 1.04962 2.81893 0.776052 3.72828C0.502481 4.63763 0.530273 5.60965 0.855383 6.50227C1.1456 7.24044 1.54718 7.93093 2.04648 8.55028C2.91445 9.68389 3.80143 10.8112 4.67574 11.9449C4.79612 12.114 4.91017 12.2705 5.03688 12.4459V12.4459ZM4.68209 14.4125C5.66414 14.4412 6.64583 14.3444 7.60278 14.1244C8.13593 14.0084 8.64284 13.796 9.09799 13.4981C9.59851 13.1411 9.61751 12.7528 9.09799 12.4083C8.79317 12.2039 8.46036 12.0436 8.10964 11.9323C7.60913 11.7757 7.08328 11.6943 6.5701 11.5753C6.52853 11.5638 6.48428 11.5662 6.44419 11.582C6.40411 11.5979 6.37043 11.6263 6.34835 11.663C6.01256 12.1265 5.67044 12.5774 5.33465 13.0346C5.13191 13.3039 4.9355 13.3039 4.73276 13.0346C4.39698 12.5712 4.04853 12.114 3.71274 11.6505C3.66206 11.5879 3.6177 11.544 3.529 11.5628C2.98414 11.6881 2.43295 11.7945 1.88809 11.9449C1.48522 12.0463 1.11476 12.2467 0.811029 12.5273C0.743069 12.574 0.687557 12.6363 0.649217 12.7088C0.610876 12.7814 0.590845 12.862 0.590845 12.9438C0.590845 13.0256 0.610876 13.1063 0.649217 13.1788C0.687557 13.2513 0.743069 13.3136 0.811029 13.3603C1.05532 13.5749 1.33931 13.7408 1.64733 13.8488C2.6189 14.2067 3.64535 14.3974 4.68209 14.4125V14.4125Z" fill="#030303"/>
<path d="M5.04952 2.93237C5.45926 2.93486 5.85906 3.0574 6.19835 3.2845C6.53764 3.51159 6.80119 3.83304 6.95567 4.20821C7.11015 4.58337 7.14864 4.9954 7.06625 5.39218C6.98385 5.78896 6.78428 6.15269 6.49278 6.43735C6.20128 6.72201 5.83094 6.91483 5.42858 6.99143C5.02622 7.06802 4.60992 7.02494 4.23232 6.86765C3.85473 6.71036 3.5328 6.44592 3.30723 6.10776C3.08167 5.7696 2.96263 5.37291 2.96513 4.96786C2.97179 4.42573 3.19433 3.90803 3.58451 3.52701C3.9747 3.14598 4.50107 2.93233 5.04952 2.93237V2.93237ZM6.51939 4.98665C6.52064 4.6968 6.43492 4.41309 6.27306 4.17139C6.1112 3.9297 5.88047 3.74089 5.61006 3.62882C5.33964 3.51676 5.04168 3.48647 4.75386 3.5418C4.46603 3.59713 4.20127 3.7356 3.99306 3.93968C3.78484 4.14376 3.64252 4.40431 3.58409 4.68835C3.52566 4.97239 3.55372 5.26719 3.66477 5.53545C3.77582 5.80372 3.96486 6.03341 4.20796 6.19547C4.45106 6.35754 4.7373 6.44469 5.03052 6.44593C5.4227 6.44432 5.79855 6.29046 6.07705 6.01749C6.35555 5.74452 6.5144 5.37432 6.51939 4.98665V4.98665Z" fill="#030303"/>
<path d="M8.8889 4.86135C8.89208 4.90513 8.89208 4.9491 8.8889 4.99289C8.89063 5.07157 8.86109 5.14778 8.8066 5.20516C8.75211 5.26254 8.67702 5.29651 8.59747 5.29977C8.5195 5.29668 8.44556 5.26468 8.39038 5.21013C8.3352 5.15558 8.30282 5.08249 8.2997 5.0054C8.29227 4.7955 8.27111 4.5863 8.23634 4.3791C8.14504 3.84178 7.9135 3.33732 7.56461 2.91554C7.21572 2.49375 6.76156 2.16925 6.24697 1.97409L6.10125 1.90519C6.03441 1.87152 5.98328 1.81367 5.9585 1.74368C5.93372 1.67369 5.9372 1.59695 5.96821 1.52942C5.9963 1.46395 6.04891 1.41175 6.11503 1.38374C6.18116 1.35572 6.25567 1.35405 6.323 1.37909C6.59856 1.48613 6.86544 1.61386 7.12129 1.76115C7.65212 2.09328 8.09141 2.55027 8.39987 3.09128C8.70834 3.63229 8.87635 4.24044 8.8889 4.86135V4.86135Z" fill="#030303"/>
<path d="M5.06853 1.17236C5.14588 1.17554 5.21911 1.20775 5.27326 1.26244C5.32741 1.31714 5.35843 1.39021 5.35998 1.46673C5.35832 1.54371 5.32622 1.61698 5.27055 1.67084C5.21489 1.72469 5.14009 1.75484 5.0622 1.75482C4.98485 1.75165 4.91162 1.71944 4.85747 1.66474C4.80331 1.61004 4.7723 1.53698 4.77075 1.46046C4.77541 1.38448 4.80847 1.31293 4.8635 1.25969C4.91853 1.20645 4.99159 1.17533 5.06853 1.17236Z" fill="#030303"/>
</g>
<defs>
<clipPath id="clip0_796_7919">
<rect width="10.0736" height="15" fill="white" transform="translate(0 0.0012207)"/>
</clipPath>
</defs>
</svg>
