<svg width="16" height="24" viewBox="0 0 16 24" fill="none" xmlns="http://www.w3.org/2000/svg">
<path d="M8.44735 0C9.01902 0.100293 9.59069 0.170498 10.1423 0.320938C11.5063 0.681993 12.6797 1.4041 13.6726 2.40703C14.7357 3.4902 15.4478 4.78398 15.7587 6.26832C16.1599 8.15383 15.9292 9.96913 15.0868 11.6942C14.4248 13.0582 13.5021 14.2516 12.5794 15.4451C12.0679 16.1171 11.5364 16.779 11.0249 17.441C10.9747 17.5011 10.9346 17.5613 10.8744 17.6516C11.1051 17.6917 11.3057 17.7318 11.5063 17.7719C12.6697 18.0026 13.803 18.3035 14.8059 18.9755C15.3074 19.3165 15.7387 19.7176 15.8991 20.3294C16.0897 21.0716 15.7687 21.6432 15.2472 22.1247C14.5351 22.7766 13.6626 23.1176 12.76 23.3783C10.8644 23.9299 8.91873 24.0703 6.96301 23.9701C5.49873 23.8998 4.05451 23.6892 2.67046 23.1978C1.87815 22.917 1.11592 22.5659 0.544251 21.9241C-0.177859 21.1217 -0.147771 20.189 0.614456 19.4167C1.19616 18.835 1.89821 18.474 2.67046 18.2333C3.43269 18.0026 4.21498 17.8421 4.98724 17.6616C5.01732 17.6516 5.04741 17.6516 5.10759 17.6315C5.04741 17.5413 4.99726 17.4711 4.93709 17.4009C3.87398 16.0469 2.80085 14.6929 1.79791 13.2888C0.955453 12.1154 0.343665 10.8317 0.112991 9.38743C-0.187889 7.47184 0.102961 5.6465 1.09586 3.96158C2.11885 2.21648 3.61322 1.02299 5.53885 0.391143C6.10049 0.210615 6.69222 0.15044 7.27392 0.0401172C7.35415 0.0200586 7.43439 0.0100293 7.50459 0C7.82553 0 8.13644 0 8.44735 0ZM7.97597 19.9282C8.5677 19.1359 9.12934 18.3737 9.70101 17.6215C10.9547 15.9667 12.2284 14.3219 13.4419 12.6369C14.2242 11.5538 14.7658 10.3402 14.9363 8.98626C15.2472 6.40873 14.4348 4.2424 12.4591 2.5675C9.96177 0.461348 6.39134 0.401172 3.76366 2.34686C1.28642 4.20228 0.293518 7.52198 1.35663 10.4505C1.79791 11.6541 2.47991 12.7172 3.24214 13.7201C4.61615 15.5354 6.01023 17.3407 7.4043 19.156C7.58483 19.4067 7.77538 19.6574 7.97597 19.9282ZM7.41433 23.0774C9.23966 23.0975 10.8042 22.937 12.0278 22.6161C12.8602 22.3954 13.6826 22.1347 14.3947 21.6332C15.1971 21.0616 15.2272 20.4297 14.4148 19.8881C13.9334 19.5672 13.4018 19.2964 12.8502 19.1259C12.0579 18.8752 11.2255 18.7448 10.4131 18.5643C10.2526 18.5241 10.1624 18.5743 10.0621 18.7047C9.53051 19.4368 8.98893 20.1689 8.44735 20.8911C8.12641 21.3223 7.8155 21.3323 7.50459 20.9011C6.96301 20.1589 6.42143 19.4268 5.87984 18.6946C5.80964 18.5943 5.73943 18.5241 5.58899 18.5542C4.72647 18.7548 3.85392 18.9153 2.9914 19.156C2.35956 19.3365 1.76783 19.6274 1.27639 20.0887C0.805013 20.54 0.815042 20.9713 1.28642 21.4226C1.66753 21.7837 2.12888 22.0143 2.61029 22.2049C4.23504 22.8367 5.94002 23.0273 7.41433 23.0774Z" fill="#030303" fill-opacity="0.5"/>
<path d="M7.99593 4.69336C9.79118 4.69336 11.2655 6.18773 11.2655 7.993C11.2655 9.78825 9.77112 11.2726 7.96584 11.2626C6.16057 11.2525 4.69629 9.77822 4.69629 7.96291C4.69629 6.15764 6.18063 4.69336 7.99593 4.69336ZM10.3227 7.993C10.3227 6.70925 9.26965 5.63611 7.99593 5.63611C6.72221 5.62609 5.63904 6.68919 5.62902 7.96291C5.62902 9.23664 6.69212 10.3198 7.95581 10.3198C9.23957 10.3298 10.3227 9.26672 10.3227 7.993Z" fill="#030303" fill-opacity="0.5"/>
<path d="M14.0737 7.78315C14.0737 7.85335 14.0737 7.92356 14.0737 7.99376C14.0536 8.27458 13.8631 8.4852 13.6023 8.4852C13.3516 8.4852 13.161 8.29464 13.141 8.01382C13.1109 7.69288 13.1109 7.35189 13.0407 7.04098C12.6696 5.20561 11.6165 3.92186 9.89146 3.18972C9.81123 3.15963 9.73099 3.12955 9.66079 3.08943C9.43011 2.95905 9.34988 2.70831 9.45017 2.48767C9.54044 2.27705 9.79117 2.14667 10.0118 2.24697C10.4431 2.42749 10.8844 2.60802 11.2655 2.85875C13.0407 4.02215 13.9433 5.68702 14.0737 7.78315Z" fill="#030303" fill-opacity="0.5"/>
<path d="M8.02606 1.88572C8.2768 1.88572 8.48741 2.10636 8.48741 2.3571C8.47738 2.5978 8.25674 2.81845 8.00601 2.80842C7.7653 2.80842 7.55469 2.58777 7.55469 2.33704C7.56472 2.08631 7.78536 1.87569 8.02606 1.88572Z" fill="#030303" fill-opacity="0.5"/>
</svg>
