<svg width="114" height="99" viewBox="0 0 114 99" fill="none" xmlns="http://www.w3.org/2000/svg">
<path d="M101.305 21.4554L113.695 0H36.2834L48.6739 21.4554C49.3597 22.6392 50.6241 23.371 51.9918 23.371H97.9868C99.3546 23.371 100.619 22.6392 101.305 21.4554Z" fill="white"/>
<path d="M83.2708 52.8719L95.6612 31.4165H54.4248L66.8153 52.8719C67.5011 54.0557 68.7654 54.7875 70.1332 54.7875H79.9529C81.3206 54.7875 82.585 54.0557 83.2708 52.8719Z" fill="white"/>
<path d="M24.9847 0H0.18457V0.99231L56.6965 98.8479H56.7195L69.3934 76.8983C70.0793 75.7144 70.0793 74.2509 69.3934 73.067L28.3026 1.91566C27.6168 0.731781 26.3525 0 24.9847 0Z" fill="#4DDA65"/>
</svg>
