<svg width="24" height="24" viewBox="0 0 24 24" fill="none" xmlns="http://www.w3.org/2000/svg">
<path d="M12.63 16.92C12.49 16.92 12.38 16.96 12.3 17.04C12.2 17.14 12.14 17.3 12.14 17.5V19.92C12.14 21.36 11.13 22.37 9.69 22.37C7.61 22.37 5.52 22.37 3.44 22.37C2 22.37 0.99 21.36 0.99 19.91C0.99 14.41 0.99 8.92 0.99 3.42C0.99 1.98 1.99 0.98 3.42 0.98C5.51 0.98 7.61 0.98 9.7 0.98C11.13 0.98 12.14 1.98 12.14 3.42V5.93C12.14 6.26 12.34 6.48 12.63 6.48C12.77 6.48 12.89 6.43 12.98 6.34C13.07 6.24 13.13 6.1 13.13 5.94L13.14 5.25C13.15 4.61 13.15 3.95 13.13 3.3C13.08 1.92 12.43 0.92 11.19 0.31C10.99 0.21 10.75 0.15 10.49 0.08C10.36 0.06 10.25 0.03 10.14 0L2.85 0.02C2.73 0.05 2.62 0.07 2.52 0.1C1.12 0.52 0.31 1.42 0.04 2.86C0.03 2.9 0.02 2.95 0 2.99V20.36C0.01 20.4 0.03 20.44 0.04 20.5C0.3 22.18 1.67 23.36 3.37 23.36C5.5 23.37 7.63 23.37 9.76 23.36C11.63 23.35 13.11 21.88 13.12 20.01C13.12 19.28 13.12 18.55 13.12 17.82V17.51C13.12 17.15 12.93 16.93 12.63 16.92Z" fill="#030303"/>
<path d="M22.6899 10.0398C21.5699 8.88982 20.3699 7.70982 19.3199 6.66982L18.2799 5.63982C18.0399 5.39982 17.7399 5.26982 17.3899 5.25982C16.9999 5.23982 16.6399 5.36982 16.3499 5.63982C16.0799 5.89982 15.9199 6.25982 15.9199 6.65982C15.9199 7.50982 15.9199 8.35982 15.9199 9.21982V11.1798H4.44993C4.29993 11.1798 4.23993 11.1798 4.18993 11.1898C3.93993 11.2398 3.76993 11.4698 3.78993 11.7198C3.80993 11.9798 4.02993 12.1598 4.32993 12.1598C8.00993 12.1598 11.6899 12.1598 15.3699 12.1598C16.2999 12.1598 16.8999 11.5498 16.8999 10.6198V8.24982V5.73982L17.8699 6.61982L21.8899 10.6098C22.2099 10.9298 22.3699 11.2898 22.3699 11.6698C22.3699 12.0498 22.1999 12.4198 21.8799 12.7398L17.8599 16.7298C17.8299 16.7598 17.7899 16.7898 17.7499 16.8298L16.8999 17.5998V16.2498C16.8999 16.0398 16.8999 15.8498 16.8999 15.6598C16.8899 15.3698 16.6899 15.1598 16.4099 15.1598C16.1299 15.1598 15.9299 15.3698 15.9199 15.6598C15.9099 15.9898 15.9199 16.3098 15.9199 16.6398C15.9299 17.2798 16.1999 17.7098 16.7599 17.9498C17.3299 18.1998 17.8499 18.1098 18.2899 17.6698C19.6099 16.3798 21.1599 14.8498 22.6799 13.2998C23.5899 12.3998 23.5899 10.9598 22.6899 10.0398Z" fill="#030303"/>
</svg>
