<svg width="52" height="52" viewBox="0 0 52 52" fill="none" xmlns="http://www.w3.org/2000/svg">
<path d="M50.1505 50.4832C50.135 49.3904 50.1609 48.2924 50.0936 47.2047C49.8916 43.9833 48.5035 41.5957 45.3546 40.3734C43.9821 39.8399 42.5423 39.5654 41.1491 39.1356C40.3359 38.8818 39.5176 38.6384 38.72 38.3276C38.3005 38.1619 37.8758 37.9961 37.4045 38.0013C37.3734 38.0013 37.2802 38.0738 37.1973 37.9754C36.6535 37.3487 35.8456 37.1053 35.1878 36.6495C34.1416 35.9245 33.1369 35.1528 32.5982 33.9356C32.4169 33.5317 32.391 33.1018 32.3496 32.6719C32.2719 31.8432 32.505 30.999 32.0803 30.1807C31.9715 29.9684 32.2564 29.5022 32.505 29.2433C33.6755 28.0314 34.385 26.5605 34.9237 24.9963C34.9755 24.8513 34.9962 24.6959 35.0273 24.5406C35.1826 23.8155 35.4209 23.2458 36.2288 22.8936C37.3061 22.4223 37.7308 21.3813 37.8603 20.2522C37.9587 19.3821 37.9846 18.5068 37.6117 17.6781C37.5495 17.5435 37.4822 17.4036 37.4097 17.2742C37.2647 17.0256 37.2543 16.8339 37.446 16.5542C37.793 16.057 37.8085 15.4252 37.8499 14.8451C37.9535 13.5037 38.0157 12.1467 37.8499 10.8105C37.679 9.43284 37.3942 8.07071 36.6121 6.86396C36.4205 6.56875 36.3531 6.18549 36.6069 5.86437C37.0523 5.29466 37.0834 4.61619 37.1559 3.94289C37.1818 3.69947 37.0057 3.51302 36.9539 3.27995C35.7316 3.10904 34.4834 3.20227 33.2612 2.98474C32.4532 2.8449 31.6504 2.68952 30.8839 2.38395C29.6046 1.87639 28.2632 1.65886 26.8907 1.56046C25.9947 1.49313 25.0987 1.51385 24.2079 1.58635C22.5247 1.72101 20.8829 2.04212 19.4534 3.03653C18.9303 3.39908 18.4849 3.85484 18.0913 4.35205C17.8789 4.62655 17.6303 4.84407 17.3248 5.00463C15.367 6.02493 14.3105 7.70299 13.8961 9.80575C13.6164 11.2248 13.72 12.6595 13.7822 14.0941C13.8029 14.581 13.7977 15.0678 13.8754 15.5598C13.9324 15.9327 14.1033 16.2383 14.2483 16.5646C14.3933 16.8909 14.7144 16.8132 14.9475 16.7096C15.4913 16.4662 15.973 16.114 16.4184 15.71C17.8375 14.4204 18.7801 12.8097 19.5932 11.1109C19.7849 10.7173 19.9713 10.3392 20.3132 10.0543" stroke="white" stroke-width="2" stroke-linecap="round" stroke-linejoin="round"/>
<path d="M37.2027 38.0684C36.6744 39.1146 35.7525 39.7982 34.8669 40.4767C32.8936 41.9838 30.6458 42.942 28.1961 43.346C26.8339 43.5687 25.4459 43.5687 24.0475 43.3822C20.5775 42.9265 17.6616 41.4245 15.1963 38.9799C14.9218 38.7106 14.7094 38.4102 14.5437 38.0684" stroke="white" stroke-width="2" stroke-linecap="round" stroke-linejoin="round"/>
<path d="M14.44 16.8125C13.2954 18.4647 13.5129 20.1738 14.3105 21.8519C14.5591 22.3801 15.0563 22.8204 15.6571 23.0172C16.175 23.1829 16.3563 23.5455 16.4702 24.0323C16.7085 25.0164 17.0451 25.9641 17.5164 26.8653C17.9463 27.6888 18.4487 28.4553 19.0805 29.139C19.4793 29.5741 19.7797 30.0402 19.4586 30.7083C19.267 31.1123 19.3965 31.6095 19.3913 32.0601C19.3861 32.6919 19.4017 33.329 19.1375 33.9298C18.5574 35.2505 17.4905 36.0791 16.3097 36.8094C15.7192 37.1719 15.0356 37.3998 14.5954 37.9695C14.5332 38.0524 14.4814 38.011 14.4348 38.011C13.891 38.0161 13.4145 38.2285 12.9121 38.4098C11.2289 39.0261 9.48349 39.4145 7.75881 39.8962C6.02896 40.3727 4.42859 41.1237 3.25291 42.5583C2.47603 43.5061 2.05651 44.5989 1.83381 45.7901C1.63182 46.8415 1.63182 47.9084 1.59038 48.9702C1.59038 49.0789 1.59038 49.1877 1.5127 49.2706" stroke="white" stroke-width="2" stroke-linecap="round" stroke-linejoin="round"/>
<path d="M37.2026 16.8637C36.2497 16.8378 35.8042 16.1697 35.3744 15.4549C34.7891 14.4813 34.3282 13.4402 33.5616 12.5701C32.4274 11.2753 30.9876 10.949 29.3561 11.1614C28.2789 11.3012 27.2119 11.5188 26.1191 11.5239C25.943 11.5239 25.6737 11.3841 25.6116 11.7207" stroke="white" stroke-width="2" stroke-linecap="round" stroke-linejoin="round"/>
<path d="M31.9924 30.1406C31.1844 30.2131 30.594 30.7362 29.9777 31.1609C28.5379 32.145 26.9478 32.3107 25.2646 32.2227C24.2547 32.1709 23.2758 32.0466 22.385 31.5494C21.8981 31.2749 21.4372 30.9486 20.9659 30.6482C20.5774 30.3996 20.1631 30.239 19.7021 30.1924" stroke="white" stroke-width="2" stroke-linecap="round" stroke-linejoin="round"/>
<path d="M25.6167 11.5661C24.8761 11.4832 24.1251 11.4988 23.3896 11.3227C22.5817 11.1311 21.8307 10.8203 21.116 10.406C21.0124 10.3438 20.9192 10.261 20.8104 10.2092C20.3822 9.99164 20.1975 9.65499 20.2562 9.19922" stroke="white" stroke-width="2" stroke-linecap="round" stroke-linejoin="round"/>
</svg>
