<svg width="32" height="33" viewBox="0 0 32 33" fill="none" xmlns="http://www.w3.org/2000/svg">
<path d="M31.9467 32.2005C31.92 32.1339 31.88 32.0805 31.8534 32.0139L27.4399 21.3335C27.2532 20.8802 27.1332 20.8002 26.6532 20.8002C25.3198 20.8002 23.9998 20.8002 22.6664 20.8002C22.5997 20.8002 22.5197 20.8002 22.4397 20.7868H22.4264L22.5731 20.5735C22.6797 20.4268 22.7731 20.2802 22.8797 20.1335C24.3998 17.9067 25.3198 15.8933 25.7865 13.8266C26.2665 11.7465 26.1865 9.73315 25.5331 7.87975C24.8131 5.78635 23.5331 4.07963 21.7197 2.81292C19.6663 1.37287 17.3329 0.786187 14.7995 1.0662C12.8927 1.29287 11.1727 2.02623 9.65263 3.25293C8.01258 4.58631 6.87921 6.29303 6.29252 8.30643C5.6525 10.4798 5.74584 12.7199 6.5592 15.16C7.14588 16.9334 8.06592 18.6934 9.37262 20.5202C9.42596 20.6002 9.47929 20.6802 9.54596 20.7735L9.5593 20.7868H8.15925C7.19922 20.7868 6.23919 20.7868 5.27916 20.7868C4.91915 20.7868 4.7058 20.9202 4.5858 21.2135C3.98578 22.6669 3.38576 24.1336 2.78574 25.587C2.3724 26.587 1.95905 27.5871 1.5457 28.5871C1.3857 28.9604 1.47903 29.2538 1.78571 29.3871C1.91905 29.4405 2.03905 29.4538 2.15906 29.4005C2.30573 29.3471 2.43906 29.2004 2.51907 29.0004C2.55907 28.8938 2.59907 28.7871 2.63907 28.6804C2.71907 28.4404 2.79908 28.2004 2.94575 28.1071C3.10575 28.0004 3.37243 28.0271 3.6391 28.0537C3.74577 28.0671 3.86578 28.0671 3.97245 28.0671C4.45246 28.0671 4.93248 28.0671 5.41249 28.0671H5.91918C5.91918 28.0804 5.91918 28.0937 5.91918 28.0937L5.77251 28.4671C5.31916 29.5605 4.85248 30.7072 4.38579 31.8139C4.37246 31.8539 4.25246 31.9205 4.15912 31.9205C3.61244 31.9339 3.06575 31.9339 2.51907 31.9339H1.31903L1.41236 31.7205C1.51903 31.4539 1.6257 31.2138 1.71904 30.9738C1.86571 30.6138 1.77238 30.3071 1.4657 30.1738C1.15902 30.0538 0.892347 30.2005 0.732342 30.5738C0.559003 31.0005 0.318995 31.5605 0.0923213 32.1205C-0.0810177 32.5606 -0.0143488 32.7472 0.398998 32.9872L0.412332 33.0006H32V32.3072L31.9467 32.2005ZM5.62583 21.8802C6.37253 21.8669 7.11922 21.8669 7.91924 21.8669H8.50593L8.30592 22.3469C7.99925 23.0669 7.71924 23.7603 7.42589 24.4536C7.41256 24.4803 7.34589 24.5336 7.30589 24.5336C6.49253 24.5336 5.66584 24.547 4.83914 24.5336H4.37246C4.5058 24.2003 4.63914 23.8803 4.77247 23.5736C4.82581 23.4403 4.87914 23.3069 4.93248 23.1736C5.07915 22.8002 5.23916 22.4269 5.39916 22.0535C5.43916 21.9869 5.55917 21.8802 5.62583 21.8802ZM8.31926 25.0936L8.59927 24.4136C8.91928 23.6536 9.23929 22.8536 9.5593 22.0802C9.62597 21.9202 9.69263 21.8935 9.86597 21.8802C10.1993 21.8402 10.426 21.9469 10.666 22.2536C12.0794 23.9869 13.6928 25.6137 15.4662 27.0937C15.8928 27.4404 16.0662 27.4404 16.4662 27.0937C16.6795 26.907 16.8929 26.7204 17.1062 26.5337C17.3862 26.2804 17.6796 26.027 17.9729 25.787C18.0796 25.6937 18.2396 25.6403 18.3596 25.6403C19.493 25.627 20.653 25.627 21.773 25.627H23.0931H23.1464C23.2531 25.627 23.3597 25.627 23.4798 25.6137C23.7331 25.5603 23.8664 25.4003 23.8931 25.147C23.9064 24.8803 23.7864 24.6936 23.5598 24.6136C23.4264 24.5736 23.2664 24.5603 23.1464 24.5603C22.1997 24.5603 21.253 24.5603 20.3196 24.5603H19.2529C19.3063 24.4936 19.3463 24.4536 19.3863 24.4003C19.573 24.2003 19.7463 24.0003 19.9196 23.8003C20.4263 23.2403 20.933 22.6536 21.453 22.0935C21.5464 21.9869 21.7197 21.9069 21.8397 21.9069C22.6931 21.8935 23.5464 21.8935 24.3864 21.8935C25.0131 21.8935 25.6398 21.8935 26.2665 21.8935C26.4532 21.8935 26.5332 21.9469 26.5865 22.1069C26.8265 22.7069 27.0665 23.2936 27.3332 23.9069C27.4265 24.1203 27.5199 24.3336 27.5999 24.5603H26.7199C26.2665 24.5603 25.7998 24.5603 25.3465 24.5603C25.1331 24.5603 24.9731 24.627 24.8531 24.747C24.7598 24.8403 24.7198 24.9736 24.7198 25.1203C24.7331 25.4403 24.9598 25.627 25.3465 25.627C26.0265 25.627 26.9332 25.6403 27.8399 25.627C27.8399 25.627 27.8399 25.627 27.8532 25.627C27.9999 25.627 28.0666 25.667 28.1199 25.8137C28.2399 26.1203 28.3599 26.4137 28.4932 26.7337C28.5332 26.827 28.5732 26.9337 28.6132 27.0404H28.3599C25.3865 27.0404 22.4264 27.0404 19.453 27.0404H19.3863C19.3596 27.0404 19.3329 27.0404 19.3196 27.0404C19.2796 27.0404 19.2263 27.0404 19.1996 27.0404C18.9196 27.0404 18.7329 27.1604 18.6396 27.4004C18.5596 27.6271 18.6263 27.8271 18.8396 28.0271C19.3729 28.4938 19.9063 28.9604 20.4397 29.4271L21.453 30.3205C22.0264 30.8272 22.5997 31.3205 23.1731 31.8272C23.2264 31.8805 23.2797 31.9205 23.3464 31.9605H23.3597H22.8531C22.1997 31.9605 21.5197 31.9605 20.853 31.9605C20.7997 31.9605 20.7197 31.8939 20.6663 31.8405C17.5862 29.2271 14.5195 26.6137 11.4527 24.0003L11.4127 23.9603C11.3727 23.9336 11.346 23.9069 11.306 23.8803C11.0927 23.6803 10.9193 23.6269 10.746 23.6669C10.5727 23.7069 10.4393 23.8536 10.346 24.0936C10.0926 24.6936 9.85264 25.2937 9.5993 25.8937L8.82594 27.7604C8.29259 29.0404 7.7459 30.3738 7.22589 31.6805C7.13255 31.8939 7.05255 31.9605 6.81254 31.9472C6.61253 31.9339 6.42586 31.9339 6.23919 31.9339C5.99918 31.9339 5.75917 31.9339 5.4925 31.9339L5.77251 31.2538C5.95918 30.8138 6.13252 30.3872 6.30586 29.9605L6.62587 29.1871C6.79921 28.7738 6.97255 28.3604 7.13255 27.9604C7.25255 27.6671 7.26589 27.4271 7.15922 27.2804C7.05255 27.1204 6.83921 27.0404 6.5192 27.0404C5.95918 27.0404 5.39916 27.0404 4.85248 27.0404H3.34576C3.38576 26.947 3.42576 26.8537 3.46576 26.7604C3.61244 26.4004 3.74577 26.0537 3.90578 25.7203C3.91911 25.6803 4.05245 25.6403 4.14579 25.627C4.94581 25.627 5.74584 25.627 6.53253 25.627H7.53256C8.03925 25.6137 8.13258 25.547 8.31926 25.0936ZM15.9862 26.107C15.8395 25.9737 15.6795 25.827 15.5328 25.6937C15.1595 25.3603 14.8128 25.0536 14.4661 24.7203C11.8394 22.2136 9.99931 19.8801 8.66593 17.3601C7.69257 15.5333 7.14588 13.8133 6.98588 12.1332C6.74587 9.46647 7.49256 7.11973 9.21262 5.15966C10.7327 3.41294 12.6527 2.39957 14.9061 2.1329C15.2928 2.0929 15.6795 2.06623 16.0662 2.06623C18.2529 2.06623 20.213 2.82625 21.933 4.31964C23.4264 5.62634 24.3998 7.29307 24.8398 9.26646C25.1865 10.8398 25.1065 12.4532 24.5998 14.2133C23.8398 16.84 22.3997 19.3335 20.0396 22.0935C18.8396 23.4936 17.5196 24.8003 15.9862 26.107ZM28.8133 28.0804C29.0266 28.0804 29.1066 28.1337 29.1866 28.3204C29.5066 29.1071 29.8266 29.8938 30.1466 30.6672C30.2933 31.0138 30.44 31.3605 30.5733 31.7072C30.6 31.7605 30.6266 31.8272 30.64 31.8939L30.6533 31.9339H28.2932C27.2799 31.9339 26.2265 31.9339 25.1865 31.9339C25.0531 31.9339 24.9198 31.8939 24.8398 31.8272C23.5998 30.7472 22.333 29.6538 21.1197 28.5871L20.573 28.1071C20.573 28.1071 20.573 28.1071 20.5597 28.1071H22.5331C24.5998 28.0804 26.7199 28.0937 28.8133 28.0804ZM19.1463 31.9205H8.25259L11.0793 25.067L19.1463 31.9205Z" fill="#030303"/>
<path d="M15.3462 6.85315C14.7329 6.94649 14.1329 7.17316 13.5995 7.53318C13.3195 7.71985 13.2395 7.99986 13.3862 8.26653C13.5328 8.54654 13.8262 8.61321 14.1462 8.45321C14.1862 8.43987 14.2262 8.4132 14.2529 8.38654L14.3062 8.34654C15.7862 7.47984 17.5063 7.79985 18.573 9.13323C19.3997 10.1733 19.5464 11.36 18.9864 12.5733C18.413 13.8 17.3996 14.4667 16.0663 14.4934C16.0396 14.4934 16.0129 14.4934 15.9863 14.4934C14.6929 14.4934 13.7195 13.88 13.0795 12.68C12.5861 11.7466 12.5728 10.7599 13.0528 9.71991C13.1995 9.38657 13.1062 9.06656 12.8262 8.93322C12.5328 8.79988 12.2528 8.91989 12.0795 9.26656C11.4128 10.6133 11.4928 12.2 12.2928 13.4934C13.0928 14.7867 14.4662 15.5601 15.9729 15.5734H15.9863C17.3063 15.5734 18.5463 14.9734 19.3864 13.9334C20.2264 12.88 20.5331 11.52 20.2397 10.2133C19.7197 7.97319 17.5996 6.51981 15.3462 6.85315Z" fill="#030303"/>
</svg>
