<svg width="14" height="24" viewBox="0 0 14 24" fill="none" xmlns="http://www.w3.org/2000/svg">
<path d="M12.31 0C12.71 0.1 13.08 0.25 13.36 0.57C13.72 0.96 13.83 1.43 13.83 1.95C13.83 4.25 13.83 6.56 13.83 8.86C13.83 13.25 13.83 17.64 13.83 22.03C13.83 22.48 13.76 22.9 13.49 23.27C13.1 23.78 12.58 24 11.95 24C9.08 24 6.21 24 3.35 24C2.87 24 2.38 24 1.9 24C0.76 24 0.03 23.28 0 22.15C0 22.11 0 22.07 0 22.03C0 15.35 0 8.66 0 1.97C0 1.44 0.11 0.97 0.47 0.57C0.76 0.25 1.13 0.1 1.53 0C5.12 0 8.71 0 12.31 0ZM13.11 19.78C13 19.78 12.92 19.78 12.84 19.78C9.69 19.78 6.54 19.78 3.39 19.78C3.3 19.78 3.22 19.79 3.13 19.77C2.94 19.74 2.82 19.62 2.82 19.42C2.82 19.22 2.94 19.11 3.14 19.08C3.22 19.07 3.3 19.07 3.37 19.07C6.53 19.07 9.68 19.07 12.84 19.07C12.93 19.07 13.02 19.07 13.1 19.07C13.1 13.86 13.1 8.7 13.1 3.52C8.96 3.52 4.84 3.52 0.71 3.52C0.71 8.71 0.71 13.88 0.71 19.07C1.05 19.07 1.38 19.06 1.71 19.07C1.97 19.08 2.12 19.24 2.08 19.47C2.05 19.69 1.9 19.77 1.7 19.77C1.37 19.77 1.05 19.77 0.71 19.77C0.7 19.83 0.69 19.87 0.69 19.9C0.69 20.67 0.69 21.43 0.69 22.2C0.69 22.31 0.71 22.42 0.74 22.52C0.87 22.99 1.27 23.28 1.8 23.28C5.21 23.28 8.61 23.28 12.02 23.28C12.06 23.28 12.1 23.28 12.14 23.28C12.66 23.24 13.08 22.85 13.1 22.33C13.13 21.5 13.11 20.66 13.11 19.78ZM0.72 2.79C4.86 2.79 8.99 2.79 13.13 2.79C13.13 2.47 13.13 2.16 13.13 1.86C13.12 1.12 12.7 0.7 11.96 0.7C8.6 0.7 5.24 0.7 1.88 0.7C1.83 0.7 1.79 0.7 1.74 0.7C1.18 0.73 0.76 1.12 0.72 1.68C0.7 2.04 0.72 2.41 0.72 2.79Z" fill="#030303" fill-opacity="0.5"/>
<path d="M7.96012 21.52C7.96012 22.09 7.50012 22.57 6.93012 22.58C6.35012 22.59 5.87012 22.12 5.87012 21.53C5.87012 20.95 6.34012 20.47 6.92012 20.47C7.50012 20.47 7.96012 20.94 7.96012 21.52ZM6.92012 21.87C7.10012 21.87 7.26012 21.71 7.25012 21.52C7.25012 21.33 7.09012 21.18 6.91012 21.17C6.72012 21.17 6.56012 21.33 6.57012 21.53C6.58012 21.72 6.74012 21.87 6.92012 21.87Z" fill="#030303" fill-opacity="0.5"/>
<path d="M7.62007 2.11C7.40007 2.11 7.18007 2.12 6.97007 2.11C6.72007 2.1 6.58007 1.96 6.57007 1.76C6.57007 1.55 6.71007 1.41 6.95007 1.41C7.39007 1.4 7.84007 1.4 8.28007 1.41C8.52007 1.41 8.66007 1.56 8.66007 1.77C8.66007 1.97 8.52007 2.1 8.29007 2.11C8.07007 2.11 7.84007 2.11 7.62007 2.11Z" fill="#030303" fill-opacity="0.5"/>
<path d="M5.84992 1.75C5.85992 1.93 5.70992 2.1 5.52992 2.11C5.33992 2.12 5.16992 1.95 5.16992 1.76C5.16992 1.57 5.31992 1.42 5.50992 1.41C5.68992 1.41 5.84992 1.56 5.84992 1.75Z" fill="#030303" fill-opacity="0.5"/>
</svg>
