<svg width="13" height="20" viewBox="0 0 13 20" fill="none" xmlns="http://www.w3.org/2000/svg">
<path d="M12.596 2.03673C12.596 0.801336 11.7947 0 10.5509 0C9.64942 0 8.75626 0 7.85476 0C5.88481 0 3.91486 0 1.94491 0C1.51085 0 1.11018 0.125209 0.759599 0.392321C0.24207 0.784641 0 1.31886 0 1.9783C0 7.31219 0 12.6544 0 17.9883C0 18.0885 0 18.1803 0.0166945 18.2805C0.066778 18.7813 0.283806 19.1987 0.659433 19.5326C0.951586 19.7997 1.31052 19.9165 1.68614 20C4.75793 20 7.82972 20 10.9015 20C10.9099 19.9917 10.9182 19.9833 10.9349 19.975C11.9032 19.8498 12.6043 18.9983 12.596 17.9466C12.5876 12.6461 12.596 7.33723 12.596 2.03673ZM6.29382 18.7062C6.01836 18.7062 5.78464 18.4641 5.79299 18.1886C5.79299 17.9132 6.03506 17.6878 6.31052 17.6878C6.58598 17.6878 6.8197 17.9215 6.81135 18.2053C6.80301 18.4808 6.56928 18.7145 6.29382 18.7062ZM11.1018 9.44908C11.1018 11.4274 11.1018 13.4057 11.1018 15.384C11.1018 16.0601 10.7596 16.5359 10.1503 16.6861C10.0167 16.7195 9.86645 16.7279 9.72454 16.7279C7.44574 16.7279 5.16695 16.7195 2.88815 16.7362C2.04508 16.7446 1.49416 16.177 1.49416 15.3339C1.5025 11.4107 1.5025 7.47913 1.5025 3.54758C1.5025 2.84641 1.85309 2.36227 2.47079 2.22037C2.5793 2.19533 2.70451 2.18698 2.82137 2.18698C5.1419 2.18698 7.45409 2.18698 9.77463 2.18698C10.5843 2.18698 11.1018 2.70451 11.1018 3.52254C11.1018 5.49249 11.1018 7.47078 11.1018 9.44908Z" fill="white"/>
</svg>
