<svg width="32" height="32" viewBox="0 0 32 32" fill="none" xmlns="http://www.w3.org/2000/svg">
<mask id="path-1-outside-1_1018_1654" maskUnits="userSpaceOnUse" x="0" y="0" width="32" height="32" fill="black">
<rect fill="white" width="32" height="32"/>
<path d="M30.653 20.4052C30.3884 19.4937 29.9693 18.6345 29.4139 17.8649C29.3724 17.8039 29.3192 17.7517 29.2575 17.7112C29.1959 17.6707 29.1268 17.6427 29.0543 17.6289C28.9818 17.6151 28.9073 17.6157 28.8351 17.6307C28.7628 17.6457 28.6942 17.6747 28.6332 17.7162C28.5722 17.7577 28.5199 17.8108 28.4794 17.8725C28.4389 17.9342 28.411 18.0033 28.3972 18.0757C28.3833 18.1482 28.384 18.2227 28.399 18.295C28.414 18.3673 28.443 18.4359 28.4845 18.4969L28.5837 18.6456C29.5583 20.0345 29.9983 21.7287 29.8228 23.4164C29.6794 24.7898 29.1427 26.0926 28.2772 27.1685C27.4117 28.2444 26.254 29.0477 24.9432 29.482C23.6324 29.9162 22.2241 29.963 20.8874 29.6167C19.5507 29.2704 18.3423 28.5456 17.4073 27.5295C16.4722 26.5134 15.8503 25.249 15.6161 23.8882C15.3819 22.5273 15.5453 21.1278 16.0869 19.8575C16.6284 18.5873 17.525 17.5003 18.669 16.727C19.8131 15.9538 21.156 15.5271 22.5366 15.4981H22.6729C24.3859 15.4827 26.0462 16.0905 27.3445 17.2082C27.4897 17.3423 27.6797 17.4175 27.8773 17.4188C28.0194 17.3965 28.1477 17.3212 28.2367 17.2082C28.3606 17.0471 28.5093 16.7249 28.0508 16.3407C27.247 15.6252 26.2949 15.0962 25.2627 14.7918C24.7423 14.6431 24.2342 14.544 23.7014 14.4448H23.6022L23.1313 14.3581V7.86491H26.6134C26.748 7.87689 26.8837 7.86088 27.0118 7.81786C27.1399 7.77484 27.2577 7.70574 27.3578 7.61494C27.4579 7.52415 27.5381 7.41362 27.5934 7.29029C27.6487 7.16697 27.6778 7.03351 27.679 6.89837V6.63815C27.679 5.69639 27.679 4.71744 27.679 3.75089C27.6643 3.14267 27.4503 2.55615 27.0697 2.0815C26.689 1.60686 26.163 1.27038 25.5725 1.12389H25.4114H25.2999H14.4324V1.18587L14.3458 1.32216C14.2487 1.43172 14.1806 1.56375 14.1474 1.70629C14.1406 1.76586 14.1459 1.8262 14.163 1.88369C14.18 1.94117 14.2084 1.99464 14.2466 2.04089C14.3244 2.11292 14.4163 2.16779 14.5167 2.20195C14.617 2.2361 14.7234 2.24879 14.829 2.23916H22.6357L22.549 2.36304C22.1408 3.06758 21.9631 3.88214 22.0409 4.69267C22.0409 7.07185 22.0409 9.43865 22.0409 11.6691V14.4572H21.8674C19.7477 14.7012 17.8037 15.7531 16.4399 17.394C16.3616 17.4755 16.2553 17.5242 16.1425 17.5304C15.2007 17.5304 14.2466 17.5304 13.3172 17.5304H8.3482C8.27194 17.5235 8.19508 17.5325 8.12243 17.5566C8.04979 17.5808 7.9829 17.6197 7.92594 17.6708C7.86898 17.722 7.82322 17.7843 7.79139 17.854C7.75957 17.9236 7.74242 17.999 7.74102 18.0756C7.7426 18.1515 7.75934 18.2264 7.79026 18.2958C7.82118 18.3651 7.86561 18.4276 7.92103 18.4796C7.97644 18.5315 8.04168 18.5719 8.11291 18.5982C8.18413 18.6246 8.25991 18.6365 8.33579 18.6332H15.3866L14.482 21.1115H5.80794V3.51549C5.77573 3.3211 5.7903 3.12183 5.85052 2.93422C5.91074 2.74661 6.01485 2.57604 6.15418 2.43671C6.29351 2.29738 6.46408 2.19331 6.65169 2.13308C6.8393 2.07286 7.03853 2.05822 7.23292 2.09043H12.7596C12.8945 2.10783 13.0314 2.07946 13.1482 2.0098C13.265 1.94015 13.3551 1.83325 13.404 1.70629C13.4465 1.56954 13.4372 1.42193 13.3777 1.29164C13.3183 1.16134 13.2129 1.05753 13.0818 1H6.78685H6.65056C6.07153 1.07978 5.54326 1.37318 5.16953 1.82258C4.79579 2.27197 4.60361 2.84487 4.63072 3.42874V21.1115H1.68152C1.54381 21.0985 1.40536 21.1269 1.28392 21.1932C1.16248 21.2594 1.06361 21.3604 1 21.4833V22.9826V23.1437C1.1205 23.8886 1.46479 24.5792 1.98715 25.1236C2.50951 25.6681 3.18518 26.0408 3.92439 26.1921C4.41847 26.285 4.92141 26.3224 5.4238 26.3036H5.99377C6.19047 26.3133 6.38407 26.2517 6.539 26.1301C6.58804 26.0792 6.62646 26.0189 6.65199 25.953C6.67752 25.887 6.68964 25.8166 6.68769 25.7459C6.68769 25.399 6.43986 25.2007 5.99377 25.1883H5.47334C5.06112 25.2254 4.6464 25.2254 4.23418 25.1883C3.59007 25.0711 3.01172 24.7207 2.60945 24.2042C2.20719 23.6876 2.00917 23.0411 2.05325 22.3878V22.3259H14.3334V22.4002C14.297 23.3309 14.4185 24.261 14.6927 25.1512V25.2503H7.77816C7.64536 25.2563 7.51964 25.3118 7.42564 25.4058C7.33163 25.4998 7.27618 25.6255 7.27014 25.7583C7.25577 25.8974 7.29531 26.0366 7.38063 26.1473C7.46595 26.258 7.59053 26.3317 7.72862 26.3532C7.81079 26.3652 7.89429 26.3652 7.97646 26.3532H14.9281C14.9968 26.3411 15.0675 26.3546 15.1269 26.3911C15.1863 26.4277 15.2302 26.4847 15.2503 26.5514C15.9605 27.8863 17.0183 29.0045 18.3118 29.7875C19.6053 30.5706 21.0865 30.9896 22.5985 31C22.9463 30.9979 23.2938 30.9772 23.6394 30.938C24.8341 30.7957 25.9836 30.3959 27.0087 29.7661C28.0338 29.1362 28.91 28.2915 29.5768 27.2901C30.2436 26.2887 30.6851 25.1545 30.8709 23.9658C31.0567 22.7772 30.9824 21.5623 30.653 20.4052ZM23.0199 6.60098V5.36182C23.0199 4.82898 23.0199 4.28373 23.0199 3.75089C23.0231 3.29508 23.2056 2.85886 23.5279 2.53654C23.8502 2.21423 24.2864 2.03173 24.7422 2.02848C25.2035 2.04466 25.6397 2.2427 25.9554 2.57935C26.2712 2.916 26.4409 3.36392 26.4275 3.82528V6.63815H23.0694H22.9702V6.50183L23.0199 6.60098Z"/>
</mask>
<path d="M30.653 20.4052C30.3884 19.4937 29.9693 18.6345 29.4139 17.8649C29.3724 17.8039 29.3192 17.7517 29.2575 17.7112C29.1959 17.6707 29.1268 17.6427 29.0543 17.6289C28.9818 17.6151 28.9073 17.6157 28.8351 17.6307C28.7628 17.6457 28.6942 17.6747 28.6332 17.7162C28.5722 17.7577 28.5199 17.8108 28.4794 17.8725C28.4389 17.9342 28.411 18.0033 28.3972 18.0757C28.3833 18.1482 28.384 18.2227 28.399 18.295C28.414 18.3673 28.443 18.4359 28.4845 18.4969L28.5837 18.6456C29.5583 20.0345 29.9983 21.7287 29.8228 23.4164C29.6794 24.7898 29.1427 26.0926 28.2772 27.1685C27.4117 28.2444 26.254 29.0477 24.9432 29.482C23.6324 29.9162 22.2241 29.963 20.8874 29.6167C19.5507 29.2704 18.3423 28.5456 17.4073 27.5295C16.4722 26.5134 15.8503 25.249 15.6161 23.8882C15.3819 22.5273 15.5453 21.1278 16.0869 19.8575C16.6284 18.5873 17.525 17.5003 18.669 16.727C19.8131 15.9538 21.156 15.5271 22.5366 15.4981H22.6729C24.3859 15.4827 26.0462 16.0905 27.3445 17.2082C27.4897 17.3423 27.6797 17.4175 27.8773 17.4188C28.0194 17.3965 28.1477 17.3212 28.2367 17.2082C28.3606 17.0471 28.5093 16.7249 28.0508 16.3407C27.247 15.6252 26.2949 15.0962 25.2627 14.7918C24.7423 14.6431 24.2342 14.544 23.7014 14.4448H23.6022L23.1313 14.3581V7.86491H26.6134C26.748 7.87689 26.8837 7.86088 27.0118 7.81786C27.1399 7.77484 27.2577 7.70574 27.3578 7.61494C27.4579 7.52415 27.5381 7.41362 27.5934 7.29029C27.6487 7.16697 27.6778 7.03351 27.679 6.89837V6.63815C27.679 5.69639 27.679 4.71744 27.679 3.75089C27.6643 3.14267 27.4503 2.55615 27.0697 2.0815C26.689 1.60686 26.163 1.27038 25.5725 1.12389H25.4114H25.2999H14.4324V1.18587L14.3458 1.32216C14.2487 1.43172 14.1806 1.56375 14.1474 1.70629C14.1406 1.76586 14.1459 1.8262 14.163 1.88369C14.18 1.94117 14.2084 1.99464 14.2466 2.04089C14.3244 2.11292 14.4163 2.16779 14.5167 2.20195C14.617 2.2361 14.7234 2.24879 14.829 2.23916H22.6357L22.549 2.36304C22.1408 3.06758 21.9631 3.88214 22.0409 4.69267C22.0409 7.07185 22.0409 9.43865 22.0409 11.6691V14.4572H21.8674C19.7477 14.7012 17.8037 15.7531 16.4399 17.394C16.3616 17.4755 16.2553 17.5242 16.1425 17.5304C15.2007 17.5304 14.2466 17.5304 13.3172 17.5304H8.3482C8.27194 17.5235 8.19508 17.5325 8.12243 17.5566C8.04979 17.5808 7.9829 17.6197 7.92594 17.6708C7.86898 17.722 7.82322 17.7843 7.79139 17.854C7.75957 17.9236 7.74242 17.999 7.74102 18.0756C7.7426 18.1515 7.75934 18.2264 7.79026 18.2958C7.82118 18.3651 7.86561 18.4276 7.92103 18.4796C7.97644 18.5315 8.04168 18.5719 8.11291 18.5982C8.18413 18.6246 8.25991 18.6365 8.33579 18.6332H15.3866L14.482 21.1115H5.80794V3.51549C5.77573 3.3211 5.7903 3.12183 5.85052 2.93422C5.91074 2.74661 6.01485 2.57604 6.15418 2.43671C6.29351 2.29738 6.46408 2.19331 6.65169 2.13308C6.8393 2.07286 7.03853 2.05822 7.23292 2.09043H12.7596C12.8945 2.10783 13.0314 2.07946 13.1482 2.0098C13.265 1.94015 13.3551 1.83325 13.404 1.70629C13.4465 1.56954 13.4372 1.42193 13.3777 1.29164C13.3183 1.16134 13.2129 1.05753 13.0818 1H6.78685H6.65056C6.07153 1.07978 5.54326 1.37318 5.16953 1.82258C4.79579 2.27197 4.60361 2.84487 4.63072 3.42874V21.1115H1.68152C1.54381 21.0985 1.40536 21.1269 1.28392 21.1932C1.16248 21.2594 1.06361 21.3604 1 21.4833V22.9826V23.1437C1.1205 23.8886 1.46479 24.5792 1.98715 25.1236C2.50951 25.6681 3.18518 26.0408 3.92439 26.1921C4.41847 26.285 4.92141 26.3224 5.4238 26.3036H5.99377C6.19047 26.3133 6.38407 26.2517 6.539 26.1301C6.58804 26.0792 6.62646 26.0189 6.65199 25.953C6.67752 25.887 6.68964 25.8166 6.68769 25.7459C6.68769 25.399 6.43986 25.2007 5.99377 25.1883H5.47334C5.06112 25.2254 4.6464 25.2254 4.23418 25.1883C3.59007 25.0711 3.01172 24.7207 2.60945 24.2042C2.20719 23.6876 2.00917 23.0411 2.05325 22.3878V22.3259H14.3334V22.4002C14.297 23.3309 14.4185 24.261 14.6927 25.1512V25.2503H7.77816C7.64536 25.2563 7.51964 25.3118 7.42564 25.4058C7.33163 25.4998 7.27618 25.6255 7.27014 25.7583C7.25577 25.8974 7.29531 26.0366 7.38063 26.1473C7.46595 26.258 7.59053 26.3317 7.72862 26.3532C7.81079 26.3652 7.89429 26.3652 7.97646 26.3532H14.9281C14.9968 26.3411 15.0675 26.3546 15.1269 26.3911C15.1863 26.4277 15.2302 26.4847 15.2503 26.5514C15.9605 27.8863 17.0183 29.0045 18.3118 29.7875C19.6053 30.5706 21.0865 30.9896 22.5985 31C22.9463 30.9979 23.2938 30.9772 23.6394 30.938C24.8341 30.7957 25.9836 30.3959 27.0087 29.7661C28.0338 29.1362 28.91 28.2915 29.5768 27.2901C30.2436 26.2887 30.6851 25.1545 30.8709 23.9658C31.0567 22.7772 30.9824 21.5623 30.653 20.4052ZM23.0199 6.60098V5.36182C23.0199 4.82898 23.0199 4.28373 23.0199 3.75089C23.0231 3.29508 23.2056 2.85886 23.5279 2.53654C23.8502 2.21423 24.2864 2.03173 24.7422 2.02848C25.2035 2.04466 25.6397 2.2427 25.9554 2.57935C26.2712 2.916 26.4409 3.36392 26.4275 3.82528V6.63815H23.0694H22.9702V6.50183L23.0199 6.60098Z" fill="#BCBCBC"/>
<path d="M30.653 20.4052C30.3884 19.4937 29.9693 18.6345 29.4139 17.8649C29.3724 17.8039 29.3192 17.7517 29.2575 17.7112C29.1959 17.6707 29.1268 17.6427 29.0543 17.6289C28.9818 17.6151 28.9073 17.6157 28.8351 17.6307C28.7628 17.6457 28.6942 17.6747 28.6332 17.7162C28.5722 17.7577 28.5199 17.8108 28.4794 17.8725C28.4389 17.9342 28.411 18.0033 28.3972 18.0757C28.3833 18.1482 28.384 18.2227 28.399 18.295C28.414 18.3673 28.443 18.4359 28.4845 18.4969L28.5837 18.6456C29.5583 20.0345 29.9983 21.7287 29.8228 23.4164C29.6794 24.7898 29.1427 26.0926 28.2772 27.1685C27.4117 28.2444 26.254 29.0477 24.9432 29.482C23.6324 29.9162 22.2241 29.963 20.8874 29.6167C19.5507 29.2704 18.3423 28.5456 17.4073 27.5295C16.4722 26.5134 15.8503 25.249 15.6161 23.8882C15.3819 22.5273 15.5453 21.1278 16.0869 19.8575C16.6284 18.5873 17.525 17.5003 18.669 16.727C19.8131 15.9538 21.156 15.5271 22.5366 15.4981H22.6729C24.3859 15.4827 26.0462 16.0905 27.3445 17.2082C27.4897 17.3423 27.6797 17.4175 27.8773 17.4188C28.0194 17.3965 28.1477 17.3212 28.2367 17.2082C28.3606 17.0471 28.5093 16.7249 28.0508 16.3407C27.247 15.6252 26.2949 15.0962 25.2627 14.7918C24.7423 14.6431 24.2342 14.544 23.7014 14.4448H23.6022L23.1313 14.3581V7.86491H26.6134C26.748 7.87689 26.8837 7.86088 27.0118 7.81786C27.1399 7.77484 27.2577 7.70574 27.3578 7.61494C27.4579 7.52415 27.5381 7.41362 27.5934 7.29029C27.6487 7.16697 27.6778 7.03351 27.679 6.89837V6.63815C27.679 5.69639 27.679 4.71744 27.679 3.75089C27.6643 3.14267 27.4503 2.55615 27.0697 2.0815C26.689 1.60686 26.163 1.27038 25.5725 1.12389H25.4114H25.2999H14.4324V1.18587L14.3458 1.32216C14.2487 1.43172 14.1806 1.56375 14.1474 1.70629C14.1406 1.76586 14.1459 1.8262 14.163 1.88369C14.18 1.94117 14.2084 1.99464 14.2466 2.04089C14.3244 2.11292 14.4163 2.16779 14.5167 2.20195C14.617 2.2361 14.7234 2.24879 14.829 2.23916H22.6357L22.549 2.36304C22.1408 3.06758 21.9631 3.88214 22.0409 4.69267C22.0409 7.07185 22.0409 9.43865 22.0409 11.6691V14.4572H21.8674C19.7477 14.7012 17.8037 15.7531 16.4399 17.394C16.3616 17.4755 16.2553 17.5242 16.1425 17.5304C15.2007 17.5304 14.2466 17.5304 13.3172 17.5304H8.3482C8.27194 17.5235 8.19508 17.5325 8.12243 17.5566C8.04979 17.5808 7.9829 17.6197 7.92594 17.6708C7.86898 17.722 7.82322 17.7843 7.79139 17.854C7.75957 17.9236 7.74242 17.999 7.74102 18.0756C7.7426 18.1515 7.75934 18.2264 7.79026 18.2958C7.82118 18.3651 7.86561 18.4276 7.92103 18.4796C7.97644 18.5315 8.04168 18.5719 8.11291 18.5982C8.18413 18.6246 8.25991 18.6365 8.33579 18.6332H15.3866L14.482 21.1115H5.80794V3.51549C5.77573 3.3211 5.7903 3.12183 5.85052 2.93422C5.91074 2.74661 6.01485 2.57604 6.15418 2.43671C6.29351 2.29738 6.46408 2.19331 6.65169 2.13308C6.8393 2.07286 7.03853 2.05822 7.23292 2.09043H12.7596C12.8945 2.10783 13.0314 2.07946 13.1482 2.0098C13.265 1.94015 13.3551 1.83325 13.404 1.70629C13.4465 1.56954 13.4372 1.42193 13.3777 1.29164C13.3183 1.16134 13.2129 1.05753 13.0818 1H6.78685H6.65056C6.07153 1.07978 5.54326 1.37318 5.16953 1.82258C4.79579 2.27197 4.60361 2.84487 4.63072 3.42874V21.1115H1.68152C1.54381 21.0985 1.40536 21.1269 1.28392 21.1932C1.16248 21.2594 1.06361 21.3604 1 21.4833V22.9826V23.1437C1.1205 23.8886 1.46479 24.5792 1.98715 25.1236C2.50951 25.6681 3.18518 26.0408 3.92439 26.1921C4.41847 26.285 4.92141 26.3224 5.4238 26.3036H5.99377C6.19047 26.3133 6.38407 26.2517 6.539 26.1301C6.58804 26.0792 6.62646 26.0189 6.65199 25.953C6.67752 25.887 6.68964 25.8166 6.68769 25.7459C6.68769 25.399 6.43986 25.2007 5.99377 25.1883H5.47334C5.06112 25.2254 4.6464 25.2254 4.23418 25.1883C3.59007 25.0711 3.01172 24.7207 2.60945 24.2042C2.20719 23.6876 2.00917 23.0411 2.05325 22.3878V22.3259H14.3334V22.4002C14.297 23.3309 14.4185 24.261 14.6927 25.1512V25.2503H7.77816C7.64536 25.2563 7.51964 25.3118 7.42564 25.4058C7.33163 25.4998 7.27618 25.6255 7.27014 25.7583C7.25577 25.8974 7.29531 26.0366 7.38063 26.1473C7.46595 26.258 7.59053 26.3317 7.72862 26.3532C7.81079 26.3652 7.89429 26.3652 7.97646 26.3532H14.9281C14.9968 26.3411 15.0675 26.3546 15.1269 26.3911C15.1863 26.4277 15.2302 26.4847 15.2503 26.5514C15.9605 27.8863 17.0183 29.0045 18.3118 29.7875C19.6053 30.5706 21.0865 30.9896 22.5985 31C22.9463 30.9979 23.2938 30.9772 23.6394 30.938C24.8341 30.7957 25.9836 30.3959 27.0087 29.7661C28.0338 29.1362 28.91 28.2915 29.5768 27.2901C30.2436 26.2887 30.6851 25.1545 30.8709 23.9658C31.0567 22.7772 30.9824 21.5623 30.653 20.4052ZM23.0199 6.60098V5.36182C23.0199 4.82898 23.0199 4.28373 23.0199 3.75089C23.0231 3.29508 23.2056 2.85886 23.5279 2.53654C23.8502 2.21423 24.2864 2.03173 24.7422 2.02848C25.2035 2.04466 25.6397 2.2427 25.9554 2.57935C26.2712 2.916 26.4409 3.36392 26.4275 3.82528V6.63815H23.0694H22.9702V6.50183L23.0199 6.60098Z" stroke="#BCBCBC" stroke-width="0.2" mask="url(#path-1-outside-1_1018_1654)"/>
<path d="M20.3189 9.38034C20.3317 9.25298 20.3013 9.125 20.2326 9.01697C20.1636 8.90851 20.0599 8.8265 19.9385 8.78432L19.9305 8.78156H19.922H10.9452C10.8572 8.75677 10.7638 8.75747 10.676 8.78364L10.676 8.78353L10.6729 8.78469C10.5495 8.83057 10.4464 8.91856 10.3816 9.03313C10.318 9.14563 10.2955 9.27668 10.3177 9.40383C10.3069 9.53264 10.3431 9.6611 10.42 9.76524C10.4983 9.8713 10.6131 9.94459 10.7422 9.97101L10.742 9.97202H10.7523H19.8724C20.0092 9.97202 20.1195 9.9028 20.1953 9.79421C20.2701 9.68711 20.3122 9.54137 20.3189 9.38034ZM20.3189 9.38034C20.3188 9.38087 20.3188 9.3814 20.3187 9.38194L20.269 9.37679L20.3189 9.37879C20.3189 9.37931 20.3189 9.37982 20.3189 9.38034Z" fill="#BCBCBC" stroke="#BCBCBC" stroke-width="0.1"/>
<path d="M7.71588 13.7624L7.71587 13.7624V13.7635C7.71587 13.9279 7.78115 14.0856 7.89743 14.2019C8.01371 14.3181 8.17139 14.3835 8.33583 14.3835H19.6035C19.7043 14.4187 19.8143 14.4176 19.9146 14.3803L19.9149 14.3811L19.9226 14.3766C20.0987 14.2728 20.2395 14.1184 20.3266 13.9335L20.3299 13.9264L20.3309 13.9186C20.3443 13.8155 20.3331 13.7107 20.2981 13.6128C20.2631 13.5148 20.2054 13.4266 20.1297 13.3553L20.1297 13.3553L20.1279 13.3537C19.974 13.2224 19.7753 13.156 19.5735 13.1682H8.34933C8.2688 13.1648 8.1884 13.1774 8.11279 13.2053C8.03682 13.2334 7.96721 13.2764 7.90807 13.3317C7.84895 13.3871 7.80147 13.4537 7.76846 13.5277C7.73545 13.6016 7.7176 13.6815 7.71588 13.7624Z" fill="#BCBCBC" stroke="#BCBCBC" stroke-width="0.1"/>
<path d="M13.6873 4.42143L13.6776 4.42424L13.6697 4.43061C13.5796 4.50356 13.5109 4.59943 13.4707 4.70819C13.431 4.8155 13.4207 4.93141 13.4406 5.044C13.4418 5.32204 13.5566 5.53799 13.7384 5.58358C13.8013 5.5998 13.8673 5.60031 13.9304 5.58512H19.8846H19.8851H19.8856H19.8861H19.8866H19.8871H19.8876H19.8881H19.8886H19.8891H19.8896H19.8901H19.8906H19.8911H19.8916H19.8921H19.8926H19.8931H19.8936H19.894H19.8945H19.895H19.8955H19.896H19.8965H19.8969H19.8974H19.8979H19.8984H19.8989H19.8993H19.8998H19.9003H19.9008H19.9012H19.9017H19.9022H19.9026H19.9031H19.9036H19.904H19.9045H19.905H19.9054H19.9059H19.9063H19.9068H19.9073H19.9077H19.9082H19.9086H19.9091H19.9095H19.91H19.9104H19.9109H19.9113H19.9118H19.9122H19.9127H19.9131H19.9136H19.914H19.9144H19.9149H19.9153H19.9158H19.9162H19.9166H19.9171H19.9175H19.9179H19.9184H19.9188H19.9192H19.9197H19.9201H19.9205H19.921H19.9214H19.9218H19.9222H19.9227H19.9231H19.9235H19.9239H19.9243H19.9248H19.9252H19.9256H19.926H19.9264H19.9268H19.9272H19.9277H19.9281H19.9285H19.9289H19.9293H19.9297H19.9301H19.9305H19.9309H19.9313H19.9317H19.9321H19.9325H19.9329H19.9333H19.9337H19.9341H19.9345H19.9349H19.9353H19.9357H19.9361H19.9365H19.9369H19.9373H19.9377H19.938H19.9384H19.9388H19.9392H19.9396H19.94H19.9404H19.9407H19.9411H19.9415H19.9419H19.9423H19.9426H19.943H19.9434H19.9438H19.9441H19.9445H19.9449H19.9453H19.9456H19.946H19.9464H19.9467H19.9471H19.9475H19.9478H19.9482H19.9486H19.9489H19.9493H19.9497H19.95H19.9504H19.9508H19.9511H19.9515H19.9518H19.9522H19.9525H19.9529H19.9533H19.9536H19.954H19.9543H19.9547H19.955H19.9554H19.9557H19.9561H19.9564H19.9568H19.9571H19.9574H19.9578H19.9581H19.9585H19.9588H19.9592H19.9595H19.9598H19.9602H19.9605H19.9609H19.9612H19.9615H19.9619H19.9622H19.9625H19.9629H19.9632H19.9635H19.9639H19.9642H19.9645H19.9649H19.9652H19.9655H19.9658H19.9662H19.9665H19.9668H19.9672H19.9675H19.9678H19.9681H19.9684H19.9688H19.9691H19.9694H19.9697H19.97H19.9704H19.9707H19.971H19.9713H19.9716H19.9719H19.9723H19.9726H19.9729H19.9732H19.9735H19.9738H19.9741H19.9744H19.9747H19.9751H19.9754H19.9757H19.976H19.9763H19.9766H19.9769H19.9772H19.9775H19.9778H19.9781H19.9784H19.9787H19.979H19.9793H19.9796H19.9799H19.9802H19.9805H19.9808H19.9811H19.9814H19.9817H19.982H19.9823H19.9826H19.9828H19.9831H19.9834H19.9837H19.984H19.9843H19.9846H19.9849H19.9852H19.9855H19.9857H19.986H19.9863H19.9866H19.9869H19.9872H19.9875H19.9877H19.988H19.9883H19.9886H19.9889H19.9891H19.9894H19.9897H19.99H19.9903H19.9905H19.9908H19.9911H19.9914H19.9916H19.9919H19.9922H19.9925H19.9927H19.993H19.9933H19.9936H19.9938H19.9941H19.9944H19.9946H19.9949H19.9952H19.9954H19.9957H19.996H19.9963H19.9965H19.9968H19.9971H19.9973H19.9976H19.9978H19.9981H19.9984H19.9986H19.9989H19.9992H19.9994H19.9997H19.9999H20.0002H20.0005H20.0007H20.001H20.0012H20.0015H20.0018H20.002H20.0023H20.0025H20.0028H20.003H20.0033H20.0036H20.0038H20.0041H20.0043H20.0046H20.0048H20.0051H20.0053H20.0056H20.0058H20.0061H20.0063H20.0066H20.0068H20.0071H20.0073H20.0076H20.0078H20.0081H20.0083H20.0086H20.0088H20.0091H20.0093H20.0096H20.0098H20.0101H20.0103H20.0105H20.0108H20.011H20.0113H20.0115H20.0118H20.012H20.0122H20.0125H20.0127H20.013H20.0132H20.0135H20.0137H20.0139H20.0142H20.0144H20.0147H20.0149H20.0151H20.0154H20.0156H20.0158H20.0161H20.0163H20.0166H20.0168H20.017H20.0173H20.0175H20.0177H20.018H20.0182H20.0184H20.0187H20.0189H20.0191H20.0194H20.0196H20.0198H20.0201H20.0203H20.0205H20.0208H20.021H20.0212H20.0215H20.0217H20.0219H20.0222H20.0224H20.0226H20.0228H20.0231H20.0233H20.0235H20.0238H20.024H20.0242H20.0244H20.0247H20.0249H20.0251H20.0254H20.0256H20.0258H20.026H20.0263H20.0265H20.0267H20.0269H20.0272H20.0274H20.0276H20.0278H20.0281H20.0283H20.0285H20.0287H20.029H20.0292H20.0294H20.0296H20.0299H20.0301H20.0303H20.0305H20.0308H20.031H20.0312H20.0314H20.0316H20.0319H20.0321H20.0323H20.0325H20.0328H20.033H20.0332H20.0334H20.0336H20.0339H20.0341H20.0343H20.0345H20.0347H20.035H20.0352H20.0354H20.0356H20.0358H20.0361H20.0363H20.0365H20.0367H20.0369H20.0372H20.0374H20.0376H20.0378H20.038H20.0383H20.0385H20.0387H20.0389H20.0391H20.0394H20.0396H20.0398H20.04H20.0402H20.0405H20.0407H20.0409H20.0411H20.0413H20.0415H20.0418H20.042H20.0422H20.0424H20.0426H20.0429H20.0431H20.0433H20.0435H20.0437H20.0439H20.0442H20.0444H20.0446H20.0448H20.045H20.0452H20.0455H20.0457H20.0683L20.0832 5.56814C20.2058 5.4287 20.2797 5.2532 20.2938 5.06806L20.2939 5.06807L20.2939 5.06513C20.2972 4.87082 20.2427 4.67989 20.1372 4.51667L20.1372 4.51666L20.1363 4.51533C20.109 4.47588 20.0702 4.44568 20.0253 4.42881C19.9824 4.41272 19.9358 4.40952 19.8912 4.41947H13.8939C13.8262 4.40128 13.7548 4.40193 13.6873 4.42143Z" fill="#BCBCBC" stroke="#BCBCBC" stroke-width="0.1"/>
<path d="M23.3798 20.5573V21.793V22.5113H24.0609C24.0609 22.5113 24.0609 22.5113 24.0609 22.5113C24.2395 22.5113 24.4109 22.5813 24.5384 22.7063C24.6656 22.831 24.7389 23.0004 24.7428 23.1784C24.7499 23.268 24.7388 23.3581 24.7103 23.4434C24.6816 23.5291 24.6358 23.6081 24.5757 23.6757C24.5157 23.7433 24.4425 23.798 24.3608 23.8365C24.2791 23.875 24.1905 23.8966 24.1003 23.9M23.3798 20.5573L24.0981 23.85M23.3798 20.5573C23.393 20.4583 23.3851 20.3577 23.3566 20.262C23.3277 20.1652 23.2784 20.0758 23.2121 19.9996C23.1458 19.9235 23.0639 19.8624 22.972 19.8206C22.8801 19.7787 22.7802 19.7571 22.6792 19.7571C22.5783 19.7571 22.4784 19.7787 22.3865 19.8206C22.2945 19.8624 22.2127 19.9235 22.1464 19.9996C22.08 20.0758 22.0308 20.1652 22.0019 20.262C21.9734 20.3577 21.9655 20.4583 21.9787 20.5573V23.1789M23.3798 20.5573L22.0287 23.1809M24.1003 23.9C24.1002 23.9 24.1001 23.9 24.0999 23.9L24.0981 23.85M24.1003 23.9C24.1004 23.9 24.1005 23.9 24.1006 23.8999L24.0981 23.85M24.1003 23.9C23.6076 23.9249 23.114 23.9249 22.6213 23.9C22.5311 23.8966 22.4424 23.875 22.3608 23.8365C22.279 23.798 22.2059 23.7433 22.1458 23.6757C22.0857 23.6081 22.04 23.5291 22.0113 23.4434C21.9828 23.3583 21.9717 23.2684 21.9787 23.1789M24.0981 23.85C23.6069 23.8749 23.1147 23.8749 22.6235 23.85C22.5399 23.8469 22.4578 23.827 22.3821 23.7913C22.3064 23.7557 22.2387 23.705 22.1832 23.6425C22.1276 23.5799 22.0852 23.5068 22.0587 23.4275C22.0321 23.3482 22.0219 23.2643 22.0287 23.1809M21.9787 23.1789V23.1809H22.0287M21.9787 23.1789C21.9787 23.1782 21.9788 23.1775 21.9788 23.1769L22.0287 23.1809" fill="#BCBCBC" stroke="#BCBCBC" stroke-width="0.1"/>
<path d="M26.7991 23.7225L26.7993 23.7223C26.7391 23.6554 26.6927 23.5772 26.6629 23.4923C26.6331 23.4076 26.6204 23.3178 26.6254 23.2282C26.6321 23.0175 26.7119 22.8482 26.8581 22.7326C27.0027 22.6183 27.2067 22.561 27.4547 22.5608C27.4551 22.5608 27.4556 22.5608 27.456 22.5608V22.6108C27.5623 22.605 27.6686 22.6207 27.7687 22.6569C27.8687 22.6931 27.9605 22.7491 28.0385 22.8215L26.7991 23.7225ZM26.7991 23.7225L26.8028 23.7258C26.9678 23.8763 27.1828 23.9604 27.4061 23.9619L27.4061 23.9619H27.4065C27.6562 23.9619 27.8607 23.8979 28.0052 23.7785C28.1502 23.6588 28.23 23.4874 28.2371 23.2833L26.7991 23.7225Z" fill="#BCBCBC" stroke="#BCBCBC" stroke-width="0.1"/>
<path d="M22.6719 18.7203C22.7606 18.7232 22.849 18.7081 22.9318 18.676C23.0148 18.6437 23.0903 18.5949 23.1538 18.5325L23.1539 18.5325L23.3295 17.9144H23.3795C23.3795 17.914 23.3795 17.9135 23.3795 17.9131C23.3793 17.6698 23.3151 17.4688 23.1942 17.326C23.0724 17.1823 22.8973 17.1027 22.6867 17.0962L22.6867 17.0962L22.6862 17.0961C22.5038 17.0924 22.327 17.1592 22.1928 17.2828L22.1925 17.2825L22.1885 17.2873C22.044 17.4582 21.969 17.677 21.9782 17.9005C21.9533 18.1461 22.0181 18.3513 22.1458 18.4958C22.2739 18.6407 22.4612 18.7201 22.6719 18.7203ZM22.6719 18.7203C22.6716 18.7203 22.6713 18.7203 22.671 18.7202L22.6727 18.6703V18.7203C22.6725 18.7203 22.6722 18.7203 22.6719 18.7203Z" fill="#BCBCBC" stroke="#BCBCBC" stroke-width="0.1"/>
<path d="M18.7328 23.2423C18.7326 23.0313 18.6561 22.8586 18.5116 22.7395C18.3686 22.6217 18.1645 22.5611 17.9162 22.5608C17.8047 22.5532 17.6929 22.5679 17.5871 22.6039C17.4808 22.6401 17.3828 22.6971 17.2988 22.7717L17.2987 22.7716L17.2958 22.7747C17.1727 22.9044 17.1054 23.0773 17.1085 23.2561L17.1086 23.2566C17.1114 23.3588 17.1358 23.4593 17.1798 23.5515C17.2239 23.6437 17.2868 23.7256 17.3645 23.7921C17.4422 23.8585 17.5329 23.9079 17.6309 23.9371C17.7276 23.9659 17.8293 23.9744 17.9294 23.962C18.1542 23.9664 18.3727 23.8869 18.5421 23.739L18.5423 23.7392L18.546 23.7352C18.6695 23.6011 18.7364 23.4245 18.7328 23.2423ZM18.7328 23.2423C18.7328 23.2425 18.7328 23.2426 18.7328 23.2428H18.6828L18.7327 23.2418C18.7328 23.242 18.7328 23.2421 18.7328 23.2423Z" fill="#BCBCBC" stroke="#BCBCBC" stroke-width="0.1"/>
<path d="M22.6698 28.237L22.6698 28.2371L23.3297 27.4312H23.3797C23.3797 27.4309 23.3797 27.4305 23.3797 27.4302C23.3796 27.1869 23.3154 26.9827 23.1946 26.8384C23.073 26.6933 22.898 26.6133 22.6869 26.6129C22.5992 26.6076 22.5112 26.6202 22.4285 26.6501C22.3453 26.6801 22.2693 26.727 22.2049 26.7877L22.2049 26.7876L22.2026 26.79C22.1257 26.8729 22.0662 26.9704 22.0277 27.0768C21.9897 27.1818 21.973 27.2932 21.9784 27.4046C21.9663 27.504 21.9744 27.6049 22.0022 27.7011C22.0305 27.7988 22.0784 27.8897 22.1432 27.9681C22.2079 28.0466 22.288 28.1109 22.3786 28.1571C22.4692 28.2034 22.5683 28.2305 22.6698 28.237Z" fill="#BCBCBC" stroke="#BCBCBC" stroke-width="0.1"/>
</svg>
