<svg width="30" height="30" viewBox="0 0 30 30" fill="none" xmlns="http://www.w3.org/2000/svg">
<path d="M6.1028 29.9906C12.6143 30.0031 19.1259 30.0031 25.6374 29.9906C27.6034 29.9906 29.3064 28.6633 29.8323 26.7724C29.8949 26.5595 29.945 26.3467 29.9951 26.1338C29.9951 25.7957 29.9951 25.4701 29.9951 25.132C29.8448 24.6436 29.7572 24.1177 29.5318 23.6669C28.8305 22.2269 27.6284 21.4881 26.0757 21.2126C23.2331 20.7117 20.3906 20.1857 17.5606 19.6723C14.6805 19.1464 11.8004 18.6205 8.93281 18.0945C8.90777 18.0945 8.8702 18.082 8.82011 18.0695C8.82011 15.5776 8.82011 13.0857 8.82011 10.5437C8.92029 10.5437 9.03299 10.5437 9.14569 10.5437C11.6752 10.5437 14.2046 10.5437 16.7341 10.5437C18.2493 10.5437 19.4264 9.35406 19.4014 7.86393C19.3888 6.47396 18.2493 5.29688 16.8594 5.27184C15.7824 5.24679 14.7055 5.27184 13.6412 5.27184C10.8237 5.27184 8.01869 5.27184 5.20121 5.27184C4.97581 5.27184 4.83806 5.20922 4.70032 5.00887C3.72359 3.56882 2.7719 2.11625 1.79517 0.68872C1.60734 0.425754 1.33185 0.225399 1.10645 0C0.956188 0 0.7934 0 0.643134 0C-0.0831525 0.425754 -0.18333 0.86403 0.292513 1.57779C1.30681 3.1055 2.33363 4.6332 3.3354 6.16091C3.43558 6.3237 3.49819 6.53657 3.49819 6.72441C3.51071 10.4685 3.49819 14.2252 3.51071 17.9693C3.51071 18.2072 3.4481 18.3199 3.23522 18.4452C1.28176 19.5471 0.167291 21.2251 0.0170249 23.4666C-0.245941 26.9728 2.57155 29.9781 6.1028 29.9906ZM14.0669 7.02494C14.9435 7.02494 15.795 7.02494 16.6465 7.02494C16.7091 7.02494 16.7842 7.02494 16.8468 7.03746C17.2726 7.10007 17.6107 7.46322 17.6107 7.90149C17.6107 8.33977 17.2851 8.76552 16.8343 8.77804C15.9077 8.80309 14.9935 8.79057 14.0544 8.79057C14.0669 8.1895 14.0669 7.626 14.0669 7.02494ZM7.0044 17.7189C6.42838 17.7189 5.86488 17.7189 5.28886 17.7189C5.28886 14.1626 5.28886 10.6063 5.28886 7.03746C5.86488 7.03746 6.41586 7.03746 7.0044 7.03746C7.0044 10.6063 7.0044 14.1626 7.0044 17.7189ZM8.80759 8.76552C8.80759 8.17698 8.80759 7.61348 8.80759 7.02494C8.89525 7.02494 8.97038 7.02494 9.03299 7.02494C10.1099 7.02494 11.1743 7.02494 12.2762 7.02494C12.2762 7.61348 12.2762 8.1895 12.2762 8.76552C11.1117 8.76552 9.94711 8.76552 8.80759 8.76552ZM22.9576 25.5953C22.9576 24.1553 24.1473 22.9782 25.5873 22.9657C27.0524 22.9657 28.2295 24.1553 28.2295 25.6078C28.2295 27.0479 27.0399 28.2375 25.5998 28.2375C24.1473 28.2375 22.9576 27.0479 22.9576 25.5953ZM10.473 28.225C11.5249 27.1356 12.1385 25.8833 12.2762 24.4057C12.414 22.9281 12.0383 21.5757 11.1868 20.2984C15.0311 20.9997 18.8003 21.6884 22.607 22.3771C21.7806 23.1785 21.3172 24.1177 21.2171 25.2197C21.1169 26.3091 21.4299 27.3109 22.0561 28.225C18.1742 28.225 14.3549 28.225 10.473 28.225ZM1.75761 23.8422C1.75761 21.4254 3.73611 19.4469 6.15289 19.4469C8.58219 19.4469 10.5482 21.4129 10.5482 23.8422C10.5482 26.259 8.56967 28.2375 6.15289 28.2375C3.72359 28.2375 1.74509 26.259 1.75761 23.8422Z" fill="#BCBCBC"/>
<path d="M3.51109 23.8671C3.52361 25.3072 4.71321 26.4842 6.15326 26.4842C7.60584 26.4842 8.79544 25.2821 8.78292 23.8295C8.7704 22.3895 7.58079 21.2124 6.14074 21.2124C4.67565 21.2124 3.49856 22.402 3.51109 23.8671ZM5.26419 23.8546C5.26419 23.3787 5.65238 22.978 6.12822 22.9655C6.60406 22.953 7.00477 23.3537 7.0173 23.817C7.02982 24.3054 6.62911 24.7186 6.14074 24.7186C5.67742 24.7186 5.27671 24.3304 5.26419 23.8546Z" fill="#BCBCBC"/>
<path d="M25.587 24.719C26.0628 24.719 26.4636 25.1197 26.4636 25.583C26.4636 26.0714 26.0628 26.4721 25.5745 26.4721C25.0986 26.4596 24.7104 26.0589 24.7104 25.583C24.723 25.1197 25.1237 24.719 25.587 24.719Z" fill="#BCBCBC"/>
</svg>
