<svg width="24" height="25" viewBox="0 0 24 25" fill="none" xmlns="http://www.w3.org/2000/svg">
<path d="M19.98 15.7101C19.3 15.6301 18.58 15.6501 17.88 15.6601L17.53 15.6701C17.47 15.6701 17.32 15.6701 17.22 15.9401C17.15 16.1201 17.17 16.2901 17.26 16.4201C17.35 16.5501 17.49 16.6201 17.68 16.6201C17.97 16.6201 18.27 16.6201 18.56 16.6201C18.89 16.6201 19.23 16.6201 19.56 16.6201C20.01 16.6301 20.41 16.7901 20.69 17.0801C20.95 17.3501 21.09 17.7201 21.09 18.1101C21.07 18.9501 20.42 19.5601 19.53 19.5601H19.52L18.98 19.5501C15.14 19.4601 11.24 19.4601 7.37 19.5501C6.04 19.5801 4.7 19.6001 3.38 19.6001C2.92 19.6001 2.47 19.5201 2.03 19.4501C1.58 19.3801 1.25 19.1201 1.09 18.7301C0.89 18.2601 0.93 17.7301 1.2 17.3101C1.47 16.8901 1.93 16.6301 2.44 16.6101C3.88 16.5601 4.88 15.5201 4.88 14.0901V12.4401C4.88 11.3801 4.88 10.3201 4.89 9.25011C4.91 7.56011 5.52 6.08011 6.71 4.85011C7.36 4.17011 8.14 3.67011 9.03 3.35011C9.35 3.23011 9.4 3.11011 9.41 2.98011C9.44 2.77011 9.38 2.59011 9.25 2.48011C9.12 2.38011 8.93 2.36011 8.73 2.43011C5.92 3.42011 3.94 6.19011 3.91 9.16011C3.9 10.2501 3.9 11.3501 3.9 12.4401V14.0801C3.9 15.0201 3.31 15.6201 2.37 15.6501C1.59 15.6801 0.97 16.0001 0.48 16.6301C0.23 16.9601 0.1 17.3701 0 17.7601V18.3901C0.02 18.4501 0.03 18.4901 0.04 18.5301C0.27 19.6801 1.26 20.5101 2.39 20.5101C8.15 20.5201 13.91 20.5201 19.66 20.5101C20.89 20.5101 21.96 19.5001 22.04 18.2601C22.13 16.9701 21.22 15.8501 19.98 15.7101Z" fill="#030303"/>
<path d="M12.48 23.4798C12.44 23.2498 12.26 23.0798 12.04 23.0798C11.36 23.0698 10.69 23.0698 10.01 23.0798C9.79998 23.0798 9.61998 23.2498 9.56998 23.4798C9.52998 23.6898 9.64998 23.8998 9.84998 23.9898L9.94998 24.0398L12.19 23.9998C12.39 23.8998 12.51 23.6898 12.48 23.4798Z" fill="#030303"/>
<path d="M17.64 12.71C17.65 12.71 17.65 12.71 17.66 12.71C21.14 12.71 23.98 9.88004 24 6.40004C24.01 4.71004 23.35 3.12004 22.15 1.91004C20.95 0.710039 19.36 0.0400391 17.67 0.0400391H17.66C14.17 0.0400391 11.33 2.87004 11.32 6.36004C11.32 9.85004 14.15 12.7 17.64 12.71ZM17.66 1.00004C19.1 1.00004 20.45 1.56004 21.46 2.58004C22.48 3.60004 23.04 4.95004 23.03 6.39004C23.02 9.35004 20.61 11.75 17.65 11.75C16.22 11.75 14.87 11.19 13.85 10.17C12.83 9.15004 12.27 7.80004 12.27 6.36004C12.29 3.41004 14.7 1.00004 17.66 1.00004Z" fill="#030303"/>
</svg>
