<svg width="24" height="26" viewBox="0 0 24 26" fill="none" xmlns="http://www.w3.org/2000/svg">
<path d="M18.4297 15.806C18.1914 14.8852 18.1914 13.9535 18.1914 13.0543C18.1914 12.8268 18.1914 12.6752 18.1697 12.5452C18.1264 12.3285 17.9206 12.2093 17.6931 12.231C17.4764 12.2527 17.3247 12.4152 17.3139 12.6102V12.9568C17.3031 13.5202 17.2922 14.1052 17.3464 14.6577C17.5631 16.976 18.5597 18.9369 20.3256 20.5077C20.7806 20.9085 20.6831 21.2227 20.5422 21.4177C20.3689 21.6452 20.0547 21.7535 19.8381 21.7535C14.9522 21.7644 10.0555 21.7644 5.16968 21.7644H1.71384C1.5405 21.7644 1.13967 21.7644 0.955503 21.3527C0.771336 20.9194 1.0855 20.6377 1.20467 20.5402C3.20884 18.731 4.22718 16.4777 4.24885 13.8127C4.24885 13.4227 4.24885 13.0218 4.24885 12.6318C4.22718 11.9818 4.22718 11.3427 4.24885 10.7035C4.32468 8.14683 5.51635 6.21849 7.76969 4.97265C8.76636 4.43098 9.87136 4.18182 11.1064 4.24682C11.258 4.25765 11.4314 4.20348 11.5289 4.09515C11.6155 3.99765 11.648 3.86765 11.6155 3.72682C11.5722 3.49932 11.388 3.36931 11.0955 3.36931C10.6622 3.35848 10.2072 3.36931 9.77386 3.42348C5.99302 3.97598 3.34968 7.04182 3.33884 10.866V11.9277C3.33884 12.556 3.33884 13.1952 3.33884 13.8235C3.31718 16.261 2.38551 18.2977 0.554668 19.8902C0.218834 20.1935 0.0346668 20.5619 0.00216667 20.9952C-0.0195001 21.4285 0.121334 21.8402 0.424668 22.1544C0.717169 22.4685 1.118 22.6419 1.55134 22.6419C2.68884 22.6527 3.83718 22.6527 4.97468 22.6419H6.94635L7.08719 23.1077C7.44469 24.4185 8.23553 25.2852 9.4922 25.7619C9.67636 25.8377 9.8822 25.881 10.0772 25.9244L10.3264 26.0002H11.1497C11.2039 25.9785 11.2472 25.9677 11.2905 25.9569C12.9155 25.6644 13.9447 24.7544 14.4214 23.1619C14.5297 22.8152 14.7464 22.6527 15.1147 22.6527C16.7181 22.6635 18.3214 22.6635 19.9247 22.6527C20.6289 22.6527 21.2031 22.2519 21.4306 21.6235C21.6581 20.9952 21.4631 20.3344 20.9214 19.8685C19.6972 18.7852 18.8522 17.431 18.4297 15.806ZM13.4789 23.1402C13.2622 24.191 12.0489 25.0902 10.8355 25.1119C10.8139 25.1119 10.803 25.1119 10.7814 25.1119C9.5247 25.1119 8.33302 24.256 8.05136 23.1402L7.93219 22.6527L13.143 22.6744L13.5222 22.7502L13.4789 23.1402Z" fill="white"/>
<path d="M18.5706 0H18.5597C15.7106 0.0108334 13.3922 2.34001 13.3922 5.18918C13.3922 6.57585 13.9339 7.87586 14.9197 8.86169C15.8947 9.8367 17.1947 10.3675 18.5706 10.3675C18.5814 10.3675 18.5922 10.3675 18.5922 10.3675C21.4414 10.3567 23.7597 8.02752 23.7597 5.17835C23.7597 3.79168 23.2181 2.48084 22.2322 1.50584C21.2572 0.530835 19.9572 0 18.5706 0Z" fill="#4DDA65"/>
</svg>
