<svg width="22" height="22" viewBox="0 0 22 22" fill="none" xmlns="http://www.w3.org/2000/svg">
<path d="M11.0143 22C9.11861 22 7.57677 20.4582 7.57677 18.5625C7.57677 18.183 7.88477 17.875 8.26427 17.875C8.64377 17.875 8.95177 18.183 8.95177 18.5625C8.95177 19.7002 9.87677 20.625 11.0143 20.625C12.1519 20.625 13.0768 19.7002 13.0768 18.5625C13.0768 18.183 13.3848 17.875 13.7643 17.875C14.1438 17.875 14.4518 18.183 14.4518 18.5625C14.4518 20.4582 12.9099 22 11.0143 22V22Z" fill="white"/>
<path d="M18.5768 19.25H3.45177C2.56721 19.25 1.84766 18.5304 1.84766 17.6459C1.84766 17.1764 2.05209 16.732 2.4086 16.4267C3.8029 15.2487 4.59766 13.5365 4.59766 11.7224V9.16661C4.59766 5.6284 7.47606 2.75 11.0143 2.75C14.5526 2.75 17.431 5.6284 17.431 9.16661V11.7224C17.431 13.5365 18.2258 15.2487 19.6109 16.4203C19.9766 16.732 20.181 17.1764 20.181 17.6459C20.181 18.5304 19.4615 19.25 18.5768 19.25ZM11.0143 4.125C8.23405 4.125 5.97266 6.3864 5.97266 9.16661V11.7224C5.97266 13.9415 5.00015 16.0371 3.30524 17.4698C3.27301 17.4973 3.22266 17.5542 3.22266 17.6459C3.22266 17.7704 3.32722 17.875 3.45177 17.875H18.5768C18.7015 17.875 18.806 17.7704 18.806 17.6459C18.806 17.5542 18.7555 17.4973 18.7253 17.4717C17.0285 16.0371 16.056 13.9415 16.056 11.7224V9.16661C16.056 6.3864 13.7946 4.125 11.0143 4.125Z" fill="white"/>
<path d="M11.0143 4.125C10.6348 4.125 10.3268 3.817 10.3268 3.4375V0.6875C10.3268 0.307999 10.6348 0 11.0143 0C11.3938 0 11.7018 0.307999 11.7018 0.6875V3.4375C11.7018 3.817 11.3938 4.125 11.0143 4.125Z" fill="white"/>
</svg>
