<svg width="26" height="26" viewBox="0 0 26 26" fill="none" xmlns="http://www.w3.org/2000/svg">
<g clip-path="url(#clip0_3557_163)">
<path d="M14.625 4.52833C14.326 4.52833 14.0833 4.28567 14.0833 3.98667V2.16667C14.0833 1.56975 13.5969 1.08333 13 1.08333C12.4031 1.08333 11.9167 1.56975 11.9167 2.16667V3.98667C11.9167 4.28567 11.674 4.52833 11.375 4.52833C11.076 4.52833 10.8333 4.28675 10.8333 3.98667V2.16667C10.8333 0.97175 11.8051 0 13 0C14.1949 0 15.1667 0.97175 15.1667 2.16667V3.98667C15.1667 4.28675 14.924 4.52833 14.625 4.52833Z" fill="white"/>
<path d="M13 26.0003C10.9092 26.0003 9.20834 24.2995 9.20834 22.2087C9.20834 21.9097 9.45101 21.667 9.75001 21.667C10.049 21.667 10.2917 21.9097 10.2917 22.2087C10.2917 23.7015 11.5072 24.917 13 24.917C14.4928 24.917 15.7083 23.7015 15.7083 22.2087C15.7083 21.9097 15.951 21.667 16.25 21.667C16.549 21.667 16.7917 21.9097 16.7917 22.2087C16.7917 24.2995 15.0908 26.0003 13 26.0003Z" fill="white"/>
<path d="M22.2083 22.75H3.79166C2.89574 22.75 2.16666 22.0209 2.16666 21.125C2.16666 20.6494 2.37357 20.1998 2.73541 19.89C4.44274 18.447 5.41666 16.3475 5.41666 14.1245V10.8333C5.41666 6.65167 8.81832 3.25 13 3.25C17.1817 3.25 20.5833 6.65167 20.5833 10.8333V14.1245C20.5833 16.3486 21.5572 18.447 23.2559 19.8824C23.6264 20.1998 23.8333 20.6494 23.8333 21.125C23.8333 22.0209 23.1053 22.75 22.2083 22.75ZM13 4.33333C9.41524 4.33333 6.49999 7.24858 6.49999 10.8333V14.1245C6.49999 16.6682 5.38632 19.0678 3.44391 20.7101C3.31932 20.8163 3.24999 20.9668 3.24999 21.125C3.24999 21.424 3.49266 21.6667 3.79166 21.6667H22.2083C22.5073 21.6667 22.75 21.424 22.75 21.125C22.75 20.9668 22.6807 20.8163 22.5604 20.7133C20.6147 19.0678 19.5 16.6671 19.5 14.1245V10.8333C19.5 7.24858 16.5847 4.33333 13 4.33333Z" fill="white"/>
</g>
<defs>
<clipPath id="clip0_3557_163">
<rect width="26" height="26" fill="white"/>
</clipPath>
</defs>
</svg>
