<svg width="12" height="16" viewBox="0 0 12 16" fill="none" xmlns="http://www.w3.org/2000/svg">
<path d="M3.06484 7.25476C3.0086 7.19853 2.93363 7.17041 2.85865 7.17041C2.78367 7.17041 2.70401 7.20321 2.65246 7.25476C2.59623 7.31099 2.56812 7.38597 2.56812 7.46094C2.56812 7.53592 2.60092 7.61558 2.65246 7.66713C2.7087 7.72336 2.78367 7.75148 2.85865 7.75148C2.93363 7.75148 3.01329 7.71868 3.06484 7.66713C3.12107 7.6109 3.14918 7.53592 3.14918 7.46094C3.14918 7.38597 3.12107 7.31099 3.06484 7.25476Z" fill="#0062D4"/>
<path d="M3.06484 9.36352C3.0086 9.30729 2.93363 9.27917 2.85865 9.27917C2.78367 9.27917 2.70401 9.31198 2.65246 9.36352C2.59623 9.41976 2.56812 9.49473 2.56812 9.56971C2.56812 9.64469 2.60092 9.72435 2.65246 9.77589C2.7087 9.83213 2.78367 9.86024 2.85865 9.86024C2.93363 9.86024 3.01329 9.82744 3.06484 9.77589C3.12107 9.71966 3.14918 9.64469 3.14918 9.56971C3.14918 9.49473 3.12107 9.41976 3.06484 9.36352Z" fill="#0062D4"/>
<path d="M3.06484 11.4722C3.0086 11.416 2.93363 11.3879 2.85865 11.3879C2.78367 11.3879 2.70401 11.4207 2.65246 11.4722C2.59623 11.5285 2.56812 11.6034 2.56812 11.6784C2.56812 11.7534 2.60092 11.8331 2.65246 11.8846C2.7087 11.9408 2.78367 11.9689 2.85865 11.9689C2.93363 11.9689 3.01329 11.9361 3.06484 11.8846C3.12107 11.8284 3.14918 11.7534 3.14918 11.6784C3.14918 11.6034 3.12107 11.5285 3.06484 11.4722Z" fill="#0062D4"/>
<path d="M8.68325 7.17041H4.13311C3.9691 7.17041 3.83789 7.30162 3.83789 7.46563C3.83789 7.62964 3.9691 7.76085 4.13311 7.76085H8.68325C8.84726 7.76085 8.97847 7.62964 8.97847 7.46563C8.97379 7.30162 8.84258 7.17041 8.68325 7.17041Z" fill="#0062D4"/>
<path d="M8.68325 9.27917H4.13311C3.9691 9.27917 3.83789 9.41038 3.83789 9.57439C3.83789 9.73841 3.9691 9.86962 4.13311 9.86962H8.68325C8.84726 9.86962 8.97847 9.73841 8.97847 9.57439C8.97379 9.41038 8.84258 9.27917 8.68325 9.27917Z" fill="#0062D4"/>
<path d="M8.68325 11.3879H4.13311C3.9691 11.3879 3.83789 11.5191 3.83789 11.6831C3.83789 11.8471 3.9691 11.9783 4.13311 11.9783H8.68325C8.84726 11.9783 8.97847 11.8471 8.97847 11.6831C8.97847 11.5191 8.84258 11.3879 8.68325 11.3879Z" fill="#0062D4"/>
<path d="M11.2465 5.92394C11.2465 5.91456 11.2465 5.90988 11.2465 5.90988C11.2418 5.84427 11.2137 5.78336 11.1621 5.73181L8.11621 2.68589C8.05998 2.62965 7.98969 2.60154 7.9194 2.59685C7.91471 2.59685 7.91003 2.59685 7.90534 2.59685H5.91846V2.07202C5.91846 0.937994 5 0.0195312 3.86598 0.0195312C2.73196 0.0195312 1.81818 0.937994 1.81818 2.07202V2.59685H1.17151C0.524836 2.59685 0 3.12169 0 3.76836V13.848C0 14.4947 0.524836 15.0195 1.17151 15.0195H10.075C10.7217 15.0195 11.2465 14.4947 11.2465 13.848V5.93799C11.2465 5.93331 11.2465 5.92862 11.2465 5.92394ZM8.20056 3.59966L10.2484 5.64746H8.85661C8.4911 5.64746 8.19588 5.35224 8.19588 4.98673L8.20056 3.59966ZM3.86598 0.605286C4.67198 0.605286 5.33271 1.26133 5.33271 2.07202V4.75243C5.33271 5.24446 4.9344 5.64277 4.44236 5.64277C3.95033 5.64277 3.55202 5.24446 3.55202 4.75243V2.04858C3.55202 1.8752 3.6926 1.73462 3.86598 1.73462C4.03936 1.73462 4.17994 1.8752 4.17994 2.04858V4.71494C4.17994 4.87895 4.31115 5.01016 4.47516 5.01016C4.63918 5.01016 4.77038 4.87895 4.77038 4.71494V2.04858C4.77038 1.55186 4.36739 1.14887 3.87067 1.14887C3.37395 1.14887 2.97095 1.55186 2.97095 2.04858V2.59685H2.40394V2.07202C2.40394 1.26133 3.05998 0.605286 3.86598 0.605286ZM10.6607 13.848C10.6607 14.1714 10.3983 14.4338 10.075 14.4338H1.17151C0.848172 14.4338 0.585754 14.1714 0.585754 13.848V3.76836C0.585754 3.44502 0.848172 3.18261 1.17151 3.18261H2.96157V4.75243C2.96157 5.5678 3.62231 6.22853 4.43768 6.22853C5.25305 6.22853 5.91378 5.5678 5.91378 4.75243V3.18261H7.61012V4.98673C7.61012 5.67558 8.16776 6.23321 8.85661 6.23321H10.6607V13.848Z" fill="#0062D4"/>
</svg>
