<svg width="20" height="20" viewBox="0 0 20 20" fill="none" xmlns="http://www.w3.org/2000/svg">
<path d="M14.4797 17.1477C14.3547 17.1977 14.238 17.2727 14.113 17.3393C12.438 18.2727 10.6547 18.6143 8.76303 18.331C6.29637 17.9643 4.34637 16.7143 2.96303 14.6477C1.5797 12.581 1.21303 10.2977 1.82137 7.88098C2.32137 5.89765 3.4297 4.30599 5.09637 3.13932C7.39637 1.51432 9.91303 1.16432 12.5964 1.98099C13.388 2.22265 14.1047 2.61432 14.7964 3.06432C15.1797 3.30599 15.6464 3.18932 15.8714 2.83099C16.1047 2.46432 16.0047 2.00599 15.6214 1.75599C13.1464 0.114319 10.4547 -0.394014 7.5797 0.305986C2.7297 1.48932 -0.836965 6.23099 0.171368 11.8893C0.529701 13.881 1.4547 15.5893 2.87137 17.0227C4.36303 18.531 6.16303 19.481 8.2547 19.8393C8.6297 19.906 9.01303 19.9393 9.38803 19.9893C9.7797 19.9893 10.1714 19.9893 10.563 19.9893C10.613 19.981 10.663 19.9643 10.713 19.956C11.7964 19.881 12.8464 19.631 13.8464 19.1977C14.2964 19.006 14.738 18.7727 15.163 18.5227C15.5214 18.3143 15.6214 17.8727 15.438 17.5143C15.2714 17.1643 14.8464 16.9977 14.4797 17.1477Z" fill="#4DDA65"/>
<path d="M9.61315 12.0058C8.31315 10.7725 7.00482 9.53083 5.70482 8.2975C5.33815 7.9475 4.87148 7.93917 4.55482 8.26417C4.23815 8.58917 4.25482 9.0725 4.61315 9.40583C5.95482 10.6808 7.29648 11.9475 8.63815 13.2225C9.04648 13.6058 9.52982 13.7975 10.1798 13.8058C10.7132 13.7808 11.2382 13.5308 11.6382 13.0308C14.3382 9.6725 17.0382 6.30583 19.7465 2.9475C19.7965 2.88083 19.8548 2.81417 19.8965 2.73917C20.0548 2.46417 20.0215 2.13083 19.8298 1.88083C19.6382 1.63917 19.3131 1.53917 19.0048 1.61417C18.7381 1.68083 18.5882 1.88917 18.4298 2.08917C15.7882 5.3725 13.1465 8.65583 10.5048 11.9392C10.1965 12.3308 9.96315 12.3392 9.61315 12.0058Z" fill="#4DDA65"/>
<path d="M19.6713 7.50601C19.5963 7.19768 19.3963 6.99768 19.0797 6.92268C18.788 6.85601 18.538 6.94768 18.338 7.16435C18.1297 7.38935 18.1047 7.66435 18.1797 7.94768C18.5047 9.28935 18.513 10.6227 18.188 11.9643C17.9547 12.931 17.538 13.8227 17.0047 14.6643C16.7547 15.056 16.863 15.5227 17.213 15.7477C17.6047 15.9977 18.063 15.8893 18.3297 15.4727C19.388 13.8393 19.9463 12.056 19.988 9.89768C19.988 9.23101 19.888 8.35601 19.6713 7.50601Z" fill="#4DDA65"/>
</svg>
