<svg width="20" height="21" viewBox="0 0 20 21" fill="none" xmlns="http://www.w3.org/2000/svg">
<path d="M20 9.43106C20 9.82402 20 10.217 20 10.6016C19.9916 10.6685 19.9749 10.7437 19.9666 10.8106C19.9081 11.2454 19.8664 11.6801 19.7745 12.1065C19.2485 14.5145 18.021 16.4793 16.0587 17.9675C13.6287 19.8153 10.8815 20.4256 7.8921 19.7985C5.50393 19.2969 3.55831 18.0428 2.07196 16.1114C0.468712 14.0212 -0.19931 11.6383 0.051198 9.02138C0.259955 6.89772 1.07828 5.02488 2.48948 3.4196C4.03428 1.66381 5.97154 0.568539 8.27622 0.158857C8.65198 0.0919696 9.03609 0.0501652 9.41185 0C9.80432 0 10.1968 0 10.5809 0C10.631 0.00836087 10.6811 0.0250826 10.7312 0.0334435C12.2927 0.142135 13.7623 0.593622 15.0984 1.41299C17.687 3.00155 19.2819 5.29243 19.8413 8.29398C19.9165 8.67022 19.9499 9.05482 20 9.43106ZM9.99637 1.56348C5.33692 1.56348 1.55425 5.35096 1.5459 10.0163C1.53755 14.6817 5.32022 18.4692 9.97967 18.4775C14.6391 18.4942 18.4468 14.6817 18.4385 10.0163C18.4385 5.35096 14.6558 1.56348 9.99637 1.56348Z" fill="#4DDA65"/>
<path d="M9.21942 10.7275C8.39274 10.7275 7.59111 10.7275 6.78949 10.7275C6.55568 10.7275 6.32187 10.7359 6.08806 10.7275C5.6789 10.7108 5.36994 10.3847 5.35324 9.98339C5.33654 9.59043 5.62045 9.25599 6.02126 9.19746C6.11311 9.18074 6.20497 9.18074 6.29682 9.18074C7.1903 9.18074 8.08378 9.18074 8.96891 9.18074C9.04406 9.18074 9.11921 9.18074 9.21942 9.18074C9.21942 9.09713 9.21942 9.02189 9.21942 8.955C9.21942 8.02694 9.21942 7.09053 9.21942 6.16247C9.21942 5.74443 9.43652 5.44343 9.77888 5.3431C10.2966 5.20097 10.7642 5.56885 10.7726 6.13739C10.7809 7.06544 10.7726 7.98514 10.7726 8.91319C10.7726 8.9968 10.7726 9.08041 10.7726 9.18074C10.8728 9.18074 10.9479 9.18074 11.0231 9.18074C11.9416 9.18074 12.8601 9.18074 13.7787 9.18074C14.1962 9.18074 14.4801 9.36468 14.597 9.69076C14.7807 10.2008 14.4133 10.7275 13.8538 10.7275C12.9269 10.7359 12.0084 10.7275 11.0815 10.7275C10.9897 10.7275 10.8978 10.7275 10.7726 10.7275C10.7726 10.8028 10.7726 10.8696 10.7726 10.9365C10.7726 11.8813 10.7726 12.8261 10.7726 13.7709C10.7726 14.2391 10.4636 14.5819 10.0377 14.5986C9.56178 14.6153 9.21942 14.2725 9.21942 13.7541C9.21942 12.8261 9.21942 11.8897 9.21942 10.9616C9.21942 10.8947 9.21942 10.8195 9.21942 10.7275Z" fill="#4DDA65"/>
</svg>
