<svg width="25" height="25" viewBox="0 0 25 25" fill="none" xmlns="http://www.w3.org/2000/svg">
<path d="M10.468 14.5135C8.31229 14.5135 6.22193 14.5135 4.13157 14.5135C3.52189 14.5135 2.9122 14.5353 2.30251 14.5135C1.23556 14.4698 0.429896 13.619 0.386346 12.5719C0.342797 11.5466 1.08313 10.674 2.12831 10.5213C2.36783 10.4777 2.60735 10.4777 2.84687 10.4777C5.17675 10.4777 7.50663 10.4777 9.81474 10.4777C10.0107 10.4777 10.2067 10.4777 10.468 10.4777C10.468 10.2595 10.468 10.0632 10.468 9.88865C10.468 7.46716 10.468 5.02386 10.468 2.60238C10.468 1.51162 11.0341 0.726276 11.9269 0.464494C13.2769 0.0936364 14.4963 1.0535 14.518 2.53693C14.5398 4.95842 14.518 7.35809 14.518 9.77957C14.518 9.99772 14.518 10.2159 14.518 10.4777C14.7793 10.4777 14.9753 10.4777 15.1713 10.4777C17.5665 10.4777 19.9617 10.4777 22.3569 10.4777C23.4456 10.4777 24.186 10.9576 24.4908 11.8084C24.9698 13.1391 24.0118 14.5135 22.5529 14.5135C20.1359 14.5353 17.7407 14.5135 15.3237 14.5135C15.0842 14.5135 14.8447 14.5135 14.518 14.5135C14.518 14.7098 14.518 14.8843 14.518 15.0588C14.518 17.524 14.518 19.9891 14.518 22.4542C14.518 23.6758 13.7124 24.5703 12.6019 24.6139C11.3607 24.6575 10.468 23.7631 10.468 22.4106C10.468 19.9891 10.468 17.5458 10.468 15.1243C10.468 14.9498 10.468 14.7534 10.468 14.5135Z" fill="#030303"/>
</svg>
