<svg width="35" height="35" viewBox="0 0 35 35" fill="none" xmlns="http://www.w3.org/2000/svg">
<mask id="mask0_595_169" style="mask-type:alpha" maskUnits="userSpaceOnUse" x="0" y="0" width="35" height="35">
<circle cx="17.5" cy="17.5" r="17.5" fill="#C4C4C4"/>
</mask>
<g mask="url(#mask0_595_169)">
<rect width="35" height="35" transform="matrix(1 0 0 -1 0 35)" fill="#F8F8F8"/>
</g>
<path fill-rule="evenodd" clip-rule="evenodd" d="M19.1998 12.0008C19.1998 11.338 18.6625 10.8008 17.9998 10.8008C17.3371 10.8008 16.7998 11.338 16.7998 12.0008V16.8008H11.9998C11.3371 16.8008 10.7998 17.338 10.7998 18.0008C10.7998 18.6635 11.3371 19.2008 11.9998 19.2008H16.7998V24.0008C16.7998 24.6635 17.3371 25.2008 17.9998 25.2008C18.6625 25.2008 19.1998 24.6635 19.1998 24.0008V19.2008H23.9998C24.6625 19.2008 25.1998 18.6635 25.1998 18.0008C25.1998 17.338 24.6625 16.8008 23.9998 16.8008H19.1998V12.0008Z" fill="#3F434A"/>
</svg>
