<svg width="20" height="25" viewBox="0 0 20 25" fill="none" xmlns="http://www.w3.org/2000/svg">
<path d="M18.7995 3.14273H16.4291V0.792798C16.4291 0.230857 16.2759 0.0775999 15.7241 0.0775999H12.567C8.62324 0.0775999 4.67944 0.0775999 0.735632 0.0673828C0.347382 0.0673828 0.14304 0.169554 0 0.435199V20.6446C0.14304 20.9205 0.378033 21.0329 0.756066 21.0125C1.02171 21.0022 1.29757 21.0022 1.57344 21.0022C1.77778 21.0022 1.98212 21.0022 2.18646 21.0022H3.07535V22.5042C3.07535 22.8413 3.07535 23.1683 3.07535 23.5054C3.07535 23.8733 3.27969 24.0674 3.64751 24.0776H18.7995C19.341 24.0776 19.4943 23.9243 19.4943 23.3828V3.8375C19.4943 3.29599 19.341 3.14273 18.7995 3.14273ZM1.03193 19.9703V1.09931H15.4074V19.9703H1.03193ZM18.4725 23.0457H4.08685V21.0022H15.7446C16.2861 21.0022 16.4393 20.849 16.4393 20.2973V4.17466H18.4725V23.0457Z" fill="#030303" fill-opacity="0.5"/>
<path d="M7.92845 11.7254C8.12258 11.8378 8.29627 11.8276 8.51083 11.7254C9.27711 11.3269 9.93101 10.7854 10.4419 10.1418C11.3921 8.94635 11.8416 7.56704 11.7803 6.03447V5.72796C11.7803 5.54405 11.7803 5.38058 11.7803 5.2171C11.7701 4.8595 11.576 4.66538 11.2184 4.66538C10.9527 4.66538 10.6871 4.66538 10.4214 4.66538H9.84927C9.18516 4.66538 8.78669 4.29756 8.72539 3.63345C8.69473 3.33715 8.49039 3.13281 8.21453 3.13281C7.93867 3.13281 7.73433 3.33715 7.71389 3.63345C7.65259 4.30778 7.25412 4.66538 6.59001 4.6756H5.99742C5.88503 4.6756 5.76242 4.6756 5.65004 4.6756C5.49678 4.6756 5.35374 4.6756 5.20048 4.6756C4.84288 4.6756 4.63854 4.87994 4.63854 5.22732V5.5134C4.63854 5.84035 4.62832 6.1673 4.64876 6.48403C4.77136 8.82374 5.87481 10.5811 7.92845 11.7254ZM5.67047 5.66666L5.9259 5.67687C6.80457 5.70752 7.46868 5.69731 8.03062 5.1558L8.20431 4.98211L8.38822 5.14558C8.93995 5.65644 9.58362 5.71774 10.5338 5.65644L10.8403 5.63601L10.8097 5.94252C10.7892 6.09578 10.779 6.24903 10.7688 6.40229C10.7484 6.72924 10.7177 7.0664 10.6564 7.40357C10.3908 8.67049 9.69601 9.71263 8.59256 10.4994C8.46996 10.5913 8.34735 10.6322 8.22475 10.6322C8.10214 10.6322 7.97954 10.5811 7.84671 10.4891C6.31415 9.40612 5.59895 7.9042 5.66025 5.9323L5.67047 5.66666Z" fill="#030303" fill-opacity="0.5"/>
<path d="M12.7714 13.8604H8.30655C8.11242 13.8604 7.94895 13.9217 7.83656 14.0238C7.75482 14.1158 7.70374 14.2282 7.70374 14.3712C7.70374 14.6777 7.93873 14.8718 8.28611 14.8718H12.751C13.0473 14.8718 13.3538 14.739 13.364 14.3712C13.364 14.2384 13.3231 14.1158 13.2312 14.034C13.129 13.9217 12.9655 13.8604 12.7714 13.8604Z" fill="#030303" fill-opacity="0.5"/>
<path d="M8.13281 16.9258C6.64111 16.9258 5.1392 16.9258 3.6475 16.9258C3.30012 16.9258 3.06512 17.1301 3.06512 17.4264C3.06512 17.5592 3.10599 17.6818 3.19795 17.7738C3.30012 17.876 3.47381 17.9373 3.66793 17.9373H5.88505H6.52873C7.07023 17.9373 7.61174 17.9373 8.14303 17.9373C8.32694 17.9373 8.48019 17.876 8.58237 17.7738C8.67432 17.6818 8.71519 17.5695 8.71519 17.4264C8.71519 17.1301 8.49041 16.9258 8.13281 16.9258Z" fill="#030303" fill-opacity="0.5"/>
<path d="M3.57598 14.8718C3.75989 14.8718 3.93358 14.8718 4.11749 14.8718H4.3627H4.59769C4.77138 14.8718 4.94507 14.8718 5.11876 14.8718C5.42528 14.8616 5.65005 14.6573 5.65005 14.3712C5.65005 14.0851 5.42528 13.8706 5.12898 13.8604C4.87355 13.8604 4.61813 13.8604 4.35248 13.8604C4.08684 13.8604 3.84163 13.8604 3.57598 13.8604C3.2899 13.8706 3.06512 14.0851 3.06512 14.3712C3.06512 14.6471 3.2899 14.8616 3.57598 14.8718Z" fill="#030303" fill-opacity="0.5"/>
<path d="M12.8634 16.9256C12.3423 16.9154 11.811 16.9154 11.2899 16.9256C11.0039 16.9256 10.7791 17.1402 10.7689 17.4161C10.7689 17.7021 10.9834 17.9167 11.2899 17.9269C11.4636 17.9269 11.6373 17.9269 11.8008 17.9269H12.046H12.3014C12.4853 17.9269 12.6692 17.9269 12.8532 17.9269C13.1392 17.9167 13.364 17.7021 13.364 17.4263C13.364 17.1606 13.1494 16.9358 12.8634 16.9256Z" fill="#030303" fill-opacity="0.5"/>
</svg>
