<svg width="20" height="25" viewBox="0 0 20 25" fill="none" xmlns="http://www.w3.org/2000/svg">
<path d="M19.8468 18.1498C19.6968 16.5898 19.3468 15.3498 18.7568 14.2698C18.0068 12.8898 16.9268 12.1098 15.4668 11.8998C14.8568 11.8098 14.4168 11.8998 14.0268 12.1798C13.7968 12.3498 13.5468 12.4998 13.3068 12.6498L13.1668 12.7398C11.0468 14.0498 8.90684 14.0498 6.78684 12.7398C6.66684 12.6598 6.54684 12.5798 6.41684 12.5098L6.35684 12.4698C6.15684 12.3398 5.94684 12.2098 5.73684 12.0898C5.53684 11.9798 5.30684 11.8698 5.11684 11.8698C4.37684 11.8598 3.65684 12.0298 3.00684 12.3798C2.04684 12.8898 1.36684 13.7298 0.846836 14.9998C0.196836 16.5898 -0.0731639 18.3598 0.0168361 20.4298C0.0868361 22.1398 1.08684 23.3898 2.74684 23.8798C2.92684 23.9298 3.11684 23.9698 3.30684 24.0098L3.57684 24.0398H16.3668H16.3768C16.4368 24.0198 16.4768 24.0098 16.5268 23.9998C18.5368 23.7798 19.9068 22.2798 19.9368 20.2698C19.9468 19.5798 19.9168 18.8598 19.8468 18.1498ZM13.6468 23.0698C13.1568 23.0698 12.6668 23.0698 12.1768 23.0698H10.2468H4.14684C3.38684 23.0698 2.80684 22.9298 2.30684 22.6398C1.46684 22.1398 1.01684 21.3498 0.986836 20.3498C0.936836 18.3998 1.16684 16.8398 1.70684 15.4498C1.97684 14.7498 2.32684 14.1998 2.77684 13.7398C3.33684 13.1798 4.06684 12.8698 4.94684 12.8298C5.08684 12.8298 5.21684 12.8898 5.32684 12.9598C5.50684 13.0698 5.68684 13.1798 5.85684 13.2898L5.87684 13.2998C6.23684 13.5298 6.56684 13.7498 6.92684 13.9298C9.21684 15.0498 11.4968 14.9198 13.7168 13.5298L14.0768 13.2998C14.2568 13.1798 14.4368 13.0598 14.6268 12.9598C14.7668 12.8798 14.9368 12.8298 15.0868 12.8498C16.3068 12.9198 17.2668 13.5698 17.9168 14.7798C18.4068 15.6898 18.6968 16.7198 18.8568 18.1298C18.9168 18.6998 18.9568 19.3098 18.9568 20.0598C18.9768 21.8598 17.8268 23.0398 16.0268 23.0598C15.3368 23.0698 14.5668 23.0698 13.6468 23.0698Z" fill="#030303" fill-opacity="0.5"/>
<path d="M9.82681 11.36C12.9568 11.33 15.4868 8.79004 15.4768 5.69004C15.4768 2.58004 12.9368 0.0400391 9.81681 0.0400391C8.29681 0.0400391 6.87681 0.630039 5.80681 1.71004C4.73681 2.78004 4.15681 4.21004 4.16681 5.72004C4.16681 7.24004 4.76681 8.67004 5.85681 9.74004C6.90681 10.78 8.27681 11.34 9.82681 11.36ZM5.12681 5.70004C5.12681 4.44004 5.61681 3.26004 6.49681 2.38004C7.37681 1.50004 8.55682 1.01004 9.81681 1.01004C11.0768 1.01004 12.2568 1.50004 13.1368 2.38004C14.0168 3.26004 14.5068 4.44004 14.5068 5.70004C14.5068 8.29004 12.3968 10.39 9.81681 10.39C7.23681 10.39 5.12681 8.28004 5.12681 5.70004Z" fill="#030303" fill-opacity="0.5"/>
</svg>
