<svg width="22" height="22" viewBox="0 0 22 22" fill="none" xmlns="http://www.w3.org/2000/svg">
<path d="M1 10.7434C1 6.87536 1 4.94136 2.17159 3.73972C3.34319 2.53809 5.22884 2.53809 9.00015 2.53809H13.0002C16.7715 2.53809 18.6572 2.53809 19.8288 3.73972C21.0004 4.94136 21.0004 6.87536 21.0004 10.7434V12.7947C21.0004 16.6627 21.0004 18.5967 19.8288 19.7983C18.6572 21 16.7715 21 13.0002 21H9.00015C5.22884 21 3.34319 21 2.17159 19.7983C1 18.5967 1 16.6627 1 12.7947V10.7434Z" stroke="#BCBCBC" stroke-width="1.5"/>
<path d="M6 2.53849V1" stroke="#BCBCBC" stroke-width="1.5" stroke-linecap="round"/>
<path d="M16.0002 2.53849V1" stroke="#BCBCBC" stroke-width="1.5" stroke-linecap="round"/>
<path d="M1.49976 7.66675H20.5001" stroke="#BCBCBC" stroke-width="1.5" stroke-linecap="round"/>
<path d="M17 15.8712C17 16.4377 16.5523 16.8969 16 16.8969C15.4477 16.8969 15 16.4377 15 15.8712C15 15.3048 15.4477 14.8456 16 14.8456C16.5523 14.8456 17 15.3048 17 15.8712Z" fill="#BCBCBC"/>
<path d="M17 11.7686C17 12.335 16.5523 12.7942 16 12.7942C15.4477 12.7942 15 12.335 15 11.7686C15 11.2021 15.4477 10.7429 16 10.7429C16.5523 10.7429 17 11.2021 17 11.7686Z" fill="#BCBCBC"/>
<path d="M12 15.8712C12 16.4377 11.5523 16.8969 11 16.8969C10.4477 16.8969 10 16.4377 10 15.8712C10 15.3048 10.4477 14.8456 11 14.8456C11.5523 14.8456 12 15.3048 12 15.8712Z" fill="#BCBCBC"/>
<path d="M12 11.7686C12 12.335 11.5523 12.7942 11 12.7942C10.4477 12.7942 10 12.335 10 11.7686C10 11.2021 10.4477 10.7429 11 10.7429C11.5523 10.7429 12 11.2021 12 11.7686Z" fill="#BCBCBC"/>
<path d="M7.00004 15.8712C7.00004 16.4377 6.55231 16.8969 6.00002 16.8969C5.44772 16.8969 5 16.4377 5 15.8712C5 15.3048 5.44772 14.8456 6.00002 14.8456C6.55231 14.8456 7.00004 15.3048 7.00004 15.8712Z" fill="#BCBCBC"/>
<path d="M7.00004 11.7686C7.00004 12.335 6.55231 12.7942 6.00002 12.7942C5.44772 12.7942 5 12.335 5 11.7686C5 11.2021 5.44772 10.7429 6.00002 10.7429C6.55231 10.7429 7.00004 11.2021 7.00004 11.7686Z" fill="#BCBCBC"/>
</svg>
