<svg width="19" height="24" viewBox="0 0 19 24" fill="none" xmlns="http://www.w3.org/2000/svg">
<path d="M16.6071 9.13393C16.6071 7.15191 15.8198 5.25107 14.4183 3.84957C13.0168 2.44807 11.1159 1.66071 9.13393 1.66071C7.15191 1.66071 5.25107 2.44807 3.84957 3.84957C2.44807 5.25107 1.66071 7.15191 1.66071 9.13393C1.66071 12.1996 4.11359 16.1953 9.13393 20.9815C14.1543 16.1953 16.6071 12.1996 16.6071 9.13393ZM9.13393 23.25C3.04409 17.7148 0 13.0084 0 9.13393C0 6.71146 0.962322 4.38821 2.67527 2.67527C4.38821 0.962322 6.71146 0 9.13393 0C11.5564 0 13.8796 0.962322 15.5926 2.67527C17.3055 4.38821 18.2679 6.71146 18.2679 9.13393C18.2679 13.0084 15.2238 17.7148 9.13393 23.25Z" fill="#BCBCBC"/>
<path d="M9.1875 10.725C9.69473 10.725 10.1812 10.5235 10.5398 10.1648C10.8985 9.80618 11.1 9.31973 11.1 8.8125C11.1 8.30527 10.8985 7.81882 10.5398 7.46016C10.1812 7.10149 9.69473 6.9 9.1875 6.9C8.68027 6.9 8.19382 7.10149 7.83516 7.46016C7.47649 7.81882 7.275 8.30527 7.275 8.8125C7.275 9.31973 7.47649 9.80618 7.83516 10.1648C8.19382 10.5235 8.68027 10.725 9.1875 10.725ZM9.1875 12C8.34212 12 7.53137 11.6642 6.9336 11.0664C6.33582 10.4686 6 9.65788 6 8.8125C6 7.96712 6.33582 7.15637 6.9336 6.5586C7.53137 5.96082 8.34212 5.625 9.1875 5.625C10.0329 5.625 10.8436 5.96082 11.4414 6.5586C12.0392 7.15637 12.375 7.96712 12.375 8.8125C12.375 9.65788 12.0392 10.4686 11.4414 11.0664C10.8436 11.6642 10.0329 12 9.1875 12Z" fill="#BCBCBC"/>
</svg>
