<svg width="22" height="20" viewBox="0 0 22 20" fill="none" xmlns="http://www.w3.org/2000/svg">
<path fill-rule="evenodd" clip-rule="evenodd" d="M1 4.28561V15.7142C1 16.4719 1.30102 17.1987 1.83684 17.7345C2.37266 18.2703 3.09938 18.5713 3.85714 18.5713H18.1429C18.9006 18.5713 19.6273 18.2703 20.1632 17.7345C20.699 17.1987 21 16.4719 21 15.7142V4.28561C21 3.52785 20.699 2.80112 20.1632 2.2653C19.6273 1.72949 18.9006 1.42847 18.1429 1.42847H3.85714C3.09938 1.42847 2.37266 1.72949 1.83684 2.2653C1.30102 2.80112 1 3.52785 1 4.28561Z" stroke="#BCBCBC" stroke-width="1.5" stroke-linecap="round" stroke-linejoin="round"/>
<path d="M3.85718 5.71411L11 9.99983L18.1429 5.71411" stroke="#BCBCBC" stroke-width="1.5" stroke-linecap="round" stroke-linejoin="round"/>
</svg>
