<svg width="22" height="22" viewBox="0 0 22 22" fill="none" xmlns="http://www.w3.org/2000/svg">
<path d="M15.9408 11.1211C17.0413 11.1209 18.1117 10.762 18.9899 10.0987C19.8681 9.43549 20.5061 8.50404 20.8073 7.44556C21.1085 6.38708 21.0564 5.25927 20.659 4.23304C20.2616 3.20681 19.5405 2.33811 18.6049 1.75857C17.6694 1.17903 16.5704 0.920249 15.4746 1.02145C14.3788 1.12265 13.3458 1.57831 12.5322 2.31937C11.7186 3.06044 11.1688 4.04652 10.966 5.12817C10.7633 6.20983 10.9186 7.3281 11.4086 8.31352C11.5012 8.49244 11.5253 8.69903 11.4764 8.89447L11.1748 10.021C11.1449 10.1325 11.1449 10.2499 11.1748 10.3614C11.2047 10.473 11.2634 10.5746 11.3451 10.6563C11.4267 10.7379 11.5284 10.7967 11.6399 10.8265C11.7515 10.8564 11.8689 10.8565 11.9804 10.8266L13.1069 10.525C13.3023 10.4761 13.5089 10.5002 13.6879 10.5928C14.3877 10.9412 15.159 11.1221 15.9408 11.1211Z" stroke="#030303" stroke-width="1.5"/>
<path d="M13.4672 14.7109L14.0177 15.2341L13.4672 14.7119V14.7109ZM16.9549 20.487L16.4033 19.9637L16.9539 20.487H16.9549ZM15.6128 21.2056L15.6877 21.9596L15.6128 21.2046V21.2056ZM13.5572 15.7189L14.0177 15.2341L12.9166 14.1876L12.4561 14.6744L13.5572 15.7189ZM15.5349 15.0287L17.468 16.143L18.2251 14.8262L16.292 13.7129L15.5349 15.0287ZM17.8415 18.4496L16.4043 19.9627L17.5045 21.0092L18.9417 19.4961L17.8415 18.4496ZM15.5389 20.4485C14.0866 20.5912 10.2962 20.4698 6.18299 16.14L5.08282 17.1845C9.56546 21.9039 13.8416 22.1428 15.6877 21.9596L15.5389 20.4485ZM6.18299 16.14C2.26005 12.0095 1.60217 8.52484 1.52019 6.99655L0.00404971 7.07854C0.105261 8.95094 0.898756 12.7798 5.08282 17.1845L6.18299 16.14ZM7.57565 9.42157L7.86512 9.11592L6.76495 8.0704L6.47448 8.37606L7.57565 9.42157ZM8.09385 5.31038L6.81758 3.5068L5.57775 4.38328L6.85301 6.18788L8.09385 5.31139V5.31038ZM2.49688 3.11612L0.909889 4.79015L2.01107 5.83566L3.60008 4.16264L2.4989 3.11713L2.49688 3.11612ZM7.02506 8.89831C6.84291 8.72277 6.65903 8.54901 6.47346 8.37707L6.47144 8.3791L6.4684 8.38213C6.45063 8.40091 6.43375 8.42049 6.4178 8.44084C6.31859 8.57216 6.24008 8.71791 6.18501 8.87301C6.08583 9.15134 6.0332 9.51975 6.09999 9.97925C6.23157 10.882 6.82365 12.0956 8.36915 13.7241L9.47032 12.6775C8.02503 11.1563 7.66877 10.2201 7.60197 9.75861C7.56958 9.53594 7.60197 9.41955 7.61513 9.3821L7.62322 9.36287C7.61261 9.38011 7.60005 9.39608 7.58577 9.41044L7.58071 9.4155C7.57974 9.41655 7.57873 9.41757 7.57768 9.41854L7.57666 9.41955C7.57666 9.41955 7.57464 9.42157 7.02506 8.89831ZM8.36915 13.7241C9.91059 15.3475 11.0745 15.9841 11.9621 16.1288C12.4186 16.2027 12.788 16.143 13.0674 16.0327C13.2221 15.9719 13.366 15.8865 13.4935 15.7797C13.5059 15.7685 13.5181 15.757 13.5299 15.7452L13.5441 15.7311C13.5475 15.7278 13.5509 15.7244 13.5542 15.721C13.5542 15.7189 13.5572 15.7189 13.0066 15.1957C12.4561 14.6734 12.4571 14.6724 12.4571 14.6714L12.4591 14.6704L12.4611 14.6673C12.4628 14.6657 12.4645 14.664 12.4662 14.6623L12.4763 14.6522C12.4882 14.6407 12.5007 14.6299 12.5137 14.6198C12.5239 14.6137 12.5229 14.6157 12.5097 14.6208C12.4895 14.6289 12.3984 14.6613 12.2061 14.6299C11.7992 14.5631 10.9207 14.2048 9.47032 12.6775L8.36915 13.7241ZM6.81758 3.5068C5.7913 2.05543 3.73874 1.80949 2.49789 3.11713L3.59704 4.16264C4.12638 3.60598 5.05955 3.6495 5.57775 4.38328L6.81758 3.5068ZM1.52019 6.99655C1.49793 6.59171 1.67505 6.18788 2.01107 5.83566L0.909889 4.79015C0.367398 5.36098 -0.0455437 6.15347 0.00404971 7.07854L1.52019 6.99655ZM16.4033 19.9637C16.1209 20.2613 15.8264 20.4202 15.5389 20.4485L15.6877 21.9596C16.4438 21.8857 17.0561 21.4819 17.5045 21.0092L16.4033 19.9647V19.9637ZM7.86512 9.11693C8.84585 8.08457 8.91366 6.47228 8.09385 5.31139L6.85402 6.18788C7.28113 6.79211 7.21534 7.59674 6.76495 8.0704L7.86512 9.11693ZM17.468 16.143C18.299 16.6217 18.4619 17.7978 17.8415 18.4506L18.9417 19.4961C20.2625 18.1055 19.8779 15.7786 18.2261 14.8273L17.468 16.143ZM14.0177 15.2341C14.4074 14.8232 15.0157 14.7311 15.5349 15.0297L16.292 13.7139C15.1796 13.0743 13.8022 13.2585 12.9166 14.1896L14.0177 15.2341Z" fill="#030303"/>
</svg>
