<svg width="22" height="22" viewBox="0 0 22 22" fill="none" xmlns="http://www.w3.org/2000/svg">
<path d="M20.9062 7.41614L20.9415 7.38073C22.4464 5.87582 22.2423 3.22305 20.4866 1.46729C19.6515 0.632194 18.5887 0.117413 17.494 0.017913C15.5539 -0.158435 14.5747 1.02482 14.5382 1.04748C13.4795 2.50121 11.2704 5.53319 10.2032 6.98827C9.82819 7.4997 9.38455 7.95911 8.88437 8.35392C8.88001 8.35727 1.05476 14.531 1.00778 14.5779C-0.497138 16.0829 -0.293105 18.7356 1.46266 20.4914C3.1706 22.1993 5.83259 22.4896 7.3761 20.9463C7.42409 20.8983 10.9453 16.4324 10.9489 16.4278L15.4913 21.9725L16.6014 19.2764L18.6941 21.3819V18.6559H21.3955L19.3255 16.5617L21.9927 15.4634L16.3561 10.7357L20.9062 7.41614ZM11.4699 14.1231C10.7175 13.3707 10.7175 12.1463 11.4699 11.3939C12.2222 10.6414 13.4466 10.6414 14.1991 11.3939C14.9515 12.1463 14.9515 13.3707 14.1991 14.1231C13.4466 14.8756 12.2224 14.8756 11.4699 14.1231ZM6.46315 20.0333L4.64682 18.217L6.42959 16.434C7.17375 17.4681 7.31469 18.7316 6.78581 19.6246L6.46315 20.0333ZM6.92105 15.0328C6.15341 14.265 5.21395 13.794 4.27416 13.6329L7.62259 10.9892C8.38284 11.2797 9.07481 11.7287 9.65151 12.3059C9.5203 13.2365 9.79631 14.2133 10.4785 14.9471L8.3211 17.6799C8.16002 16.7399 7.68886 15.8006 6.92105 15.0328ZM15.5166 1.88945C16.4212 1.02482 18.2167 1.01711 19.5768 2.37705C20.8171 3.61736 21.0304 5.42748 20.0644 6.43758L14.8431 10.2468C14.1334 9.67829 13.2369 9.45429 12.38 9.5756C11.8974 9.09354 11.346 8.68245 10.7479 8.35761C10.9213 8.16247 11.0863 7.95995 11.2407 7.7492C12.4744 6.06676 15.1148 2.44131 15.5166 1.88945ZM9.75806 9.30126C10.2156 9.50832 10.646 9.77477 11.0358 10.0926C10.868 10.2057 10.7084 10.3359 10.5603 10.4842C10.3985 10.6458 10.2581 10.8208 10.1381 11.005C9.71661 10.6469 9.25485 10.3396 8.76272 10.0894C9.2619 9.69423 9.5458 9.47291 9.75806 9.30126ZM2.37242 19.5816C1.12707 18.3363 0.91784 16.5173 1.89723 15.5093C2.04388 15.4296 2.46537 14.8508 3.54997 14.8508C4.20318 14.8508 4.90186 15.081 5.51916 15.525L2.8273 18.217L5.25053 20.6402C4.31342 20.7897 3.21238 20.4216 2.37242 19.5816ZM15.1217 19.4912L12.1853 15.9072C12.5404 15.9798 12.9075 15.9949 13.2869 15.9416L15.6176 18.2866L15.1217 19.4912ZM17.4075 17.3693V18.2623L14.6059 15.4436C14.7837 15.3261 14.9523 15.1892 15.1089 15.0328C15.2633 14.8785 15.3985 14.712 15.5148 14.5367L18.3147 17.3693H17.4075ZM18.3481 15.5728L16.0171 13.2146C16.0697 12.8447 16.0573 12.4673 15.9812 12.1005L19.5372 15.0832L18.3481 15.5728Z" fill="#030303"/>
<path d="M18.2673 20.1631L16.2673 18.1629L18.2673 16.1631L20.2673 18.1629L18.2673 20.1631Z" fill="#030303"/>
</svg>
