<svg width="16" height="16" viewBox="0 0 16 16" fill="none" xmlns="http://www.w3.org/2000/svg">
<path d="M8 16C12.4183 16 16 12.4183 16 8C16 3.58172 12.4183 0 8 0C3.58172 0 0 3.58172 0 8C0 12.4183 3.58172 16 8 16Z" fill="#FE8205"/>
<path d="M16 8C16 3.60667 12.3933 0 8 0V16C12.3933 16 16 12.3933 16 8Z" fill="#FA5D0F"/>
<path d="M8.00001 1.90674C4.64001 1.90674 1.90668 4.64007 1.90668 8.00007C1.90668 11.3601 4.64001 14.1267 8.00001 14.1267C11.36 14.1267 14.0933 11.3601 14.0933 8.00007C14.0933 4.64007 11.36 1.90674 8.00001 1.90674Z" fill="#F0F7FF"/>
<path d="M14.0933 8.00007C14.0933 4.64007 11.36 1.90674 8 1.90674V14.1267C11.36 14.1267 14.0933 11.3601 14.0933 8.00007Z" fill="#DFE7F4"/>
<path d="M8.00008 3.78027C7.74008 3.78027 7.53342 3.98694 7.53342 4.24694V8.93361C7.53342 9.19361 7.74008 9.40027 8.00008 9.40027C8.26008 9.40027 8.46675 9.19361 8.46675 8.93361V4.25361C8.46675 3.99361 8.26008 3.78027 8.00008 3.78027Z" fill="#030303"/>
<path d="M8.46667 8.93971V4.25304C8.46667 3.99304 8.26 3.78638 8 3.78638V9.41304C8.26 9.40638 8.46667 9.19304 8.46667 8.93971Z" fill="#030303"/>
<path d="M10.8133 7.53345H7.99999H7.05999C6.79999 7.53345 6.59332 7.74011 6.59332 8.00011C6.59332 8.26011 6.79999 8.46678 7.05999 8.46678H7.99999H10.8133C11.0733 8.46678 11.28 8.26011 11.28 8.00011C11.28 7.74011 11.0733 7.53345 10.8133 7.53345Z" fill="#030303"/>
<path d="M11.28 8.00011C11.28 7.74011 11.0733 7.53345 10.8133 7.53345H8V8.47345H10.8133C11.0733 8.46678 11.28 8.26011 11.28 8.00011Z" fill="#030303"/>
</svg>
