<svg width="20" height="20" viewBox="0 0 20 20" fill="none" xmlns="http://www.w3.org/2000/svg">
<path fill-rule="evenodd" clip-rule="evenodd" d="M8.87488 2.25507C9.58641 1.91498 10.4136 1.91498 11.1251 2.25507C11.4342 2.40281 11.7175 2.64441 12.1097 2.97894C12.13 2.9963 12.1507 3.01392 12.1716 3.03178C12.3621 3.1941 12.4221 3.244 12.4828 3.28468C12.6372 3.38815 12.8105 3.45996 12.9929 3.49596C13.0645 3.51011 13.1422 3.51723 13.3917 3.53714C13.4191 3.53933 13.4462 3.54148 13.4729 3.5436C13.9867 3.58437 14.3579 3.61382 14.6809 3.72792C15.4245 3.99057 16.0094 4.57548 16.2721 5.31908C16.3862 5.64213 16.4156 6.01325 16.4564 6.52712C16.4585 6.5538 16.4607 6.58085 16.4629 6.60831C16.4828 6.85776 16.4899 6.93547 16.504 7.00715C16.54 7.18947 16.6118 7.36284 16.7153 7.51721C16.756 7.57791 16.8059 7.63789 16.9682 7.82836C16.9861 7.84933 17.0037 7.86998 17.0211 7.89035C17.3556 8.28253 17.5972 8.56577 17.7449 8.87488C18.085 9.58641 18.085 10.4136 17.7449 11.1251C17.5972 11.4342 17.3556 11.7175 17.0211 12.1097C17.0037 12.13 16.9861 12.1507 16.9682 12.1716C16.8059 12.3621 16.756 12.4221 16.7153 12.4828C16.6118 12.6372 16.54 12.8105 16.504 12.9929C16.4899 13.0645 16.4828 13.1422 16.4629 13.3917C16.4607 13.4191 16.4585 13.4462 16.4564 13.4729C16.4156 13.9867 16.3862 14.3579 16.2721 14.6809C16.0094 15.4245 15.4245 16.0094 14.6809 16.2721C14.3579 16.3862 13.9867 16.4156 13.4729 16.4564C13.4462 16.4585 13.4191 16.4607 13.3917 16.4629C13.1422 16.4828 13.0645 16.4899 12.9929 16.504C12.8105 16.54 12.6372 16.6118 12.4828 16.7153C12.4221 16.756 12.3621 16.8059 12.1716 16.9682C12.1507 16.9861 12.13 17.0037 12.1097 17.0211C11.7175 17.3556 11.4342 17.5972 11.1251 17.7449C10.4136 18.085 9.58641 18.085 8.87488 17.7449C8.56577 17.5972 8.28252 17.3556 7.89032 17.0211C7.86997 17.0037 7.84932 16.9861 7.82836 16.9682C7.63789 16.8059 7.57791 16.756 7.51721 16.7153C7.36284 16.6118 7.18947 16.54 7.00715 16.504C6.93547 16.4899 6.85776 16.4828 6.60831 16.4629C6.58085 16.4607 6.5538 16.4585 6.52712 16.4564C6.01325 16.4156 5.64213 16.3862 5.31908 16.2721C4.57548 16.0094 3.99057 15.4245 3.72792 14.6809C3.61382 14.3579 3.58437 13.9867 3.5436 13.4729C3.54148 13.4462 3.53933 13.4191 3.53714 13.3917C3.51723 13.1422 3.51011 13.0645 3.49596 12.9929C3.45996 12.8105 3.38815 12.6372 3.28468 12.4828C3.244 12.4221 3.1941 12.3621 3.03178 12.1716C3.01392 12.1507 2.9963 12.13 2.97894 12.1097C2.64441 11.7175 2.40281 11.4342 2.25507 11.1251C1.91498 10.4136 1.91498 9.58641 2.25507 8.87488C2.40281 8.56577 2.64441 8.28252 2.97894 7.89033C2.9963 7.86997 3.01392 7.84932 3.03178 7.82836C3.19409 7.63789 3.244 7.57791 3.28468 7.51721C3.38815 7.36284 3.45996 7.18947 3.49596 7.00715C3.51011 6.93547 3.51723 6.85776 3.53714 6.60831C3.53933 6.58085 3.54148 6.5538 3.5436 6.52712C3.58437 6.01325 3.61382 5.64213 3.72792 5.31908C3.99057 4.57548 4.57548 3.99057 5.31908 3.72792C5.64213 3.61382 6.01325 3.58437 6.52712 3.5436C6.5538 3.54148 6.58085 3.53933 6.60831 3.53714C6.85776 3.51723 6.93547 3.51011 7.00715 3.49596C7.18947 3.45996 7.36284 3.38815 7.51721 3.28468C7.57791 3.244 7.63789 3.1941 7.82836 3.03178C7.84932 3.01392 7.86997 2.9963 7.89033 2.97894C8.28252 2.64441 8.56577 2.40281 8.87488 2.25507ZM10.6058 3.34152C10.2227 3.15839 9.7773 3.15839 9.39417 3.34152C9.24604 3.41231 9.08991 3.53881 8.60941 3.94829C8.60151 3.95502 8.59373 3.96166 8.58604 3.96821C8.42835 4.10264 8.31325 4.20078 8.18765 4.28496C7.90095 4.47711 7.57898 4.61048 7.24038 4.67733C7.09204 4.70661 6.94126 4.71862 6.73469 4.73506C6.72463 4.73586 6.71443 4.73667 6.7041 4.7375C6.07478 4.78772 5.87493 4.80867 5.72013 4.86335C5.31973 5.00478 5.00478 5.31973 4.86335 5.72013C4.80867 5.87493 4.78772 6.07478 4.7375 6.7041C4.73667 6.71443 4.73586 6.72463 4.73506 6.73469C4.71862 6.94126 4.70661 7.09204 4.67733 7.24038C4.61048 7.57898 4.47711 7.90095 4.28496 8.18765C4.20077 8.31325 4.10264 8.42836 3.9682 8.58605C3.96165 8.59373 3.95502 8.60151 3.94829 8.60941C3.53881 9.08991 3.41231 9.24604 3.34152 9.39417C3.15839 9.7773 3.15839 10.2227 3.34152 10.6058C3.41231 10.754 3.53881 10.9101 3.94829 11.3906C3.95502 11.3985 3.96166 11.4063 3.96821 11.414C4.10264 11.5716 4.20078 11.6868 4.28496 11.8124C4.47711 12.099 4.61048 12.421 4.67733 12.7596C4.70661 12.908 4.71862 13.0587 4.73506 13.2653C4.73586 13.2754 4.73667 13.2856 4.7375 13.2959C4.78772 13.9252 4.80867 14.1251 4.86335 14.2799C5.00478 14.6803 5.31973 14.9952 5.72013 15.1367C5.87493 15.1913 6.07478 15.2123 6.7041 15.2625L6.73469 15.2649C6.94126 15.2814 7.09204 15.2934 7.24038 15.3227C7.57898 15.3895 7.90095 15.5229 8.18765 15.715C8.31325 15.7992 8.42836 15.8974 8.58605 16.0318L8.60941 16.0517C9.08991 16.4612 9.24604 16.5877 9.39417 16.6585C9.7773 16.8416 10.2227 16.8416 10.6058 16.6585C10.754 16.5877 10.9101 16.4612 11.3906 16.0517L11.414 16.0318C11.5717 15.8974 11.6868 15.7992 11.8124 15.715C12.099 15.5229 12.421 15.3895 12.7596 15.3227C12.908 15.2934 13.0587 15.2814 13.2653 15.2649L13.2959 15.2625C13.9252 15.2123 14.1251 15.1913 14.2799 15.1367C14.6803 14.9952 14.9952 14.6803 15.1367 14.2799C15.1913 14.1251 15.2123 13.9252 15.2625 13.2959L15.2649 13.2653C15.2814 13.0587 15.2934 12.908 15.3227 12.7596C15.3895 12.421 15.5229 12.099 15.715 11.8124C15.7992 11.6868 15.8974 11.5717 16.0318 11.414L16.0517 11.3906C16.4612 10.9101 16.5877 10.754 16.6585 10.6058C16.8416 10.2227 16.8416 9.7773 16.6585 9.39417C16.5877 9.24604 16.4612 9.08991 16.0517 8.60941L16.0318 8.58603C15.8974 8.42835 15.7992 8.31324 15.715 8.18765C15.5229 7.90095 15.3895 7.57898 15.3227 7.24038C15.2934 7.09204 15.2814 6.94126 15.2649 6.73469L15.2625 6.7041C15.2123 6.07478 15.1913 5.87493 15.1367 5.72013C14.9952 5.31973 14.6803 5.00478 14.2799 4.86335C14.1251 4.80867 13.9252 4.78772 13.2959 4.7375C13.2856 4.73667 13.2754 4.73586 13.2653 4.73506C13.0587 4.71862 12.908 4.70661 12.7596 4.67733C12.421 4.61048 12.099 4.47711 11.8124 4.28496C11.6868 4.20077 11.5716 4.10264 11.414 3.9682C11.4063 3.96165 11.3985 3.95502 11.3906 3.94829C10.9101 3.53881 10.754 3.41231 10.6058 3.34152Z" fill="#FF0000"/>
<path d="M8.15976 8.15976C8.37277 7.94675 8.71814 7.94675 8.93115 8.15976L10 9.22862L11.0689 8.15977C11.2819 7.94676 11.6272 7.94676 11.8402 8.15977C12.0533 8.37278 12.0533 8.71815 11.8402 8.93116L10.7714 10L11.8402 11.0688C12.0532 11.2819 12.0532 11.6272 11.8402 11.8402C11.6272 12.0532 11.2819 12.0532 11.0688 11.8402L10 10.7714L8.93116 11.8402C8.71815 12.0533 8.37279 12.0533 8.15977 11.8402C7.94676 11.6272 7.94676 11.2819 8.15977 11.0689L9.22862 10L8.15976 8.93115C7.94675 8.71814 7.94675 8.37277 8.15976 8.15976Z" fill="#FF0000"/>
</svg>
