<svg width="24" height="24" viewBox="0 0 24 24" fill="none" xmlns="http://www.w3.org/2000/svg">
<path d="M21.2829 6.60308H2.69758C2.34066 6.59618 1.98607 6.66155 1.65508 6.79528C1.32409 6.929 1.02353 7.1283 0.771575 7.3812C0.519623 7.63409 0.321469 7.93536 0.188984 8.26684C0.0564997 8.59833 -0.00753639 8.95319 0.000705597 9.31008C0.000705597 13.6433 0.000705597 17.4714 0.000705597 21.0269C5.10448e-05 21.3428 0.0511973 21.6568 0.152179 21.9562C0.339731 22.507 0.703599 22.9806 1.18746 23.3038C1.67133 23.627 2.24824 23.7817 2.82889 23.744H21.2223C21.7076 23.7691 22.1902 23.6574 22.6152 23.4217C23.0402 23.186 23.3906 22.8357 23.6263 22.4107C23.7431 22.1929 23.8345 21.9624 23.899 21.7238C23.899 21.6127 23.9596 21.5117 24 21.4006V8.95655C23.9962 8.92637 23.9962 8.89583 24 8.86565C23.9101 8.21793 23.5818 7.62706 23.0793 7.20861C22.5767 6.79016 21.9362 6.57424 21.2829 6.60308ZM21.1617 22.7642H2.82889C2.54529 22.783 2.26135 22.7332 2.00112 22.6189C1.74088 22.5046 1.51204 22.3292 1.33401 22.1077C1.08585 21.7877 0.957191 21.3912 0.970334 20.9865V9.37068C0.956065 9.13562 0.99119 8.90018 1.07341 8.67951C1.15564 8.45884 1.28315 8.25782 1.44775 8.08941C1.61235 7.921 1.81044 7.78893 2.02917 7.70168C2.2479 7.61444 2.48248 7.57396 2.7178 7.58285H21.1213C21.4666 7.5526 21.813 7.6282 22.1143 7.79961C22.4156 7.97102 22.6577 8.23011 22.8081 8.54242C22.9218 8.82181 22.9834 9.11964 22.9899 9.42119C22.9899 13.2595 22.9899 17.0876 22.9899 20.9259C23.008 21.1706 22.9731 21.4163 22.8877 21.6464C22.8022 21.8764 22.6681 22.0853 22.4946 22.2588C22.3211 22.4323 22.1122 22.5664 21.8821 22.6518C21.6521 22.7373 21.4064 22.7722 21.1617 22.7541V22.7642Z" fill="#030303" fill-opacity="0.5"/>
<path d="M3.23292 4.48194C5.51569 4.48194 7.78829 4.48194 10.061 4.48194H13.475C15.8992 4.48194 18.3233 4.48194 20.7475 4.48194C20.8516 4.4924 20.9565 4.4924 21.0606 4.48194C21.1533 4.45931 21.2372 4.40987 21.3019 4.3398C21.3666 4.26974 21.4091 4.18215 21.4242 4.08801C21.4459 3.998 21.4368 3.90333 21.3984 3.81911C21.3599 3.73489 21.2944 3.66598 21.2122 3.62339C21.0691 3.56026 20.914 3.52923 20.7576 3.53248H3.2632C3.16919 3.52246 3.07441 3.52246 2.98041 3.53248C2.90423 3.54706 2.83251 3.57933 2.77111 3.6267C2.7097 3.67407 2.66028 3.73521 2.62685 3.80519C2.5897 3.87519 2.57031 3.95322 2.57031 4.03246C2.57031 4.1117 2.5897 4.18974 2.62685 4.25974C2.69585 4.35107 2.78971 4.42058 2.89718 4.45999C3.00465 4.4994 3.12124 4.50702 3.23292 4.48194Z" fill="#030303" fill-opacity="0.5"/>
<path d="M5.85909 1.01753H17.9799C18.0806 1.02905 18.1823 1.02905 18.2829 1.01753C18.3628 1.01009 18.4391 0.980671 18.5033 0.932532C18.5675 0.884394 18.6171 0.819416 18.6466 0.744809C18.6864 0.673853 18.7073 0.59386 18.7073 0.512497C18.7073 0.431133 18.6864 0.35114 18.6466 0.280185C18.5805 0.193145 18.4921 0.12559 18.3907 0.0846929C18.2894 0.0437957 18.1789 0.0310674 18.0709 0.0478571H5.85909C5.7651 0.037433 5.67023 0.037433 5.57624 0.0478571C5.48114 0.0674212 5.39437 0.115684 5.32754 0.186122C5.26072 0.25656 5.21705 0.345785 5.20252 0.441784C5.17956 0.530391 5.18822 0.624241 5.22693 0.707187C5.26564 0.790132 5.332 0.857008 5.41466 0.896328C5.55011 0.973801 5.70306 1.01551 5.85909 1.01753Z" fill="#030303" fill-opacity="0.5"/>
<path d="M9.3944 11.4617C9.33081 11.4262 9.2629 11.399 9.19238 11.3809C8.88935 11.3809 8.73783 11.5526 8.73783 11.8859V13.8353C8.73783 15.4616 8.73783 17.1282 8.73783 18.7746C8.73565 18.8637 8.75577 18.952 8.79634 19.0313C8.83691 19.1107 8.89668 19.1787 8.97019 19.2291C9.04624 19.2755 9.13361 19.3001 9.22271 19.3001C9.3118 19.3001 9.39917 19.2755 9.47522 19.2291C10.7883 18.4413 12.1216 17.6635 13.4145 16.9059L15.2629 15.8252C15.3501 15.7847 15.4256 15.7226 15.4821 15.6449C15.5387 15.5671 15.5745 15.4762 15.5861 15.3807C15.5784 15.2855 15.5453 15.194 15.4902 15.1158C15.4352 15.0377 15.3601 14.9757 15.273 14.9363L9.3944 11.4617ZM9.70752 17.9362V12.7142L14.1417 15.3302L9.70752 17.9362Z" fill="#030303" fill-opacity="0.5"/>
</svg>
