<svg width="31" height="32" viewBox="0 0 31 32" fill="none" xmlns="http://www.w3.org/2000/svg">
<path d="M0.853255 28.7626L0.853164 28.7623C0.723524 28.3732 0.657866 27.9653 0.658694 27.5548M0.853255 28.7626L0.758694 12.7295M0.853255 28.7626C1.09463 29.4802 1.563 30.0974 2.18613 30.5187C2.80837 30.9394 3.55024 31.1412 4.29719 31.0929H27.2831C27.9078 31.125 28.5289 30.9793 29.0758 30.6722C29.6235 30.3647 30.0748 29.9079 30.3784 29.3539L30.379 29.3526C30.5286 29.0703 30.6456 28.7717 30.7281 28.4625L30.7315 28.4499V28.4368C30.7315 28.3842 30.7457 28.3303 30.7693 28.2675C30.7811 28.236 30.7945 28.2045 30.809 28.1698C30.8232 28.1359 30.8383 28.0994 30.8519 28.0616L30.8578 28.0452V28.0278V12.2821H30.8586L30.857 12.2698C30.8533 12.2398 30.8533 12.2095 30.857 12.1795L30.8587 12.1665L30.8569 12.1535C30.7412 11.3096 30.3185 10.5395 29.6713 9.99398C29.0247 9.44889 28.2003 9.16724 27.3592 9.20426H4.13076C3.67128 9.1954 3.21484 9.28066 2.78881 9.45489C2.36248 9.62924 1.97542 9.88906 1.65101 10.2187C1.32661 10.5483 1.07154 10.9409 0.90103 11.3727C0.730657 11.8042 0.64825 12.2661 0.658694 12.7306M0.853255 28.7626L0.758694 12.7295M0.658694 27.5548C0.658695 27.5548 0.658695 27.5547 0.658695 27.5547L0.758694 27.5549H0.658694V27.5548ZM0.658694 27.5548V27.5285V27.5022V27.4758V27.4494V27.423V27.3966V27.3702V27.3438V27.3173V27.2909V27.2645V27.238V27.2115V27.1851V27.1586V27.1321V27.1056V27.0791V27.0526V27.0261V26.9996V26.973V26.9465V26.9199V26.8934V26.8668V26.8403V26.8137V26.7871V26.7605V26.7339V26.7073V26.6806V26.654V26.6274V26.6007V26.5741V26.5474V26.5207V26.494V26.4673V26.4406V26.4139V26.3872V26.3605V26.3338V26.307V26.2803V26.2535V26.2267V26.2V26.1732V26.1464V26.1196V26.0928V26.066V26.0391V26.0123V25.9855V25.9586V25.9317V25.9049V25.878V25.8511V25.8242V25.7973V25.7704V25.7435V25.7165V25.6896V25.6626V25.6357V25.6087V25.5817V25.5548V25.5278V25.5008V25.4738V25.4467V25.4197V25.3927V25.3656V25.3386V25.3115V25.2844V25.2573V25.2302V25.2031V25.176V25.1489V25.1218V25.0947V25.0675V25.0403V25.0132V24.986V24.9588V24.9316V24.9044V24.8772V24.85V24.8228V24.7955V24.7683V24.741V24.7138V24.6865V24.6592V24.6319V24.6046V24.5773V24.55V24.5226V24.4953V24.4679V24.4406V24.4132V24.3858V24.3585V24.3311V24.3036V24.2762V24.2488V24.2214V24.1939V24.1665V24.139V24.1115V24.084V24.0566V24.0291V24.0015V23.974V23.9465V23.9189V23.8914V23.8638V23.8363V23.8087V23.7811V23.7535V23.7259V23.6983V23.6706V23.643V23.6154V23.5877V23.56V23.5324V23.5047V23.477V23.4493V23.4215V23.3938V23.3661V23.3383V23.3106V23.2828V23.255V23.2272V23.1994V23.1716V23.1438V23.116V23.0882V23.0603V23.0325V23.0046V22.9767V22.9488V22.9209V22.893V22.8651V22.8372V22.8092V22.7813V22.7533V22.7254V22.6974V22.6694V22.6414V22.6134V22.5854V22.5573V22.5293V22.5012V22.4732V22.4451V22.417V22.3889V22.3608V22.3327V22.3046V22.2765V22.2483V22.2202V22.192V22.1638V22.1356V22.1074V22.0792V22.051V22.0228V21.9945V21.9663V21.938V21.9098V21.8815V21.8532V21.8249V21.7966V21.7682V21.7399V21.7116V21.6832V21.6548V21.6265V21.5981V21.5697V21.5413V21.5128V21.4844V21.456V21.4275V21.3991V21.3706V21.3421V21.3136V21.2851V21.2566V21.228V21.1995V21.1709V21.1424V21.1138V21.0852V21.0566V21.028V20.9994V20.9708V20.9421V20.9135V20.8848V20.8562V20.8275V20.7988V20.7701V20.7414V20.7126V20.6839V20.6551V20.6264V20.5976V20.5688V20.54V20.5112V20.4824V20.4536V20.4247V20.3959V20.367V20.3381V20.3092V20.2804V20.2514V20.2225V20.1936V20.1646V20.1357V20.1067V20.0778V20.0488V20.0198V19.9908V19.9617V19.9327V19.9037V19.8746V19.8455V19.8164V19.7874V19.7582V19.7291V19.7V19.6709V19.6417V19.6126V19.5834V19.5542V19.525V19.4958V19.4666V19.4373V19.4081V19.3788V19.3496V19.3203V19.291V19.2617V19.2324V19.2031V19.1737V19.1444V19.115V19.0856V19.0562V19.0268V18.9974V18.968V18.9386V18.9091V18.8797V18.8502V18.8207V18.7912V18.7617V18.7322V18.7027V18.6731V18.6436V18.614V18.5844V18.5548V18.5252V18.4956V18.466V18.4364V18.4067V18.3771V18.3474V18.3177V18.288V18.2583V18.2285V18.1988V18.1691V18.1393V18.1095V18.0797V18.0499V18.0201V17.9903V17.9605V17.9306V17.9008V17.8709V17.841V17.8111V17.7812V17.7513V17.7213V17.6914V17.6614V17.6315V17.6015V17.5715V17.5415V17.5114V17.4814V17.4514V17.4213V17.3912V17.3611V17.331V17.3009V17.2708V17.2407V17.2105V17.1804V17.1502V17.12V17.0898V17.0596V17.0293V16.9991V16.9689V16.9386V16.9083V16.878V16.8477V16.8174V16.7871V16.7567V16.7264V16.696V16.6656V16.6352V16.6048V16.5744V16.544V16.5135V16.4831V16.4526V16.4221V16.3916V16.3611V16.3306V16.3V16.2695V16.2389V16.2083V16.1778V16.1472V16.1165V16.0859V16.0553V16.0246V15.9939V15.9633V15.9326V15.9019V15.8711V15.8404V15.8096V15.7789V15.7481V15.7173V15.6865V15.6557V15.6249V15.594V15.5632V15.5323V15.5014V15.4705V15.4396V15.4087V15.3778V15.3468V15.3158V15.2849V15.2539V15.2229V15.1918V15.1608V15.1298V15.0987V15.0676V15.0365V15.0054V14.9743V14.9432V14.9121V14.8809V14.8497V14.8186V14.7874V14.7562V14.7249V14.6937V14.6624V14.6312V14.5999V14.5686V14.5373V14.506V14.4746V14.4433V14.4119V14.3806V14.3492V14.3178V14.2863V14.2549V14.2235V14.192V14.1605V14.129V14.0975V14.066V14.0345V14.0029V13.9714V13.9398V13.9082V13.8766V13.845V13.8134V13.7817V13.7501V13.7184V13.6867V13.655V13.6233V13.5916V13.5598V13.5281V13.4963V13.4645V13.4327V13.4009V13.3691V13.3372V13.3054V13.2735V13.2416V13.2097V13.1778V13.1459V13.1139V13.082V13.05V13.018V12.986V12.954V12.922V12.8899V12.8578V12.8258V12.7937V12.7616V12.7306M0.658694 12.7306C0.658703 12.731 0.658712 12.7314 0.658721 12.7317L0.758694 12.7295M0.658694 12.7306V12.7295H0.758694M27.1099 29.6326V29.6531H4.29393V29.6529L4.28723 29.6534C3.94898 29.6761 3.6103 29.6159 3.29983 29.4779C2.98963 29.34 2.71669 29.1284 2.50419 28.8609C2.20844 28.4746 2.055 27.9958 2.07068 27.507L2.07073 27.507V27.5038V12.8061H2.07091L2.07055 12.8002C2.05354 12.5165 2.09542 12.2324 2.19342 11.9661C2.29143 11.6999 2.44338 11.4574 2.63944 11.2544C2.83549 11.0514 3.07136 10.8922 3.33171 10.7871C3.59206 10.6819 3.87122 10.6332 4.15124 10.6439L4.15124 10.644H4.15506H27.1594V10.6444L27.1682 10.6436C27.5794 10.6071 27.9919 10.6982 28.3508 10.9049C28.7089 11.1111 28.9968 11.4226 29.1763 11.7983C29.313 12.1395 29.3872 12.503 29.3952 12.8711V12.8985V12.927V12.9554V12.9839V13.0123V13.0408V13.0692V13.0977V13.1261V13.1546V13.1831V13.2115V13.24V13.2684V13.2969V13.3253V13.3538V13.3822V13.4107V13.4391V13.4676V13.496V13.5245V13.5529V13.5814V13.6098V13.6383V13.6667V13.6952V13.7236V13.7521V13.7805V13.809V13.8374V13.8659V13.8943V13.9228V13.9512V13.9796V14.0081V14.0365V14.065V14.0934V14.1219V14.1503V14.1788V14.2072V14.2357V14.2641V14.2925V14.321V14.3494V14.3779V14.4063V14.4348V14.4632V14.4916V14.5201V14.5485V14.577V14.6054V14.6338V14.6623V14.6907V14.7192V14.7476V14.776V14.8045V14.8329V14.8614V14.8898V14.9182V14.9467V14.9751V15.0036V15.032V15.0604V15.0889V15.1173V15.1457V15.1742V15.2026V15.2311V15.2595V15.2879V15.3164V15.3448V15.3732V15.4017V15.4301V15.4585V15.487V15.5154V15.5438V15.5723V15.6007V15.6291V15.6576V15.686V15.7144V15.7429V15.7713V15.7997V15.8282V15.8566V15.885V15.9135V15.9419V15.9703V15.9988V16.0272V16.0556V16.0841V16.1125V16.1409V16.1694V16.1978V16.2262V16.2546V16.2831V16.3115V16.3399V16.3684V16.3968V16.4252V16.4536V16.4821V16.5105V16.5389V16.5674V16.5958V16.6242V16.6526V16.6811V16.7095V16.7379V16.7664V16.7948V16.8232V16.8516V16.8801V16.9085V16.9369V16.9653V16.9938V17.0222V17.0506V17.0791V17.1075V17.1359V17.1643V17.1928V17.2212V17.2496V17.278V17.3065V17.3349V17.3633V17.3917V17.4202V17.4486V17.477V17.5054V17.5339V17.5623V17.5907V17.6191V17.6475V17.676V17.7044V17.7328V17.7612V17.7897V17.8181V17.8465V17.8749V17.9034V17.9318V17.9602V17.9886V18.017V18.0455V18.0739V18.1023V18.1307V18.1592V18.1876V18.216V18.2444V18.2728V18.3013V18.3297V18.3581V18.3865V18.415V18.4434V18.4718V18.5002V18.5286V18.5571V18.5855V18.6139V18.6423V18.6707V18.6992V18.7276V18.756V18.7844V18.8128V18.8413V18.8697V18.8981V18.9265V18.9549V18.9834V19.0118V19.0402V19.0686V19.097V19.1255V19.1539V19.1823V19.2107V19.2391V19.2676V19.296V19.3244V19.3528V19.3812V19.4097V19.4381V19.4665V19.4949V19.5233V19.5518V19.5802V19.6086V19.637V19.6654V19.6939V19.7223V19.7507V19.7791V19.8075V19.836V19.8644V19.8928V19.9212V19.9496V19.9781V20.0065V20.0349V20.0633V20.0917V20.1202V20.1486V20.177V20.2054V20.2338V20.2622V20.2907V20.3191V20.3475V20.3759V20.4043V20.4328V20.4612V20.4896V20.518V20.5464V20.5749V20.6033V20.6317V20.6601V20.6885V20.717V20.7454V20.7738V20.8022V20.8306V20.8591V20.8875V20.9159V20.9443V20.9727V21.0012V21.0296V21.058V21.0864V21.1148V21.1433V21.1717V21.2001V21.2285V21.2569V21.2854V21.3138V21.3422V21.3706V21.399V21.4275V21.4559V21.4843V21.5127V21.5411V21.5696V21.598V21.6264V21.6548V21.6832V21.7117V21.7401V21.7685V21.7969V21.8253V21.8538V21.8822V21.9106V21.939V21.9675V21.9959V22.0243V22.0527V22.0811V22.1096V22.138V22.1664V22.1948V22.2233V22.2517V22.2801V22.3085V22.3369V22.3654V22.3938V22.4222V22.4506V22.4791V22.5075V22.5359V22.5643V22.5927V22.6212V22.6496V22.678V22.7064V22.7349V22.7633V22.7917V22.8201V22.8486V22.877V22.9054V22.9338V22.9623V22.9907V23.0191V23.0475V23.076V23.1044V23.1328V23.1612V23.1897V23.2181V23.2465V23.2749V23.3034V23.3318V23.3602V23.3886V23.4171V23.4455V23.4739V23.5024V23.5308V23.5592V23.5876V23.6161V23.6445V23.6729V23.7014V23.7298V23.7582V23.7866V23.8151V23.8435V23.8719V23.9004V23.9288V23.9572V23.9856V24.0141V24.0425V24.0709V24.0994V24.1278V24.1562V24.1847V24.2131V24.2415V24.2699V24.2984V24.3268V24.3552V24.3837V24.4121V24.4405V24.469V24.4974V24.5258V24.5543V24.5827V24.6111V24.6396V24.668V24.6964V24.7249V24.7533V24.7817V24.8102V24.8386V24.867V24.8955V24.9239V24.9523V24.9808V25.0092V25.0377V25.0661V25.0945V25.123V25.1514V25.1798V25.2083V25.2367V25.2651V25.2936V25.322V25.3505V25.3789V25.4073V25.4358V25.4642V25.4927V25.5211V25.5495V25.578V25.6064V25.6349V25.6633V25.6917V25.7202V25.7486V25.7771V25.8055V25.8339V25.8624V25.8908V25.9193V25.9477V25.9762V26.0046V26.033V26.0615V26.0899V26.1184V26.1468V26.1753V26.2037V26.2322V26.2606V26.289V26.3175V26.3459V26.3744V26.4028V26.4313V26.4597V26.4882V26.5166V26.5451V26.5735V26.602V26.6304V26.6589V26.6873V26.7158V26.7442V26.7727V26.8011V26.8296V26.858V26.8865V26.9149V26.9434V26.9718V27.0003V27.0287V27.0572V27.0856V27.1141V27.1425V27.171V27.1995V27.2279V27.2564V27.2848V27.3133V27.3417V27.3702V27.3986V27.4271H29.395L29.3955 27.4344C29.4171 27.7299 29.3754 28.0266 29.2735 28.3043C29.1716 28.5819 29.0117 28.834 28.8049 29.0434C28.5981 29.2527 28.3492 29.4143 28.0753 29.5174C27.8013 29.6204 27.5088 29.6625 27.2174 29.6406L27.1099 29.6326Z" fill="#BCBCBC" stroke="#BCBCBC" stroke-width="0.2"/>
<path d="M27.0937 6.71978L27.0938 6.72078L27.1076 6.71737C27.2427 6.68397 27.365 6.61102 27.459 6.50783C27.5523 6.40557 27.6138 6.27814 27.6363 6.14127C27.6674 6.00702 27.6536 5.86609 27.5969 5.7405C27.5398 5.61375 27.4422 5.50976 27.3195 5.4454L27.3196 5.44522L27.3138 5.44265C27.1219 5.35691 26.9137 5.31468 26.7038 5.31894H4.84211C4.71925 5.30606 4.59542 5.30625 4.47259 5.31952L4.47255 5.31917L4.4643 5.32077C4.35354 5.34223 4.24932 5.3897 4.16015 5.45934C4.07155 5.52852 4.00025 5.61761 3.95183 5.71942C3.89849 5.8219 3.8707 5.93591 3.8707 6.05157C3.8707 6.16793 3.89883 6.28262 3.9528 6.38557L3.95649 6.3926L3.96123 6.39896C4.05894 6.52987 4.19197 6.62966 4.34449 6.68628C4.49342 6.74155 4.65471 6.7533 4.80983 6.72029H4.81569H4.83241H4.84913H4.86584H4.88256H4.89928H4.916H4.93271H4.94943H4.96615H4.98287H4.99958H5.0163H5.03301H5.04973H5.06644H5.08316H5.09987H5.11659H5.1333H5.15001H5.16673H5.18344H5.20015H5.21687H5.23358H5.25029H5.267H5.28371H5.30042H5.31713H5.33385H5.35056H5.36727H5.38398H5.40068H5.41739H5.4341H5.45081H5.46752H5.48423H5.50094H5.51764H5.53435H5.55106H5.56776H5.58447H5.60118H5.61788H5.63459H5.65129H5.668H5.68471H5.70141H5.71811H5.73482H5.75152H5.76823H5.78493H5.80163H5.81834H5.83504H5.85174H5.86844H5.88514H5.90185H5.91855H5.93525H5.95195H5.96865H5.98535H6.00205H6.01875H6.03545H6.05215H6.06885H6.08555H6.10225H6.11894H6.13564H6.15234H6.16904H6.18574H6.20243H6.21913H6.23583H6.25252H6.26922H6.28592H6.30261H6.31931H6.336H6.3527H6.36939H6.38609H6.40278H6.41947H6.43617H6.45286H6.46956H6.48625H6.50294H6.51963H6.53633H6.55302H6.56971H6.5864H6.60309H6.61978H6.63648H6.65317H6.66986H6.68655H6.70324H6.71993H6.73662H6.75331H6.77H6.78669H6.80337H6.82006H6.83675H6.85344H6.87013H6.88681H6.9035H6.92019H6.93688H6.95356H6.97025H6.98694H7.00362H7.02031H7.03699H7.05368H7.07036H7.08705H7.10373H7.12042H7.1371H7.15379H7.17047H7.18716H7.20384H7.22052H7.23721H7.25389H7.27057H7.28725H7.30394H7.32062H7.3373H7.35398H7.37066H7.38735H7.40403H7.42071H7.43739H7.45407H7.47075H7.48743H7.50411H7.52079H7.53747H7.55415H7.57083H7.58751H7.60419H7.62086H7.63754H7.65422H7.6709H7.68758H7.70425H7.72093H7.73761H7.75429H7.77096H7.78764H7.80432H7.82099H7.83767H7.85434H7.87102H7.8877H7.90437H7.92105H7.93772H7.9544H7.97107H7.98775H8.00442H8.02109H8.03777H8.05444H8.07111H8.08779H8.10446H8.12113H8.13781H8.15448H8.17115H8.18782H8.2045H8.22117H8.23784H8.25451H8.27118H8.28785H8.30453H8.3212H8.33787H8.35454H8.37121H8.38788H8.40455H8.42122H8.43789H8.45456H8.47123H8.4879H8.50457H8.52123H8.5379H8.55457H8.57124H8.58791H8.60458H8.62124H8.63791H8.65458H8.67125H8.68792H8.70458H8.72125H8.73792H8.75458H8.77125H8.78792H8.80458H8.82125H8.83791H8.85458H8.87125H8.88791H8.90458H8.92124H8.93791H8.95457H8.97124H8.9879H9.00456H9.02123H9.03789H9.05456H9.07122H9.08788H9.10455H9.12121H9.13788H9.15454H9.1712H9.18786H9.20453H9.22119H9.23785H9.25451H9.27118H9.28784H9.3045H9.32116H9.33782H9.35448H9.37115H9.38781H9.40447H9.42113H9.43779H9.45445H9.47111H9.48777H9.50443H9.52109H9.53775H9.55441H9.57107H9.58773H9.60439H9.62105H9.63771H9.65437H9.67103H9.68769H9.70434H9.721H9.73766H9.75432H9.77098H9.78764H9.80429H9.82095H9.83761H9.85427H9.87093H9.88758H9.90424H9.9209H9.93755H9.95421H9.97087H9.98752H10.0042H10.0208H10.0375H10.0542H10.0708H10.0875H10.1041H10.1208H10.1374H10.1541H10.1707H10.1874H10.2041H10.2207H10.2374H10.254H10.2707H10.2873H10.304H10.3206H10.3373H10.3539H10.3706H10.3873H10.4039H10.4206H10.4372H10.4539H10.4705H10.4872H10.5038H10.5205H10.5371H10.5538H10.5704H10.5871H10.6037H10.6204H10.6371H10.6537H10.6704H10.687H10.7037H10.7203H10.737H10.7536H10.7703H10.7869H10.8036H10.8202H10.8369H10.8535H10.8702H10.8868H10.9035H10.9201H10.9368H10.9534H10.9701H10.9867H11.0034H11.02H11.0367H11.0533H11.07H11.0866H11.1033H11.1199H11.1366H11.1532H11.1699H11.1865H11.2032H11.2198H11.2365H11.2531H11.2698H11.2864H11.3031H11.3197H11.3364H11.353H11.3697H11.3863H11.403H11.4196H11.4363H11.4529H11.4696H11.4862H11.5029H11.5195H11.5362H11.5528H11.5695H11.5861H11.6028H11.6194H11.6361H11.6527H11.6694H11.686H11.7027H11.7193H11.736H11.7526H11.7693H11.7859H11.8026H11.8192H11.8358H11.8525H11.8691H11.8858H11.9024H11.9191H11.9357H11.9524H11.969H11.9857H12.0023H12.019H12.0356H12.0523H12.0689H12.0856H12.1022H12.1189H12.1355H12.1521H12.1688H12.1854H12.2021H12.2187H12.2354H12.252H12.2687H12.2853H12.302H12.3186H12.3353H12.3519H12.3686H12.3852H12.4018H12.4185H12.4351H12.4518H12.4684H12.4851H12.5017H12.5184H12.535H12.5517H12.5683H12.585H12.6016H12.6182H12.6349H12.6515H12.6682H12.6848H12.7015H12.7181H12.7348H12.7514H12.7681H12.7847H12.8013H12.818H12.8346H12.8513H12.8679H12.8846H12.9012H12.9179H12.9345H12.9512H12.9678H12.9844H13.0011H13.0177H13.0344H13.051H13.0677H13.0843H13.101H13.1176H13.1343H13.1509H13.1675H13.1842H13.2008H13.2175H13.2341H13.2508H13.2674H13.2841H13.3007H13.3174H13.334H17.6016H17.6193H17.6371H17.6548H17.6726H17.6903H17.7081H17.7258H17.7436H17.7614H17.7791H17.7969H17.8146H17.8324H17.8501H17.8679H17.8856H17.9034H17.9212H17.9389H17.9567H17.9744H17.9922H18.0099H18.0277H18.0454H18.0632H18.0809H18.0987H18.1165H18.1342H18.152H18.1697H18.1875H18.2052H18.223H18.2407H18.2585H18.2763H18.294H18.3118H18.3295H18.3473H18.365H18.3828H18.4005H18.4183H18.4361H18.4538H18.4716H18.4893H18.5071H18.5248H18.5426H18.5603H18.5781H18.5958H18.6136H18.6314H18.6491H18.6669H18.6846H18.7024H18.7201H18.7379H18.7556H18.7734H18.7912H18.8089H18.8267H18.8444H18.8622H18.8799H18.8977H18.9154H18.9332H18.951H18.9687H18.9865H19.0042H19.022H19.0397H19.0575H19.0752H19.093H19.1107H19.1285H19.1463H19.164H19.1818H19.1995H19.2173H19.235H19.2528H19.2705H19.2883H19.3061H19.3238H19.3416H19.3593H19.3771H19.3948H19.4126H19.4303H19.4481H19.4659H19.4836H19.5014H19.5191H19.5369H19.5546H19.5724H19.5901H19.6079H19.6256H19.6434H19.6612H19.6789H19.6967H19.7144H19.7322H19.7499H19.7677H19.7854H19.8032H19.821H19.8387H19.8565H19.8742H19.892H19.9097H19.9275H19.9452H19.963H19.9808H19.9985H20.0163H20.034H20.0518H20.0695H20.0873H20.105H20.1228H20.1406H20.1583H20.1761H20.1938H20.2116H20.2293H20.2471H20.2648H20.2826H20.3003H20.3181H20.3359H20.3536H20.3714H20.3891H20.4069H20.4246H20.4424H20.4601H20.4779H20.4957H20.5134H20.5312H20.5489H20.5667H20.5844H20.6022H20.6199H20.6377H20.6555H20.6732H20.691H20.7087H20.7265H20.7442H20.762H20.7797H20.7975H20.8152H20.833H20.8508H20.8685H20.8863H20.904H20.9218H20.9395H20.9573H20.975H20.9928H21.0106H21.0283H21.0461H21.0638H21.0816H21.0993H21.1171H21.1348H21.1526H21.1704H21.1881H21.2059H21.2236H21.2414H21.2591H21.2769H21.2946H21.3124H21.3301H21.3479H21.3657H21.3834H21.4012H21.4189H21.4367H21.4544H21.4722H21.4899H21.5077H21.5255H21.5432H21.561H21.5787H21.5965H21.6142H21.632H21.6497H21.6675H21.6853H21.703H21.7208H21.7385H21.7563H21.774H21.7918H21.8095H21.8273H21.845H21.8628H21.8806H21.8983H21.9161H21.9338H21.9516H21.9693H21.9871H22.0048H22.0226H22.0404H22.0581H22.0759H22.0936H22.1114H22.1291H22.1469H22.1646H22.1824H22.2002H22.2179H22.2357H22.2534H22.2712H22.2889H22.3067H22.3244H22.3422H22.3599H22.3777H22.3955H22.4132H22.431H22.4487H22.4665H22.4842H22.502H22.5197H22.5375H22.5553H22.573H22.5908H22.6085H22.6263H22.644H22.6618H22.6795H22.6973H22.7151H22.7328H22.7506H22.7683H22.7861H22.8038H22.8216H22.8393H22.8571H22.8748H22.8926H22.9104H22.9281H22.9459H22.9636H22.9814H22.9991H23.0169H23.0346H23.0524H23.0702H23.0879H23.1057H23.1234H23.1412H23.1589H23.1767H23.1944H23.2122H23.23H23.2477H23.2655H23.2832H23.301H23.3187H23.3365H23.3542H23.372H23.3898H23.4075H23.4253H23.443H23.4608H23.4785H23.4963H23.514H23.5318H23.5495H23.5673H23.5851H23.6028H23.6206H23.6383H23.6561H23.6738H23.6916H23.7093H23.7271H23.7449H23.7626H23.7804H23.7981H23.8159H23.8336H23.8514H23.8691H23.8869H23.9047H23.9224H23.9402H23.9579H23.9757H23.9934H24.0112H24.0289H24.0467H24.0644H24.0822H24.1H24.1177H24.1355H24.1532H24.171H24.1887H24.2065H24.2242H24.242H24.2598H24.2775H24.2953H24.313H24.3308H24.3485H24.3663H24.384H24.4018H24.4196H24.4373H24.4551H24.4728H24.4906H24.5083H24.5261H24.5438H24.5616H24.5793H24.5971H24.6149H24.6326H24.6504H24.6681H24.6859H24.7036H24.7214H24.7391H24.7569H24.7747H24.7924H24.8102H24.8279H24.8457H24.8634H24.8812H24.8989H24.9167H24.9345H24.9522H24.97H24.9877H25.0055H25.0232H25.041H25.0587H25.0765H25.0942H25.112H25.1298H25.1475H25.1653H25.183H25.2008H25.2185H25.2363H25.254H25.2718H25.2896H25.3073H25.3251H25.3428H25.3606H25.3783H25.3961H25.4138H25.4316H25.4494H25.4671H25.4849H25.5026H25.5204H25.5381H25.5559H25.5736H25.5914H25.6091H25.6269H25.6447H25.6624H25.6802H25.6979H25.7157H25.7334H25.7512H25.7689H25.7867H25.8045H25.8222H25.84H25.8577H25.8755H25.8932H25.911H25.9287H25.9465H25.9643H25.982H25.9998H26.0175H26.0353H26.053H26.0708H26.0885H26.1063H26.1241H26.1418H26.1596H26.1773H26.1951H26.2128H26.2306H26.2483H26.2661H26.2838H26.3016H26.3194H26.3371H26.3549H26.3726H26.3904H26.4081H26.4259H26.4436H26.4614H26.4792H26.4969H26.5147H26.5324H26.5502H26.5679H26.5857H26.6034H26.6212H26.639H26.6567H26.6745H26.6872C26.8224 6.7337 26.9586 6.73353 27.0937 6.71978Z" fill="#BCBCBC" stroke="#BCBCBC" stroke-width="0.2"/>
<path d="M8.08048 2.33683L8.08048 2.33683C7.86948 2.33406 7.66268 2.27727 7.47936 2.17187C7.35655 2.11173 7.25826 2.01069 7.20079 1.88602C7.1435 1.76176 7.13014 1.62143 7.16295 1.48853C7.18485 1.34897 7.24808 1.21923 7.3444 1.11646C7.4419 1.01243 7.56867 0.940973 7.70785 0.911992L7.71703 0.910081L7.71708 0.910517C7.84009 0.896706 7.96426 0.896498 8.08731 0.909892H23.339C23.4895 0.887669 23.6431 0.90631 23.7841 0.963926C23.9277 1.02256 24.0527 1.11935 24.1461 1.24385L24.1544 1.25491L24.1536 1.25537C24.2116 1.36004 24.242 1.47795 24.242 1.59781C24.242 1.71544 24.2127 1.83118 24.1568 1.93438C24.113 2.0432 24.0407 2.13815 23.9475 2.20893C23.8528 2.28084 23.7402 2.32496 23.6221 2.33629C23.6217 2.33633 23.6214 2.33636 23.621 2.33639L23.6116 2.23683C23.4858 2.2514 23.3587 2.2514 23.2329 2.23683L8.08048 2.33683ZM8.08048 2.33683H8.0818H23.2272H8.08048Z" fill="#BCBCBC" stroke="#BCBCBC" stroke-width="0.2"/>
<path d="M12.5522 15.3665L12.5522 15.3665L12.55 15.3653C12.463 15.3161 12.3701 15.2785 12.2735 15.2533L12.2611 15.2501H12.2483C12.0397 15.2501 11.8664 15.3105 11.7473 15.4452C11.6302 15.5776 11.5801 15.7653 11.5801 15.9891V18.4558V18.4678V18.4799V18.492V18.504V18.5161V18.5281V18.5402V18.5523V18.5643V18.5764V18.5885V18.6005V18.6126V18.6247V18.6368V18.6488V18.6609V18.673V18.6851V18.6971V18.7092V18.7213V18.7334V18.7455V18.7576V18.7696V18.7817V18.7938V18.8059V18.818V18.8301V18.8422V18.8543V18.8664V18.8785V18.8906V18.9027V18.9147V18.9268V18.9389V18.951V18.9632V18.9753V18.9874V18.9995V19.0116V19.0237V19.0358V19.0479V19.06V19.0721V19.0842V19.0963V19.1085V19.1206V19.1327V19.1448V19.1569V19.169V19.1812V19.1933V19.2054V19.2175V19.2297V19.2418V19.2539V19.266V19.2782V19.2903V19.3024V19.3145V19.3267V19.3388V19.3509V19.3631V19.3752V19.3874V19.3995V19.4116V19.4238V19.4359V19.448V19.4602V19.4723V19.4845V19.4966V19.5088V19.5209V19.5331V19.5452V19.5574V19.5695V19.5817V19.5938V19.606V19.6181V19.6303V19.6424V19.6546V19.6667V19.6789V19.691V19.7032V19.7154V19.7275V19.7397V19.7518V19.764V19.7762V19.7883V19.8005V19.8127V19.8248V19.837V19.8492V19.8613V19.8735V19.8857V19.8978V19.91V19.9222V19.9344V19.9465V19.9587V19.9709V19.9831V19.9952V20.0074V20.0196V20.0318V20.044V20.0561V20.0683V20.0805V20.0927V20.1049V20.1171V20.1292V20.1414V20.1536V20.1658V20.178V20.1902V20.2024V20.2146V20.2267V20.2389V20.2511V20.2633V20.2755V20.2877V20.2999V20.3121V20.3243V20.3365V20.3487V20.3609V20.3731V20.3853V20.3975V20.4097V20.4219V20.4341V20.4463V20.4585V20.4707V20.4829V20.4951V20.5073V20.5195V20.5317V20.5439V20.5561V20.5683V20.5806V20.5928V20.605V20.6172V20.6294V20.6416V20.6538V20.666V20.6782V20.6905V20.7027V20.7149V20.7271V20.7393V20.7515V20.7637V20.776V20.7882V20.8004V20.8126V20.8248V20.8371V20.8493V20.8615V20.8737V20.8859V20.8982V20.9104V20.9226V20.9348V20.9471V20.9593V20.9715V20.9837V20.996V21.0082V21.0204V21.0326V21.0449V21.0571V21.0693V21.0816V21.0938V21.106V21.1182V21.1305V21.1427V21.1549V21.1672V21.1794V21.1916V21.2039V21.2161V21.2283V21.2406V21.2528V21.265V21.2773V21.2895V21.3018V21.314V21.3262V21.3385V21.3507V21.3629V21.3752V21.3874V21.3997V21.4119V21.4241V21.4364V21.4486V21.4609V21.4731V21.4853V21.4976V21.5098V21.5221V21.5343V21.5466V21.5588V21.571V21.5833V21.5955V21.6078V21.62V21.6323V21.6445V21.6568V21.669V21.6812V21.6935V21.7057V21.718V21.7302V21.7425V21.7547V21.767V21.7792V21.7915V21.8037V21.816V21.8282V21.8405V21.8527V21.865V21.8772V21.8895V21.9017V21.914V21.9262V21.9385V21.9507V21.963V21.9752V21.9875V21.9997V22.012V22.0242V22.0365V22.0487V22.061V22.0732V22.0855V22.0978V22.11V22.1223V22.1345V22.1468V22.159V22.1713V22.1835V22.1958V22.208V22.2203V22.2325V22.2448V22.2571V22.2693V22.2816V22.2938V22.3061V22.3183V22.3306V22.3428V22.3551V22.3674V22.3796V22.3919V22.4041V22.4164V22.4286V22.4409V22.4531V22.4654V22.4777V22.4899V22.5022V22.5144V22.5267V22.5389V22.5512V22.5635V22.5757V22.588V22.6002V22.6125V22.6247V22.637V22.6492V22.6615V22.6738V22.686V22.6983V22.7105V22.7228V22.735V22.7473V22.7596V22.7718V22.7841V22.7963V22.8086V22.8208V22.8331V22.8453V22.8576V22.8699V22.8821V22.8944V22.9066V22.9189V22.9311V22.9434V22.9556V22.9679V22.9802V22.9924V23.0047V23.0169V23.0292V23.0414V23.0537V23.0659V23.0782V23.0904V23.1027V23.1149V23.1272V23.1395V23.1517V23.164V23.1762V23.1885V23.2007V23.213V23.2252V23.2375V23.2497V23.262V23.2742V23.2865V23.2987V23.311V23.3232V23.3355V23.3477V23.36V23.3722V23.3845V23.3967V23.409V23.4212V23.4335V23.4457V23.458V23.4702V23.4825V23.4947V23.507V23.5192V23.5315V23.5437V23.556V23.5682V23.5804V23.5927V23.6049V23.6172V23.6294V23.6417V23.6539V23.6662V23.6784V23.6906V23.7029V23.7151V23.7274V23.7396V23.7519V23.7641V23.7763V23.7886V23.8008V23.8131V23.8253V23.8375V23.8498V23.862V23.8743V23.8865V23.8987V23.911V23.9232V23.9354V23.9477V23.9599V23.9722V23.9844V23.9966V24.0089V24.0211V24.0333V24.0456V24.0578V24.07V24.0823V24.0945V24.1067V24.119V24.1312V24.1434V24.1556V24.1679V24.1801V24.1923V24.2046V24.2168V24.229V24.2412V24.2535V24.2657V24.2779V24.2901V24.3024V24.3146V24.3268V24.339V24.3513V24.3635V24.3757V24.3879V24.4001V24.4124V24.4246V24.4368V24.449V24.4612V24.4734V24.4857V24.4979V24.5101V24.5223V24.5345V24.5467V24.559V24.5712V24.5834V24.5956V24.6078V24.62V24.6322V24.6444V24.6566V24.6688V24.6811V24.6933V24.7043C11.5772 24.8331 11.606 24.9606 11.664 25.0754C11.7222 25.1906 11.8079 25.2894 11.9135 25.3627L11.9135 25.3628L11.918 25.3657C12.0288 25.4341 12.1562 25.4704 12.2862 25.4704C12.4161 25.4704 12.5434 25.4342 12.6541 25.3659C14.0725 24.5044 15.5097 23.6525 16.9174 22.8181C17.138 22.6873 17.3579 22.557 17.5769 22.4271L19.8835 21.0619C20.0061 21.0034 20.1121 20.9146 20.1917 20.8037C20.2723 20.6916 20.3232 20.5606 20.3398 20.4232L20.341 20.4132L20.3402 20.4032C20.3291 20.2651 20.2817 20.1324 20.2027 20.0189C20.1248 19.9069 20.019 19.8177 19.8959 19.7603L12.5522 15.3665ZM18.2397 20.3471L12.9922 23.4688V17.2133L18.2397 20.3471Z" fill="#BCBCBC" stroke="#BCBCBC" stroke-width="0.2"/>
</svg>
