<svg width="16" height="16" viewBox="0 0 16 16" fill="none" xmlns="http://www.w3.org/2000/svg">
<path fill-rule="evenodd" clip-rule="evenodd" d="M3.87774 10.9273C1.80892 8.27027 1.99579 4.42622 4.43833 1.98367C7.08322 -0.661223 11.3714 -0.661223 14.0163 1.98367C16.6612 4.62856 16.6612 8.91678 14.0163 11.5617C11.5738 14.0042 7.72973 14.1911 5.07275 12.1223C5.06128 12.1352 5.04935 12.1479 5.03696 12.1603L1.44521 15.752C1.1146 16.0827 0.578569 16.0827 0.247958 15.752C-0.082653 15.4214 -0.082653 14.8854 0.247958 14.5548L3.83971 10.963C3.8521 10.9506 3.86479 10.9387 3.87774 10.9273ZM5.63558 3.18092C3.65191 5.16459 3.65191 8.38075 5.63558 10.3644C7.61925 12.3481 10.8354 12.3481 12.8191 10.3644C14.8028 8.38075 14.8028 5.16459 12.8191 3.18092C10.8354 1.19725 7.61925 1.19725 5.63558 3.18092Z" fill="#BCBCBC"/>
</svg>
