<svg width="26" height="26" viewBox="0 0 26 26" fill="none" xmlns="http://www.w3.org/2000/svg">
<path d="M21.06 20.4212L19.0233 18.352L19.3375 17.767L19.6408 17.3553C21.515 14.7878 22.165 11.8953 21.5583 8.77532C21.0275 6.01282 19.5867 3.77032 17.2792 2.11282C14.3325 -0.0105093 11.05 -0.541343 7.52917 0.552824C5.35167 1.23532 3.51 2.57866 2.06917 4.55032C1.12667 5.83949 0.498333 7.29116 0.195 8.87282C0.140833 9.17616 0.0975 9.47949 0.0541667 9.78282L0 10.1837V11.6245L0.0541667 12.0037C0.0975 12.307 0.140833 12.6103 0.195 12.9028C0.498333 14.5278 1.1375 16.012 2.12333 17.3228C3.69417 19.4245 5.70917 20.8003 8.10333 21.407C11.4183 22.252 14.5167 21.667 17.3117 19.6737C17.4308 19.587 17.5608 19.4895 17.68 19.4028L18.0158 19.1537L18.5142 19.0995L19.0233 19.652C21.0058 21.6345 22.9883 23.6278 24.9817 25.5995C25.1008 25.7187 25.2525 25.8162 25.3933 25.9137C25.4258 25.9353 25.4692 25.9678 25.5017 25.9895L25.7075 25.957C25.8592 25.892 25.9567 25.7728 25.9892 25.6212C26.0217 25.4478 25.9567 25.2745 25.7942 25.1228C24.2017 23.5737 22.6308 22.0028 21.06 20.4212ZM10.9092 20.8762C10.8983 20.8762 10.8875 20.8762 10.8767 20.8762C5.40583 20.8762 0.9425 16.4128 0.91 10.9203C0.888333 5.42782 5.3625 0.953657 10.8658 0.931991C10.8767 0.931991 10.8875 0.931991 10.9092 0.931991C13.5525 0.931991 16.0442 1.96116 17.9183 3.83532C19.8142 5.72032 20.8542 8.22282 20.8542 10.8878C20.8758 16.3803 16.4125 20.8653 10.9092 20.8762Z" fill="white"/>
<path d="M5.89324 6.03449C4.69074 7.26949 4.09491 8.75366 4.07324 10.552L4.08408 10.7253C4.09491 10.8662 4.10574 11.007 4.11658 11.1478C4.13824 11.332 4.30074 11.4945 4.49574 11.5053C4.63658 11.5162 4.76658 11.4837 4.85324 11.4078C4.95074 11.3212 5.00491 11.1912 5.01574 11.0287L5.02658 10.747C5.04824 10.2378 5.05908 9.69616 5.16741 9.17616C5.32991 8.29866 5.77408 7.48616 6.56491 6.63032C6.74908 6.43532 6.73824 6.17532 6.54324 6.00199C6.34824 5.82866 6.07741 5.83949 5.89324 6.03449Z" fill="white"/>
</svg>
