<svg width="16" height="16" viewBox="0 0 16 16" fill="none" xmlns="http://www.w3.org/2000/svg">
<path fill-rule="evenodd" clip-rule="evenodd" d="M6.87488 0.255066C7.58641 -0.0850218 8.41359 -0.0850218 9.12512 0.255066C9.43423 0.402811 9.71748 0.644409 10.1097 0.978939C10.13 0.996302 10.1507 1.01392 10.1716 1.03178C10.3621 1.1941 10.4221 1.244 10.4828 1.28468C10.6372 1.38815 10.8105 1.45996 10.9929 1.49596C11.0645 1.51011 11.1422 1.51723 11.3917 1.53714C11.4191 1.53933 11.4462 1.54148 11.4729 1.5436C11.9867 1.58437 12.3579 1.61382 12.6809 1.72792C13.4245 1.99057 14.0094 2.57548 14.2721 3.31908C14.3862 3.64213 14.4156 4.01325 14.4564 4.52712C14.4585 4.5538 14.4607 4.58085 14.4629 4.60831C14.4828 4.85776 14.4899 4.93547 14.504 5.00715C14.54 5.18947 14.6119 5.36284 14.7153 5.51721C14.756 5.57791 14.8059 5.63789 14.9682 5.82836C14.9861 5.84933 15.0037 5.86998 15.0211 5.89035C15.3556 6.28253 15.5972 6.56577 15.7449 6.87488C16.085 7.58641 16.085 8.41359 15.7449 9.12512C15.5972 9.43423 15.3556 9.71747 15.0211 10.1097C15.0037 10.13 14.9861 10.1507 14.9682 10.1716C14.8059 10.3621 14.756 10.4221 14.7153 10.4828C14.6119 10.6372 14.54 10.8105 14.504 10.9929C14.4899 11.0645 14.4828 11.1422 14.4629 11.3917C14.4607 11.4191 14.4585 11.4462 14.4564 11.4729C14.4156 11.9867 14.3862 12.3579 14.2721 12.6809C14.0094 13.4245 13.4245 14.0094 12.6809 14.2721C12.3579 14.3862 11.9867 14.4156 11.4729 14.4564C11.4462 14.4585 11.4191 14.4607 11.3917 14.4629C11.1422 14.4828 11.0645 14.4899 10.9929 14.504C10.8105 14.54 10.6372 14.6119 10.4828 14.7153C10.4221 14.756 10.3621 14.8059 10.1716 14.9682C10.1507 14.9861 10.13 15.0037 10.1097 15.0211C9.71747 15.3556 9.43423 15.5972 9.12512 15.7449C8.41359 16.085 7.58641 16.085 6.87488 15.7449C6.56577 15.5972 6.28252 15.3556 5.89032 15.0211C5.86997 15.0037 5.84932 14.9861 5.82836 14.9682C5.63789 14.8059 5.57791 14.756 5.51721 14.7153C5.36284 14.6119 5.18947 14.54 5.00715 14.504C4.93547 14.4899 4.85776 14.4828 4.60831 14.4629C4.58085 14.4607 4.5538 14.4585 4.52712 14.4564C4.01325 14.4156 3.64213 14.3862 3.31908 14.2721C2.57548 14.0094 1.99057 13.4245 1.72792 12.6809C1.61382 12.3579 1.58437 11.9867 1.5436 11.4729C1.54148 11.4462 1.53933 11.4191 1.53714 11.3917C1.51723 11.1422 1.51011 11.0645 1.49596 10.9929C1.45996 10.8105 1.38815 10.6372 1.28468 10.4828C1.244 10.4221 1.1941 10.3621 1.03178 10.1716C1.01392 10.1507 0.996303 10.13 0.97894 10.1097C0.64441 9.71748 0.402812 9.43424 0.255066 9.12512C-0.0850218 8.41359 -0.0850218 7.58641 0.255066 6.87488C0.402811 6.56577 0.644408 6.28252 0.978935 5.89033C0.9963 5.86997 1.01391 5.84932 1.03178 5.82836C1.19409 5.63789 1.244 5.57791 1.28468 5.51721C1.38815 5.36284 1.45996 5.18947 1.49596 5.00715C1.51011 4.93547 1.51723 4.85776 1.53714 4.60831C1.53933 4.58085 1.54148 4.5538 1.5436 4.52712C1.58437 4.01325 1.61382 3.64213 1.72792 3.31908C1.99057 2.57548 2.57548 1.99057 3.31908 1.72792C3.64213 1.61382 4.01325 1.58437 4.52712 1.5436C4.5538 1.54148 4.58085 1.53933 4.60831 1.53714C4.85776 1.51723 4.93547 1.51011 5.00715 1.49596C5.18947 1.45996 5.36284 1.38815 5.51721 1.28468C5.57791 1.244 5.63789 1.1941 5.82836 1.03178C5.84932 1.01392 5.86997 0.996301 5.89033 0.978937C6.28252 0.644409 6.56577 0.402811 6.87488 0.255066ZM8.60583 1.34152C8.2227 1.15839 7.7773 1.15839 7.39417 1.34152C7.24604 1.41231 7.08991 1.53881 6.60941 1.94829C6.60151 1.95502 6.59373 1.96166 6.58604 1.96821C6.42835 2.10264 6.31325 2.20078 6.18765 2.28496C5.90095 2.47711 5.57898 2.61048 5.24038 2.67733C5.09204 2.70661 4.94126 2.71862 4.73469 2.73506C4.72463 2.73586 4.71443 2.73667 4.7041 2.7375C4.07478 2.78772 3.87493 2.80867 3.72013 2.86335C3.31973 3.00478 3.00478 3.31973 2.86335 3.72013C2.80867 3.87493 2.78772 4.07478 2.7375 4.7041C2.73667 4.71443 2.73586 4.72463 2.73506 4.73469C2.71862 4.94126 2.70661 5.09204 2.67733 5.24038C2.61048 5.57898 2.47711 5.90095 2.28496 6.18765C2.20077 6.31325 2.10264 6.42836 1.9682 6.58605C1.96165 6.59373 1.95502 6.60152 1.94829 6.60941C1.53881 7.08991 1.41231 7.24604 1.34152 7.39417C1.15839 7.7773 1.15839 8.2227 1.34152 8.60583C1.41231 8.75396 1.53881 8.91009 1.94829 9.3906C1.95502 9.39849 1.96166 9.40627 1.96821 9.41396C2.10264 9.57165 2.20078 9.68676 2.28496 9.81235C2.47711 10.099 2.61048 10.421 2.67733 10.7596C2.70661 10.908 2.71862 11.0587 2.73506 11.2653C2.73586 11.2754 2.73667 11.2856 2.7375 11.2959C2.78772 11.9252 2.80867 12.1251 2.86335 12.2799C3.00478 12.6803 3.31973 12.9952 3.72013 13.1367C3.87493 13.1913 4.07478 13.2123 4.7041 13.2625L4.73469 13.2649C4.94126 13.2814 5.09204 13.2934 5.24038 13.3227C5.57898 13.3895 5.90095 13.5229 6.18765 13.715C6.31325 13.7992 6.42836 13.8974 6.58605 14.0318L6.60941 14.0517C7.08991 14.4612 7.24604 14.5877 7.39417 14.6585C7.7773 14.8416 8.2227 14.8416 8.60583 14.6585C8.75396 14.5877 8.91009 14.4612 9.3906 14.0517L9.41396 14.0318C9.57165 13.8974 9.68676 13.7992 9.81235 13.715C10.099 13.5229 10.421 13.3895 10.7596 13.3227C10.908 13.2934 11.0587 13.2814 11.2653 13.2649L11.2959 13.2625C11.9252 13.2123 12.1251 13.1913 12.2799 13.1367C12.6803 12.9952 12.9952 12.6803 13.1367 12.2799C13.1913 12.1251 13.2123 11.9252 13.2625 11.2959L13.2649 11.2653C13.2814 11.0587 13.2934 10.908 13.3227 10.7596C13.3895 10.421 13.5229 10.099 13.715 9.81235C13.7992 9.68676 13.8974 9.57165 14.0318 9.41396L14.0517 9.3906C14.4612 8.91009 14.5877 8.75396 14.6585 8.60583C14.8416 8.2227 14.8416 7.7773 14.6585 7.39417C14.5877 7.24604 14.4612 7.08991 14.0517 6.60941L14.0318 6.58603C13.8974 6.42835 13.7992 6.31324 13.715 6.18765C13.5229 5.90095 13.3895 5.57898 13.3227 5.24038C13.2934 5.09204 13.2814 4.94126 13.2649 4.73469L13.2625 4.7041C13.2123 4.07478 13.1913 3.87493 13.1367 3.72013C12.9952 3.31973 12.6803 3.00478 12.2799 2.86335C12.1251 2.80867 11.9252 2.78772 11.2959 2.7375C11.2856 2.73667 11.2754 2.73586 11.2653 2.73506C11.0587 2.71862 10.908 2.70661 10.7596 2.67733C10.421 2.61048 10.099 2.47711 9.81235 2.28496C9.68675 2.20077 9.57164 2.10264 9.41395 1.9682C9.40627 1.96165 9.39849 1.95502 9.3906 1.94829C8.91009 1.53881 8.75396 1.41231 8.60583 1.34152ZM11.2355 5.56731C11.4706 5.80243 11.4706 6.18366 11.2355 6.41878L7.22157 10.4327C6.98644 10.6678 6.60522 10.6678 6.37009 10.4327L4.76452 8.82713C4.52939 8.592 4.52939 8.21078 4.76452 7.97565C4.99965 7.74052 5.38087 7.74052 5.616 7.97565L6.79583 9.15548L10.384 5.56731C10.6191 5.33218 11.0003 5.33218 11.2355 5.56731Z" fill="#4DDA65"/>
</svg>
