<svg width="20" height="20" viewBox="0 0 20 20" fill="none" xmlns="http://www.w3.org/2000/svg">
<path d="M14.4797 17.1477C14.3547 17.1977 14.238 17.2727 14.113 17.3393C12.438 18.2727 10.6547 18.6143 8.76303 18.331C6.29637 17.9643 4.34637 16.7143 2.96303 14.6477C1.5797 12.581 1.21303 10.2977 1.82137 7.88098C2.32137 5.89765 3.4297 4.30599 5.09637 3.13932C7.39637 1.51432 9.91303 1.16432 12.5964 1.98099C13.388 2.22265 14.1047 2.61432 14.7964 3.06432C15.1797 3.30599 15.6464 3.18932 15.8714 2.83099C16.1047 2.46432 16.0047 2.00599 15.6214 1.75599C13.1464 0.114319 10.4547 -0.394014 7.5797 0.305986C2.7297 1.48932 -0.836965 6.23099 0.171368 11.8893C0.529701 13.881 1.4547 15.5893 2.87137 17.0227C4.36303 18.531 6.16303 19.481 8.2547 19.8393C8.6297 19.906 9.01303 19.9393 9.38803 19.9893C9.7797 19.9893 10.1714 19.9893 10.563 19.9893C10.613 19.981 10.663 19.9643 10.713 19.956C11.7964 19.881 12.8464 19.631 13.8464 19.1977C14.2964 19.006 14.738 18.7727 15.163 18.5227C15.5214 18.3143 15.6214 17.8727 15.438 17.5143C15.2714 17.1643 14.8464 16.9977 14.4797 17.1477Z" fill="#030303"/>
<path d="M9.61303 12.006C8.31303 10.7726 7.0047 9.53096 5.7047 8.29762C5.33803 7.94762 4.87136 7.93929 4.5547 8.26429C4.23803 8.58929 4.2547 9.07262 4.61303 9.40596C5.9547 10.681 7.29636 11.9476 8.63803 13.2226C9.04636 13.606 9.5297 13.7976 10.1797 13.806C10.713 13.781 11.238 13.531 11.638 13.031C14.338 9.67262 17.038 6.30596 19.7464 2.94762C19.7964 2.88096 19.8547 2.81429 19.8964 2.73929C20.0547 2.46429 20.0214 2.13096 19.8297 1.88096C19.638 1.63929 19.313 1.53929 19.0047 1.61429C18.738 1.68096 18.588 1.88929 18.4297 2.08929C15.788 5.37262 13.1464 8.65596 10.5047 11.9393C10.1964 12.331 9.96303 12.3393 9.61303 12.006Z" fill="#4DDA65"/>
<path d="M19.6714 7.50607C19.5964 7.19774 19.3964 6.99774 19.0797 6.92274C18.788 6.85607 18.538 6.94774 18.338 7.16441C18.1297 7.38941 18.1047 7.66441 18.1797 7.94774C18.5047 9.28941 18.513 10.6227 18.188 11.9644C17.9547 12.9311 17.538 13.8227 17.0047 14.6644C16.7547 15.0561 16.863 15.5227 17.213 15.7477C17.6047 15.9977 18.063 15.8894 18.3297 15.4727C19.388 13.8394 19.9464 12.0561 19.988 9.89774C19.988 9.23108 19.888 8.35608 19.6714 7.50607Z" fill="#030303"/>
</svg>
