<svg width="24" height="25" viewBox="0 0 24 25" fill="none" xmlns="http://www.w3.org/2000/svg">
<path d="M1.97409 14.7374C2.60176 14.7476 2.71311 14.8184 2.93583 15.4056C3.03707 15.6587 3.1383 15.8915 3.23954 16.1244C3.45213 16.59 3.42176 16.7318 3.05732 17.0861C2.71311 17.4202 2.51064 17.7846 2.42965 18.1693C2.30817 18.8172 2.46003 19.3841 2.88522 19.8498C3.24966 20.2447 3.64448 20.6496 4.10004 21.0748C4.87956 21.8037 6.02352 21.7936 6.81316 21.0545C6.84353 21.0242 6.8739 20.9837 6.91439 20.9533C7.02575 20.8318 7.16748 20.6698 7.36995 20.6293C7.40032 20.6192 7.44082 20.6192 7.47119 20.6192C7.63317 20.6192 7.78502 20.7002 7.89638 20.7711C7.93687 20.7913 7.97737 20.8217 8.02798 20.8419L8.21021 20.9128C8.43293 21.0039 8.65564 21.095 8.87836 21.1659C9.16182 21.257 9.29343 21.4595 9.28331 21.7531C9.25294 22.2795 9.33392 22.6946 9.54652 23.0286C9.82998 23.5044 10.2349 23.8081 10.7613 23.9398C10.8221 23.9499 10.8828 23.9802 10.9436 24.0005L13.0695 24.0106C13.1303 23.9904 13.1606 23.9802 13.2011 23.9701C13.9908 23.7677 14.4767 23.302 14.6792 22.5528C14.7298 22.3504 14.7399 22.1175 14.7399 21.8745V21.7024C14.75 21.4392 14.8715 21.2671 15.1145 21.1861C15.4081 21.0849 15.7016 20.9735 15.9851 20.8419C16.5925 20.5787 16.7241 20.6091 17.1797 21.0444C17.9794 21.8037 19.1335 21.8037 19.9232 21.0545C20.4091 20.599 20.7837 20.2143 21.1279 19.8397C21.5429 19.374 21.6948 18.8375 21.5834 18.1794C21.5024 17.734 21.2696 17.3493 20.8343 16.9646C20.6116 16.7621 20.5711 16.5192 20.7027 16.2458C20.8039 16.0434 20.895 15.8409 20.976 15.6384L21.0469 15.4562C21.0671 15.4157 21.0773 15.3651 21.0874 15.3145C21.1279 15.1525 21.1886 14.95 21.3607 14.8285C21.5429 14.7071 21.7657 14.7172 21.9378 14.7273C21.9884 14.7273 22.0289 14.7273 22.0795 14.7273C23.0412 14.6969 23.8309 14.0187 23.9422 13.1075C24.0131 12.5406 24.003 11.9332 23.9928 11.3562V11.1841C23.9726 10.4653 23.6588 9.92874 23.0311 9.53392C22.6869 9.32133 22.282 9.24034 21.7252 9.27071C21.462 9.28084 21.2494 9.15935 21.1582 8.88602C21.057 8.58231 20.9355 8.28873 20.8039 7.99514C20.5508 7.4181 20.5812 7.29662 21.0165 6.83093C21.7859 6.03117 21.7859 4.86696 21.0368 4.0672C20.5812 3.58127 20.1965 3.2067 19.8422 2.88274C19.1133 2.21459 17.9896 2.21459 17.2505 2.88274C17.1493 2.97386 17.0683 3.07509 16.9975 3.17633C16.957 3.23707 16.9063 3.28769 16.8659 3.3383L16.714 3.52053L16.2989 3.32818C16.1775 3.26744 16.0661 3.21682 15.9649 3.17633L15.8231 3.10546C15.7219 3.05484 15.6308 3.01435 15.5498 2.9941C14.7804 2.8625 14.6893 2.31582 14.6994 1.84002C14.7095 0.959268 14.0009 0.149383 13.1201 0.0481469C12.5735 -0.0125944 11.9863 -0.00247087 11.3991 0.00765269H11.1663C10.2653 0.0177763 9.4959 0.675808 9.3238 1.56668C9.28331 1.7894 9.28331 2.02224 9.28331 2.26521C9.28331 2.56891 9.1517 2.75114 8.88849 2.84225L8.72651 2.89287C8.50379 2.97386 8.2912 3.0346 8.10897 3.14596C7.50156 3.53065 7.09662 3.25732 6.78279 2.94349C6.05389 2.21459 4.8998 2.20447 4.12029 2.93336C3.66473 3.35855 3.25979 3.76349 2.89534 4.15831C2.47015 4.624 2.3183 5.17067 2.43978 5.83882C2.52077 6.28426 2.75361 6.65883 3.1788 7.0334C3.41164 7.23588 3.45213 7.48896 3.3104 7.77242C3.1788 8.03564 3.06744 8.30897 2.95608 8.58231C2.71311 9.18972 2.60176 9.27071 1.95385 9.28084C1.00223 9.30108 0.253089 9.91862 0.0404943 10.8399C0.0303707 10.8804 0.0202471 10.9209 0 10.9613V13.0468C0.0202471 13.0873 0.0303707 13.1177 0.0404943 13.1582C0.253089 14.1199 0.992109 14.7273 1.97409 14.7374ZM0.830132 11.2448C0.840256 10.607 1.30594 10.1312 1.95385 10.111C2.1462 10.111 2.33854 10.111 2.53089 10.111H2.94596C3.23954 10.111 3.37115 10.0199 3.44201 9.74652C3.65461 8.98725 3.95831 8.24823 4.34301 7.56995C4.49486 7.30674 4.47461 7.17513 4.26202 6.96254C4.16078 6.85118 4.04942 6.74994 3.93807 6.63859C3.81658 6.5171 3.6951 6.39562 3.58374 6.27414C3.10793 5.77808 3.10793 5.12005 3.58374 4.624C3.92794 4.26967 4.27214 3.92547 4.62647 3.58127C5.1124 3.10546 5.78055 3.10546 6.27661 3.58127C6.39809 3.70275 6.51957 3.81411 6.63093 3.93559L6.95489 4.25955C7.16748 4.46202 7.30921 4.48227 7.54205 4.35066C8.2507 3.94572 8.98972 3.64201 9.75911 3.42942C9.99195 3.36868 10.0932 3.23707 10.1033 2.98398C10.1033 2.81188 10.1033 2.62966 10.1033 2.45755C10.1033 2.29558 10.1033 2.14372 10.1033 1.98175C10.1134 1.31359 10.5892 0.847908 11.2574 0.837785C11.4295 0.837785 11.6016 0.837785 11.7737 0.837785H12.0065H12.2293C12.4014 0.837785 12.5836 0.837785 12.7557 0.837785C13.4137 0.847908 13.8895 1.31359 13.8996 1.97162C13.8996 2.15385 13.8996 2.33607 13.8996 2.50817V2.95361C13.8996 3.24719 14.0009 3.36868 14.2742 3.43954C15.0436 3.65213 15.7624 3.95584 16.4305 4.33041C16.7039 4.49239 16.8355 4.47214 17.0784 4.22918L17.3518 3.95584C17.4834 3.82424 17.615 3.69263 17.7466 3.56102C18.2427 3.08522 18.8906 3.08522 19.3765 3.56102C19.7308 3.90522 20.0851 4.25955 20.4395 4.624C20.9153 5.10993 20.9153 5.75784 20.4395 6.25389C20.3079 6.39562 20.1661 6.52723 20.0345 6.65883L19.7612 6.93217C19.5486 7.15489 19.5284 7.28649 19.6701 7.53958C20.0649 8.23811 20.3686 8.97713 20.5812 9.7364C20.6521 9.97936 20.7837 10.0806 21.0469 10.0907C21.219 10.0907 21.4012 10.0907 21.5733 10.0907H22.0289C22.7173 10.1008 23.183 10.5665 23.1931 11.2651C23.1931 11.7611 23.1931 12.247 23.1931 12.7431C23.183 13.4112 22.7173 13.8871 22.0491 13.8972C21.8669 13.8972 21.6847 13.8972 21.4923 13.8972H21.1076C20.7837 13.8972 20.6622 13.9883 20.5812 14.292C20.3686 15.0513 20.0649 15.77 19.6903 16.4382C19.5385 16.7014 19.5587 16.833 19.7713 17.0456L20.0548 17.3291C20.1965 17.4708 20.3382 17.6024 20.4698 17.7441C20.9254 18.2199 20.9254 18.8881 20.4698 19.3538C20.1155 19.7182 19.7612 20.0827 19.3967 20.437C18.9209 20.8926 18.2629 20.8926 17.7871 20.437C17.6454 20.3054 17.5138 20.1738 17.3822 20.0321L17.1088 19.7587C16.876 19.536 16.7545 19.5158 16.4812 19.6676C15.8029 20.0523 15.074 20.356 14.3046 20.5686C14.0414 20.6395 13.9401 20.7711 13.9401 21.0444C13.9401 21.2064 13.9401 21.3684 13.9401 21.5303C13.9401 21.6923 13.9401 21.8644 13.9401 22.0264C13.93 22.6946 13.4542 23.1704 12.7759 23.1704C12.5228 23.1704 12.2596 23.1704 12.0065 23.1704C11.7636 23.1704 11.5206 23.1704 11.2776 23.1704C10.6297 23.1602 10.1438 22.6844 10.1337 22.0365C10.1337 21.8442 10.1337 21.6518 10.1337 21.4494V21.0647C10.1337 20.7508 10.0426 20.6293 9.74899 20.5484C8.98972 20.3358 8.27095 20.0321 7.6028 19.6575C7.32946 19.5056 7.19785 19.5158 6.95489 19.7587L6.71192 20.0017C6.57019 20.1434 6.42846 20.2851 6.28673 20.4269C5.8008 20.8926 5.14277 20.8926 4.65684 20.4269C4.30251 20.0726 3.94819 19.7283 3.59386 19.3639C3.11806 18.878 3.11806 18.2199 3.59386 17.734C3.71535 17.6125 3.83683 17.491 3.95831 17.3696C4.05955 17.2683 4.17091 17.157 4.27214 17.0557C4.48474 16.833 4.50499 16.7014 4.36326 16.4483C3.96844 15.7498 3.66473 15.0108 3.45213 14.2515C3.38127 13.9984 3.24966 13.9073 2.98645 13.8972C2.81435 13.8972 2.64225 13.8972 2.48027 13.8972C2.3183 13.8972 2.15632 13.8972 2.00447 13.8972C1.32619 13.8871 0.850379 13.4214 0.850379 12.7532C0.820009 12.2572 0.820009 11.751 0.830132 11.2448Z" fill="white"/>
<path d="M12.0167 17.0561C14.8006 17.0561 17.0582 14.7985 17.0683 12.0145C17.0683 9.24069 14.8108 6.97301 12.0369 6.96289C12.0268 6.96289 12.0268 6.96289 12.0167 6.96289C10.6702 6.96289 9.41491 7.48932 8.46329 8.43081C7.50156 9.38242 6.97513 10.658 6.97513 12.0145C6.96501 14.7985 9.23269 17.0561 12.0167 17.0561ZM9.02009 9.0281C9.81985 8.23846 10.8727 7.79302 12.0065 7.79302H12.0167C13.1404 7.79302 14.2034 8.22834 14.993 9.01797C15.7928 9.81773 16.2281 10.8706 16.2281 12.0044C16.2281 13.1383 15.7928 14.1911 15.0031 14.9909C14.2135 15.7906 13.1505 16.226 12.0167 16.2361H12.0065C10.8828 16.2361 9.81985 15.8008 9.03021 15.0111C8.23045 14.2114 7.79514 13.1585 7.79514 12.0247C7.79514 10.8908 8.23045 9.82786 9.02009 9.0281Z" fill="white"/>
</svg>
