<svg width="24" height="22" viewBox="0 0 24 22" fill="none" xmlns="http://www.w3.org/2000/svg">
<path d="M20.7154 16.5826C20.5753 16.5826 20.4553 16.6226 20.3753 16.7126C20.2653 16.8226 20.2052 17.0027 20.2052 17.2127V20.2135L1.05027 20.1935V5.45969H6.90179C7.03183 5.45969 7.10184 5.45969 7.16186 5.45969C7.3119 5.44968 7.45194 5.37966 7.54196 5.26964C7.63198 5.15961 7.67199 5.00957 7.65199 4.85953C7.61198 4.59946 7.39192 4.42942 7.07184 4.42942H5.0213C3.61094 4.42942 2.19057 4.42942 0.780203 4.41942C0.290075 4.40941 0.110029 4.55945 0 4.81952V20.8337C0.100026 21.0937 0.300078 21.2438 0.760198 21.2538C2.03053 21.2438 3.30086 21.2438 4.58119 21.2438H9.68252H20.5553C21.0455 21.2438 21.2355 21.0637 21.2355 20.5736V17.2227C21.2255 17.0727 21.1955 16.5826 20.7154 16.5826Z" fill="#030303" fill-opacity="0.5"/>
<path d="M17.6746 0.32819C17.5746 0.228164 17.4845 0.158146 17.4145 0.128138C17.3445 0.0981302 17.2645 0.078125 17.1945 0.078125C17.1044 0.078125 17.0244 0.0981302 16.9444 0.148143C16.7944 0.238167 16.7043 0.408211 16.7043 0.608263C16.6943 1.19842 16.6943 1.78857 16.6943 2.37872V3.75908L15.8541 3.88911C15.534 3.93913 15.2239 3.97914 14.9139 4.03915C12.7633 4.40925 11.0929 5.54955 9.78253 7.52006C8.85229 8.95043 8.35216 10.5809 8.32215 12.3813C8.30215 13.1815 8.38217 13.8817 8.56222 14.5119C8.61223 14.7019 8.73226 14.8019 8.94231 14.842C9.16237 14.882 9.31241 14.822 9.43244 14.6519C9.53247 14.5119 9.62249 14.3618 9.71251 14.2118L9.78253 14.0918C10.6728 12.6214 11.613 11.6011 12.7333 10.8609C13.8236 10.1507 14.9739 9.80065 16.2442 9.78064L16.6843 9.77064V11.191C16.6843 11.8012 16.6743 12.4013 16.6943 13.0115C16.7043 13.1815 16.7543 13.3716 16.8244 13.4716C16.9044 13.5916 17.0144 13.6516 17.1344 13.6617C17.3045 13.6817 17.4945 13.5816 17.6646 13.4116C19.7051 11.3611 21.7356 9.32053 23.7762 7.26999C24.0762 6.95991 24.0762 6.69984 23.7662 6.38976C21.7356 4.36924 19.7051 2.34871 17.6746 0.32819ZM17.7246 11.7812V9.47056C17.7246 9.02045 17.5646 8.8504 17.1044 8.80039C14.6138 8.55033 12.4732 9.38054 10.5727 11.3411C10.4127 11.5111 10.2927 11.6311 10.1626 11.7412L9.2824 12.4713L9.46245 11.3411C9.85255 8.91042 11.0129 7.06994 12.8933 5.86963C14.0736 5.11943 15.404 4.94939 16.4343 4.88937C16.5643 4.87937 16.6843 4.87937 16.8144 4.87937C16.9344 4.87937 17.0444 4.87937 17.1645 4.86937C17.5546 4.84936 17.7246 4.65931 17.7346 4.26921C17.7446 4.01915 17.7346 3.76908 17.7346 3.51902V1.87859L22.6859 6.8999L17.7246 11.7812Z" fill="#030303" fill-opacity="0.5"/>
</svg>
