<svg width="13" height="12" viewBox="0 0 13 12" fill="none" xmlns="http://www.w3.org/2000/svg">
<path d="M9.44746 10.8801C9.37125 10.9568 9.2679 10.9999 9.16013 10.9999C9.05237 10.9999 8.94901 10.9568 8.8728 10.8801L6.43435 8.42559C6.36032 8.34844 6.31935 8.2451 6.32028 8.13784C6.3212 8.03057 6.36394 7.92797 6.4393 7.85212C6.51465 7.77627 6.61658 7.73325 6.72314 7.73232C6.8297 7.73138 6.93236 7.77262 7.00901 7.84714L8.75372 9.60336V1.40909C8.75372 1.30059 8.79654 1.19654 8.87276 1.11982C8.94897 1.0431 9.05235 1 9.16013 1C9.26792 1 9.37129 1.0431 9.44751 1.11982C9.52372 1.19654 9.56654 1.30059 9.56654 1.40909V9.60336L11.3113 7.84714C11.3879 7.77262 11.4906 7.73138 11.5971 7.73232C11.7037 7.73325 11.8056 7.77627 11.881 7.85212C11.9563 7.92797 11.9991 8.03057 12 8.13784C12.0009 8.2451 11.9599 8.34844 11.8859 8.42559L9.44746 10.8801Z" fill="#4DDA65"/>
<path d="M3.55254 1.11986C3.62875 1.04317 3.7321 1.00009 3.83987 1.00009C3.94763 1.00009 4.05099 1.04317 4.1272 1.11986L6.56565 3.57441C6.63969 3.65156 6.68065 3.7549 6.67972 3.86216C6.6788 3.96943 6.63605 4.07203 6.5607 4.14788C6.48535 4.22373 6.38342 4.26675 6.27686 4.26769C6.1703 4.26862 6.06764 4.22738 5.99099 4.15286L4.24628 2.39664V10.5909C4.24628 10.6994 4.20346 10.8035 4.12724 10.8802C4.05103 10.9569 3.94766 11 3.83987 11C3.73208 11 3.62871 10.9569 3.55249 10.8802C3.47628 10.8035 3.43346 10.6994 3.43346 10.5909V2.39664L1.68875 4.15286C1.6121 4.22738 1.50944 4.26862 1.40288 4.26769C1.29632 4.26675 1.19439 4.22373 1.11903 4.14788C1.04368 4.07203 1.00094 3.96943 1.00002 3.86216C0.999089 3.7549 1.04005 3.65156 1.11408 3.57441L3.55254 1.11986Z" fill="#4DDA65"/>
<path d="M9.44746 10.8801C9.37125 10.9568 9.2679 10.9999 9.16013 10.9999C9.05237 10.9999 8.94901 10.9568 8.8728 10.8801L6.43435 8.42559C6.36032 8.34844 6.31935 8.2451 6.32028 8.13784C6.3212 8.03057 6.36394 7.92797 6.4393 7.85212C6.51465 7.77627 6.61658 7.73325 6.72314 7.73232C6.8297 7.73138 6.93236 7.77262 7.00901 7.84714L8.75372 9.60336V1.40909C8.75372 1.30059 8.79654 1.19654 8.87276 1.11982C8.94897 1.0431 9.05235 1 9.16013 1C9.26792 1 9.37129 1.0431 9.44751 1.11982C9.52372 1.19654 9.56654 1.30059 9.56654 1.40909V9.60336L11.3113 7.84714C11.3879 7.77262 11.4906 7.73138 11.5971 7.73232C11.7037 7.73325 11.8056 7.77627 11.881 7.85212C11.9563 7.92797 11.9991 8.03057 12 8.13784C12.0009 8.2451 11.9599 8.34844 11.8859 8.42559L9.44746 10.8801Z" stroke="#4DDA65" stroke-opacity="0.81" stroke-width="0.7"/>
<path d="M3.55254 1.11986C3.62875 1.04317 3.7321 1.00009 3.83987 1.00009C3.94763 1.00009 4.05099 1.04317 4.1272 1.11986L6.56565 3.57441C6.63969 3.65156 6.68065 3.7549 6.67972 3.86216C6.6788 3.96943 6.63605 4.07203 6.5607 4.14788C6.48535 4.22373 6.38342 4.26675 6.27686 4.26769C6.1703 4.26862 6.06764 4.22738 5.99099 4.15286L4.24628 2.39664V10.5909C4.24628 10.6994 4.20346 10.8035 4.12724 10.8802C4.05103 10.9569 3.94766 11 3.83987 11C3.73208 11 3.62871 10.9569 3.55249 10.8802C3.47628 10.8035 3.43346 10.6994 3.43346 10.5909V2.39664L1.68875 4.15286C1.6121 4.22738 1.50944 4.26862 1.40288 4.26769C1.29632 4.26675 1.19439 4.22373 1.11903 4.14788C1.04368 4.07203 1.00094 3.96943 1.00002 3.86216C0.999089 3.7549 1.04005 3.65156 1.11408 3.57441L3.55254 1.11986Z" stroke="#4DDA65" stroke-opacity="0.81" stroke-width="0.7"/>
</svg>
