<svg width="16" height="15" viewBox="0 0 16 15" fill="none" xmlns="http://www.w3.org/2000/svg">
<path d="M15.0678 6.12754C14.9609 6.50914 14.6338 6.7061 14.357 6.94614C13.4511 7.7278 12.5453 8.50331 11.6331 9.27882C11.5325 9.36499 11.5136 9.445 11.545 9.56194C11.8533 10.8791 12.1615 12.1962 12.4635 13.5195C12.583 14.0427 12.2811 14.4612 11.7526 14.5166C11.5576 14.535 11.3878 14.4735 11.2242 14.375C10.0667 13.698 8.90922 13.021 7.75802 12.3378C7.60075 12.2454 7.48752 12.2393 7.32396 12.3316C6.16647 13.021 5.00268 13.6918 3.84519 14.375C3.41113 14.6274 2.92675 14.5289 2.69399 14.135C2.57447 13.9319 2.56188 13.7226 2.61221 13.4949C2.92045 12.1901 3.21612 10.8852 3.52436 9.58041C3.55582 9.43884 3.53065 9.34652 3.41742 9.24804C2.37316 8.35559 1.3289 7.46314 0.284642 6.56454C0.0204317 6.34296 -0.0613477 6.05369 0.0455946 5.73363C0.152537 5.42589 0.379003 5.23509 0.712411 5.20432C1.45472 5.13046 2.19702 5.06891 2.93933 5.00121C3.60614 4.93966 4.27296 4.87811 4.94607 4.82272C5.06559 4.81041 5.10963 4.74271 5.14737 4.65038C5.69466 3.3948 6.23567 2.14537 6.78925 0.895937C7.01572 0.391241 7.61962 0.243525 8.04739 0.58204C8.16692 0.674363 8.23612 0.797459 8.29273 0.932866C8.83373 2.16999 9.37474 3.40095 9.90945 4.63807C9.96606 4.76733 10.0353 4.81657 10.1799 4.82887C11.1298 4.90889 12.0735 4.99506 13.0171 5.07507C13.4448 5.112 13.8726 5.14893 14.3067 5.19201C14.6841 5.22894 14.9294 5.42589 15.0364 5.78287C15.0427 5.80134 15.0553 5.8198 15.0616 5.83211C15.0678 5.93674 15.0678 6.02907 15.0678 6.12754Z" fill="#FFC107"/>
</svg>
