<svg width="16" height="15" viewBox="0 0 16 15" fill="none" xmlns="http://www.w3.org/2000/svg">
<path d="M15.0678 6.30213C14.9609 6.68397 14.6338 6.88104 14.357 7.12123C13.4511 7.90338 12.5453 8.67937 11.6331 9.45537C11.5325 9.54159 11.5136 9.62165 11.545 9.73866C11.8533 11.0566 12.1615 12.3746 12.4635 13.6987C12.583 14.2222 12.2811 14.641 11.7526 14.6964C11.5576 14.7149 11.3878 14.6533 11.2242 14.5547C10.0667 13.8773 8.90922 13.1998 7.75802 12.5162C7.60075 12.4238 7.48752 12.4177 7.32396 12.5101C6.16647 13.1998 5.00268 13.8711 3.84519 14.5547C3.41113 14.8072 2.92675 14.7087 2.69399 14.3145C2.57447 14.1113 2.56188 13.9019 2.61221 13.674C2.92045 12.3684 3.21612 11.0628 3.52436 9.75714C3.55582 9.61549 3.53065 9.52311 3.41742 9.42457C2.37316 8.53157 1.3289 7.63856 0.284642 6.73939C0.0204317 6.51768 -0.0613477 6.22823 0.0455946 5.90798C0.152537 5.60004 0.379003 5.40912 0.712411 5.37833C1.45472 5.30443 2.19702 5.24284 2.93933 5.17509C3.60614 5.11351 4.27296 5.05192 4.94607 4.99649C5.06559 4.98418 5.10963 4.91643 5.14737 4.82405C5.69466 3.56768 6.23567 2.31747 6.78925 1.06727C7.01572 0.562256 7.61962 0.414448 8.04739 0.753175C8.16692 0.845554 8.23612 0.968728 8.29273 1.10422C8.83373 2.34211 9.37474 3.57384 9.90945 4.81173C9.96606 4.94106 10.0353 4.99033 10.1799 5.00265C11.1298 5.08271 12.0735 5.16894 13.0171 5.249C13.4448 5.28595 13.8726 5.3229 14.3067 5.36601C14.6841 5.40296 14.9294 5.60004 15.0364 5.95724C15.0427 5.97572 15.0553 5.9942 15.0616 6.00651C15.0678 6.11121 15.0678 6.20359 15.0678 6.30213Z" fill="#FFC107"/>
</svg>
