<svg width="18" height="24" viewBox="0 0 18 24" fill="none" xmlns="http://www.w3.org/2000/svg">
<path d="M15.6265 9.52155C15.3477 9.50435 15.069 9.55597 14.8149 9.67185V9.23098C14.8187 8.93154 14.7415 8.63663 14.5916 8.37739C14.4417 8.11815 14.2246 7.90419 13.9632 7.75809C13.7249 7.62305 13.4576 7.54712 13.1839 7.53666C12.9102 7.5262 12.638 7.58152 12.3901 7.69797C12.3416 7.44999 12.2376 7.2162 12.0859 7.01415C11.9342 6.8121 11.7387 6.64704 11.514 6.53134C11.2894 6.41565 11.0415 6.35234 10.7889 6.34615C10.5363 6.33996 10.2856 6.39106 10.0555 6.49561V6.0848C10.5407 5.79535 10.942 5.38429 11.2196 4.89226C11.4973 4.40022 11.6417 3.84425 11.6386 3.27929C11.6374 2.70666 11.4865 2.14429 11.201 1.64791C10.9155 1.15153 10.5053 0.73835 10.011 0.449327C9.51661 0.160305 8.95531 0.00545994 8.3827 0.000141766C7.81009 -0.00517641 7.24605 0.139219 6.74643 0.41901C6.2468 0.6988 5.82894 1.10427 5.53427 1.59527C5.23959 2.08627 5.07831 2.64575 5.06643 3.21826C5.05454 3.79077 5.19246 4.35643 5.46651 4.85924C5.74055 5.36204 6.14118 5.78452 6.62876 6.0848V12.4172C6.6443 12.8717 6.58334 13.3256 6.44842 13.7599C6.43441 13.808 6.40735 13.8513 6.3702 13.8849C6.33305 13.9185 6.2873 13.9411 6.23804 13.9502C6.19466 13.9628 6.14876 13.9639 6.10485 13.9533C6.06093 13.9428 6.02051 13.921 5.98755 13.8901C5.68331 13.5875 5.41435 13.2514 5.18593 12.8882C4.55469 11.9463 2.77122 9.88226 1.58889 9.88226C1.27422 9.88354 0.966277 9.97354 0.700431 10.1419C0.434584 10.3103 0.221609 10.5502 0.0859422 10.8341C-0.0108691 11.0937 -0.0262962 11.3765 0.0417269 11.645C0.10975 11.9136 0.257998 12.155 0.466695 12.3371C1.73007 13.9819 2.76171 15.7923 3.53272 17.7177C4.15749 19.044 5.03569 20.2353 6.11781 21.2245C6.29238 21.3977 6.43095 21.6038 6.52553 21.8308C6.62011 22.0578 6.66883 22.3012 6.66888 22.5471V22.6974C6.6715 23.0421 6.80953 23.3719 7.05324 23.6156C7.29695 23.8593 7.62678 23.9974 7.97143 24H14.354C14.6986 23.9974 15.0284 23.8593 15.2721 23.6156C15.5158 23.3719 15.6539 23.0421 15.6565 22.6974V21.475C15.6529 21.4401 15.6574 21.4047 15.6695 21.3717C15.6817 21.3387 15.7012 21.3089 15.7267 21.2847C16.6806 20.2679 17.2202 18.9314 17.2396 17.5373V11.2449C17.2358 10.8077 17.0679 10.3879 16.7691 10.0687C16.4703 9.74948 16.0625 9.5542 15.6265 9.52155ZM14.6245 21.5452V22.7676C14.622 22.8412 14.5916 22.9111 14.5396 22.9632C14.4875 23.0153 14.4175 23.0456 14.3439 23.0481H7.98146C7.90784 23.0456 7.8379 23.0153 7.78582 22.9632C7.73374 22.9111 7.70337 22.8412 7.70088 22.7676V22.6173C7.7005 22.2349 7.62412 21.8564 7.47619 21.5038C7.32826 21.1511 7.11176 20.8314 6.8392 20.5632C5.86615 19.6695 5.06774 18.6026 4.4846 17.4171C3.66769 15.3599 2.56099 13.4299 1.19811 11.6858C1.04782 11.5355 0.987716 11.3952 1.02779 11.305C1.08606 11.2021 1.17049 11.1164 1.27254 11.0566C1.37459 10.9967 1.49066 10.9649 1.60895 10.9644C2.06986 10.9644 3.49265 12.2068 4.36437 13.5194C4.65499 13.9361 4.99104 14.3192 5.36633 14.6616C5.5266 14.8103 5.72171 14.9162 5.93367 14.9697C6.14564 15.0231 6.36763 15.0224 6.57923 14.9675C6.79082 14.9126 6.98518 14.8053 7.14442 14.6556C7.30367 14.5058 7.42272 14.3184 7.4905 14.1106C7.66052 13.5695 7.74172 13.0044 7.73097 12.4373V3.30935C7.73097 3.12864 7.80274 2.95534 7.93051 2.82756C8.05829 2.69979 8.23159 2.62802 8.4123 2.62802C8.593 2.62802 8.7663 2.69979 8.89408 2.82756C9.02185 2.95534 9.09363 3.12864 9.09363 3.30935V11.6457C9.07872 11.7199 9.08049 11.7964 9.09876 11.8698C9.11703 11.9432 9.15137 12.0117 9.1993 12.0702C9.24723 12.1287 9.30755 12.1759 9.37592 12.2083C9.44429 12.2406 9.51897 12.2574 9.59461 12.2574C9.67026 12.2574 9.74494 12.2406 9.8133 12.2083C9.88167 12.1759 9.94199 12.1287 9.98992 12.0702C10.0378 12.0117 10.0722 11.9432 10.0905 11.8698C10.1087 11.7964 10.1105 11.7199 10.0956 11.6457V8.00858C10.0956 7.82788 10.1674 7.65457 10.2951 7.5268C10.4229 7.39902 10.5962 7.32725 10.7769 7.32725C10.9576 7.32725 11.1309 7.39902 11.2587 7.5268C11.3865 7.65457 11.4583 7.82788 11.4583 8.00858V11.5756C11.4434 11.6497 11.4451 11.7263 11.4634 11.7997C11.4817 11.8731 11.516 11.9415 11.5639 12.0001C11.6119 12.0586 11.6722 12.1057 11.7406 12.1381C11.8089 12.1705 11.8836 12.1873 11.9592 12.1873C12.0349 12.1873 12.1096 12.1705 12.178 12.1381C12.2464 12.1057 12.3067 12.0586 12.3546 12.0001C12.4025 11.9415 12.4369 11.8731 12.4551 11.7997C12.4734 11.7263 12.4751 11.6497 12.4602 11.5756V9.1909C12.4602 9.01019 12.532 8.8369 12.6598 8.70913C12.7876 8.58135 12.9609 8.50956 13.1416 8.50956C13.3223 8.50956 13.4956 8.58135 13.6233 8.70913C13.7511 8.8369 13.8229 9.01019 13.8229 9.1909V12.0165C13.808 12.0906 13.8098 12.1672 13.828 12.2406C13.8463 12.314 13.8806 12.3824 13.9286 12.4409C13.9765 12.4995 14.0368 12.5466 14.1052 12.579C14.1735 12.6114 14.2482 12.6282 14.3239 12.6282C14.3995 12.6282 14.4743 12.6114 14.5426 12.579C14.611 12.5466 14.6713 12.4995 14.7192 12.4409C14.7672 12.3824 14.8015 12.314 14.8198 12.2406C14.8381 12.1672 14.8398 12.0906 14.8249 12.0165V11.2249C14.8231 11.1306 14.8412 11.037 14.878 10.9502C14.9148 10.8633 14.9695 10.7852 15.0385 10.721C15.1075 10.6567 15.1893 10.6077 15.2785 10.5771C15.3677 10.5465 15.4624 10.5351 15.5563 10.5436C15.736 10.5658 15.9011 10.654 16.0195 10.791C16.138 10.9279 16.2015 11.104 16.1976 11.285V17.5774C16.1735 18.6899 15.7504 19.7568 15.0053 20.5833C14.8777 20.7031 14.7756 20.8473 14.705 21.0074C14.6344 21.1675 14.5968 21.3402 14.5944 21.5151L14.6245 21.5452ZM8.34215 1.57595C7.8904 1.57595 7.45714 1.7554 7.1377 2.07483C6.81826 2.39427 6.63879 2.82753 6.63879 3.27929V4.79225C6.27347 4.37254 6.07082 3.83571 6.06766 3.27929C6.06766 2.9806 6.12649 2.68485 6.24079 2.4089C6.3551 2.13294 6.52269 1.8822 6.73389 1.671C6.94509 1.45979 7.19578 1.29226 7.47173 1.17796C7.74768 1.06366 8.04346 1.00482 8.34215 1.00482C8.64084 1.00482 8.93662 1.06366 9.21257 1.17796C9.48853 1.29226 9.73921 1.45979 9.95041 1.671C10.1616 1.8822 10.3292 2.13294 10.4435 2.4089C10.5578 2.68485 10.6166 2.9806 10.6166 3.27929C10.6135 3.83571 10.4108 4.37254 10.0455 4.79225V3.27929C10.0455 2.82753 9.86604 2.39427 9.5466 2.07483C9.22717 1.7554 8.79391 1.57595 8.34215 1.57595Z" fill="#030303" fill-opacity="0.5"/>
</svg>
