<svg width="24" height="24" viewBox="0 0 24 24" fill="none" xmlns="http://www.w3.org/2000/svg">
<g opacity="0.5">
<path d="M11 16.5C11 14.3558 9.62843 12.5308 7.71861 11.8424C8.3334 11.342 8.72727 10.58 8.72727 9.72727C8.72727 8.22337 7.50391 7 6 7C4.49609 7 3.27273 8.22337 3.27273 9.72727C3.27273 10.58 3.6666 11.342 4.28139 11.8424C2.37157 12.5308 1 14.3558 1 16.5V17H11V16.5ZM6 7.90909C7.00253 7.90909 7.81818 8.72474 7.81818 9.72727C7.81818 10.7298 7.00253 11.5455 6 11.5455C4.99747 11.5455 4.18182 10.7298 4.18182 9.72727C4.18182 8.72474 4.99747 7.90909 6 7.90909ZM1.92951 16.0909C2.13525 14.0517 3.86199 12.4545 5.9545 12.4545H6.0455C8.13801 12.4545 9.86475 14.0517 10.0705 16.0909H1.92951Z" fill="#030303"/>
<path d="M19.7186 11.8424C20.3334 11.342 20.7273 10.58 20.7273 9.72727C20.7273 8.22337 19.5039 7 18 7C16.4961 7 15.2727 8.22337 15.2727 9.72727C15.2727 10.58 15.6666 11.342 16.2814 11.8424C14.3716 12.5308 13 14.3558 13 16.5V17H23V16.5C23 14.3558 21.6284 12.5308 19.7186 11.8424ZM18 7.90909C19.0025 7.90909 19.8182 8.72474 19.8182 9.72727C19.8182 10.7298 19.0025 11.5455 18 11.5455C16.9975 11.5455 16.1818 10.7298 16.1818 9.72727C16.1818 8.72474 16.9975 7.90909 18 7.90909ZM13.9295 16.0909C14.1353 14.0517 15.862 12.4545 17.9545 12.4545H18.0455C20.138 12.4545 21.8647 14.0517 22.0705 16.0909H13.9295Z" fill="#030303"/>
<path d="M9.07648 5.34704L7.7248 3.96176H17V3.03824H7.7248L9.07648 1.65296L8.43936 1L6 3.5L8.43936 6L9.07648 5.34704Z" fill="#030303"/>
<path d="M6 20.9618H16.1184L14.6438 22.347L15.3389 23L18 20.5L15.3389 18L14.6438 18.653L16.1184 20.0382H6V20.9618Z" fill="#030303"/>
</g>
</svg>
