<svg width="26" height="25" viewBox="0 0 26 25" fill="none" xmlns="http://www.w3.org/2000/svg">
<path d="M13.5522 10.25C13.1175 10.25 12.6925 10.3789 12.3311 10.6204C11.9696 10.8619 11.6879 11.2052 11.5215 11.6068C11.3552 12.0084 11.3117 12.4504 11.3965 12.8767C11.4813 13.3031 11.6906 13.6947 11.998 14.0021C12.3054 14.3095 12.697 14.5188 13.1234 14.6036C13.5497 14.6884 13.9917 14.6449 14.3933 14.4785C14.7949 14.3122 15.1382 14.0305 15.3797 13.669C15.6212 13.3076 15.7501 12.8826 15.7501 12.4479C15.7473 11.8658 15.5149 11.3084 15.1033 10.8968C14.6917 10.4852 14.1343 10.2527 13.5522 10.25V10.25Z" fill="#FE8205"/>
<path d="M13.4585 0C10.1433 0 6.96386 1.31695 4.61965 3.66116C2.27545 6.00536 0.958496 9.18479 0.958496 12.5C0.958496 15.8152 2.27545 18.9946 4.61965 21.3388C6.96386 23.683 10.1433 25 13.4585 25C16.7737 25 19.9531 23.683 22.2973 21.3388C24.6415 18.9946 25.9585 15.8152 25.9585 12.5C25.9585 9.18479 24.6415 6.00536 22.2973 3.66116C19.9531 1.31695 16.7737 0 13.4585 0V0ZM18.6668 16.1146C18.1979 16.1141 17.736 16.0002 17.3206 15.7826C16.9052 15.5649 16.5487 15.2499 16.2814 14.8646C15.8111 15.4024 15.1938 15.791 14.5056 15.9828C13.8174 16.1746 13.0881 16.1611 12.4074 15.9441C11.7267 15.727 11.1243 15.3158 10.6741 14.761C10.2239 14.2062 9.94567 13.532 9.87348 12.8212C9.80129 12.1104 9.93832 11.394 10.2678 10.76C10.5972 10.1261 11.1047 9.60214 11.7278 9.25266C12.351 8.90318 13.0626 8.74337 13.7754 8.79286C14.4881 8.84235 15.1709 9.09899 15.7397 9.53124V9.53124C15.7274 9.42746 15.7371 9.32223 15.7684 9.22249C15.7996 9.12275 15.8517 9.03078 15.921 8.95262C15.9904 8.87446 16.0756 8.81188 16.1709 8.76904C16.2663 8.72619 16.3696 8.70404 16.4741 8.70404C16.5786 8.70404 16.682 8.72619 16.7773 8.76904C16.8726 8.81188 16.9578 8.87446 17.0272 8.95262C17.0966 9.03078 17.1486 9.12275 17.1799 9.22249C17.2111 9.32223 17.2209 9.42746 17.2085 9.53124V13.1875C17.1914 13.3901 17.2165 13.594 17.2823 13.7863C17.3481 13.9787 17.4531 14.1553 17.5907 14.305C17.7282 14.4547 17.8954 14.5742 18.0815 14.6559C18.2677 14.7376 18.4687 14.7798 18.672 14.7798C18.8753 14.7798 19.0764 14.7376 19.2626 14.6559C19.4487 14.5742 19.6158 14.4547 19.7534 14.305C19.891 14.1553 19.996 13.9787 20.0618 13.7863C20.1276 13.594 20.1527 13.3901 20.1356 13.1875C20.1356 8.29165 16.896 5.89582 13.5418 5.89582C11.793 5.89582 10.1159 6.59052 8.87933 7.82709C7.64277 9.06366 6.94808 10.7408 6.94808 12.4896C6.94808 14.2383 7.64277 15.9155 8.87933 17.1521C10.1159 18.3886 11.793 19.0833 13.5418 19.0833C14.9938 19.0907 16.4061 18.6101 17.5522 17.7187C17.6288 17.6606 17.7161 17.6181 17.8092 17.5937C17.9022 17.5693 17.9991 17.5635 18.0944 17.5766C18.1896 17.5896 18.2814 17.6213 18.3645 17.6698C18.4475 17.7184 18.5202 17.7828 18.5783 17.8594C18.6364 17.936 18.6789 18.0233 18.7033 18.1163C18.7277 18.2093 18.7335 18.3062 18.7205 18.4015C18.7074 18.4968 18.6757 18.5886 18.6272 18.6716C18.5787 18.7546 18.5143 18.8273 18.4377 18.8854C17.0354 19.9668 15.3126 20.5496 13.5418 20.5417C11.4063 20.5417 9.35818 19.6933 7.84813 18.1833C6.33807 16.6732 5.48975 14.6251 5.48975 12.4896C5.48975 10.354 6.33807 8.30596 7.84813 6.7959C9.35818 5.28584 11.4063 4.43749 13.5418 4.43749C17.5939 4.43749 21.6043 7.41665 21.6043 13.2187C21.5908 13.9879 21.277 14.7213 20.7301 15.2624C20.1832 15.8034 19.4465 16.1093 18.6772 16.1146H18.6668Z" fill="#FE8205"/>
</svg>
