<svg width="25" height="25" viewBox="0 0 25 25" fill="none" xmlns="http://www.w3.org/2000/svg">
<path d="M21.3599 2.61426H5.09311C4.56301 2.61426 4.43828 2.73899 4.42789 3.26909L4.31356 17.956V18.1846L4.08489 18.2678H2.26592C1.73582 18.2678 1.21611 18.2678 0.686011 18.2678C0.426159 18.2678 0.239065 18.3717 0.093547 18.6004L0 18.7667L0.0103941 20.3674C0.0207882 20.409 0.0415764 20.4506 0.0415764 20.5025C0.374188 22.5709 2.13079 24.0677 4.22001 24.0677H9.65613C10.4253 24.0677 11.1945 24.0677 11.9636 24.0677C13.9073 24.0677 15.8614 24.0677 17.8051 24.0677C18.5639 24.0677 19.1563 23.9534 19.6657 23.7039C21.2663 22.9243 22.0771 21.6147 22.0771 19.8165C22.0771 15.5445 22.0771 11.2726 22.0771 7.00057V3.34185C22.0875 2.83253 21.8692 2.61426 21.3599 2.61426ZM11.1633 23.0491C10.207 23.0491 9.25076 23.0491 8.2945 23.0491C6.94327 23.0491 5.59203 23.0491 4.2408 23.0491C2.66089 23.0491 1.38242 22.0305 1.08099 20.5129C1.03941 20.2739 1.02902 20.0244 1.00823 19.7853L0.977046 19.2968H13.7306L13.7202 19.5255C13.6786 20.7832 14.032 21.8122 14.8116 22.6645L15.1546 23.0387H11.1633V23.0491ZM21.0585 19.8685C21.0585 21.4588 20.0502 22.7269 18.5639 23.0387C18.3456 23.0803 18.1169 23.1114 17.8987 23.1114C17.1711 23.1114 16.4643 22.862 15.8926 22.3942C15.1546 21.781 14.7285 20.8663 14.7388 19.8685C14.7388 19.4943 14.7388 19.1409 14.7181 18.8083C14.6869 18.4133 14.5206 18.2782 14.1152 18.2782H5.32178L5.45691 3.64327H21.0377L21.0585 3.85116C21.0585 3.91352 21.0689 3.96549 21.0689 4.01746V7.41634C21.0585 11.5636 21.0585 15.7212 21.0585 19.8685Z" fill="#030303" fill-opacity="0.5"/>
<path d="M24.6341 0.763788C24.6341 0.607877 24.5717 0.420783 24.4885 0.275265C24.3638 0.0777769 24.1559 0.0673828 23.8753 0.0673828C19.9151 0.0673828 15.9446 0.0673828 11.9844 0.0673828H7.67087C7.58772 0.0673828 7.51496 0.0673828 7.4422 0.0777769C7.2551 0.0985651 7.10959 0.2129 7.03683 0.368812C6.96407 0.535118 6.98486 0.722212 7.09919 0.867729C7.23432 1.05482 7.42141 1.08601 7.67087 1.08601C11.049 1.08601 14.427 1.08601 17.8051 1.08601C18.8549 1.08601 19.8943 1.08601 20.9441 1.08601H23.6154V17.1969C23.6154 17.28 23.6154 17.3528 23.6154 17.4152C23.6258 17.6334 23.7817 17.8205 23.9896 17.8829C24.1351 17.9245 24.2807 17.9037 24.4054 17.8101C24.5405 17.7062 24.6237 17.5191 24.6237 17.3112V13.7356V12.3948V9.84824C24.6341 6.83395 24.6341 3.79887 24.6341 0.763788Z" fill="#030303" fill-opacity="0.5"/>
<path d="M17.5972 10.5967C15.1338 10.5967 12.66 10.5967 10.1966 10.5967H7.7332C7.67084 10.5967 7.59808 10.5967 7.54611 10.6071C7.32783 10.659 7.15113 10.8461 7.13034 11.0644C7.10955 11.2723 7.24468 11.4906 7.44217 11.5633C7.54611 11.6049 7.68123 11.6049 7.80596 11.6049C8.77261 11.6049 9.74966 11.6049 10.7163 11.6049H11.6726H13.8449C15.0507 11.6049 16.2668 11.6049 17.4829 11.6049C17.5868 11.6153 17.6804 11.6049 17.7739 11.5945C17.9922 11.5633 18.1793 11.3554 18.1897 11.1372C18.2001 10.9917 18.1481 10.8565 18.0649 10.763C17.9506 10.659 17.7843 10.5967 17.5972 10.5967Z" fill="#030303" fill-opacity="0.5"/>
<path d="M17.5661 14.4316H11.0178H7.74364C7.71246 14.4316 7.68127 14.4316 7.66049 14.4316C7.61891 14.4316 7.59812 14.4316 7.56694 14.4316C7.35906 14.4628 7.22393 14.5772 7.14078 14.7643C7.06802 14.9513 7.1096 15.1177 7.25512 15.284C7.39024 15.4191 7.56694 15.4399 7.73325 15.4399C8.98054 15.4399 10.2278 15.4399 11.4751 15.4399H13.9489H16.6098H17.0152C17.2335 15.4399 17.4517 15.4399 17.6804 15.4399C17.8259 15.4399 17.9507 15.3775 18.0442 15.284C18.1378 15.18 18.1793 15.0553 18.1793 14.9098C18.1689 14.6083 17.9403 14.4316 17.5661 14.4316Z" fill="#030303" fill-opacity="0.5"/>
<path d="M7.72279 8.10198C8.31526 8.10198 8.89733 8.10198 9.48979 8.10198H10.0823H11.3919H12.4833C12.8471 8.10198 13.0654 7.91488 13.0758 7.61346C13.0758 7.46794 13.0342 7.3536 12.9406 7.26006C12.8367 7.15611 12.6704 7.09375 12.4833 7.09375C11.6933 7.09375 10.893 7.09375 10.103 7.09375C9.31309 7.09375 8.51274 7.09375 7.72279 7.09375C7.359 7.09375 7.11993 7.30163 7.11993 7.60306C7.11993 7.8941 7.359 8.10198 7.72279 8.10198Z" fill="#030303" fill-opacity="0.5"/>
</svg>
