<svg width="20" height="20" viewBox="0 0 20 20" fill="none" xmlns="http://www.w3.org/2000/svg">
<g opacity="0.5">
<path d="M19.9843 9.41093C19.9843 9.8025 19.9843 10.1941 19.9843 10.5856C19.9676 10.7273 19.951 10.8689 19.9343 11.0105C19.6927 13.16 18.8762 15.0595 17.4266 16.6675C15.8853 18.3754 13.9774 19.4418 11.7113 19.8417C11.3364 19.9084 10.9532 19.95 10.5783 20C10.1867 20 9.79513 20 9.40356 20C9.07031 19.9583 8.72872 19.925 8.4038 19.875C6.31265 19.5251 4.49643 18.6253 2.9968 17.134C0.747349 14.8929 -0.235743 12.1603 0.0475212 9.0027C0.239141 6.86989 1.07227 4.99535 2.48859 3.40407C4.37146 1.28793 6.73755 0.146538 9.57018 0.0132378C11.5447 -0.0867377 13.3942 0.379814 15.0855 1.40456C17.6765 2.98751 19.2761 5.27861 19.8343 8.27788C19.901 8.64445 19.9343 9.02769 19.9843 9.41093ZM9.98675 1.54619C5.32956 1.54619 1.55548 5.32027 1.53882 9.98579C1.53049 14.6346 5.30456 18.4254 9.97009 18.442C14.6273 18.4587 18.4263 14.6596 18.4263 9.99412C18.4263 5.3286 14.6523 1.55453 9.98675 1.54619Z" fill="#030303"/>
<path d="M10.7615 7.47843C10.7615 8.15326 10.7615 8.82809 10.7615 9.51126C10.7615 9.6279 10.7948 9.70288 10.8948 9.76953C11.7696 10.4194 12.636 11.0692 13.5025 11.7274C13.8274 11.969 13.9357 12.2939 13.8191 12.6355C13.6608 13.0937 13.1276 13.2937 12.7027 13.0521C12.6027 12.9937 12.5111 12.9188 12.4194 12.8521C11.4863 12.1523 10.5449 11.4441 9.61179 10.7443C9.35352 10.5527 9.22021 10.3027 9.22021 9.97781C9.22021 8.47818 9.22021 6.98688 9.22021 5.48725C9.22021 4.87906 9.73675 4.49582 10.27 4.69578C10.5865 4.81241 10.7698 5.09568 10.7698 5.47892C10.7698 6.13709 10.7615 6.81192 10.7615 7.47843Z" fill="#030303"/>
</g>
</svg>
