<svg width="24" height="24" viewBox="0 0 24 24" fill="none" xmlns="http://www.w3.org/2000/svg">
<path d="M23.35 11.5666C22.8547 11.5873 22.3594 11.577 21.8641 11.577H20.9046L20.8736 11.2468C20.5434 7.01634 16.963 3.43594 12.7326 3.10576L12.4024 3.07481V0.928633C12.4024 0.815133 12.4024 0.691316 12.4024 0.577816C12.423 0.299226 12.3405 0.123818 12.1032 0H11.8762C11.6389 0.123818 11.546 0.309544 11.577 0.629407C11.5873 0.773861 11.5873 0.928633 11.5873 1.0834V3.02322L11.288 3.07481C6.55202 3.85899 3.85899 6.5417 3.07481 11.288L3.02322 11.5873H1.8779C1.40327 11.5873 0.928633 11.5873 0.464316 11.5873C0.185727 11.5873 0 11.7524 0 12C0 12.2373 0.185727 12.4127 0.453998 12.4127C0.897678 12.4127 1.35168 12.4127 1.80567 12.4127H2.40413H3.02322L3.07481 12.712C3.8693 17.4583 6.55202 20.1513 11.288 20.9252L11.5873 20.9768V23.5047C11.5873 23.6698 11.6389 23.8143 11.7214 23.8968C11.7936 23.969 11.8865 24 11.9897 24C12.3715 24 12.3921 23.6079 12.4024 23.4944V20.9046L12.7326 20.8736C16.4368 20.5641 20.4299 17.6647 20.8736 12.7429L20.9046 12.4127H22.0292C22.4729 12.4127 22.9166 12.4024 23.3603 12.423C23.7111 12.4437 23.8762 12.3199 23.9794 12.1238V11.8968C23.8968 11.6698 23.742 11.5563 23.35 11.5666ZM17.7162 17.6853C16.1892 19.2227 14.1565 20.0688 12 20.0688C11.9897 20.0688 11.9794 20.0688 11.9794 20.0688C9.84351 20.0688 7.82115 19.233 6.29407 17.7059C4.75666 16.1788 3.91058 14.1462 3.91058 12C3.91058 9.85383 4.74635 7.82115 6.27343 6.29407C7.80052 4.75666 9.83319 3.91058 11.9897 3.91058C12 3.91058 12 3.91058 12.0103 3.91058C14.1462 3.91058 16.1685 4.74635 17.6956 6.27343C19.233 7.80052 20.0791 9.83319 20.0791 11.9794C20.0894 14.1255 19.2537 16.1479 17.7162 17.6853Z" fill="#030303" fill-opacity="0.5"/>
<path d="M12 7.71826C10.8651 7.71826 9.79196 8.16194 8.97683 8.97708C8.1617 9.79221 7.71802 10.8653 7.71802 12.0003C7.71802 13.1353 8.17202 14.2084 8.97683 15.0235C9.79196 15.8283 10.8857 16.241 12 16.272C13.1454 16.272 14.2184 15.818 15.0233 15.0029C15.8281 14.1877 16.2718 13.1147 16.2614 11.99C16.2614 9.62712 14.3423 7.71826 12 7.71826ZM12 15.4362C12 15.4362 11.9897 15.4362 12 15.4362C11.0714 15.4362 10.2047 15.0751 9.54433 14.4147C8.89429 13.7544 8.53315 12.8877 8.54347 11.959C8.5641 10.0708 10.1118 8.53339 12 8.53339C12.0104 8.53339 12.0104 8.53339 12.0207 8.53339C13.9192 8.54371 15.4566 10.0914 15.4566 11.99C15.4463 13.8988 13.8986 15.4362 12 15.4362Z" fill="#030303" fill-opacity="0.5"/>
</svg>
