<svg width="25" height="25" viewBox="0 0 25 25" fill="none" xmlns="http://www.w3.org/2000/svg">
<path d="M24.0013 8.1611C23.8811 8.86227 23.3802 9.31302 22.8994 9.76377C22.7792 9.87395 22.7692 9.95409 22.8393 10.1043C23.22 10.9457 22.9495 11.8873 22.2083 12.4082C21.4771 12.919 20.4954 12.8589 19.8443 12.2179C19.0029 11.3965 18.1816 10.5651 17.3602 9.73372C17.3001 9.67362 17.24 9.61352 17.1198 9.50334C17.0597 9.59349 17.0096 9.68364 16.9395 9.75375C16.2483 10.4549 15.5472 11.1461 14.856 11.8372C14.6156 12.0776 14.3351 12.1077 14.1348 11.9073C13.9245 11.707 13.9445 11.4265 14.1949 11.1661C14.8961 10.4549 15.6073 9.75375 16.3185 9.04257C16.3786 8.98247 16.4587 8.9424 16.5188 8.90234C16.028 8.4616 15.5973 8.03088 15.1866 7.6202C12.6523 10.1544 10.1081 12.6987 7.5839 15.2229C7.98456 15.6235 8.41528 16.0543 8.87605 16.515C9.05635 16.3247 9.2667 16.1144 9.47705 15.904C10.018 15.3531 10.5689 14.8122 11.1198 14.2613C11.3001 14.081 11.5205 14.0609 11.7208 14.1911C11.8911 14.3013 11.9812 14.5317 11.9011 14.722C11.861 14.8222 11.7809 14.9224 11.7008 15.0025C10.9796 15.7237 10.2584 16.4449 9.5071 17.1962C9.5672 17.2663 9.6273 17.3264 9.67738 17.3765C10.5088 18.2078 11.3402 19.0292 12.1615 19.8606C12.9729 20.702 12.8627 22.0242 11.9211 22.6953C11.3402 23.106 10.7091 23.1661 10.058 22.8756C9.91779 22.8155 9.81762 22.8155 9.71745 22.9457C9.64733 23.0359 9.55718 23.096 9.48707 23.1761C9.10643 23.5968 8.67572 23.9374 8.10476 24.0476C7.91445 24.0476 7.73415 24.0476 7.54383 24.0476C6.95284 23.9174 6.52213 23.5367 6.12146 23.116C5.71077 22.6853 5.29007 22.2746 4.85935 21.8339C4.33849 22.3548 3.83765 22.8556 3.33682 23.3564C2.94617 23.7471 2.76587 23.7471 2.37521 23.3564C1.79425 22.7755 1.21328 22.1945 0.632309 21.6135C0.311775 21.293 0.311775 21.0726 0.622293 20.7521C1.13314 20.2412 1.65401 19.7304 2.17488 19.1995C2.15485 19.1394 2.10476 19.0793 2.05468 19.0292C1.59391 18.5684 1.12313 18.0977 0.662359 17.6369C-0.21911 16.7554 -0.21911 15.6636 0.652343 14.7821C0.802593 14.6319 0.942827 14.4716 1.10309 14.3414C1.23331 14.2312 1.23331 14.1411 1.17321 13.9808C0.612276 12.7087 1.55385 11.3063 2.94617 11.3464C3.45702 11.3664 3.88774 11.5768 4.25835 11.9374C5.05969 12.7487 5.87104 13.5501 6.67238 14.3614C6.72246 14.4115 6.77254 14.4816 6.80259 14.5217C9.36687 11.9574 11.9111 9.41319 14.4654 6.85893C14.4453 6.8389 14.3852 6.76878 14.3251 6.70868C13.5038 5.88731 12.6724 5.07596 11.861 4.23455C10.8393 3.1828 11.3101 1.46995 12.7124 1.09933C13.1532 0.979129 13.5839 1.02921 13.9846 1.21953C14.1048 1.27963 14.1749 1.26961 14.265 1.16945C14.4453 0.979129 14.6356 0.788812 14.826 0.608511C15.6073 -0.142741 16.7091 -0.152757 17.4904 0.598495C17.9812 1.0793 18.462 1.57011 18.9528 2.05092C19.0129 2.11102 19.053 2.19115 19.1231 2.2813C19.674 1.73038 20.1749 1.22955 20.6757 0.718695C21.0363 0.358094 21.2266 0.358094 21.5973 0.718695C22.1882 1.30968 22.7792 1.90067 23.3702 2.49165C23.6707 2.79215 23.6707 3.02253 23.3702 3.31302C22.8493 3.83389 22.3285 4.34474 21.7976 4.87562C21.8577 4.95576 21.8978 5.00584 21.9378 5.05592C22.3385 5.45659 22.7291 5.87729 23.1498 6.25793C23.5505 6.62854 23.871 7.04925 24.0013 7.60016C24.0013 7.79048 24.0013 7.97078 24.0013 8.1611ZM21.1665 11.8172C21.5271 11.7972 21.8176 11.6169 21.9879 11.2563C22.1582 10.8756 22.0781 10.495 21.7275 10.1544C19.1131 7.54006 16.5088 4.93572 13.8944 2.32137C13.8543 2.2813 13.8043 2.23122 13.7542 2.19115C13.3435 1.87062 12.7625 1.94073 12.442 2.3414C12.1315 2.73205 12.1816 3.2429 12.5622 3.63355C13.5639 4.63522 14.5755 5.64691 15.5772 6.64858C17.1799 8.25125 18.7926 9.86394 20.3952 11.4666C20.6056 11.677 20.836 11.8072 21.1665 11.8172ZM2.94617 12.288C2.45535 12.288 2.08473 12.5785 1.97455 12.9791C1.86436 13.3798 2.01461 13.6903 2.29508 13.9708C4.8894 16.5651 7.48373 19.1594 10.0781 21.7538C10.1382 21.8139 10.1983 21.894 10.2684 21.924C10.4887 21.9942 10.7291 22.1043 10.9495 22.0943C11.3201 22.0743 11.5806 21.8439 11.7108 21.4833C11.841 21.1127 11.7508 20.7721 11.4704 20.4916C10.5088 19.52 9.53715 18.5584 8.57555 17.5868C6.92279 15.9341 5.26002 14.2713 3.60727 12.6185C3.40693 12.4182 3.16653 12.288 2.94617 12.288ZM14.8861 1.89065C17.3201 4.32471 19.7442 6.74875 22.1882 9.19282C22.3385 9.04257 22.4988 8.86227 22.669 8.69198C23.22 8.14107 23.2099 7.65025 22.659 7.09933C21.1265 5.56677 19.5939 4.03422 18.0614 2.50167C17.6507 2.09098 17.25 1.6803 16.8293 1.27963C16.4687 0.929046 15.9378 0.898996 15.5772 1.21953C15.3168 1.41986 15.0964 1.6803 14.8861 1.89065ZM1.85435 14.9124C1.68406 15.0826 1.51378 15.2629 1.33348 15.4432C0.822627 15.9641 0.822627 16.4649 1.34349 16.9858C3.25668 18.899 5.16987 20.8122 7.08306 22.7354C7.14316 22.7955 7.19324 22.8456 7.25334 22.8957C7.59391 23.1861 8.08473 23.2062 8.41528 22.9257C8.67571 22.6953 8.9061 22.4249 9.12647 22.1945C6.71244 19.7704 4.2884 17.3464 1.85435 14.9124ZM21.1465 1.65025C20.7158 2.08097 20.2851 2.51168 19.8744 2.92237C20.2951 3.33305 20.7258 3.77379 21.1265 4.17445C21.5372 3.76377 21.9679 3.33305 22.3986 2.91235C21.9879 2.49165 21.5672 2.06093 21.1465 1.65025ZM1.62396 21.1628C2.04466 21.5835 2.47538 22.0242 2.88607 22.4349C3.30677 22.0142 3.73748 21.5935 4.14817 21.1728C3.72747 20.7521 3.29675 20.3214 2.87605 19.9007C2.45535 20.3314 2.02463 20.7621 1.62396 21.1628Z" fill="#030303" fill-opacity="0.5"/>
<path d="M12.9428 12.6182C13.2033 12.6182 13.4136 12.8285 13.4136 13.0889C13.4136 13.3394 13.2033 13.5497 12.9529 13.5497C12.6924 13.5497 12.4721 13.3294 12.4821 13.0789C12.4821 12.8285 12.6924 12.6182 12.9428 12.6182Z" fill="#030303" fill-opacity="0.5"/>
</svg>
