<svg width="25" height="24" viewBox="0 0 25 24" fill="none" xmlns="http://www.w3.org/2000/svg">
<path d="M0 15.6028C0.0901879 15.1418 0.140292 14.6608 0.280585 14.2099C1.24259 11.1535 3.29687 9.31972 6.47349 8.84874C10.4017 8.27755 14.1094 11.0633 14.7307 14.9815C14.881 15.9034 14.8509 16.8153 14.6706 17.7272C14.6205 17.9778 14.4601 18.108 14.2597 18.078C14.0392 18.0479 13.919 17.8675 13.9791 17.597C14.1996 16.4846 14.1695 15.3823 13.8489 14.2801C13.1173 11.7548 10.8827 9.85082 8.26722 9.53016C4.5595 9.07922 1.25261 11.6446 0.761587 15.3623C0.300626 18.8295 2.77578 22.1865 6.22296 22.7577C6.76409 22.8479 7.32526 22.8178 7.87641 22.8679C8.00668 22.878 8.17703 22.9381 8.2572 23.0283C8.43758 23.2487 8.26722 23.5393 7.95658 23.5694C7.13486 23.6496 6.31315 23.5894 5.5215 23.3489C2.41503 22.407 0.601253 20.3327 0.0601253 17.136C0.0400835 17.0158 0.0200418 16.8955 0 16.7752C0 16.3844 0 15.9936 0 15.6028Z" fill="#030303" fill-opacity="0.5"/>
<path d="M21.9357 0.731524C21.7353 0.731524 21.5749 0.731524 21.3645 0.731524C21.3645 0.841754 21.3645 0.951983 21.3645 1.05219C21.3645 6.06263 21.3645 11.063 21.3645 16.0735C21.3645 16.1837 21.3645 16.2939 21.3444 16.3942C21.3044 16.5645 21.1841 16.6647 21.0037 16.6647C20.8234 16.6647 20.7031 16.5745 20.663 16.3942C20.643 16.2939 20.643 16.1737 20.643 16.0735C20.643 11.514 20.643 6.96451 20.643 2.40501C20.643 2.3048 20.643 2.20459 20.643 2.09436C17.0856 2.09436 13.5582 2.09436 9.99079 2.09436C9.99079 2.35491 9.99079 2.61545 9.99079 2.87599C9.99079 3.09645 9.99079 3.31691 9.99079 3.52735C9.99079 3.79791 9.86052 3.9382 9.65008 3.9382C9.42962 3.94823 9.28933 3.79791 9.28933 3.54739C9.28933 2.69562 9.28933 1.84384 9.28933 0.992067C9.28933 0.9119 9.28933 0.821712 9.28933 0.731524C9.08891 0.731524 8.91855 0.731524 8.72816 0.731524C8.72816 0.821712 8.72816 0.901879 8.72816 0.992067C8.72816 2.00418 8.72816 3.00626 8.72816 4.01837C8.72816 4.09854 8.73818 4.17871 8.71814 4.24885C8.65801 4.41921 8.52774 4.51941 8.33734 4.50939C8.15697 4.49937 8.03672 4.39916 8.01667 4.20877C8.00665 4.14864 8.00665 4.09854 8.00665 4.03841C8.00665 2.85595 8.00665 1.66347 8.00665 0.481002C8.00665 0.11023 8.11688 0 8.48766 0C8.83839 0 9.18912 0 9.53985 0C9.87054 0 9.99079 0.12025 9.99079 0.450939C9.99079 0.751566 9.99079 1.05219 9.99079 1.37286C13.5482 1.37286 17.0755 1.37286 20.643 1.37286C20.643 1.08225 20.643 0.80167 20.643 0.511065C20.643 0.11023 20.7532 0 21.1641 0C21.5048 0 21.8355 0 22.1762 0C22.5269 0 22.6472 0.120251 22.6472 0.46096C22.6472 5.79207 22.6472 11.1332 22.6472 16.4643C22.6472 16.6747 22.597 16.8451 22.3766 16.9052C22.2062 16.9453 22.0559 16.8952 21.9858 16.7349C21.9457 16.6447 21.9357 16.5344 21.9357 16.4443C21.9357 15.2618 21.9357 14.0693 21.9357 12.8868C21.9357 8.93862 21.9357 5.00042 21.9357 1.05219C21.9357 0.941962 21.9357 0.841754 21.9357 0.731524Z" fill="#030303" fill-opacity="0.5"/>
<path d="M17.757 21.8258C16.3941 22.3369 15.0513 22.3369 13.6985 21.8258C13.2275 22.6575 12.5361 23.2287 11.6142 23.4792C10.9328 23.6696 10.2513 23.6296 9.58995 23.379C8.22711 22.868 7.39538 21.5653 7.45551 20.0521C7.51563 18.7093 8.51772 17.4767 9.8505 17.0959C11.1933 16.7152 12.8167 17.1962 13.6985 18.7394C15.0413 18.2383 16.3841 18.2383 17.7469 18.7394C17.777 18.6893 17.8171 18.6392 17.8472 18.5891C18.5586 17.4166 19.9115 16.7853 21.2242 17.0158C22.577 17.2463 23.6392 18.2383 23.9198 19.5911C24.1904 20.8738 23.7996 21.9661 22.8075 22.8279C22.6271 22.9882 22.4267 22.9682 22.2864 22.8179C22.1461 22.6575 22.1662 22.4571 22.3566 22.2868C22.4067 22.2467 22.4467 22.2066 22.4968 22.1565C23.4488 21.2346 23.5691 19.7815 22.7674 18.7193C21.595 17.1561 19.1499 17.4166 18.3382 19.2003C18.1378 19.6412 18.0376 19.6613 17.5866 19.4709C16.344 18.9298 15.0814 18.9398 13.8388 19.4909C13.448 19.6613 13.3077 19.6312 13.1474 19.2504C12.6263 18.078 11.3636 17.4567 10.1311 17.7673C8.90853 18.078 8.08682 19.2204 8.17701 20.503C8.25718 21.6554 9.14904 22.6375 10.3215 22.8479C11.4639 23.0584 12.6363 22.4371 13.1373 21.3648C13.3378 20.9339 13.438 20.9139 13.8689 21.1043C15.1215 21.6454 16.3841 21.6454 17.6367 21.0843C18.0175 20.9139 18.1578 20.954 18.3282 21.3348C18.8693 22.5373 20.192 23.1486 21.4647 22.7778C21.4948 22.7678 21.5248 22.7577 21.5549 22.7477C21.7954 22.6776 21.9958 22.7678 22.0459 22.9682C22.106 23.1786 22.0058 23.349 21.7653 23.4291C20.9436 23.6997 20.1319 23.6596 19.3503 23.2989C18.6388 22.9982 18.1277 22.4972 17.757 21.8258Z" fill="#030303" fill-opacity="0.5"/>
<path d="M16.2238 9.34985C16.2238 8.5582 16.2238 7.79661 16.2238 7.00496C14.3599 7.00496 12.4961 7.00496 10.6021 7.00496C10.6021 7.23544 10.6021 7.4559 10.6021 7.68638C10.6021 8.02709 10.6121 8.35778 10.6021 8.69849C10.5921 8.89891 10.4418 9.04922 10.2614 9.0392C10.051 9.02918 9.90065 8.91895 9.90065 8.71853C9.89062 8.08722 9.8806 7.4559 9.91067 6.82459C9.92069 6.4939 10.2313 6.27344 10.6121 6.27344C11.6042 6.27344 12.5963 6.27344 13.5883 6.27344C14.4601 6.27344 15.3219 6.27344 16.1938 6.27344C16.6948 6.27344 16.9553 6.51394 16.9553 7.01498C16.9654 7.98701 16.9553 8.96905 16.9553 9.94108C16.9553 10.1114 16.9153 10.2617 16.7449 10.3519C16.5745 10.4321 16.4443 10.362 16.314 10.2718C14.871 9.2797 13.3278 9.0893 11.6844 9.66049C11.6643 9.67051 11.6443 9.68054 11.6242 9.69056C11.3938 9.7607 11.2034 9.69056 11.1332 9.50016C11.053 9.29974 11.1432 9.10935 11.3837 9.01916C12.1654 8.71853 12.9771 8.58826 13.8188 8.64839C14.6305 8.70851 15.4021 8.91895 16.1136 9.30976C16.1336 9.31978 16.1637 9.3298 16.2238 9.34985Z" fill="#030303" fill-opacity="0.5"/>
<path d="M13.428 4.13824C14.3499 4.13824 15.2718 4.12822 16.1937 4.13824C17.6868 4.14826 18.7992 5.07018 19.0497 6.50317C19.0998 6.77373 19.0797 7.0443 19.0797 7.32488C19.0797 7.5253 18.9194 7.65557 18.729 7.65557C18.5386 7.65557 18.3983 7.51528 18.3783 7.31486C18.3582 7.06434 18.3783 6.81382 18.3382 6.57332C18.1678 5.59127 17.3562 4.87979 16.3641 4.86977C14.4 4.85975 12.4459 4.85975 10.4818 4.86977C9.4096 4.87979 8.53779 5.73156 8.47766 6.8038C8.45762 7.24471 8.47766 7.67561 8.45762 8.11653C8.45762 8.37707 8.26722 8.54743 8.04676 8.50735C7.87641 8.46726 7.74614 8.35703 7.75616 8.18668C7.76618 7.55536 7.72609 6.91403 7.84634 6.30275C8.07682 5.10025 9.119 4.21841 10.3415 4.16831C11.3737 4.12822 12.4058 4.15828 13.438 4.15828C13.428 4.14826 13.428 4.13824 13.428 4.13824Z" fill="#030303" fill-opacity="0.5"/>
<path d="M7.13485 11.3639C5.6217 11.424 4.21877 12.1856 3.25677 13.7288C3.22671 13.7789 3.20666 13.819 3.1766 13.8691C3.04633 14.0695 2.85593 14.1196 2.67556 14.0094C2.5052 13.8992 2.44508 13.6988 2.57535 13.4984C2.83589 13.1176 3.08641 12.6967 3.40708 12.376C4.99038 10.7927 6.89435 10.2516 9.02879 10.913C11.1733 11.5743 12.4459 13.0975 12.8768 15.3021C12.947 15.6629 12.9369 16.0336 12.947 16.3944C12.957 16.665 12.7966 16.8253 12.5862 16.8153C12.3758 16.8052 12.2355 16.6449 12.2455 16.3743C12.2655 14.6207 11.5641 13.2278 10.1411 12.2157C9.32942 11.6345 8.41752 11.3639 7.13485 11.3639Z" fill="#030303" fill-opacity="0.5"/>
<path d="M19.0797 11.6338C19.0797 12.5758 19.0898 13.5077 19.0797 14.4497C19.0497 15.8025 18.5787 16.995 17.6969 18.0171C17.5265 18.2276 17.3161 18.2576 17.1457 18.1274C16.9653 17.9871 16.9653 17.7766 17.1557 17.5562C17.9774 16.5841 18.3783 15.4718 18.3683 14.1992C18.3683 12.3553 18.3683 10.5115 18.3683 8.66764C18.3683 8.5975 18.3683 8.52735 18.3683 8.45721C18.3983 8.25679 18.5486 8.12652 18.739 8.14656C18.9394 8.15658 19.0597 8.27683 19.0697 8.47725C19.0797 8.70773 19.0697 8.94823 19.0797 9.17871C19.0898 9.9904 19.0898 10.8121 19.0797 11.6338C19.0898 11.6338 19.0898 11.6338 19.0797 11.6338Z" fill="#030303" fill-opacity="0.5"/>
<path d="M6.78414 21.6949C5.6117 21.5546 4.52944 21.0937 3.64761 20.2419C2.07433 18.7187 1.56326 16.8749 2.06431 14.7405C2.08435 14.6703 2.09437 14.6002 2.12443 14.54C2.2046 14.3496 2.37495 14.2595 2.55533 14.3096C2.74573 14.3597 2.84593 14.54 2.80585 14.7505C2.74573 15.0711 2.65554 15.3918 2.62548 15.7125C2.35491 18.1075 3.99834 20.3922 6.36326 20.9033C6.53362 20.9434 6.71399 20.9634 6.89437 20.9935C7.13487 21.0336 7.25512 21.1739 7.2451 21.3843C7.21504 21.5847 7.06472 21.705 6.78414 21.6949Z" fill="#030303" fill-opacity="0.5"/>
<path d="M7.38539 17.7769C6.50355 17.7569 5.80209 17.0254 5.82214 16.1535C5.84218 15.2717 6.5737 14.5803 7.46556 14.6103C8.3474 14.6304 9.01879 15.3418 8.99875 16.2437C8.98873 17.1055 8.24719 17.797 7.38539 17.7769ZM7.41545 15.3118C6.92443 15.3118 6.53362 15.7026 6.53362 16.1836C6.53362 16.6646 6.92443 17.0554 7.41545 17.0554C7.90648 17.0554 8.29729 16.6646 8.29729 16.1836C8.29729 15.7026 7.90648 15.3118 7.41545 15.3118Z" fill="#030303" fill-opacity="0.5"/>
</svg>
