<svg width="24" height="25" viewBox="0 0 24 25" fill="none" xmlns="http://www.w3.org/2000/svg">
<path d="M19.98 15.7101C19.3 15.6301 18.58 15.6501 17.88 15.6601L17.53 15.6701C17.47 15.6701 17.32 15.6701 17.22 15.9401C17.15 16.1201 17.17 16.2901 17.26 16.4201C17.35 16.5501 17.49 16.6201 17.68 16.6201C17.97 16.6201 18.27 16.6201 18.56 16.6201C18.89 16.6201 19.23 16.6201 19.56 16.6201C20.01 16.6301 20.41 16.7901 20.69 17.0801C20.95 17.3501 21.09 17.7201 21.09 18.1101C21.07 18.9501 20.42 19.5601 19.53 19.5601H19.52L18.98 19.5501C15.14 19.4601 11.24 19.4601 7.37 19.5501C6.04 19.5801 4.7 19.6001 3.38 19.6001C2.92 19.6001 2.47 19.5201 2.03 19.4501C1.58 19.3801 1.25 19.1201 1.09 18.7301C0.89 18.2601 0.93 17.7301 1.2 17.3101C1.47 16.8901 1.93 16.6301 2.44 16.6101C3.88 16.5601 4.88 15.5201 4.88 14.0901V12.4401C4.88 11.3801 4.88 10.3201 4.89 9.25005C4.91 7.56005 5.52 6.08005 6.71 4.85005C7.36 4.17005 8.14 3.67005 9.03 3.35005C9.35 3.23005 9.4 3.11005 9.41 2.98005C9.44 2.77005 9.38 2.59005 9.25 2.48005C9.12 2.38005 8.93 2.36005 8.73 2.43005C5.92 3.42005 3.94 6.19005 3.91 9.16005C3.9 10.2501 3.9 11.3501 3.9 12.4401V14.0801C3.9 15.0201 3.31 15.6201 2.37 15.6501C1.59 15.6801 0.97 16.0001 0.48 16.6301C0.23 16.9601 0.1 17.3701 0 17.7601V18.3901C0.02 18.4501 0.03 18.4901 0.04 18.5301C0.27 19.6801 1.26 20.5101 2.39 20.5101C8.15 20.5201 13.91 20.5201 19.66 20.5101C20.89 20.5101 21.96 19.5001 22.04 18.2601C22.13 16.9701 21.22 15.8501 19.98 15.7101Z" fill="#030303" fill-opacity="0.5"/>
<path d="M12.48 23.48C12.44 23.25 12.26 23.08 12.04 23.08C11.36 23.07 10.69 23.07 10.01 23.08C9.80004 23.08 9.62004 23.25 9.57004 23.48C9.53004 23.69 9.65004 23.9 9.85004 23.99L9.95004 24.04L12.19 24C12.39 23.9 12.51 23.69 12.48 23.48Z" fill="#030303" fill-opacity="0.5"/>
<path d="M17.6399 12.71C17.6499 12.71 17.6499 12.71 17.6599 12.71C21.1399 12.71 23.9799 9.88004 23.9999 6.40004C24.0099 4.71004 23.3499 3.12004 22.1499 1.91004C20.9499 0.710039 19.3599 0.0400391 17.6699 0.0400391H17.6599C14.1699 0.0400391 11.3299 2.87004 11.3199 6.36004C11.3199 9.85004 14.1499 12.7 17.6399 12.71ZM17.6599 1.00004C19.0999 1.00004 20.4499 1.56004 21.4599 2.58004C22.4799 3.60004 23.0399 4.95004 23.0299 6.39004C23.0199 9.35004 20.6099 11.75 17.6499 11.75C16.2199 11.75 14.8699 11.19 13.8499 10.17C12.8299 9.15004 12.2699 7.80004 12.2699 6.36004C12.2899 3.41004 14.6999 1.00004 17.6599 1.00004Z" fill="#030303" fill-opacity="0.5"/>
</svg>
