<svg width="16" height="10" viewBox="0 0 16 10" fill="none" xmlns="http://www.w3.org/2000/svg">
<path d="M15.0022 9.23904C14.8084 9.73894 14.4584 9.97223 13.8522 9.99445C13.7522 9.99445 13.6584 10 13.5584 10C9.52095 10 5.48345 10 1.44595 9.99445C1.1897 9.99445 0.914697 9.96667 0.670947 9.89447C0.127197 9.73894 -0.122803 9.31125 0.0584469 8.82245C0.152198 8.56139 0.283447 8.30033 0.458447 8.07815C2.32095 5.6453 4.19595 3.21799 6.0647 0.790689C6.2897 0.496301 6.55845 0.240796 6.9397 0.101933C7.52095 -0.114691 8.17095 0.0186167 8.63345 0.457419C8.74595 0.562955 8.8522 0.679599 8.94595 0.801797C10.8147 3.22355 12.6772 5.65085 14.5459 8.0726C14.7647 8.35032 14.9272 8.65026 15.0022 8.97798C15.0022 9.06685 15.0022 9.15572 15.0022 9.23904Z" fill="#030303"/>
</svg>
