<svg width="34" height="31" viewBox="0 0 34 31" fill="none" xmlns="http://www.w3.org/2000/svg">
<path d="M33.2653 16.6078C33.102 17.3154 33.0067 18.0502 32.7481 18.7306C31.5234 21.874 29.2645 23.7519 25.8898 24.1602C24.9508 24.269 23.9847 24.1874 23.0321 24.1874C22.3109 24.1874 21.5897 24.1874 20.8684 24.1874C20.1744 24.1874 19.7662 23.8472 19.7662 23.2757C19.7662 22.7177 20.1744 22.3911 20.8548 22.3911C22.2156 22.3911 23.5764 22.3503 24.9236 22.4047C27.9718 22.5136 30.5981 20.2547 31.2921 17.3698C32.1222 13.8862 29.8905 10.3073 26.3933 9.54527C25.7537 9.40919 25.5224 9.16424 25.4407 8.49746C25.0189 5.14991 22.5286 2.52358 19.2083 1.93844C15.956 1.36691 12.6357 2.98625 11.1252 5.91195C10.7033 6.70121 10.4448 6.81008 9.56026 6.57874C8.32194 6.25215 7.2197 6.55153 6.32158 7.46326C5.43707 8.34777 5.1513 9.45001 5.46428 10.6747C5.47789 10.7292 5.4915 10.77 5.50511 10.8244C5.6684 11.4776 5.57315 11.777 5.00161 12.1444C4.18514 12.6751 3.53196 13.3555 3.09651 14.2264C2.15756 16.1451 2.30725 18.0094 3.42309 19.792C4.32122 21.2481 5.62758 22.1462 7.35578 22.3639C7.50547 22.3775 7.65516 22.3911 7.80484 22.3911C9.6147 22.3911 11.4109 22.3911 13.2208 22.3911C13.6971 22.3911 14.0101 22.6225 14.1461 23.0307C14.2686 23.3981 14.1461 23.82 13.8195 24.0105C13.6154 24.1193 13.3569 24.1874 13.1255 24.1874C11.6695 24.201 10.2134 24.201 8.77101 24.1874C8.18586 24.1874 7.60073 24.2146 7.02919 24.1329C4.94718 23.8744 3.35506 22.7858 2.14395 21.112C1.01449 19.5335 0.524609 17.7644 0.755944 15.8185C0.973671 13.9814 1.80375 12.4574 3.20537 11.2463C3.49113 11.0149 3.62721 10.7836 3.57278 10.3481C3.21898 7.62655 5.3282 4.97301 8.077 4.70085C8.53967 4.66003 9.00234 4.68724 9.46501 4.71446C9.64191 4.72806 9.72356 4.68724 9.81882 4.53755C10.9211 2.7277 12.4587 1.39413 14.4455 0.672906C18.106 -0.66067 21.44 -0.00748949 24.3385 2.59162C25.8217 3.91159 26.7198 5.59897 27.1145 7.55851C27.1553 7.80345 27.2778 7.89871 27.4955 7.98036C30.8158 9.15064 32.6665 11.5184 33.2108 14.9612C33.2244 15.0429 33.2516 15.1245 33.2789 15.2062C33.2653 15.6824 33.2653 16.1451 33.2653 16.6078Z" fill="#BCBCBC"/>
<path d="M17.8747 14.3909C17.8747 14.5133 17.8747 14.6358 17.8747 14.7583C17.8747 19.5346 17.8747 24.2974 17.8747 29.0738C17.8747 29.6862 17.6161 30.04 17.1262 30.1216C16.5955 30.2169 16.1192 29.8494 16.0784 29.3187C16.0648 29.1963 16.0784 29.0602 16.0784 28.9377C16.0784 24.2022 16.0784 19.4802 16.0784 14.7447C16.0784 14.6222 16.0784 14.5133 16.0784 14.3228C15.9559 14.4317 15.8743 14.4997 15.7926 14.5814C14.8265 15.5475 13.8603 16.5137 12.8942 17.4799C12.6356 17.7384 12.3498 17.8881 11.9824 17.7928C11.3292 17.6295 11.0707 16.8539 11.5061 16.3232C11.5606 16.2551 11.6422 16.1871 11.6967 16.1191C13.1935 14.6222 14.6904 13.1253 16.2009 11.6148C16.7452 11.0705 17.2079 11.0705 17.7522 11.6148C19.2627 13.1253 20.7731 14.6222 22.27 16.1463C22.4197 16.296 22.5558 16.5001 22.6238 16.6906C22.7463 17.0852 22.5558 17.4935 22.202 17.6976C21.8346 17.9017 21.4399 17.8473 21.0997 17.5207C20.12 16.5545 19.1538 15.5747 18.174 14.595C18.0924 14.5133 18.0516 14.4045 17.9835 14.3092C17.9427 14.3364 17.9019 14.3636 17.8747 14.3909Z" fill="#BCBCBC"/>
</svg>
