<svg width="22" height="23" viewBox="0 0 22 23" fill="none" xmlns="http://www.w3.org/2000/svg">
<path d="M10.9964 22.0127C10.8258 22.0127 10.6641 22.0127 10.4935 22.0127C9.94571 21.9155 9.53262 21.5974 9.13749 21.2351C8.83217 20.9523 8.51786 20.6784 8.1856 20.4221C8.10477 20.3603 7.97905 20.3161 7.87129 20.3161C7.09899 20.3603 6.33568 20.4398 5.57237 20.4752C4.54863 20.5282 3.80327 19.9538 3.56081 18.973C3.41713 18.3898 3.27344 17.8066 3.13874 17.2234C3.10282 17.082 3.03098 17.0025 2.91424 16.9318C2.27664 16.5695 1.64803 16.1984 1.01942 15.8273C0.0585417 15.2617 -0.237804 14.3693 0.193244 13.3443C0.444689 12.7522 0.696134 12.1602 0.929618 11.5682C0.965539 11.4798 0.965539 11.3561 0.929618 11.2589C0.678173 10.6315 0.408768 10.013 0.157324 9.3856C-0.219843 8.46662 0.103443 7.53881 0.974519 7.03514C1.56721 6.69052 2.16888 6.34591 2.76157 5.99246C2.83341 5.94827 2.90526 5.85991 2.94118 5.78038C3.17466 5.09115 3.39916 4.39308 3.62367 3.69502C3.91103 2.79371 4.69231 2.27237 5.65319 2.3519C6.39854 2.41375 7.1439 2.46677 7.88925 2.52862C8.03293 2.53746 8.14069 2.51095 8.24846 2.41375C8.64358 2.0603 9.05667 1.70685 9.46078 1.35339C10.251 0.664163 11.2748 0.655326 12.065 1.34456C12.4781 1.69801 12.8732 2.0603 13.2953 2.40492C13.3761 2.47561 13.5198 2.51979 13.6276 2.51095C14.3729 2.46677 15.1183 2.40492 15.8636 2.34306C16.8874 2.26353 17.6956 2.82906 17.947 3.81872C18.0907 4.40192 18.2344 4.98512 18.3691 5.56831C18.405 5.70969 18.4679 5.80689 18.6026 5.88642C19.2581 6.26638 19.9137 6.65518 20.5692 7.03514C21.0542 7.3179 21.3685 7.73321 21.4852 8.28106C21.4942 8.3164 21.5122 8.36059 21.5211 8.39593C21.5211 8.56382 21.5211 8.72287 21.5211 8.89076C21.4493 9.094 21.3954 9.29723 21.3146 9.49163C21.0721 10.0748 20.8207 10.658 20.5872 11.2501C20.5513 11.3384 20.5513 11.4621 20.5872 11.5593C20.8925 12.3369 21.2068 13.1145 21.5211 13.901C21.5211 14.0777 21.5211 14.2632 21.5211 14.44C21.3685 15.1911 20.8656 15.6505 20.21 16.004C19.6533 16.2956 19.1324 16.6402 18.5846 16.9495C18.4679 17.0202 18.405 17.0997 18.3691 17.2322C18.2254 17.8243 18.0817 18.4075 17.9381 18.9995C17.8572 19.3441 17.7046 19.6622 17.4441 19.9185C16.9592 20.4221 16.3486 20.537 15.6751 20.4663C14.9836 20.4045 14.2921 20.3515 13.6006 20.3073C13.5108 20.2984 13.3941 20.3426 13.3223 20.3956C12.999 20.6607 12.6847 20.9258 12.3793 21.2086C11.9662 21.5885 11.5442 21.9155 10.9964 22.0127ZM10.7449 4.60516C6.91939 4.60516 3.80327 7.66252 3.80327 11.4268C3.80327 15.1822 6.90143 18.2396 10.718 18.2484C14.5346 18.2572 17.6597 15.1999 17.6687 11.4356C17.6776 7.68019 14.5705 4.61399 10.7449 4.60516Z" fill="#73CE39"/>
<path d="M16.4115 11.4263C16.4115 14.5102 13.8611 17.0109 10.727 17.0109C7.61091 17.0021 5.06055 14.5014 5.06055 11.4263C5.06055 8.34247 7.61091 5.8418 10.745 5.8418C13.8701 5.85063 16.4115 8.35131 16.4115 11.4263ZM10.0894 12.4248C10.0266 12.3453 9.98168 12.2835 9.9278 12.2304C9.31715 11.6296 8.69752 11.0199 8.08686 10.419C7.90726 10.2423 7.70072 10.1451 7.44029 10.2069C6.9374 10.3306 6.8027 10.905 7.17987 11.285C7.97012 12.0714 8.76936 12.8578 9.56859 13.6354C9.94576 14.0065 10.278 14.0065 10.6552 13.6266C11.8496 12.4514 13.0439 11.2761 14.2293 10.1097C14.2922 10.0479 14.346 9.99486 14.3999 9.92417C14.6693 9.54421 14.4538 9.0317 13.9868 8.95218C13.7354 8.908 13.5468 9.02287 13.3672 9.19076C12.3435 10.2069 11.3107 11.2143 10.278 12.2304C10.2331 12.2923 10.1792 12.3365 10.0894 12.4248Z" fill="#73CE39"/>
</svg>
