<svg width="30" height="30" viewBox="0 0 30 30" fill="none" xmlns="http://www.w3.org/2000/svg">
<path d="M21.4751 22.5C24.4751 22.5 25.2251 20.8125 25.2251 18.75V11.25C25.2251 9.1875 24.4751 7.5 21.4751 7.5C18.4751 7.5 17.7251 9.1875 17.7251 11.25V18.75C17.7251 20.8125 18.4751 22.5 21.4751 22.5Z" stroke="#030303" stroke-width="1.5" stroke-linecap="round" stroke-linejoin="round"/>
<path d="M8.5249 22.5C5.5249 22.5 4.7749 20.8125 4.7749 18.75V11.25C4.7749 9.1875 5.5249 7.5 8.5249 7.5C11.5249 7.5 12.2749 9.1875 12.2749 11.25V18.75C12.2749 20.8125 11.5249 22.5 8.5249 22.5Z" stroke="#030303" stroke-width="1.5" stroke-linecap="round" stroke-linejoin="round"/>
<path d="M12.2749 15H17.7249" stroke="#030303" stroke-width="1.5" stroke-linecap="round" stroke-linejoin="round"/>
<path d="M28.125 18.125V11.875" stroke="#030303" stroke-width="1.5" stroke-linecap="round" stroke-linejoin="round"/>
<path d="M1.875 18.125V11.875" stroke="#030303" stroke-width="1.5" stroke-linecap="round" stroke-linejoin="round"/>
</svg>
