<svg width="52" height="60" viewBox="0 0 52 60" fill="none" xmlns="http://www.w3.org/2000/svg">
<path d="M41.8917 4.46921C39.9234 2.17292 28.877 -3.36814 22.863 2.86489C16.8489 9.09779 23.2384 13.5014 25.5352 14.5613C27.8316 15.6212 34.3927 17.2404 36.7717 13.0851C37.4063 14.7111 36.9781 28.2357 33.228 31.6745C31.3277 29.8627 28.5848 28.7252 25.5354 28.7252C23.0314 28.7252 20.735 29.4922 18.9413 30.7693C16.5734 26.9688 12.0935 24.4027 6.95227 24.4027C4.48722 24.4027 2.17516 24.9952 0.172771 26.0282V27.357C0.171118 27.3566 0.165649 27.3553 0.165649 27.3553V59.9966C0.165649 59.9966 9.67931 60.4887 10.4403 49.4989C10.4401 49.4983 10.4397 49.4977 10.4397 49.497C12.754 52.8579 20.128 55.4159 24.6718 55.2651C31.8091 55.0284 41.2929 54.7156 49.3268 47.0138C50.0693 46.275 50.6647 45.4026 51.0693 44.4373C51.0693 44.4371 51.0693 44.4371 51.0693 44.4368C54.7861 36.7049 43.8599 6.7655 41.8917 4.46921Z" fill="black" fill-opacity="0.83"/>
</svg>
